999
dxflib 2.0.4.8
  0
SECTION
  2
HEADER
  9
$ACADVER
  1
AC1015
  9
$HANDSEED
  5
FFFF
  9
$DIMASZ
 40
1.0
  9
$GRIDUNIT
 10
0.25
 20
0.25
  9
$DIMADEC
 70
2
  9
$DIMGAP
 40
0.625
  9
$SPLINESEGS
 70
8
  9
$AUPREC
 70
2
  9
$LUNITS
 70
2
  9
$DIMEXO
 40
0.625
  9
$INSUNITS
 70
4
  9
$DIMLUNIT
 70
2
  9
$DIMTXT
 40
2.0
  9
$GRIDMODE
 70
1
  9
$LUPREC
 70
4
  9
$DIMSTYLE
  2
Standard
  9
$PLIMMAX
 10
210.0
 20
297.0
  9
$PLIMMIN
 10
0.0
 20
0.0
  9
$DIMEXE
 40
0.5
  9
$DIMAUNIT
 70
0
  9
$AUNITS
 70
0
  0
ENDSEC
  0
SECTION
  2
TABLES
  0
TABLE
  2
VPORT
  5
8
100
AcDbSymbolTable
 70
1
  0
VPORT
  5
30
100
AcDbSymbolTableRecord
100
AcDbViewportTableRecord
  2
*Active
 70
0
 10
0.0
 20
0.0
 11
1.0
 21
1.0
 12
286.3055555555554861
 22
148.5
 13
0.0
 23
0.0
 14
10.0
 24
10.0
 15
10.0
 25
10.0
 16
0.0
 26
0.0
 36
1.0
 17
0.0
 27
0.0
 37
0.0
 40
297.0
 41
1.92798353909465
 42
50.0
 43
0.0
 44
0.0
 50
0.0
 51
0.0
 71
0
 72
100
 73
1
 74
3
 75
1
 76
1
 77
0
 78
0
281
0
 65
1
110
0.0
120
0.0
130
0.0
111
1.0
121
0.0
131
0.0
112
0.0
122
1.0
132
0.0
 79
0
146
0.0
  0
ENDTAB
  0
TABLE
  2
LTYPE
  5
5
100
AcDbSymbolTable
 70
21
  0
LTYPE
  5
14
100
AcDbSymbolTableRecord
100
AcDbLinetypeTableRecord
  2
ByBlock
 70
0
  3

 72
65
 73
0
 40
0.0
  0
LTYPE
  5
15
100
AcDbSymbolTableRecord
100
AcDbLinetypeTableRecord
  2
ByLayer
 70
0
  3

 72
65
 73
0
 40
0.0
  0
LTYPE
  5
16
100
AcDbSymbolTableRecord
100
AcDbLinetypeTableRecord
  2
CONTINUOUS
 70
0
  3
Solid line
 72
65
 73
0
 40
0.0
  0
LTYPE
  5
31
100
AcDbSymbolTableRecord
100
AcDbLinetypeTableRecord
  2
DOT
 70
0
  3
Dot . . . . . . . . . . . . . . . . . . . . . .
 72
65
 73
2
 40
6.3499999999999996
 49
0.0
 74
0
 49
-6.3499999999999996
 74
0
  0
LTYPE
  5
32
100
AcDbSymbolTableRecord
100
AcDbLinetypeTableRecord
  2
DOT2
 70
0
  3
Dot (.5x) .....................................
 72
65
 73
2
 40
3.1749999999999998
 49
0.0
 74
0
 49
-3.1749999999999998
 74
0
  0
LTYPE
  5
33
100
AcDbSymbolTableRecord
100
AcDbLinetypeTableRecord
  2
DOTX2
 70
0
  3
Dot (2x) .  .  .  .  .  .  .  .  .  .  .  .  .
 72
65
 73
2
 40
12.6999999999999993
 49
0.0
 74
0
 49
-12.6999999999999993
 74
0
  0
LTYPE
  5
34
100
AcDbSymbolTableRecord
100
AcDbLinetypeTableRecord
  2
DASHED
 70
0
  3
Dashed __ __ __ __ __ __ __ __ __ __ __ __ __ _
 72
65
 73
2
 40
19.0500000000000007
 49
12.6999999999999993
 74
0
 49
-6.3499999999999996
 74
0
  0
LTYPE
  5
35
100
AcDbSymbolTableRecord
100
AcDbLinetypeTableRecord
  2
DASHED2
 70
0
  3
Dashed (.5x) _ _ _ _ _ _ _ _ _ _ _ _ _ _ _ _ _
 72
65
 73
2
 40
9.5250000000000004
 49
6.3499999999999996
 74
0
 49
-3.1749999999999998
 74
0
  0
LTYPE
  5
36
100
AcDbSymbolTableRecord
100
AcDbLinetypeTableRecord
  2
DASHEDX2
 70
0
  3
Dashed (2x) ____  ____  ____  ____  ____  ___
 72
65
 73
2
 40
38.1000000000000014
 49
25.3999999999999986
 74
0
 49
-12.6999999999999993
 74
0
  0
LTYPE
  5
37
100
AcDbSymbolTableRecord
100
AcDbLinetypeTableRecord
  2
DASHDOT
 70
0
  3
Dash dot __ . __ . __ . __ . __ . __ . __ . __
 72
65
 73
4
 40
25.3999999999999986
 49
12.6999999999999993
 74
0
 49
-6.3499999999999996
 74
0
 49
0.0
 74
0
 49
-6.3499999999999996
 74
0
  0
LTYPE
  5
38
100
AcDbSymbolTableRecord
100
AcDbLinetypeTableRecord
  2
DASHDOT2
 70
0
  3
Dash dot (.5x) _._._._._._._._._._._._._._._.
 72
65
 73
4
 40
12.6999999999999993
 49
6.3499999999999996
 74
0
 49
-3.1749999999999998
 74
0
 49
0.0
 74
0
 49
-3.1749999999999998
 74
0
  0
LTYPE
  5
39
100
AcDbSymbolTableRecord
100
AcDbLinetypeTableRecord
  2
DASHDOTX2
 70
0
  3
Dash dot (2x) ____  .  ____  .  ____  .  ___
 72
65
 73
4
 40
50.7999999999999972
 49
25.3999999999999986
 74
0
 49
-12.6999999999999993
 74
0
 49
0.0
 74
0
 49
-12.6999999999999993
 74
0
  0
LTYPE
  5
3A
100
AcDbSymbolTableRecord
100
AcDbLinetypeTableRecord
  2
DIVIDE
 70
0
  3
Divide ____ . . ____ . . ____ . . ____ . . ____
 72
65
 73
6
 40
31.75
 49
12.6999999999999993
 74
0
 49
-6.3499999999999996
 74
0
 49
0.0
 74
0
 49
-6.3499999999999996
 74
0
 49
0.0
 74
0
 49
-6.3499999999999996
 74
0
  0
LTYPE
  5
3B
100
AcDbSymbolTableRecord
100
AcDbLinetypeTableRecord
  2
DIVIDE2
 70
0
  3
Divide (.5x) __..__..__..__..__..__..__..__.._
 72
65
 73
6
 40
15.875
 49
6.3499999999999996
 74
0
 49
-3.1749999999999998
 74
0
 49
0.0
 74
0
 49
-3.1749999999999998
 74
0
 49
0.0
 74
0
 49
-3.1749999999999998
 74
0
  0
LTYPE
  5
3C
100
AcDbSymbolTableRecord
100
AcDbLinetypeTableRecord
  2
DIVIDEX2
 70
0
  3
Divide (2x) ________  .  .  ________  .  .  _
 72
65
 73
6
 40
63.5
 49
25.3999999999999986
 74
0
 49
-12.6999999999999993
 74
0
 49
0.0
 74
0
 49
-12.6999999999999993
 74
0
 49
0.0
 74
0
 49
-12.6999999999999993
 74
0
  0
LTYPE
  5
3D
100
AcDbSymbolTableRecord
100
AcDbLinetypeTableRecord
  2
CENTER
 70
0
  3
Center ____ _ ____ _ ____ _ ____ _ ____ _ ____
 72
65
 73
4
 40
50.7999999999999972
 49
31.75
 74
0
 49
-6.3499999999999996
 74
0
 49
6.3499999999999996
 74
0
 49
-6.3499999999999996
 74
0
  0
LTYPE
  5
3E
100
AcDbSymbolTableRecord
100
AcDbLinetypeTableRecord
  2
CENTER2
 70
0
  3
Center (.5x) ___ _ ___ _ ___ _ ___ _ ___ _ ___
 72
65
 73
4
 40
28.5749999999999993
 49
19.0500000000000007
 74
0
 49
-3.1749999999999998
 74
0
 49
3.1749999999999998
 74
0
 49
-3.1749999999999998
 74
0
  0
LTYPE
  5
3F
100
AcDbSymbolTableRecord
100
AcDbLinetypeTableRecord
  2
CENTERX2
 70
0
  3
Center (2x) ________  __  ________  __  _____
 72
65
 73
4
 40
101.5999999999999943
 49
63.5
 74
0
 49
-12.6999999999999993
 74
0
 49
12.6999999999999993
 74
0
 49
-12.6999999999999993
 74
0
  0
LTYPE
  5
40
100
AcDbSymbolTableRecord
100
AcDbLinetypeTableRecord
  2
BORDER
 70
0
  3
Border __ __ . __ __ . __ __ . __ __ . __ __ .
 72
65
 73
6
 40
44.4500000000000028
 49
12.6999999999999993
 74
0
 49
-6.3499999999999996
 74
0
 49
12.6999999999999993
 74
0
 49
-6.3499999999999996
 74
0
 49
0.0
 74
0
 49
-6.3499999999999996
 74
0
  0
LTYPE
  5
41
100
AcDbSymbolTableRecord
100
AcDbLinetypeTableRecord
  2
BORDER2
 70
0
  3
Border (.5x) __.__.__.__.__.__.__.__.__.__.__.
 72
65
 73
6
 40
22.2250000000000014
 49
6.3499999999999996
 74
0
 49
-3.1749999999999998
 74
0
 49
6.3499999999999996
 74
0
 49
-3.1749999999999998
 74
0
 49
0.0
 74
0
 49
-3.1749999999999998
 74
0
  0
LTYPE
  5
42
100
AcDbSymbolTableRecord
100
AcDbLinetypeTableRecord
  2
BORDERX2
 70
0
  3
Border (2x) ____  ____  .  ____  ____  .  ___
 72
65
 73
6
 40
88.9000000000000057
 49
25.3999999999999986
 74
0
 49
-12.6999999999999993
 74
0
 49
25.3999999999999986
 74
0
 49
-12.6999999999999993
 74
0
 49
0.0
 74
0
 49
-12.6999999999999993
 74
0
  0
ENDTAB
  0
TABLE
  2
LAYER
  5
2
100
AcDbSymbolTable
 70
6
  0
LAYER
  5
10
100
AcDbSymbolTableRecord
100
AcDbLayerTableRecord
  2
0
 70
0
 62
7
  6
CONTINUOUS
370
0
390
F
  0
LAYER
  5
43
100
AcDbSymbolTableRecord
100
AcDbLayerTableRecord
  2
outlines
 70
0
 62
7
  6
CONTINUOUS
370
0
390
F
  0
LAYER
  5
44
100
AcDbSymbolTableRecord
100
AcDbLayerTableRecord
  2
hatch
 70
0
 62
7
  6
CONTINUOUS
370
5
390
F
  0
LAYER
  5
45
100
AcDbSymbolTableRecord
100
AcDbLayerTableRecord
  2
Names
 70
0
 62
7
  6
CONTINUOUS
370
0
390
F
  0
LAYER
  5
46
100
AcDbSymbolTableRecord
100
AcDbLayerTableRecord
  2
dimensions
 70
0
 62
7
  6
CONTINUOUS
370
0
390
F
  0
LAYER
  5
47
100
AcDbSymbolTableRecord
100
AcDbLayerTableRecord
  2
centres
 70
0
 62
7
  6
CONTINUOUS
370
0
390
F
  0
ENDTAB
  0
TABLE
  2
STYLE
  5
3
100
AcDbSymbolTable
 70
1
  0
STYLE
  5
11
100
AcDbSymbolTableRecord
100
AcDbTextStyleTableRecord
  2
Standard
 70
0
 40
0.0
 41
0.75
 50
0.0
 71
0
 42
2.5
  3
txt
  4

  0
ENDTAB
  0
TABLE
  2
VIEW
  5
6
100
AcDbSymbolTable
 70
0
  0
ENDTAB
  0
TABLE
  2
UCS
  5
7
100
AcDbSymbolTable
 70
0
  0
ENDTAB
  0
TABLE
  2
APPID
  5
9
100
AcDbSymbolTable
 70
1
  0
APPID
  5
12
100
AcDbSymbolTableRecord
100
AcDbRegAppTableRecord
  2
ACAD
 70
0
  0
ENDTAB
  0
TABLE
  2
DIMSTYLE
  5
A
100
AcDbSymbolTable
 70
1
100
AcDbDimStyleTable
 71
0
  0
DIMSTYLE
105
27
100
AcDbSymbolTableRecord
100
AcDbDimStyleTableRecord
  2
Standard
 41
1.0
 42
0.625
 43
3.75
 44
0.5
 70
0
 73
0
 74
0
 77
1
 78
8
140
2.0
141
2.5
143
0.03937007874016
147
0.625
171
3
172
1
271
2
272
2
274
3
278
44
283
0
284
8
340
11
  0
ENDTAB
  0
TABLE
  2
BLOCK_RECORD
  5
1
100
AcDbSymbolTable
 70
1
  0
BLOCK_RECORD
  5
1F
100
AcDbSymbolTableRecord
100
AcDbBlockTableRecord
  2
*Model_Space
340
22
  0
BLOCK_RECORD
  5
1B
100
AcDbSymbolTableRecord
100
AcDbBlockTableRecord
  2
*Paper_Space
340
1E
  0
BLOCK_RECORD
  5
23
100
AcDbSymbolTableRecord
100
AcDbBlockTableRecord
  2
*Paper_Space0
340
26
  0
ENDTAB
  0
ENDSEC
  0
SECTION
  2
BLOCKS
  0
BLOCK
  5
20
100
AcDbEntity
  8
0
100
AcDbBlockBegin
  2
*Model_Space
 70
0
 10
0.0
 20
0.0
 30
0.0
  3
*Model_Space
  1

  0
ENDBLK
  5
21
100
AcDbEntity
  8
0
100
AcDbBlockEnd
  0
BLOCK
  5
1C
100
AcDbEntity
 67
1
  8
0
100
AcDbBlockBegin
  2
*Paper_Space
 70
0
 10
0.0
 20
0.0
 30
0.0
  3
*Paper_Space
  1

  0
ENDBLK
  5
1D
100
AcDbEntity
 67
1
  8
0
100
AcDbBlockEnd
  0
BLOCK
  5
24
100
AcDbEntity
  8
0
100
AcDbBlockBegin
  2
*Paper_Space0
 70
0
 10
0.0
 20
0.0
 30
0.0
  3
*Paper_Space0
  1

  0
ENDBLK
  5
25
100
AcDbEntity
  8
0
100
AcDbBlockEnd
  0
ENDSEC
  0
SECTION
  2
ENTITIES
  0
HATCH
  5
48
  8
hatch
 62
256
370
9
  6
ByLayer
100
AcDbEntity
100
AcDbHatch
 10
0.0
 20
0.0
 30
0.0
210
0.0
220
0.0
230
1.0
  2
ANSI31
 70
0
 71
0
 91
1
 92
1
 93
13
 72
1
 10
5.0
 20
-5.0
 11
7.5
 21
-5.0
 72
1
 10
7.5
 20
-5.0
 11
7.5
 21
-4.0
 72
1
 10
7.5
 20
-4.0
 11
17.5
 21
-4.0
 72
1
 10
17.5
 20
-4.0
 11
17.5
 21
-3.0
 72
1
 10
17.5
 20
-3.0
 11
17.5
 21
-2.5
 72
1
 10
17.5
 20
-2.5
 11
32.0
 21
-2.5
 72
1
 10
32.0
 20
-2.5
 11
34.25
 21
-0.25
 72
1
 10
34.25
 20
-0.25
 11
32.3571428571428541
 21
-0.25
 72
1
 10
32.3571428571428541
 20
-0.25
 11
31.5
 21
-1.75
 72
1
 10
31.5
 20
-1.75
 11
15.75
 21
-1.75
 72
1
 10
15.75
 20
-1.75
 11
15.0
 21
-3.5
 72
1
 10
15.0
 20
-3.5
 11
5.0
 21
-3.5
 72
1
 10
5.0
 20
-3.5
 11
5.0
 21
-5.0
 97
0
 75
0
 76
1
 52
0.0
 41
1.0
 77
0
 78
1
 53
45.0
 43
0.0
 44
0.0
 45
-0.0883883476483184
 46
0.0883883476483185
 79
0
 98
0
  0
HATCH
  5
49
  8
hatch
 62
256
370
9
  6
ByLayer
100
AcDbEntity
100
AcDbHatch
 10
0.0
 20
0.0
 30
0.0
210
0.0
220
0.0
230
1.0
  2
ANSI31
 70
0
 71
0
 91
1
 92
1
 93
13
 72
1
 10
5.0
 20
5.0
 11
7.5
 21
5.0
 72
1
 10
7.5
 20
5.0
 11
7.5
 21
4.0
 72
1
 10
7.5
 20
4.0
 11
17.5
 21
4.0
 72
1
 10
17.5
 20
4.0
 11
17.5
 21
3.0
 72
1
 10
17.5
 20
3.0
 11
17.5
 21
2.5
 72
1
 10
17.5
 20
2.5
 11
32.0
 21
2.5
 72
1
 10
32.0
 20
2.5
 11
34.25
 21
0.25
 72
1
 10
34.25
 20
0.25
 11
32.3571428571428541
 21
0.25
 72
1
 10
32.3571428571428541
 20
0.2500000000000053
 11
31.5
 21
1.75
 72
1
 10
31.5
 20
1.75
 11
15.75
 21
1.75
 72
1
 10
15.75
 20
1.75
 11
15.0
 21
3.5
 72
1
 10
15.0
 20
3.5
 11
5.0
 21
3.5
 72
1
 10
5.0
 20
3.5
 11
5.0
 21
5.0
 97
0
 75
0
 76
1
 52
0.0
 41
1.0
 77
0
 78
1
 53
45.0
 43
0.0
 44
0.0
 45
-0.0883883476483184
 46
0.0883883476483185
 79
0
 98
0
  0
LINE
  5
4A
100
AcDbEntity
100
AcDbLine
  8
outlines
 62
256
370
13
  6
ByLayer
 10
5.0
 20
-5.0
 30
0.0
 11
7.5
 21
-5.0
 31
0.0
  0
LINE
  5
4B
100
AcDbEntity
100
AcDbLine
  8
outlines
 62
256
370
13
  6
ByLayer
 10
7.5
 20
-5.0
 30
0.0
 11
7.5
 21
-4.0
 31
0.0
  0
LINE
  5
4C
100
AcDbEntity
100
AcDbLine
  8
outlines
 62
256
370
13
  6
ByLayer
 10
5.0
 20
5.0
 30
0.0
 11
7.5
 21
5.0
 31
0.0
  0
LINE
  5
4D
100
AcDbEntity
100
AcDbLine
  8
outlines
 62
256
370
13
  6
ByLayer
 10
7.5
 20
5.0
 30
0.0
 11
7.5
 21
4.0
 31
0.0
  0
LINE
  5
4E
100
AcDbEntity
100
AcDbLine
  8
outlines
 62
256
370
13
  6
ByLayer
 10
5.0
 20
3.5
 30
0.0
 11
15.0
 21
3.5
 31
0.0
  0
LINE
  5
4F
100
AcDbEntity
100
AcDbLine
  8
outlines
 62
256
370
13
  6
ByLayer
 10
15.0
 20
3.5
 30
0.0
 11
15.0
 21
-3.5
 31
0.0
  0
LINE
  5
50
100
AcDbEntity
100
AcDbLine
  8
outlines
 62
256
370
13
  6
ByLayer
 10
15.0
 20
-3.5
 30
0.0
 11
5.0
 21
-3.5
 31
0.0
  0
LINE
  5
51
100
AcDbEntity
100
AcDbLine
  8
outlines
 62
256
370
9
  6
ByLayer
 10
5.0
 20
3.0
 30
0.0
 11
15.0
 21
3.0
 31
0.0
  0
LINE
  5
52
100
AcDbEntity
100
AcDbLine
  8
outlines
 62
256
370
9
  6
ByLayer
 10
5.0
 20
-3.0
 30
0.0
 11
15.0
 21
-3.0
 31
0.0
  0
LINE
  5
53
100
AcDbEntity
100
AcDbLine
  8
outlines
 62
256
370
13
  6
ByLayer
 10
31.5
 20
1.75
 30
0.0
 11
31.5
 21
-1.75
 31
0.0
  0
LINE
  5
54
100
AcDbEntity
100
AcDbLine
  8
outlines
 62
256
370
13
  6
ByLayer
 10
15.75
 20
1.75
 30
0.0
 11
15.75
 21
-1.75
 31
0.0
  0
LINE
  5
55
100
AcDbEntity
100
AcDbLine
  8
outlines
 62
256
370
13
  6
ByLayer
 10
32.3571428571428541
 20
0.25
 30
0.0
 11
32.3571428571428541
 21
-0.25
 31
0.0
  0
LINE
  5
56
100
AcDbEntity
100
AcDbLine
  8
outlines
 62
256
370
13
  6
ByLayer
 10
34.25
 20
0.25
 30
0.0
 11
34.25
 21
-0.25
 31
0.0
  0
LINE
  5
57
100
AcDbEntity
100
AcDbLine
  8
outlines
 62
256
370
13
  6
ByLayer
 10
15.75
 20
1.75
 30
0.0
 11
31.5
 21
1.75
 31
0.0
  0
LINE
  5
58
100
AcDbEntity
100
AcDbLine
  8
outlines
 62
256
370
13
  6
ByLayer
 10
15.0
 20
3.5
 30
0.0
 11
15.75
 21
1.75
 31
0.0
  0
LINE
  5
59
100
AcDbEntity
100
AcDbLine
  8
outlines
 62
256
370
13
  6
ByLayer
 10
15.75
 20
-1.75
 30
0.0
 11
15.0
 21
-3.5
 31
0.0
  0
LINE
  5
5A
100
AcDbEntity
100
AcDbLine
  8
outlines
 62
256
370
13
  6
ByLayer
 10
31.5
 20
-1.75
 30
0.0
 11
15.75
 21
-1.75
 31
0.0
  0
LINE
  5
5B
100
AcDbEntity
100
AcDbLine
  8
outlines
 62
256
370
13
  6
ByLayer
 10
31.5
 20
1.75
 30
0.0
 11
32.3571428571428541
 21
0.2500000000000053
 31
0.0
  0
LINE
  5
5C
100
AcDbEntity
100
AcDbLine
  8
outlines
 62
256
370
13
  6
ByLayer
 10
32.3571428571428541
 20
-0.25
 30
0.0
 11
31.5
 21
-1.75
 31
0.0
  0
LINE
  5
5D
100
AcDbEntity
100
AcDbLine
  8
outlines
 62
256
370
13
  6
ByLayer
 10
32.3571428571428541
 20
0.25
 30
0.0
 11
34.25
 21
0.25
 31
0.0
  0
LINE
  5
5E
100
AcDbEntity
100
AcDbLine
  8
outlines
 62
256
370
13
  6
ByLayer
 10
32.3571428571428541
 20
-0.25
 30
0.0
 11
34.25
 21
-0.25
 31
0.0
  0
LINE
  5
5F
100
AcDbEntity
100
AcDbLine
  8
outlines
 62
256
370
13
  6
ByLayer
 10
5.0
 20
5.0
 30
0.0
 11
5.0
 21
3.5
 31
0.0
  0
LINE
  5
60
100
AcDbEntity
100
AcDbLine
  8
outlines
 62
256
370
13
  6
ByLayer
 10
5.0
 20
3.5
 30
0.0
 11
5.0
 21
-3.0
 31
0.0
  0
LINE
  5
61
100
AcDbEntity
100
AcDbLine
  8
outlines
 62
256
370
13
  6
ByLayer
 10
5.0
 20
-3.0
 30
0.0
 11
5.0
 21
-3.5
 31
0.0
  0
LINE
  5
62
100
AcDbEntity
100
AcDbLine
  8
outlines
 62
256
370
13
  6
ByLayer
 10
5.0
 20
-3.5
 30
0.0
 11
5.0
 21
-5.0
 31
0.0
  0
LINE
  5
63
100
AcDbEntity
100
AcDbLine
  8
outlines
 62
256
370
13
  6
ByLayer
 10
5.0
 20
-5.0
 30
0.0
 11
7.5
 21
-5.0
 31
0.0
  0
LINE
  5
64
100
AcDbEntity
100
AcDbLine
  8
outlines
 62
256
370
13
  6
ByLayer
 10
-10.0
 20
3.5
 30
0.0
 11
-10.0
 21
-3.5
 31
0.0
  0
LINE
  5
65
100
AcDbEntity
100
AcDbLine
  8
outlines
 62
256
370
13
  6
ByLayer
 10
-10.0
 20
-3.5
 30
0.0
 11
-20.0
 21
-3.5
 31
0.0
  0
LINE
  5
66
100
AcDbEntity
100
AcDbLine
  8
outlines
 62
256
370
13
  6
ByLayer
 10
-20.0
 20
-3.5
 30
0.0
 11
-20.0
 21
3.5
 31
0.0
  0
LINE
  5
67
100
AcDbEntity
100
AcDbLine
  8
outlines
 62
256
370
13
  6
ByLayer
 10
-20.0
 20
3.5
 30
0.0
 11
-10.0
 21
3.5
 31
0.0
  0
LINE
  5
68
100
AcDbEntity
100
AcDbLine
  8
outlines
 62
256
370
9
  6
ByLayer
 10
-10.0
 20
3.0
 30
0.0
 11
-20.0
 21
3.0
 31
0.0
  0
LINE
  5
69
100
AcDbEntity
100
AcDbLine
  8
outlines
 62
256
370
9
  6
ByLayer
 10
-10.0
 20
-3.0
 30
0.0
 11
-20.0
 21
-3.0
 31
0.0
  0
LINE
  5
6A
100
AcDbEntity
100
AcDbLine
  8
outlines
 62
256
370
13
  6
ByLayer
 10
-20.0
 20
3.5
 30
0.0
 11
-20.0
 21
7.5
 31
0.0
  0
LINE
  5
6B
100
AcDbEntity
100
AcDbLine
  8
outlines
 62
256
370
13
  6
ByLayer
 10
-20.0
 20
-7.5
 30
0.0
 11
-20.0
 21
-3.5
 31
0.0
  0
LINE
  5
6C
100
AcDbEntity
100
AcDbLine
  8
outlines
 62
256
370
13
  6
ByLayer
 10
-20.0
 20
7.5
 30
0.0
 11
-50.0
 21
7.5000000000000009
 31
0.0
  0
LINE
  5
6D
100
AcDbEntity
100
AcDbLine
  8
outlines
 62
256
370
13
  6
ByLayer
 10
-50.0
 20
-7.5
 30
0.0
 11
-20.0
 21
-7.5
 31
0.0
  0
LINE
  5
6E
100
AcDbEntity
100
AcDbLine
  8
outlines
 62
256
370
13
  6
ByLayer
 10
-50.0
 20
7.5000000000000009
 30
0.0
 11
-50.0
 21
-7.5
 31
0.0
  0
LINE
  5
6F
100
AcDbEntity
100
AcDbLine
  8
outlines
 62
256
370
5
  6
DASHED
 10
-50.0
 20
3.5
 30
0.0
 11
-49.0
 21
1.5
 31
0.0
  0
LINE
  5
70
100
AcDbEntity
100
AcDbLine
  8
outlines
 62
256
370
5
  6
DASHED
 10
-49.0
 20
1.5
 30
0.0
 11
-49.0
 21
-1.5
 31
0.0
  0
LINE
  5
71
100
AcDbEntity
100
AcDbLine
  8
outlines
 62
256
370
5
  6
DASHED
 10
-49.0
 20
-1.5
 30
0.0
 11
-50.0
 21
-3.0
 31
0.0
  0
LINE
  5
72
100
AcDbEntity
100
AcDbLine
  8
outlines
 62
256
370
5
  6
DASHED
 10
-10.0
 20
1.5
 30
0.0
 11
-49.0
 21
1.5
 31
0.0
  0
LINE
  5
73
100
AcDbEntity
100
AcDbLine
  8
outlines
 62
256
370
5
  6
DASHED
 10
-10.0
 20
-1.5
 30
0.0
 11
-49.0
 21
-1.5
 31
0.0
  0
LINE
  5
74
100
AcDbEntity
100
AcDbLine
  8
outlines
 62
256
370
13
  6
ByLayer
 10
100.0
 20
5.0
 30
0.0
 11
100.0
 21
5.0
 31
0.0
  0
LINE
  5
75
100
AcDbEntity
100
AcDbLine
  8
outlines
 62
256
370
13
  6
ByLayer
 10
100.0
 20
20.0
 30
0.0
 11
100.0
 21
-20.0
 31
0.0
  0
LINE
  5
76
100
AcDbEntity
100
AcDbLine
  8
outlines
 62
256
370
13
  6
ByLayer
 10
115.0
 20
-20.0
 30
0.0
 11
115.0
 21
20.0
 31
0.0
  0
LINE
  5
77
100
AcDbEntity
100
AcDbLine
  8
outlines
 62
256
370
13
  6
ByLayer
 10
100.0
 20
20.0
 30
0.0
 11
100.0
 21
21.0
 31
0.0
  0
LINE
  5
78
100
AcDbEntity
100
AcDbLine
  8
outlines
 62
256
370
13
  6
ByLayer
 10
100.0
 20
21.0
 30
0.0
 11
115.0
 21
21.0
 31
0.0
  0
LINE
  5
79
100
AcDbEntity
100
AcDbLine
  8
outlines
 62
256
370
13
  6
ByLayer
 10
115.0
 20
21.0
 30
0.0
 11
115.0
 21
20.0
 31
0.0
  0
LINE
  5
7A
100
AcDbEntity
100
AcDbLine
  8
outlines
 62
256
370
13
  6
ByLayer
 10
100.0
 20
-20.0
 30
0.0
 11
100.0
 21
-21.0
 31
0.0
  0
LINE
  5
7B
100
AcDbEntity
100
AcDbLine
  8
outlines
 62
256
370
13
  6
ByLayer
 10
100.0
 20
-21.0
 30
0.0
 11
115.0
 21
-21.0
 31
0.0
  0
LINE
  5
7C
100
AcDbEntity
100
AcDbLine
  8
outlines
 62
256
370
13
  6
ByLayer
 10
115.0
 20
-21.0
 30
0.0
 11
115.0
 21
-20.0
 31
0.0
  0
LINE
  5
7D
100
AcDbEntity
100
AcDbLine
  8
outlines
 62
256
370
15
  6
ByLayer
 10
64.0
 20
21.0
 30
0.0
 11
74.0
 21
21.0
 31
0.0
  0
LINE
  5
7E
100
AcDbEntity
100
AcDbLine
  8
outlines
 62
256
370
15
  6
ByLayer
 10
74.0
 20
21.0
 30
0.0
 11
74.0
 21
-21.0
 31
0.0
  0
LINE
  5
7F
100
AcDbEntity
100
AcDbLine
  8
outlines
 62
256
370
15
  6
ByLayer
 10
74.0
 20
-21.0
 30
0.0
 11
64.0
 21
-21.0
 31
0.0
  0
LINE
  5
80
100
AcDbEntity
100
AcDbLine
  8
outlines
 62
256
370
15
  6
ByLayer
 10
64.0
 20
-21.0
 30
0.0
 11
64.0
 21
21.0
 31
0.0
  0
LINE
  5
81
100
AcDbEntity
100
AcDbLine
  8
outlines
 62
256
370
15
  6
DASHED
 10
64.0
 20
16.5
 30
0.0
 11
74.0
 21
16.5
 31
0.0
  0
LINE
  5
82
100
AcDbEntity
100
AcDbLine
  8
outlines
 62
256
370
15
  6
DASHED
 10
64.0
 20
13.5
 30
0.0
 11
74.0
 21
13.5
 31
0.0
  0
LINE
  5
83
100
AcDbEntity
100
AcDbLine
  8
outlines
 62
256
370
15
  6
DASHED
 10
64.0
 20
-13.5
 30
0.0
 11
74.0
 21
-13.5
 31
0.0
  0
LINE
  5
84
100
AcDbEntity
100
AcDbLine
  8
outlines
 62
256
370
15
  6
DASHED
 10
64.0
 20
-16.5
 30
0.0
 11
74.0
 21
-16.5
 31
0.0
  0
LINE
  5
85
100
AcDbEntity
100
AcDbLine
  8
outlines
 62
256
370
15
  6
DASHED
 10
64.0
 20
4.0
 30
0.0
 11
66.0
 21
4.0
 31
0.0
  0
LINE
  5
86
100
AcDbEntity
100
AcDbLine
  8
outlines
 62
256
370
15
  6
DASHED
 10
66.75
 20
5.0
 30
0.0
 11
74.0
 21
5.0
 31
0.0
  0
LINE
  5
87
100
AcDbEntity
100
AcDbLine
  8
outlines
 62
256
370
15
  6
DASHED
 10
64.0
 20
-4.0
 30
0.0
 11
66.0
 21
-4.0
 31
0.0
  0
LINE
  5
88
100
AcDbEntity
100
AcDbLine
  8
outlines
 62
256
370
15
  6
DASHED
 10
66.5
 20
-5.0
 30
0.0
 11
74.0
 21
-5.0
 31
0.0
  0
LINE
  5
89
100
AcDbEntity
100
AcDbLine
  8
outlines
 62
256
370
15
  6
DASHED
 10
66.0
 20
-4.0
 30
0.0
 11
66.0
 21
4.25
 31
0.0
  0
LINE
  5
8A
100
AcDbEntity
100
AcDbLine
  8
outlines
 62
256
370
15
  6
DASHED
 10
66.75
 20
-5.0
 30
0.0
 11
66.75
 21
5.0
 31
0.0
  0
CIRCLE
  5
8B
100
AcDbEntity
100
AcDbCircle
  8
hatch
 62
256
370
15
  6
ByLayer
 10
107.5
 20
15.0
 30
0.0
 40
1.5
  0
CIRCLE
  5
8C
100
AcDbEntity
100
AcDbCircle
  8
hatch
 62
256
370
15
  6
ByLayer
 10
107.5
 20
-15.0
 30
0.0
 40
1.5
  0
CIRCLE
  5
8D
100
AcDbEntity
100
AcDbCircle
  8
hatch
 62
256
370
15
  6
ByLayer
 10
107.5
 20
0.0
 30
0.0
 40
4.0
  0
CIRCLE
  5
8E
100
AcDbEntity
100
AcDbCircle
  8
hatch
 62
256
370
15
  6
ByLayer
 10
107.5
 20
0.0
 30
0.0
 40
5.0
  0
LINE
  5
8F
100
AcDbEntity
100
AcDbLine
  8
outlines
 62
256
370
15
  6
DASHED
 10
66.0
 20
4.0
 30
0.0
 11
66.75
 21
5.0
 31
0.0
  0
LINE
  5
90
100
AcDbEntity
100
AcDbLine
  8
outlines
 62
256
370
15
  6
DASHED
 10
66.0
 20
-4.0
 30
0.0
 11
66.5
 21
-5.0
 31
0.0
  0
MTEXT
  5
91
100
AcDbEntity
100
AcDbMText
  8
Names
 62
256
370
18
  6
ByLayer
 10
12.0
 20
10.0
 30
0.0
 40
1.5
 41
100.0
 71
1
 72
2
  1
Brass\~Nozzle
  7
normallatin1
 50
0.0
 73
1
 44
1.0
  0
MTEXT
  5
92
100
AcDbEntity
100
AcDbMText
  8
Names
 62
256
370
18
  6
ByLayer
 10
-44.0057686388264884
 20
13.2920650140736907
 30
0.0
 40
1.5
 41
100.0
 71
1
 72
2
  1
PTFE\~insulator
  7
normallatin1
 50
0.0
 73
1
 44
1.0
  0
MTEXT
  5
93
100
AcDbEntity
100
AcDbMText
  8
Names
 62
256
370
18
  6
CENTER
 10
61.0970386887748447
 20
26.9818899126149638
 30
0.0
 40
1.5
 41
100.0
 71
1
 72
2
  1
PEEK\~block\~(elevation)
  7
normallatin1
 50
0.0
 73
1
 44
1.0
  0
MTEXT
  5
94
100
AcDbEntity
100
AcDbMText
  8
Names
 62
256
370
18
  6
CENTER
 10
96.0970386887748447
 20
26.9818899126149638
 30
0.0
 40
1.5
 41
100.0
 71
1
 72
2
  1
PEEK\~block\~(plan)
  7
normallatin1
 50
0.0
 73
1
 44
1.0
  0
DIMENSION
  5
95
100
AcDbEntity
  8
dimensions
 62
256
370
5
  6
ByLayer
100
AcDbDimension
 10
7.5
 20
-7.8122510688357014
 30
0.0
 11
6.25
 21
-6.1872510688357014
 31
0.0
 70
0
 71
5
 72
1
 41
1.0
 42
0.0
  1

  3
Standard
100
AcDbAlignedDimension
 13
5.0
 23
-5.0
 33
0.0
 14
7.5
 24
-5.0
 34
0.0
 50
0.0
100
AcDbRotatedDimension
  0
DIMENSION
  5
96
100
AcDbEntity
  8
dimensions
 62
256
370
5
  6
ByLayer
100
AcDbDimension
 10
15.0
 20
-9.2432079477808564
 30
0.0
 11
10.0
 21
-7.6182079477808564
 31
0.0
 70
0
 71
5
 72
1
 41
1.0
 42
0.0
  1

  3
Standard
100
AcDbAlignedDimension
 13
5.0
 23
-5.0
 33
0.0
 14
15.0
 24
-3.5
 34
0.0
 50
0.0
100
AcDbRotatedDimension
  0
DIMENSION
  5
97
100
AcDbEntity
  8
dimensions
 62
256
370
5
  6
ByLayer
100
AcDbDimension
 10
3.2486588603079154
 20
5.0
 30
0.0
 11
1.6236588603079154
 21
0.0000000000000002
 31
0.0
 70
0
 71
5
 72
1
 41
1.0
 42
0.0
  1

  3
Standard
100
AcDbAlignedDimension
 13
5.0
 23
-5.0
 33
0.0
 14
5.0
 24
5.0
 34
0.0
 50
90.0
100
AcDbRotatedDimension
  0
LEADER
  5
98
  8
dimensions
 62
256
370
5
  6
ByLayer
100
AcDbEntity
100
AcDbLeader
  3
Standard
 71
1
 72
0
 73
3
 74
0
 75
0
 40
1.0
 41
10.0
 76
4
 10
6.8163824301103588
 20
2.9972745437364701
 10
0.4350882402198101
 20
-4.9310000558245148
 10
0.4350882402198101
 20
-4.9310000558245148
 10
0.4350882402198101
 20
-4.9310000558245148
  0
LEADER
  5
99
  8
dimensions
 62
256
370
5
  6
ByLayer
100
AcDbEntity
100
AcDbLeader
  3
Standard
 71
1
 72
0
 73
3
 74
0
 75
0
 40
1.0
 41
10.0
 76
3
 10
23.3013924206609424
 20
1.7403529608792405
 10
35.0004317687936179
 20
-8.0733040129675882
 10
35.0004317687936179
 20
-8.0733040129675882
  0
MTEXT
  5
9A
100
AcDbEntity
100
AcDbMText
  8
dimensions
 62
256
370
5
  6
ByLayer
 10
-3.6257353351650847
 20
-4.9310000558245148
 30
0.0
 40
1.0
 41
100.0
 71
1
 72
2
  1
D&T\~M7
  7
normallatin1
 50
0.0
 73
1
 44
1.0
  0
LEADER
  5
9B
  8
dimensions
 62
256
370
5
  6
ByLayer
100
AcDbEntity
100
AcDbLeader
  3
Standard
 71
1
 72
0
 73
3
 74
0
 75
0
 40
1.0
 41
10.0
 76
2
 10
32.0031572250571443
 20
2.5138431657144586
 10
35.1938043200024211
 20
6.5263236032971523
  0
LEADER
  5
9C
  8
dimensions
 62
256
370
5
  6
ByLayer
100
AcDbEntity
100
AcDbLeader
  3
Standard
 71
1
 72
0
 73
3
 74
0
 75
0
 40
1.0
 41
10.0
 76
2
 10
34.2752847017605973
 20
0.1450294134066034
 10
39.8830886868159311
 20
2.0787549254946485
  0
MTEXT
  5
9D
100
AcDbEntity
100
AcDbMText
  8
dimensions
 62
256
370
5
  6
ByLayer
 10
31.7614415360461422
 20
7.73490204835218
 30
0.0
 40
1.0
 41
100.0
 71
1
 72
2
  1
45\~deg\~cone
  7
normallatin1
 50
0.0
 73
1
 44
1.0
  0
MTEXT
  5
9E
100
AcDbEntity
100
AcDbMText
  8
dimensions
 62
256
370
5
  6
ByLayer
 10
39.1579416197829104
 20
3.2873333705496766
 30
0.0
 40
1.0
 41
100.0
 71
1
 72
2
  1
nozzle\~0.5\~dia.
  7
normallatin1
 50
0.0
 73
1
 44
1.0
  0
LEADER
  5
9F
  8
dimensions
 62
256
370
5
  6
ByLayer
100
AcDbEntity
100
AcDbLeader
  3
Standard
 71
1
 72
0
 73
3
 74
0
 75
0
 40
1.0
 41
10.0
 76
2
 10
33.3159813264409621
 20
-0.2396833188952587
 10
37.9658377130089804
 20
-5.9441463086024156
  0
MTEXT
  5
A0
100
AcDbEntity
100
AcDbMText
  8
dimensions
 62
256
370
5
  6
ByLayer
 10
38.0617110405670829
 20
-5.081286360579484
 30
0.0
 40
1.0
 41
100.0
 71
1
 72
2
  1
short\~as\Ppossible
  7
normallatin1
 50
0.0
 73
1
 44
1.0
  0
MTEXT
  5
A1
100
AcDbEntity
100
AcDbMText
  8
dimensions
 62
256
370
5
  6
ByLayer
 10
32.109598877217131
 20
-7.9282745995609849
 30
0.0
 40
1.0
 41
100.0
 71
1
 72
2
  1
3.5\~dia.
  7
normallatin1
 50
0.0
 73
1
 44
1.0
  0
DIMENSION
  5
A2
100
AcDbEntity
  8
dimensions
 62
256
370
5
  6
ByLayer
100
AcDbDimension
 10
-20.0
 20
-10.0
 30
0.0
 11
-35.0
 21
-8.375
 31
0.0
 70
0
 71
5
 72
1
 41
1.0
 42
0.0
  1

  3
Standard
100
AcDbAlignedDimension
 13
-50.0
 23
-7.5
 33
0.0
 14
-20.0
 24
-7.5
 34
0.0
 50
0.0
100
AcDbRotatedDimension
  0
DIMENSION
  5
A3
100
AcDbEntity
  8
dimensions
 62
256
370
5
  6
ByLayer
100
AcDbDimension
 10
-10.0
 20
-12.5
 30
0.0
 11
-30.0
 21
-10.875
 31
0.0
 70
0
 71
5
 72
1
 41
1.0
 42
0.0
  1

  3
Standard
100
AcDbAlignedDimension
 13
-50.0
 23
-7.5
 33
0.0
 14
-10.0
 24
-3.5
 34
0.0
 50
0.0
100
AcDbRotatedDimension
  0
DIMENSION
  5
A4
100
AcDbEntity
  8
dimensions
 62
256
370
5
  6
ByLayer
100
AcDbDimension
 10
-54.0
 20
-7.4999999999999991
 30
0.0
 11
-55.625
 21
0.0000000000000006
 31
0.0
 70
0
 71
5
 72
1
 41
1.0
 42
0.0
  1

  3
Standard
100
AcDbAlignedDimension
 13
-50.0
 23
7.5
 33
0.0
 14
-50.0
 24
-7.5
 34
0.0
 50
90.0
100
AcDbRotatedDimension
  0
LEADER
  5
A5
  8
dimensions
 62
256
370
5
  6
ByLayer
100
AcDbEntity
100
AcDbLeader
  3
Standard
 71
1
 72
0
 73
3
 74
0
 75
0
 40
1.0
 41
10.0
 76
3
 10
-18.5
 20
-3.5
 10
-16.0
 20
-6.5
 10
-16.0
 20
-6.5
  0
MTEXT
  5
A6
100
AcDbEntity
100
AcDbMText
  8
dimensions
 62
256
370
5
  6
ByLayer
 10
-16.5
 20
-7.0
 30
0.0
 40
1.0
 41
100.0
 71
1
 72
2
  1
M7
  7
normallatin1
 50
0.0
 73
1
 44
1.0
  0
MTEXT
  5
A7
100
AcDbEntity
100
AcDbMText
  8
dimensions
 62
256
370
5
  6
ByLayer
 10
-20.5
 20
10.5
 30
0.0
 40
1.0
 41
100.0
 71
1
 72
2
  1
3.5\~dia.
  7
normallatin1
 50
0.0
 73
1
 44
1.0
  0
LEADER
  5
A8
  8
dimensions
 62
256
370
5
  6
ByLayer
100
AcDbEntity
100
AcDbLeader
  3
Standard
 71
1
 72
0
 73
3
 74
0
 75
0
 40
1.0
 41
10.0
 76
4
 10
-30.5
 20
1.5
 10
-18.5
 20
9.5
 10
-18.5
 20
9.5
 10
-18.5
 20
9.5
  0
MTEXT
  5
A9
100
AcDbEntity
100
AcDbMText
  8
dimensions
 62
256
370
5
  6
ByLayer
 10
-64.5
 20
6.5
 30
0.0
 40
1.0
 41
100.0
 71
1
 72
2
  1
dish\~end\~with\Plarge\~drill
  7
normallatin1
 50
0.0
 73
1
 44
1.0
  0
LEADER
  5
AA
  8
dimensions
 62
256
370
5
  6
ByLayer
100
AcDbEntity
100
AcDbLeader
  3
Standard
 71
1
 72
0
 73
3
 74
0
 75
0
 40
1.0
 41
10.0
 76
3
 10
-49.5
 20
-2.0
 10
-57.0
 20
5.0
 10
-57.0
 20
5.0
  0
DIMENSION
  5
AB
100
AcDbEntity
  8
dimensions
 62
256
370
-1
  6
ByLayer
100
AcDbDimension
 10
74.0
 20
-26.25
 30
0.0
 11
69.0
 21
-24.625
 31
0.0
 70
0
 71
5
 72
0
 41
1.0
 42
0.0
  1

  3
Standard
100
AcDbAlignedDimension
 13
64.0
 23
-21.0
 33
0.0
 14
74.0
 24
-21.0
 34
0.0
 50
0.0
100
AcDbRotatedDimension
  0
MTEXT
  5
AC
100
AcDbEntity
100
AcDbMText
  8
dimensions
 62
256
370
-1
  6
ByLayer
 10
79.25
 20
1.5
 30
0.0
 40
1.5
 41
100.0
 71
1
 72
2
  1
10\~mm\~dia
  7
normallatin1
 50
0.0
 73
0
 44
1.0
  0
MTEXT
  5
AD
100
AcDbEntity
100
AcDbMText
  8
dimensions
 62
256
370
-1
  6
ByLayer
 10
54.25
 20
0.75
 30
0.0
 40
1.5
 41
100.0
 71
1
 72
2
  1
8\~mm\~dia
  7
normallatin1
 50
0.0
 73
0
 44
1.0
  0
DIMENSION
  5
AE
100
AcDbEntity
  8
dimensions
 62
256
370
5
  6
ByLayer
100
AcDbDimension
 10
97.2523193879678161
 20
15.0000000000000018
 30
0.0
 11
95.6273193879678161
 21
7.4999999999999991
 31
0.0
 70
0
 71
5
 72
0
 41
1.0
 42
0.0
  1

  3
Standard
100
AcDbAlignedDimension
 13
100.0
 23
0.0
 33
0.0
 14
105.0
 24
15.0
 34
0.0
 50
90.0
100
AcDbRotatedDimension
  0
DIMENSION
  5
AF
100
AcDbEntity
  8
dimensions
 62
256
370
5
  6
ByLayer
100
AcDbDimension
 10
94.5678137085006938
 20
21.0
 30
0.0
 11
92.9428137085006938
 21
10.5
 31
0.0
 70
0
 71
5
 72
0
 41
1.0
 42
0.0
  1

  3
Standard
100
AcDbAlignedDimension
 13
100.0
 23
0.0
 33
0.0
 14
100.0
 24
21.0
 34
0.0
 50
90.0
100
AcDbRotatedDimension
  0
DIMENSION
  5
B0
100
AcDbEntity
  8
dimensions
 62
256
370
5
  6
ByLayer
100
AcDbDimension
 10
115.0
 20
-26.2349418675195487
 30
0.0
 11
107.5
 21
-24.6099418675195487
 31
0.0
 70
0
 71
5
 72
0
 41
1.0
 42
0.0
  1

  3
Standard
100
AcDbAlignedDimension
 13
100.0
 23
-20.0
 33
0.0
 14
115.0
 24
-20.0
 34
0.0
 50
0.0
100
AcDbRotatedDimension
  0
LEADER
  5
B1
  8
dimensions
 62
256
370
-1
  6
ByLayer
100
AcDbEntity
100
AcDbLeader
  3
Standard
 71
1
 72
0
 73
3
 74
0
 75
0
 40
1.0
 41
10.0
 76
3
 10
70.0
 20
-5.0
 10
72.5
 20
-0.5
 10
89.25
 20
-0.5
  0
LEADER
  5
B2
  8
dimensions
 62
256
370
-1
  6
ByLayer
100
AcDbEntity
100
AcDbLeader
  3
Standard
 71
1
 72
0
 73
3
 74
0
 75
0
 40
1.0
 41
10.0
 76
3
 10
65.0
 20
-4.0
 10
62.75
 20
-1.25
 10
54.25
 20
-1.25
  0
MTEXT
  5
B3
100
AcDbEntity
100
AcDbMText
  8
dimensions
 62
256
370
-1
  6
ByLayer
 10
75.3498134328358162
 20
-1.1721082089552237
 30
0.0
 40
1.5
 41
100.0
 71
1
 72
2
  1
drill\~7\~mm\~deep
  7
normallatin1
 50
0.0
 73
1
 44
1.0
  0
LINE
  5
B4
100
AcDbEntity
100
AcDbLine
  8
centres
 62
256
370
5
  6
CENTER
 10
4.0
 20
0.0
 30
0.0
 11
35.0
 21
0.0
 31
0.0
  0
LINE
  5
B5
100
AcDbEntity
100
AcDbLine
  8
centres
 62
256
370
5
  6
CENTER
 10
-53.0
 20
0.0
 30
0.0
 11
-7.0
 21
0.0
 31
0.0
  0
LINE
  5
B6
100
AcDbEntity
100
AcDbLine
  8
centres
 62
256
370
5
  6
CENTER
 10
105.0
 20
-15.0
 30
0.0
 11
112.0
 21
-15.0
 31
0.0
  0
LINE
  5
B7
100
AcDbEntity
100
AcDbLine
  8
centres
 62
256
370
5
  6
CENTER
 10
106.0
 20
15.0
 30
0.0
 11
112.0
 21
15.0
 31
0.0
  0
LINE
  5
B8
100
AcDbEntity
100
AcDbLine
  8
centres
 62
256
370
5
  6
CENTER
 10
107.5
 20
25.0
 30
0.0
 11
107.5
 21
-23.0
 31
0.0
  0
LINE
  5
B9
100
AcDbEntity
100
AcDbLine
  8
centres
 62
256
370
5
  6
CENTER
 10
97.0
 20
0.0
 30
0.0
 11
114.0
 21
0.0
 31
0.0
  0
LINE
  5
BA
100
AcDbEntity
100
AcDbLine
  8
centres
 62
256
370
5
  6
CENTER
 10
62.0
 20
0.0
 30
0.0
 11
79.0
 21
0.0
 31
0.0
  0
LINE
  5
BB
100
AcDbEntity
100
AcDbLine
  8
centres
 62
256
370
5
  6
CENTER
 10
62.0
 20
15.0
 30
0.0
 11
79.0
 21
15.0
 31
0.0
  0
LINE
  5
BC
100
AcDbEntity
100
AcDbLine
  8
centres
 62
256
370
5
  6
CENTER
 10
62.0
 20
-15.0
 30
0.0
 11
79.0
 21
-15.0
 31
0.0
  0
MTEXT
  5
BD
100
AcDbEntity
100
AcDbMText
  8
dimensions
 62
256
370
-1
  6
ByLayer
 10
77.0
 20
22.0
 30
0.0
 40
1.5
 41
100.0
 71
1
 72
2
  1
3\~mm\~dia
  7
normallatin1
 50
0.0
 73
0
 44
1.0
  0
MTEXT
  5
BE
100
AcDbEntity
100
AcDbMText
  8
dimensions
 62
256
370
-1
  6
ByLayer
 10
76.25
 20
-18.25
 30
0.0
 40
1.5
 41
100.0
 71
1
 72
2
  1
3\~mm\~dia
  7
normallatin1
 50
0.0
 73
0
 44
1.0
  0
LEADER
  5
BF
  8
dimensions
 62
256
370
-1
  6
ByLayer
100
AcDbEntity
100
AcDbLeader
  3
Standard
 71
1
 72
0
 73
3
 74
0
 75
0
 40
1.0
 41
10.0
 76
3
 10
70.9135802469135825
 20
-16.5351377018043664
 10
75.857075023741686
 20
-20.7967711301044638
 10
85.9145299145299077
 20
-20.7967711301044638
  0
LEADER
  5
C0
  8
dimensions
 62
256
370
-1
  6
ByLayer
100
AcDbEntity
100
AcDbLeader
  3
Standard
 71
1
 72
0
 73
3
 74
0
 75
0
 40
1.0
 41
10.0
 76
3
 10
70.2317188983855658
 20
16.5351377018043664
 10
76.1980056980057014
 20
19.7739791073124387
 10
86.7668566001899251
 20
19.7739791073124387
  0
LINE
  5
C1
100
AcDbEntity
100
AcDbLine
  8
outlines
 62
256
370
15
  6
ByLayer
 10
17.5
 20
3.0
 30
0.0
 11
31.5
 21
3.0
 31
0.0
  0
LINE
  5
C2
100
AcDbEntity
100
AcDbLine
  8
outlines
 62
256
370
15
  6
ByLayer
 10
17.5
 20
4.0
 30
0.0
 11
17.5
 21
3.0
 31
0.0
  0
LINE
  5
C3
100
AcDbEntity
100
AcDbLine
  8
outlines
 62
256
370
13
  6
ByLayer
 10
7.5
 20
4.0
 30
0.0
 11
17.5
 21
4.0
 31
0.0
  0
LINE
  5
C4
100
AcDbEntity
100
AcDbLine
  8
outlines
 62
256
370
15
  6
ByLayer
 10
17.5
 20
-3.0
 30
0.0
 11
31.5
 21
-3.0
 31
0.0
  0
LINE
  5
C5
100
AcDbEntity
100
AcDbLine
  8
outlines
 62
256
370
15
  6
ByLayer
 10
17.5
 20
-4.0
 30
0.0
 11
17.5
 21
-3.0
 31
0.0
  0
LINE
  5
C6
100
AcDbEntity
100
AcDbLine
  8
outlines
 62
256
370
13
  6
ByLayer
 10
7.5
 20
-4.0
 30
0.0
 11
17.5
 21
-4.0
 31
0.0
  0
LINE
  5
C7
100
AcDbEntity
100
AcDbLine
  8
outlines
 62
256
370
9
  6
ByLayer
 10
17.5
 20
3.0
 30
0.0
 11
17.5
 21
2.5
 31
0.0
  0
LINE
  5
C8
100
AcDbEntity
100
AcDbLine
  8
outlines
 62
256
370
9
  6
ByLayer
 10
17.5
 20
2.5
 30
0.0
 11
32.0
 21
2.5
 31
0.0
  0
LINE
  5
C9
100
AcDbEntity
100
AcDbLine
  8
outlines
 62
256
370
9
  6
ByLayer
 10
17.5
 20
-3.0
 30
0.0
 11
17.5
 21
-2.5
 31
0.0
  0
LINE
  5
CA
100
AcDbEntity
100
AcDbLine
  8
outlines
 62
256
370
9
  6
ByLayer
 10
17.5
 20
-2.5
 30
0.0
 11
32.0
 21
-2.5
 31
0.0
  0
LINE
  5
CB
100
AcDbEntity
100
AcDbLine
  8
outlines
 62
256
370
13
  6
ByLayer
 10
31.5
 20
3.0
 30
0.0
 11
32.0
 21
2.5
 31
0.0
  0
LINE
  5
CC
100
AcDbEntity
100
AcDbLine
  8
outlines
 62
256
370
13
  6
ByLayer
 10
32.0
 20
2.5
 30
0.0
 11
34.25
 21
0.25
 31
0.0
  0
LINE
  5
CD
100
AcDbEntity
100
AcDbLine
  8
outlines
 62
256
370
13
  6
ByLayer
 10
34.25
 20
-0.25
 30
0.0
 11
32.0
 21
-2.5
 31
0.0
  0
LINE
  5
CE
100
AcDbEntity
100
AcDbLine
  8
outlines
 62
256
370
13
  6
ByLayer
 10
32.0
 20
-2.5
 30
0.0
 11
31.5
 21
-3.0
 31
0.0
  0
MTEXT
  5
CF
100
AcDbEntity
100
AcDbMText
  8
Names
 62
256
370
5
  6
ByLayer
 10
25.25
 20
6.75
 30
0.0
 40
1.0
 41
100.0
 71
1
 72
0
  1
M6
  7
normallatin1
 50
0.0
 73
1
 44
1.0
  0
LEADER
  5
D0
  8
Names
 62
256
370
5
  6
ByLayer
100
AcDbEntity
100
AcDbLeader
  3
Standard
 71
1
 72
0
 73
3
 74
0
 75
0
 40
1.0
 41
10.0
 76
4
 10
24.0
 20
3.0
 10
25.75
 20
5.5
 10
25.75
 20
5.5
 10
25.75
 20
5.5
  0
DIMENSION
  5
D1
100
AcDbEntity
  8
dimensions
 62
256
370
5
  6
ByLayer
100
AcDbDimension
 10
17.5
 20
-12.0
 30
0.0
 11
11.25
 21
-10.375
 31
0.0
 70
0
 71
5
 72
1
 41
1.0
 42
0.0
  1

  3
Standard
100
AcDbAlignedDimension
 13
5.0
 23
-5.0
 33
0.0
 14
17.5
 24
-4.0
 34
0.0
 50
0.0
100
AcDbRotatedDimension
  0
DIMENSION
  5
D2
100
AcDbEntity
  8
dimensions
 62
256
370
5
  6
ByLayer
100
AcDbDimension
 10
31.5
 20
-14.75
 30
0.0
 11
18.25
 21
-13.125
 31
0.0
 70
0
 71
5
 72
1
 41
1.0
 42
0.0
  1

  3
Standard
100
AcDbAlignedDimension
 13
5.0
 23
-5.0
 33
0.0
 14
31.5
 24
-3.0
 34
0.0
 50
0.0
100
AcDbRotatedDimension
  0
LINE
  5
D3
100
AcDbEntity
100
AcDbLine
  8
outlines
 62
256
370
15
  6
ByLayer
 10
135.0
 20
13.0
 30
0.0
 11
145.0
 21
13.0
 31
0.0
  0
LINE
  5
D4
100
AcDbEntity
100
AcDbLine
  8
outlines
 62
256
370
15
  6
ByLayer
 10
145.0
 20
13.0
 30
0.0
 11
145.0
 21
-5.0
 31
0.0
  0
LINE
  5
D5
100
AcDbEntity
100
AcDbLine
  8
outlines
 62
256
370
15
  6
ByLayer
 10
135.0
 20
-5.0
 30
0.0
 11
135.0
 21
13.0
 31
0.0
  0
LINE
  5
D6
100
AcDbEntity
100
AcDbLine
  8
outlines
 62
256
370
15
  6
ByLayer
 10
145.0
 20
-5.0
 30
0.0
 11
135.0
 21
-5.0
 31
0.0
  0
CIRCLE
  5
D7
100
AcDbEntity
100
AcDbCircle
  8
outlines
 62
256
370
15
  6
ByLayer
 10
140.0
 20
9.0
 30
0.0
 40
2.5124689052802225
  0
LINE
  5
D8
100
AcDbEntity
100
AcDbLine
  8
outlines
 62
256
370
15
  6
ByLayer
 10
155.0
 20
-5.0
 30
0.0
 11
155.0
 21
13.0
 31
0.0
  0
CIRCLE
  5
D9
100
AcDbEntity
100
AcDbCircle
  8
outlines
 62
256
370
15
  6
ByLayer
 10
162.5
 20
0.0
 30
0.0
 40
3.25
  0
ARC
  5
DA
100
AcDbEntity
  8
outlines
 62
256
370
9
  6
ByLayer
100
AcDbCircle
 10
162.5
 20
0.0
 30
0.0
 40
2.7613402542968153
100
AcDbArc
 50
147.9946167919165134
 51
49.3987053549955348
  0
LINE
  5
DB
100
AcDbEntity
100
AcDbLine
  8
outlines
 62
256
370
5
  6
DASHED
 10
157.0
 20
-5.0
 30
0.0
 11
157.0
 21
-1.25
 31
0.0
  0
LINE
  5
DC
100
AcDbEntity
100
AcDbLine
  8
outlines
 62
256
370
5
  6
DASHED
 10
157.0
 20
-1.25
 30
0.0
 11
157.75
 21
-0.5
 31
0.0
  0
LINE
  5
DD
100
AcDbEntity
100
AcDbLine
  8
outlines
 62
256
370
5
  6
DASHED
 10
157.75
 20
-0.5
 30
0.0
 11
158.5
 21
-1.25
 31
0.0
  0
LINE
  5
DE
100
AcDbEntity
100
AcDbLine
  8
outlines
 62
256
370
5
  6
DASHED
 10
158.5
 20
-1.25
 30
0.0
 11
158.5
 21
-5.0
 31
0.0
  0
LINE
  5
DF
100
AcDbEntity
100
AcDbLine
  8
outlines
 62
256
370
5
  6
DASHED
 10
158.5
 20
-1.25
 30
0.0
 11
157.0
 21
-1.25
 31
0.0
  0
LINE
  5
E0
100
AcDbEntity
100
AcDbLine
  8
outlines
 62
256
370
5
  6
DASHED
 10
144.0
 20
-5.0
 30
0.0
 11
144.0
 21
-1.25
 31
0.0
  0
LINE
  5
E1
100
AcDbEntity
100
AcDbLine
  8
outlines
 62
256
370
5
  6
DASHED
 10
144.0
 20
-1.25
 30
0.0
 11
143.25
 21
-0.5
 31
0.0
  0
LINE
  5
E2
100
AcDbEntity
100
AcDbLine
  8
outlines
 62
256
370
5
  6
DASHED
 10
143.25
 20
-0.5
 30
0.0
 11
142.5
 21
-1.25
 31
0.0
  0
LINE
  5
E3
100
AcDbEntity
100
AcDbLine
  8
outlines
 62
256
370
5
  6
DASHED
 10
142.5
 20
-1.25
 30
0.0
 11
142.5
 21
-5.0
 31
0.0
  0
LINE
  5
E4
100
AcDbEntity
100
AcDbLine
  8
outlines
 62
256
370
5
  6
DASHED
 10
144.0
 20
-1.25
 30
0.0
 11
142.5
 21
-1.25
 31
0.0
  0
LINE
  5
E5
100
AcDbEntity
100
AcDbLine
  8
centres
 62
256
370
5
  6
DASHDOTX2
 10
132.5
 20
0.0
 30
0.0
 11
147.75
 21
0.0
 31
0.0
  0
LINE
  5
E6
100
AcDbEntity
100
AcDbLine
  8
centres
 62
256
370
5
  6
DASHDOTX2
 10
156.75
 20
0.0
 30
0.0
 11
167.0
 21
0.0
 31
0.0
  0
LINE
  5
E7
100
AcDbEntity
100
AcDbLine
  8
centres
 62
256
370
5
  6
DASHDOTX2
 10
162.5
 20
4.25
 30
0.0
 11
162.5
 21
-4.25
 31
0.0
  0
LINE
  5
E8
100
AcDbEntity
100
AcDbLine
  8
centres
 62
256
370
5
  6
DASHDOTX2
 10
135.75
 20
9.0
 30
0.0
 11
143.75
 21
9.0
 31
0.0
  0
LINE
  5
E9
100
AcDbEntity
100
AcDbLine
  8
centres
 62
256
370
5
  6
DASHDOTX2
 10
140.0
 20
12.5
 30
0.0
 11
140.0
 21
5.5
 31
0.0
  0
LINE
  5
EA
100
AcDbEntity
100
AcDbLine
  8
centres
 62
256
370
5
  6
DASHDOTX2
 10
157.75
 20
0.75
 30
0.0
 11
157.75
 21
-6.25
 31
0.0
  0
LINE
  5
EB
100
AcDbEntity
100
AcDbLine
  8
centres
 62
256
370
5
  6
DASHDOTX2
 10
143.25
 20
0.75
 30
0.0
 11
143.25
 21
-6.5
 31
0.0
  0
DIMENSION
  5
EC
100
AcDbEntity
  8
dimensions
 62
256
370
5
  6
ByLayer
100
AcDbDimension
 10
140.0
 20
-9.5
 30
0.0
 11
137.5
 21
-7.875
 31
0.0
 70
0
 71
5
 72
1
 41
1.0
 42
0.0
  1

  3
Standard
100
AcDbAlignedDimension
 13
135.0
 23
-5.0
 33
0.0
 14
140.0
 24
9.0
 34
0.0
 50
0.0
100
AcDbRotatedDimension
  0
DIMENSION
  5
ED
100
AcDbEntity
  8
dimensions
 62
256
370
5
  6
ByLayer
100
AcDbDimension
 10
143.25
 20
-13.25
 30
0.0
 11
139.125
 21
-11.625
 31
0.0
 70
0
 71
5
 72
1
 41
1.0
 42
0.0
  1

  3
Standard
100
AcDbAlignedDimension
 13
135.0
 23
-5.0
 33
0.0
 14
143.25
 24
-5.0
 34
0.0
 50
0.0
100
AcDbRotatedDimension
  0
DIMENSION
  5
EE
100
AcDbEntity
  8
dimensions
 62
256
370
5
  6
ByLayer
100
AcDbDimension
 10
145.0
 20
-16.25
 30
0.0
 11
140.0
 21
-14.625
 31
0.0
 70
0
 71
5
 72
1
 41
1.0
 42
0.0
  1

  3
Standard
100
AcDbAlignedDimension
 13
135.0
 23
-5.0
 33
0.0
 14
145.0
 24
-5.0
 34
0.0
 50
0.0
100
AcDbRotatedDimension
  0
DIMENSION
  5
EF
100
AcDbEntity
  8
dimensions
 62
256
370
5
  6
ByLayer
100
AcDbDimension
 10
157.75
 20
-9.25
 30
0.0
 11
156.375
 21
-7.625
 31
0.0
 70
0
 71
5
 72
1
 41
1.0
 42
0.0
  1

  3
Standard
100
AcDbAlignedDimension
 13
155.0
 23
-5.0
 33
0.0
 14
157.75
 24
-5.0
 34
0.0
 50
0.0
100
AcDbRotatedDimension
  0
DIMENSION
  5
F0
100
AcDbEntity
  8
dimensions
 62
256
370
5
  6
ByLayer
100
AcDbDimension
 10
162.5
 20
-12.5
 30
0.0
 11
158.75
 21
-10.875
 31
0.0
 70
0
 71
5
 72
1
 41
1.0
 42
0.0
  1

  3
Standard
100
AcDbAlignedDimension
 13
155.0
 23
-5.0
 33
0.0
 14
162.5
 24
-4.0
 34
0.0
 50
0.0
100
AcDbRotatedDimension
  0
LINE
  5
F1
100
AcDbEntity
100
AcDbLine
  8
outlines
 62
256
370
15
  6
ByLayer
 10
170.0
 20
-5.0
 30
0.0
 11
170.0
 21
13.0
 31
0.0
  0
DIMENSION
  5
F2
100
AcDbEntity
  8
dimensions
 62
256
370
5
  6
ByLayer
100
AcDbDimension
 10
170.0
 20
-16.25
 30
0.0
 11
162.5
 21
-14.625
 31
0.0
 70
0
 71
5
 72
1
 41
1.0
 42
0.0
  1

  3
Standard
100
AcDbAlignedDimension
 13
155.0
 23
-5.0
 33
0.0
 14
170.0
 24
-5.0
 34
0.0
 50
0.0
100
AcDbRotatedDimension
  0
LINE
  5
F3
100
AcDbEntity
100
AcDbLine
  8
outlines
 62
256
370
15
  6
ByLayer
 10
155.0
 20
13.0
 30
0.0
 11
170.0
 21
13.0
 31
0.0
  0
LINE
  5
F4
100
AcDbEntity
100
AcDbLine
  8
outlines
 62
256
370
5
  6
DASHED
 10
155.0
 20
11.5
 30
0.0
 11
170.0
 21
11.5
 31
0.0
  0
LINE
  5
F5
100
AcDbEntity
100
AcDbLine
  8
outlines
 62
256
370
5
  6
DASHED
 10
155.0
 20
6.5
 30
0.0
 11
170.0
 21
6.5
 31
0.0
  0
LINE
  5
F6
100
AcDbEntity
100
AcDbLine
  8
outlines
 62
256
370
15
  6
ByLayer
 10
170.0
 20
-5.0000000000000009
 30
0.0
 11
155.0
 21
-5.0
 31
0.0
  0
LINE
  5
F7
100
AcDbEntity
100
AcDbLine
  8
centres
 62
256
370
5
  6
DASHDOTX2
 10
153.0
 20
9.0
 30
0.0
 11
173.0878378378378386
 21
9.0
 31
0.0
  0
DIMENSION
  5
F8
100
AcDbEntity
  8
dimensions
 62
256
370
5
  6
ByLayer
100
AcDbDimension
 10
129.0
 20
0.0000000000000007
 30
0.0
 11
127.375
 21
-2.5000000000000004
 31
0.0
 70
0
 71
5
 72
1
 41
1.0
 42
0.0
  1

  3
Standard
100
AcDbAlignedDimension
 13
135.0
 23
-5.0
 33
0.0
 14
135.0
 24
0.0
 34
0.0
 50
90.0
100
AcDbRotatedDimension
  0
DIMENSION
  5
F9
100
AcDbEntity
  8
dimensions
 62
256
370
5
  6
ByLayer
100
AcDbDimension
 10
126.25
 20
9.0000000000000018
 30
0.0
 11
124.625
 21
1.9999999999999993
 31
0.0
 70
0
 71
5
 72
1
 41
1.0
 42
0.0
  1

  3
Standard
100
AcDbAlignedDimension
 13
135.0
 23
-5.0
 33
0.0
 14
135.75
 24
9.0
 34
0.0
 50
90.0
100
AcDbRotatedDimension
  0
DIMENSION
  5
FA
100
AcDbEntity
  8
dimensions
 62
256
370
5
  6
ByLayer
100
AcDbDimension
 10
123.25
 20
13.0000000000000018
 30
0.0
 11
121.625
 21
4.0000000000000009
 31
0.0
 70
0
 71
5
 72
1
 41
1.0
 42
0.0
  1

  3
Standard
100
AcDbAlignedDimension
 13
135.0
 23
-5.0
 33
0.0
 14
135.0
 24
13.0
 34
0.0
 50
90.0
100
AcDbRotatedDimension
  0
DIMENSION
  5
FB
100
AcDbEntity
  8
dimensions
 62
256
370
5
  6
ByLayer
100
AcDbDimension
 10
148.0
 20
-0.5000000000000004
 30
0.0
 11
146.375
 21
-2.625
 31
0.0
 70
0
 71
5
 72
1
 41
1.0
 42
0.0
  1

  3
Standard
100
AcDbAlignedDimension
 13
145.0
 23
-4.75
 33
0.0
 14
144.5
 24
-0.5
 34
0.0
 50
90.0
100
AcDbRotatedDimension
  0
POINT
  5
FC
100
AcDbEntity
100
AcDbPoint
  8
outlines
 62
256
370
9
  6
DOTX2
 10
145.0
 20
3.25
 30
0.0
  0
POINT
  5
FD
100
AcDbEntity
100
AcDbPoint
  8
outlines
 62
256
370
9
  6
DOTX2
 10
135.0
 20
3.25
 30
0.0
  0
LINE
  5
FE
100
AcDbEntity
100
AcDbLine
  8
outlines
 62
256
370
5
  6
DASHED
 10
145.0
 20
3.25
 30
0.0
 11
135.0
 21
3.25
 31
0.0
  0
LINE
  5
FF
100
AcDbEntity
100
AcDbLine
  8
outlines
 62
256
370
5
  6
DASHED
 10
145.0
 20
-3.25
 30
0.0
 11
135.0
 21
-3.25
 31
0.0
  0
LINE
  5
100
100
AcDbEntity
100
AcDbLine
  8
outlines
 62
256
370
5
  6
DASHED
 10
135.0
 20
-2.75
 30
0.0
 11
145.0
 21
-2.75
 31
0.0
  0
LINE
  5
101
100
AcDbEntity
100
AcDbLine
  8
outlines
 62
256
370
5
  6
DASHED
 10
135.0
 20
2.75
 30
0.0
 11
145.0
 21
2.75
 31
0.0
  0
MTEXT
  5
102
100
AcDbEntity
100
AcDbMText
  8
Names
 62
256
370
5
  6
ByLayer
 10
146.25
 20
20.5
 30
0.0
 40
1.0
 41
100.0
 71
1
 72
0
  1
Dia\~depends\Pon\~resistor
  7
normallatin1
 50
0.0
 73
1
 44
1.0
  0
MTEXT
  5
103
100
AcDbEntity
100
AcDbMText
  8
Names
 62
256
370
5
  6
ByLayer
 10
147.5
 20
6.75
 30
0.0
 40
1.0
 41
100.0
 71
1
 72
0
  1
D&T\~M6
  7
normallatin1
 50
0.0
 73
1
 44
1.0
  0
MTEXT
  5
104
100
AcDbEntity
100
AcDbMText
  8
Names
 62
256
370
5
  6
ByLayer
 10
145.75
 20
-9.25
 30
0.0
 40
1.0
 41
100.0
 71
1
 72
0
  1
1.5mm\~dia\~for\Pthermistor
  7
normallatin1
 50
0.0
 73
1
 44
1.0
  0
LEADER
  5
105
  8
Names
 62
256
370
5
  6
ByLayer
100
AcDbEntity
100
AcDbLeader
  3
Standard
 71
1
 72
0
 73
3
 74
0
 75
0
 40
1.0
 41
10.0
 76
3
 10
141.0
 20
11.25
 10
146.0
 20
19.0
 10
146.0
 20
19.0
  0
LEADER
  5
106
  8
Names
 62
256
370
5
  6
ByLayer
100
AcDbEntity
100
AcDbLeader
  3
Standard
 71
1
 72
0
 73
3
 74
0
 75
0
 40
1.0
 41
10.0
 76
2
 10
160.0
 20
2.0
 10
151.0
 20
5.5
  0
LEADER
  5
107
  8
Names
 62
256
370
5
  6
ByLayer
100
AcDbEntity
100
AcDbLeader
  3
Standard
 71
1
 72
0
 73
3
 74
0
 75
0
 40
1.0
 41
10.0
 76
2
 10
157.0
 20
-2.5
 10
151.25
 20
-9.0
  0
MTEXT
  5
108
100
AcDbEntity
100
AcDbMText
  8
Names
 62
256
370
18
  6
ByLayer
 10
135.0
 20
30.0
 30
0.0
 40
1.5
 41
100.0
 71
1
 72
0
  1
Brass\~heater\~block\P\Pelevation\~\~\~\~\~\~\~\~\~\~\~\~\~\~\~\~\~plan
  7
normallatin1
 50
0.0
 73
1
 44
1.0
  0
ENDSEC
  0
SECTION
  2
OBJECTS
  0
DICTIONARY
  5
C
100
AcDbDictionary
280
0
281
1
  3
ACAD_GROUP
350
D
  3
ACAD_LAYOUT
350
1A
  3
ACAD_MLINESTYLE
350
17
  3
ACAD_PLOTSETTINGS
350
19
  3
ACAD_PLOTSTYLENAME
350
E
  3
AcDbVariableDictionary
350
109
  0
DICTIONARY
  5
D
100
AcDbDictionary
280
0
281
1
  0
ACDBDICTIONARYWDFLT
  5
E
100
AcDbDictionary
281
1
  3
Normal
350
F
100
AcDbDictionaryWithDefault
340
F
  0
ACDBPLACEHOLDER
  5
F
  0
DICTIONARY
  5
17
100
AcDbDictionary
280
0
281
1
  3
Standard
350
18
  0
MLINESTYLE
  5
18
100
AcDbMlineStyle
  2
STANDARD
 70
0
  3

 62
256
 51
90.0
 52
90.0
 71
2
 49
0.5
 62
256
  6
BYLAYER
 49
-0.5
 62
256
  6
BYLAYER
  0
DICTIONARY
  5
19
100
AcDbDictionary
280
0
281
1
  0
DICTIONARY
  5
1A
100
AcDbDictionary
281
1
  3
Layout1
350
1E
  3
Layout2
350
26
  3
Model
350
22
  0
LAYOUT
  5
1E
100
AcDbPlotSettings
  1

  2
C:\Program Files\AutoCAD 2002\plotters\DWF ePlot (optimized for plotting).pc3
  4

  6

 40
0.0
 41
0.0
 42
0.0
 43
0.0
 44
0.0
 45
0.0
 46
0.0
 47
0.0
 48
0.0
 49
0.0
140
0.0
141
0.0
142
1.0
143
1.0
 70
688
 72
0
 73
0
 74
5
  7

 75
16
147
1.0
148
0.0
149
0.0
100
AcDbLayout
  1
Layout1
 70
1
 71
1
 10
0.0
 20
0.0
 11
420.0
 21
297.0
 12
0.0
 22
0.0
 32
0.0
 14
100000000000000000000.0
 24
100000000000000000000.0
 34
100000000000000000000.0
 15
-100000000000000000000.0
 25
-100000000000000000000.0
 35
-100000000000000000000.0
146
0.0
 13
0.0
 23
0.0
 33
0.0
 16
1.0
 26
0.0
 36
0.0
 17
0.0
 27
1.0
 37
0.0
 76
0
330
1B
  0
LAYOUT
  5
22
100
AcDbPlotSettings
  1

  2
C:\Program Files\AutoCAD 2002\plotters\DWF ePlot (optimized for plotting).pc3
  4

  6

 40
0.0
 41
0.0
 42
0.0
 43
0.0
 44
0.0
 45
0.0
 46
0.0
 47
0.0
 48
0.0
 49
0.0
140
0.0
141
0.0
142
1.0
143
1.0
 70
1712
 72
0
 73
0
 74
0
  7

 75
0
147
1.0
148
0.0
149
0.0
100
AcDbLayout
  1
Model
 70
1
 71
0
 10
0.0
 20
0.0
 11
12.0
 21
9.0
 12
0.0
 22
0.0
 32
0.0
 14
0.0
 24
0.0
 34
0.0
 15
0.0
 25
0.0
 35
0.0
146
0.0
 13
0.0
 23
0.0
 33
0.0
 16
1.0
 26
0.0
 36
0.0
 17
0.0
 27
1.0
 37
0.0
 76
0
330
1F
  0
LAYOUT
  5
26
100
AcDbPlotSettings
  1

  2
C:\Program Files\AutoCAD 2002\plotters\DWF ePlot (optimized for plotting).pc3
  4

  6

 40
0.0
 41
0.0
 42
0.0
 43
0.0
 44
0.0
 45
0.0
 46
0.0
 47
0.0
 48
0.0
 49
0.0
140
0.0
141
0.0
142
1.0
143
1.0
 70
688
 72
0
 73
0
 74
5
  7

 75
16
147
1.0
148
0.0
149
0.0
100
AcDbLayout
  1
Layout2
 70
1
 71
2
 10
0.0
 20
0.0
 11
12.0
 21
9.0
 12
0.0
 22
0.0
 32
0.0
 14
0.0
 24
0.0
 34
0.0
 15
0.0
 25
0.0
 35
0.0
146
0.0
 13
0.0
 23
0.0
 33
0.0
 16
1.0
 26
0.0
 36
0.0
 17
0.0
 27
1.0
 37
0.0
 76
0
330
23
  0
DICTIONARY
  5
109
100
AcDbDictionary
281
1
  3
DIMASSOC
350
10B
  3
HIDETEXT
350
10A
  0
DICTIONARYVAR
  5
10A
100
DictionaryVariables
280
0
  1
2
  0
DICTIONARYVAR
  5
10B
100
DictionaryVariables
280
0
  1
1
  0
ENDSEC
  0
EOF
