999
dxflib 2.0.4.8
  0
SECTION
  2
HEADER
  9
$ACADVER
  1
AC1015
  9
$HANDSEED
  5
FFFF
  9
$DIMASZ
 40
1.0
  9
$GRIDUNIT
 10
0.25
 20
0.25
  9
$DIMADEC
 70
2
  9
$DIMGAP
 40
0.625
  9
$SPLINESEGS
 70
8
  9
$AUPREC
 70
2
  9
$LUNITS
 70
2
  9
$DIMEXO
 40
0.625
  9
$INSUNITS
 70
4
  9
$DIMLUNIT
 70
2
  9
$DIMTXT
 40
2.0
  9
$GRIDMODE
 70
1
  9
$LUPREC
 70
4
  9
$DIMSTYLE
  2
Standard
  9
$PLIMMAX
 10
210.0
 20
297.0
  9
$PLIMMIN
 10
0.0
 20
0.0
  9
$DIMEXE
 40
0.5
  9
$DIMAUNIT
 70
0
  9
$AUNITS
 70
0
  0
ENDSEC
  0
SECTION
  2
TABLES
  0
TABLE
  2
VPORT
  5
8
100
AcDbSymbolTable
 70
1
  0
VPORT
  5
30
100
AcDbSymbolTableRecord
100
AcDbViewportTableRecord
  2
*Active
 70
0
 10
0.0
 20
0.0
 11
1.0
 21
1.0
 12
286.3055555555554861
 22
148.5
 13
0.0
 23
0.0
 14
10.0
 24
10.0
 15
10.0
 25
10.0
 16
0.0
 26
0.0
 36
1.0
 17
0.0
 27
0.0
 37
0.0
 40
297.0
 41
1.92798353909465
 42
50.0
 43
0.0
 44
0.0
 50
0.0
 51
0.0
 71
0
 72
100
 73
1
 74
3
 75
1
 76
1
 77
0
 78
0
281
0
 65
1
110
0.0
120
0.0
130
0.0
111
1.0
121
0.0
131
0.0
112
0.0
122
1.0
132
0.0
 79
0
146
0.0
  0
ENDTAB
  0
TABLE
  2
LTYPE
  5
5
100
AcDbSymbolTable
 70
21
  0
LTYPE
  5
14
100
AcDbSymbolTableRecord
100
AcDbLinetypeTableRecord
  2
ByBlock
 70
0
  3

 72
65
 73
0
 40
0.0
  0
LTYPE
  5
15
100
AcDbSymbolTableRecord
100
AcDbLinetypeTableRecord
  2
ByLayer
 70
0
  3

 72
65
 73
0
 40
0.0
  0
LTYPE
  5
16
100
AcDbSymbolTableRecord
100
AcDbLinetypeTableRecord
  2
CONTINUOUS
 70
0
  3
Solid line
 72
65
 73
0
 40
0.0
  0
LTYPE
  5
31
100
AcDbSymbolTableRecord
100
AcDbLinetypeTableRecord
  2
DOT
 70
0
  3
Dot . . . . . . . . . . . . . . . . . . . . . .
 72
65
 73
2
 40
6.3499999999999996
 49
0.0
 74
0
 49
-6.3499999999999996
 74
0
  0
LTYPE
  5
32
100
AcDbSymbolTableRecord
100
AcDbLinetypeTableRecord
  2
DOT2
 70
0
  3
Dot (.5x) .....................................
 72
65
 73
2
 40
3.1749999999999998
 49
0.0
 74
0
 49
-3.1749999999999998
 74
0
  0
LTYPE
  5
33
100
AcDbSymbolTableRecord
100
AcDbLinetypeTableRecord
  2
DOTX2
 70
0
  3
Dot (2x) .  .  .  .  .  .  .  .  .  .  .  .  .
 72
65
 73
2
 40
12.6999999999999993
 49
0.0
 74
0
 49
-12.6999999999999993
 74
0
  0
LTYPE
  5
34
100
AcDbSymbolTableRecord
100
AcDbLinetypeTableRecord
  2
DASHED
 70
0
  3
Dashed __ __ __ __ __ __ __ __ __ __ __ __ __ _
 72
65
 73
2
 40
19.0500000000000007
 49
12.6999999999999993
 74
0
 49
-6.3499999999999996
 74
0
  0
LTYPE
  5
35
100
AcDbSymbolTableRecord
100
AcDbLinetypeTableRecord
  2
DASHED2
 70
0
  3
Dashed (.5x) _ _ _ _ _ _ _ _ _ _ _ _ _ _ _ _ _
 72
65
 73
2
 40
9.5250000000000004
 49
6.3499999999999996
 74
0
 49
-3.1749999999999998
 74
0
  0
LTYPE
  5
36
100
AcDbSymbolTableRecord
100
AcDbLinetypeTableRecord
  2
DASHEDX2
 70
0
  3
Dashed (2x) ____  ____  ____  ____  ____  ___
 72
65
 73
2
 40
38.1000000000000014
 49
25.3999999999999986
 74
0
 49
-12.6999999999999993
 74
0
  0
LTYPE
  5
37
100
AcDbSymbolTableRecord
100
AcDbLinetypeTableRecord
  2
DASHDOT
 70
0
  3
Dash dot __ . __ . __ . __ . __ . __ . __ . __
 72
65
 73
4
 40
25.3999999999999986
 49
12.6999999999999993
 74
0
 49
-6.3499999999999996
 74
0
 49
0.0
 74
0
 49
-6.3499999999999996
 74
0
  0
LTYPE
  5
38
100
AcDbSymbolTableRecord
100
AcDbLinetypeTableRecord
  2
DASHDOT2
 70
0
  3
Dash dot (.5x) _._._._._._._._._._._._._._._.
 72
65
 73
4
 40
12.6999999999999993
 49
6.3499999999999996
 74
0
 49
-3.1749999999999998
 74
0
 49
0.0
 74
0
 49
-3.1749999999999998
 74
0
  0
LTYPE
  5
39
100
AcDbSymbolTableRecord
100
AcDbLinetypeTableRecord
  2
DASHDOTX2
 70
0
  3
Dash dot (2x) ____  .  ____  .  ____  .  ___
 72
65
 73
4
 40
50.7999999999999972
 49
25.3999999999999986
 74
0
 49
-12.6999999999999993
 74
0
 49
0.0
 74
0
 49
-12.6999999999999993
 74
0
  0
LTYPE
  5
3A
100
AcDbSymbolTableRecord
100
AcDbLinetypeTableRecord
  2
DIVIDE
 70
0
  3
Divide ____ . . ____ . . ____ . . ____ . . ____
 72
65
 73
6
 40
31.75
 49
12.6999999999999993
 74
0
 49
-6.3499999999999996
 74
0
 49
0.0
 74
0
 49
-6.3499999999999996
 74
0
 49
0.0
 74
0
 49
-6.3499999999999996
 74
0
  0
LTYPE
  5
3B
100
AcDbSymbolTableRecord
100
AcDbLinetypeTableRecord
  2
DIVIDE2
 70
0
  3
Divide (.5x) __..__..__..__..__..__..__..__.._
 72
65
 73
6
 40
15.875
 49
6.3499999999999996
 74
0
 49
-3.1749999999999998
 74
0
 49
0.0
 74
0
 49
-3.1749999999999998
 74
0
 49
0.0
 74
0
 49
-3.1749999999999998
 74
0
  0
LTYPE
  5
3C
100
AcDbSymbolTableRecord
100
AcDbLinetypeTableRecord
  2
DIVIDEX2
 70
0
  3
Divide (2x) ________  .  .  ________  .  .  _
 72
65
 73
6
 40
63.5
 49
25.3999999999999986
 74
0
 49
-12.6999999999999993
 74
0
 49
0.0
 74
0
 49
-12.6999999999999993
 74
0
 49
0.0
 74
0
 49
-12.6999999999999993
 74
0
  0
LTYPE
  5
3D
100
AcDbSymbolTableRecord
100
AcDbLinetypeTableRecord
  2
CENTER
 70
0
  3
Center ____ _ ____ _ ____ _ ____ _ ____ _ ____
 72
65
 73
4
 40
50.7999999999999972
 49
31.75
 74
0
 49
-6.3499999999999996
 74
0
 49
6.3499999999999996
 74
0
 49
-6.3499999999999996
 74
0
  0
LTYPE
  5
3E
100
AcDbSymbolTableRecord
100
AcDbLinetypeTableRecord
  2
CENTER2
 70
0
  3
Center (.5x) ___ _ ___ _ ___ _ ___ _ ___ _ ___
 72
65
 73
4
 40
28.5749999999999993
 49
19.0500000000000007
 74
0
 49
-3.1749999999999998
 74
0
 49
3.1749999999999998
 74
0
 49
-3.1749999999999998
 74
0
  0
LTYPE
  5
3F
100
AcDbSymbolTableRecord
100
AcDbLinetypeTableRecord
  2
CENTERX2
 70
0
  3
Center (2x) ________  __  ________  __  _____
 72
65
 73
4
 40
101.5999999999999943
 49
63.5
 74
0
 49
-12.6999999999999993
 74
0
 49
12.6999999999999993
 74
0
 49
-12.6999999999999993
 74
0
  0
LTYPE
  5
40
100
AcDbSymbolTableRecord
100
AcDbLinetypeTableRecord
  2
BORDER
 70
0
  3
Border __ __ . __ __ . __ __ . __ __ . __ __ .
 72
65
 73
6
 40
44.4500000000000028
 49
12.6999999999999993
 74
0
 49
-6.3499999999999996
 74
0
 49
12.6999999999999993
 74
0
 49
-6.3499999999999996
 74
0
 49
0.0
 74
0
 49
-6.3499999999999996
 74
0
  0
LTYPE
  5
41
100
AcDbSymbolTableRecord
100
AcDbLinetypeTableRecord
  2
BORDER2
 70
0
  3
Border (.5x) __.__.__.__.__.__.__.__.__.__.__.
 72
65
 73
6
 40
22.2250000000000014
 49
6.3499999999999996
 74
0
 49
-3.1749999999999998
 74
0
 49
6.3499999999999996
 74
0
 49
-3.1749999999999998
 74
0
 49
0.0
 74
0
 49
-3.1749999999999998
 74
0
  0
LTYPE
  5
42
100
AcDbSymbolTableRecord
100
AcDbLinetypeTableRecord
  2
BORDERX2
 70
0
  3
Border (2x) ____  ____  .  ____  ____  .  ___
 72
65
 73
6
 40
88.9000000000000057
 49
25.3999999999999986
 74
0
 49
-12.6999999999999993
 74
0
 49
25.3999999999999986
 74
0
 49
-12.6999999999999993
 74
0
 49
0.0
 74
0
 49
-12.6999999999999993
 74
0
  0
ENDTAB
  0
TABLE
  2
LAYER
  5
2
100
AcDbSymbolTable
 70
6
  0
LAYER
  5
10
100
AcDbSymbolTableRecord
100
AcDbLayerTableRecord
  2
0
 70
0
 62
7
  6
CONTINUOUS
370
0
390
F
  0
LAYER
  5
43
100
AcDbSymbolTableRecord
100
AcDbLayerTableRecord
  2
outlines
 70
0
 62
7
  6
CONTINUOUS
370
0
390
F
  0
LAYER
  5
44
100
AcDbSymbolTableRecord
100
AcDbLayerTableRecord
  2
hatch
 70
0
 62
7
  6
CONTINUOUS
370
5
390
F
  0
LAYER
  5
45
100
AcDbSymbolTableRecord
100
AcDbLayerTableRecord
  2
Names
 70
0
 62
7
  6
CONTINUOUS
370
0
390
F
  0
LAYER
  5
46
100
AcDbSymbolTableRecord
100
AcDbLayerTableRecord
  2
dimensions
 70
0
 62
7
  6
CONTINUOUS
370
0
390
F
  0
LAYER
  5
47
100
AcDbSymbolTableRecord
100
AcDbLayerTableRecord
  2
centres
 70
0
 62
7
  6
CONTINUOUS
370
0
390
F
  0
ENDTAB
  0
TABLE
  2
STYLE
  5
3
100
AcDbSymbolTable
 70
1
  0
STYLE
  5
11
100
AcDbSymbolTableRecord
100
AcDbTextStyleTableRecord
  2
Standard
 70
0
 40
0.0
 41
0.75
 50
0.0
 71
0
 42
2.5
  3
txt
  4

  0
ENDTAB
  0
TABLE
  2
VIEW
  5
6
100
AcDbSymbolTable
 70
0
  0
ENDTAB
  0
TABLE
  2
UCS
  5
7
100
AcDbSymbolTable
 70
0
  0
ENDTAB
  0
TABLE
  2
APPID
  5
9
100
AcDbSymbolTable
 70
1
  0
APPID
  5
12
100
AcDbSymbolTableRecord
100
AcDbRegAppTableRecord
  2
ACAD
 70
0
  0
ENDTAB
  0
TABLE
  2
DIMSTYLE
  5
A
100
AcDbSymbolTable
 70
1
100
AcDbDimStyleTable
 71
0
  0
DIMSTYLE
105
27
100
AcDbSymbolTableRecord
100
AcDbDimStyleTableRecord
  2
Standard
 41
1.0
 42
0.625
 43
3.75
 44
0.5
 70
0
 73
0
 74
0
 77
1
 78
8
140
2.0
141
2.5
143
0.03937007874016
147
0.625
171
3
172
1
271
2
272
2
274
3
278
44
283
0
284
8
340
11
  0
ENDTAB
  0
TABLE
  2
BLOCK_RECORD
  5
1
100
AcDbSymbolTable
 70
1
  0
BLOCK_RECORD
  5
1F
100
AcDbSymbolTableRecord
100
AcDbBlockTableRecord
  2
*Model_Space
340
22
  0
BLOCK_RECORD
  5
1B
100
AcDbSymbolTableRecord
100
AcDbBlockTableRecord
  2
*Paper_Space
340
1E
  0
BLOCK_RECORD
  5
23
100
AcDbSymbolTableRecord
100
AcDbBlockTableRecord
  2
*Paper_Space0
340
26
  0
ENDTAB
  0
ENDSEC
  0
SECTION
  2
BLOCKS
  0
BLOCK
  5
20
100
AcDbEntity
  8
0
100
AcDbBlockBegin
  2
*Model_Space
 70
0
 10
0.0
 20
0.0
 30
0.0
  3
*Model_Space
  1

  0
ENDBLK
  5
21
100
AcDbEntity
  8
0
100
AcDbBlockEnd
  0
BLOCK
  5
1C
100
AcDbEntity
 67
1
  8
0
100
AcDbBlockBegin
  2
*Paper_Space
 70
0
 10
0.0
 20
0.0
 30
0.0
  3
*Paper_Space
  1

  0
ENDBLK
  5
1D
100
AcDbEntity
 67
1
  8
0
100
AcDbBlockEnd
  0
BLOCK
  5
24
100
AcDbEntity
  8
0
100
AcDbBlockBegin
  2
*Paper_Space0
 70
0
 10
0.0
 20
0.0
 30
0.0
  3
*Paper_Space0
  1

  0
ENDBLK
  5
25
100
AcDbEntity
  8
0
100
AcDbBlockEnd
  0
ENDSEC
  0
SECTION
  2
ENTITIES
  0
HATCH
  5
48
  8
hatch
 62
256
370
5
  6
CONTINUOUS
100
AcDbEntity
100
AcDbHatch
 10
0.0
 20
0.0
 30
0.0
210
0.0
220
0.0
230
1.0
  2
ansi31
 70
0
 71
0
 91
1
 92
1
 93
9
 72
1
 10
107.5
 20
70.5
 11
67.5
 21
70.5
 72
1
 10
67.5
 20
70.5
 11
67.5
 21
65.5
 72
1
 10
67.5
 20
65.5
 11
68.25
 21
64.25
 72
1
 10
68.25
 20
64.25
 11
71.5
 21
64.25
 72
1
 10
71.5
 20
64.25
 11
71.5
 21
65.75
 72
1
 10
71.5
 20
65.75
 11
97.5
 21
65.75
 72
1
 10
97.5
 20
65.75
 11
97.5
 21
67.0
 72
1
 10
97.5
 20
67.0
 11
107.5
 21
67.0
 72
1
 10
107.5
 20
67.0
 11
107.5
 21
70.5
 97
0
 75
0
 76
1
 52
1.5707963267948966
 41
0.6
 77
0
 78
1
 53
45.0
 43
0.0
 44
0.0
 45
-0.0883883476483184
 46
0.0883883476483185
 79
0
 98
0
  0
HATCH
  5
49
  8
hatch
 62
256
370
5
  6
CONTINUOUS
100
AcDbEntity
100
AcDbHatch
 10
0.0
 20
0.0
 30
0.0
210
0.0
220
0.0
230
1.0
  2
ansi31
 70
0
 71
0
 91
1
 92
1
 93
9
 72
1
 10
67.5
 20
54.5
 11
107.5
 21
54.5
 72
1
 10
107.5
 20
54.5
 11
107.5
 21
57.5
 72
1
 10
107.5
 20
57.5
 11
97.5
 21
57.5
 72
1
 10
97.5
 20
57.5
 11
97.5
 21
59.25
 72
1
 10
97.5
 20
59.25
 11
71.5
 21
59.25
 72
1
 10
71.5
 20
59.25
 11
71.5
 21
60.75
 72
1
 10
71.5
 20
60.75
 11
68.25
 21
60.75
 72
1
 10
68.25
 20
60.75
 11
67.5
 21
59.5
 72
1
 10
67.5
 20
59.5
 11
67.5
 21
54.5
 97
0
 75
0
 76
1
 52
1.5707963267948966
 41
0.6
 77
0
 78
1
 53
45.0
 43
0.0
 44
0.0
 45
-0.0883883476483184
 46
0.0883883476483185
 79
0
 98
0
  0
HATCH
  5
4A
  8
hatch
 62
256
370
5
  6
CONTINUOUS
100
AcDbEntity
100
AcDbHatch
 10
0.0
 20
0.0
 30
0.0
210
0.0
220
0.0
230
1.0
  2
ansi31
 70
0
 71
0
 91
1
 92
1
 93
11
 72
1
 10
162.25
 20
65.75
 11
172.25
 21
65.75
 72
1
 10
172.25
 20
65.75
 11
172.25
 21
64.25
 72
1
 10
172.25
 20
64.25
 11
195.75
 21
64.25
 72
1
 10
195.75
 20
64.25
 11
196.6071428571428612
 21
62.7500000000000071
 72
1
 10
196.6071428571428612
 20
62.75
 11
197.3541666666666572
 21
62.75
 72
1
 10
197.3541666666666572
 20
62.75
 11
195.1666666666666572
 21
66.5
 72
1
 10
195.1666666666666572
 20
66.5
 11
174.5
 21
66.5
 72
1
 10
174.5
 20
66.5
 11
174.25
 21
66.5
 72
1
 10
174.25
 20
66.5
 11
174.25
 21
67.25
 72
1
 10
174.25
 20
67.25
 11
162.25
 21
67.25
 72
1
 10
162.25
 20
67.25
 11
162.25
 21
65.75
 97
0
 75
0
 76
1
 52
1.5707963267948966
 41
0.6
 77
0
 78
1
 53
45.0
 43
0.0
 44
0.0
 45
-0.0883883476483184
 46
0.0883883476483185
 79
0
 98
0
  0
HATCH
  5
4B
  8
hatch
 62
256
370
5
  6
CONTINUOUS
100
AcDbEntity
100
AcDbHatch
 10
0.0
 20
0.0
 30
0.0
210
0.0
220
0.0
230
1.0
  2
ansi31
 70
0
 71
0
 91
1
 92
1
 93
10
 72
1
 10
172.25
 20
59.25
 11
162.25
 21
59.25
 72
1
 10
162.25
 20
59.25
 11
162.25
 21
57.75
 72
1
 10
162.25
 20
57.75
 11
174.25
 21
57.75
 72
1
 10
174.25
 20
57.75
 11
174.25
 21
58.5
 72
1
 10
174.25
 20
58.5
 11
195.25
 21
58.5
 72
1
 10
195.25
 20
58.5
 11
197.3541666666666572
 21
62.25
 72
1
 10
197.3541666666666572
 20
62.25
 11
196.6071428571428612
 21
62.25
 72
1
 10
196.6071428571428612
 20
62.25
 11
195.75
 21
60.75
 72
1
 10
195.75
 20
60.75
 11
172.25
 21
60.75
 72
1
 10
172.25
 20
60.75
 11
172.25
 21
59.25
 97
0
 75
0
 76
1
 52
1.5707963267948966
 41
0.6
 77
0
 78
1
 53
45.0
 43
0.0
 44
0.0
 45
-0.0883883476483184
 46
0.0883883476483185
 79
0
 98
0
  0
LINE
  5
4C
100
AcDbEntity
100
AcDbLine
  8
outlines
 62
256
370
13
  6
ByLayer
 10
100.0
 20
5.0
 30
0.0
 11
100.0
 21
5.0
 31
0.0
  0
LINE
  5
4D
100
AcDbEntity
100
AcDbLine
  8
outlines
 62
256
370
13
  6
ByLayer
 10
100.0
 20
20.0
 30
0.0
 11
100.0
 21
-20.0
 31
0.0
  0
LINE
  5
4E
100
AcDbEntity
100
AcDbLine
  8
outlines
 62
256
370
13
  6
ByLayer
 10
115.0
 20
-20.0
 30
0.0
 11
115.0
 21
20.0
 31
0.0
  0
LINE
  5
4F
100
AcDbEntity
100
AcDbLine
  8
outlines
 62
256
370
13
  6
ByLayer
 10
100.0
 20
20.0
 30
0.0
 11
100.0
 21
21.0
 31
0.0
  0
LINE
  5
50
100
AcDbEntity
100
AcDbLine
  8
outlines
 62
256
370
13
  6
ByLayer
 10
100.0
 20
21.0
 30
0.0
 11
115.0
 21
21.0
 31
0.0
  0
LINE
  5
51
100
AcDbEntity
100
AcDbLine
  8
outlines
 62
256
370
13
  6
ByLayer
 10
115.0
 20
21.0
 30
0.0
 11
115.0
 21
20.0
 31
0.0
  0
LINE
  5
52
100
AcDbEntity
100
AcDbLine
  8
outlines
 62
256
370
13
  6
ByLayer
 10
100.0
 20
-20.0
 30
0.0
 11
100.0
 21
-21.0
 31
0.0
  0
LINE
  5
53
100
AcDbEntity
100
AcDbLine
  8
outlines
 62
256
370
13
  6
ByLayer
 10
100.0
 20
-21.0
 30
0.0
 11
115.0
 21
-21.0
 31
0.0
  0
LINE
  5
54
100
AcDbEntity
100
AcDbLine
  8
outlines
 62
256
370
13
  6
ByLayer
 10
115.0
 20
-21.0
 30
0.0
 11
115.0
 21
-20.0
 31
0.0
  0
LINE
  5
55
100
AcDbEntity
100
AcDbLine
  8
outlines
 62
256
370
15
  6
ByLayer
 10
64.0
 20
21.0
 30
0.0
 11
74.0
 21
21.0
 31
0.0
  0
LINE
  5
56
100
AcDbEntity
100
AcDbLine
  8
outlines
 62
256
370
15
  6
ByLayer
 10
74.0
 20
21.0
 30
0.0
 11
74.0
 21
-21.0
 31
0.0
  0
LINE
  5
57
100
AcDbEntity
100
AcDbLine
  8
outlines
 62
256
370
15
  6
ByLayer
 10
74.0
 20
-21.0
 30
0.0
 11
64.0
 21
-21.0
 31
0.0
  0
LINE
  5
58
100
AcDbEntity
100
AcDbLine
  8
outlines
 62
256
370
15
  6
ByLayer
 10
64.0
 20
-21.0
 30
0.0
 11
64.0
 21
21.0
 31
0.0
  0
LINE
  5
59
100
AcDbEntity
100
AcDbLine
  8
outlines
 62
256
370
15
  6
DASHED
 10
64.0
 20
16.5
 30
0.0
 11
74.0
 21
16.5
 31
0.0
  0
LINE
  5
5A
100
AcDbEntity
100
AcDbLine
  8
outlines
 62
256
370
15
  6
DASHED
 10
64.0
 20
13.5
 30
0.0
 11
74.0
 21
13.5
 31
0.0
  0
LINE
  5
5B
100
AcDbEntity
100
AcDbLine
  8
outlines
 62
256
370
15
  6
DASHED
 10
64.0
 20
-13.5
 30
0.0
 11
74.0
 21
-13.5
 31
0.0
  0
LINE
  5
5C
100
AcDbEntity
100
AcDbLine
  8
outlines
 62
256
370
15
  6
DASHED
 10
64.0
 20
-16.5
 30
0.0
 11
74.0
 21
-16.5
 31
0.0
  0
LINE
  5
5D
100
AcDbEntity
100
AcDbLine
  8
outlines
 62
256
370
15
  6
DASHED
 10
64.0
 20
4.0
 30
0.0
 11
66.0
 21
4.0
 31
0.0
  0
LINE
  5
5E
100
AcDbEntity
100
AcDbLine
  8
outlines
 62
256
370
15
  6
DASHED
 10
66.75
 20
5.0
 30
0.0
 11
74.0
 21
5.0
 31
0.0
  0
LINE
  5
5F
100
AcDbEntity
100
AcDbLine
  8
outlines
 62
256
370
15
  6
DASHED
 10
64.0
 20
-4.0
 30
0.0
 11
66.0
 21
-4.0
 31
0.0
  0
LINE
  5
60
100
AcDbEntity
100
AcDbLine
  8
outlines
 62
256
370
15
  6
DASHED
 10
66.5
 20
-5.0
 30
0.0
 11
74.0
 21
-5.0
 31
0.0
  0
LINE
  5
61
100
AcDbEntity
100
AcDbLine
  8
outlines
 62
256
370
15
  6
DASHED
 10
66.0
 20
-4.0
 30
0.0
 11
66.0
 21
4.25
 31
0.0
  0
LINE
  5
62
100
AcDbEntity
100
AcDbLine
  8
outlines
 62
256
370
15
  6
DASHED
 10
66.75
 20
-5.0
 30
0.0
 11
66.75
 21
5.0
 31
0.0
  0
CIRCLE
  5
63
100
AcDbEntity
100
AcDbCircle
  8
hatch
 62
256
370
15
  6
ByLayer
 10
107.5
 20
15.0
 30
0.0
 40
1.5
  0
CIRCLE
  5
64
100
AcDbEntity
100
AcDbCircle
  8
hatch
 62
256
370
15
  6
ByLayer
 10
107.5
 20
-15.0
 30
0.0
 40
1.5
  0
CIRCLE
  5
65
100
AcDbEntity
100
AcDbCircle
  8
hatch
 62
256
370
15
  6
ByLayer
 10
107.5
 20
0.0
 30
0.0
 40
4.0
  0
CIRCLE
  5
66
100
AcDbEntity
100
AcDbCircle
  8
hatch
 62
256
370
15
  6
ByLayer
 10
107.5
 20
0.0
 30
0.0
 40
5.0
  0
LINE
  5
67
100
AcDbEntity
100
AcDbLine
  8
outlines
 62
256
370
15
  6
DASHED
 10
66.0
 20
4.0
 30
0.0
 11
66.75
 21
5.0
 31
0.0
  0
LINE
  5
68
100
AcDbEntity
100
AcDbLine
  8
outlines
 62
256
370
15
  6
DASHED
 10
66.0
 20
-4.0
 30
0.0
 11
66.5
 21
-5.0
 31
0.0
  0
MTEXT
  5
69
100
AcDbEntity
100
AcDbMText
  8
Names
 62
256
370
18
  6
CENTER
 10
61.0970386887748447
 20
26.9818899126149638
 30
0.0
 40
1.5
 41
100.0
 71
1
 72
2
  1
PEEK\~block\~(elevation)
  7
normallatin1
 50
0.0
 73
1
 44
1.0
  0
MTEXT
  5
6A
100
AcDbEntity
100
AcDbMText
  8
Names
 62
256
370
18
  6
CENTER
 10
96.0970386887748447
 20
26.9818899126149638
 30
0.0
 40
1.5
 41
100.0
 71
1
 72
2
  1
PEEK\~block\~(plan)
  7
normallatin1
 50
0.0
 73
1
 44
1.0
  0
DIMENSION
  5
6B
100
AcDbEntity
  8
dimensions
 62
256
370
-1
  6
ByLayer
100
AcDbDimension
 10
74.0
 20
-26.25
 30
0.0
 11
69.0
 21
-24.625
 31
0.0
 70
0
 71
5
 72
0
 41
1.0
 42
0.0
  1

  3
Standard
100
AcDbAlignedDimension
 13
64.0
 23
-21.0
 33
0.0
 14
74.0
 24
-21.0
 34
0.0
 50
0.0
100
AcDbRotatedDimension
  0
MTEXT
  5
6C
100
AcDbEntity
100
AcDbMText
  8
dimensions
 62
256
370
-1
  6
ByLayer
 10
79.25
 20
1.5
 30
0.0
 40
1.5
 41
100.0
 71
1
 72
2
  1
10\~mm\~dia
  7
normallatin1
 50
0.0
 73
0
 44
1.0
  0
MTEXT
  5
6D
100
AcDbEntity
100
AcDbMText
  8
dimensions
 62
256
370
-1
  6
ByLayer
 10
54.25
 20
0.75
 30
0.0
 40
1.5
 41
100.0
 71
1
 72
2
  1
8\~mm\~dia
  7
normallatin1
 50
0.0
 73
0
 44
1.0
  0
DIMENSION
  5
6E
100
AcDbEntity
  8
dimensions
 62
256
370
5
  6
ByLayer
100
AcDbDimension
 10
97.2523193879678161
 20
15.0000000000000018
 30
0.0
 11
95.6273193879678161
 21
7.4999999999999991
 31
0.0
 70
0
 71
5
 72
0
 41
1.0
 42
0.0
  1

  3
Standard
100
AcDbAlignedDimension
 13
100.0
 23
0.0
 33
0.0
 14
105.0
 24
15.0
 34
0.0
 50
90.0
100
AcDbRotatedDimension
  0
DIMENSION
  5
6F
100
AcDbEntity
  8
dimensions
 62
256
370
5
  6
ByLayer
100
AcDbDimension
 10
94.5678137085006938
 20
21.0
 30
0.0
 11
92.9428137085006938
 21
10.5
 31
0.0
 70
0
 71
5
 72
0
 41
1.0
 42
0.0
  1

  3
Standard
100
AcDbAlignedDimension
 13
100.0
 23
0.0
 33
0.0
 14
100.0
 24
21.0
 34
0.0
 50
90.0
100
AcDbRotatedDimension
  0
DIMENSION
  5
70
100
AcDbEntity
  8
dimensions
 62
256
370
5
  6
ByLayer
100
AcDbDimension
 10
115.0
 20
-26.2349418675195487
 30
0.0
 11
107.5
 21
-24.6099418675195487
 31
0.0
 70
0
 71
5
 72
0
 41
1.0
 42
0.0
  1

  3
Standard
100
AcDbAlignedDimension
 13
100.0
 23
-20.0
 33
0.0
 14
115.0
 24
-20.0
 34
0.0
 50
0.0
100
AcDbRotatedDimension
  0
LEADER
  5
71
  8
dimensions
 62
256
370
-1
  6
ByLayer
100
AcDbEntity
100
AcDbLeader
  3
Standard
 71
1
 72
0
 73
3
 74
0
 75
0
 40
1.0
 41
10.0
 76
3
 10
70.0
 20
-5.0
 10
72.5
 20
-0.5
 10
89.25
 20
-0.5
  0
LEADER
  5
72
  8
dimensions
 62
256
370
-1
  6
ByLayer
100
AcDbEntity
100
AcDbLeader
  3
Standard
 71
1
 72
0
 73
3
 74
0
 75
0
 40
1.0
 41
10.0
 76
3
 10
65.0
 20
-4.0
 10
62.75
 20
-1.25
 10
54.25
 20
-1.25
  0
MTEXT
  5
73
100
AcDbEntity
100
AcDbMText
  8
dimensions
 62
256
370
-1
  6
ByLayer
 10
75.3498134328358162
 20
-1.1721082089552237
 30
0.0
 40
1.5
 41
100.0
 71
1
 72
2
  1
drill\~7\~mm\~deep
  7
normallatin1
 50
0.0
 73
1
 44
1.0
  0
LINE
  5
74
100
AcDbEntity
100
AcDbLine
  8
centres
 62
256
370
5
  6
CENTER
 10
105.0
 20
-15.0
 30
0.0
 11
112.0
 21
-15.0
 31
0.0
  0
LINE
  5
75
100
AcDbEntity
100
AcDbLine
  8
centres
 62
256
370
5
  6
CENTER
 10
106.0
 20
15.0
 30
0.0
 11
112.0
 21
15.0
 31
0.0
  0
LINE
  5
76
100
AcDbEntity
100
AcDbLine
  8
centres
 62
256
370
5
  6
CENTER
 10
107.5
 20
25.0
 30
0.0
 11
107.5
 21
-23.0
 31
0.0
  0
LINE
  5
77
100
AcDbEntity
100
AcDbLine
  8
centres
 62
256
370
5
  6
CENTER
 10
97.0
 20
0.0
 30
0.0
 11
114.0
 21
0.0
 31
0.0
  0
LINE
  5
78
100
AcDbEntity
100
AcDbLine
  8
centres
 62
256
370
5
  6
CENTER
 10
62.0
 20
0.0
 30
0.0
 11
79.0
 21
0.0
 31
0.0
  0
LINE
  5
79
100
AcDbEntity
100
AcDbLine
  8
centres
 62
256
370
5
  6
CENTER
 10
62.0
 20
15.0
 30
0.0
 11
79.0
 21
15.0
 31
0.0
  0
LINE
  5
7A
100
AcDbEntity
100
AcDbLine
  8
centres
 62
256
370
5
  6
CENTER
 10
62.0
 20
-15.0
 30
0.0
 11
79.0
 21
-15.0
 31
0.0
  0
MTEXT
  5
7B
100
AcDbEntity
100
AcDbMText
  8
dimensions
 62
256
370
-1
  6
ByLayer
 10
77.0
 20
22.0
 30
0.0
 40
1.5
 41
100.0
 71
1
 72
2
  1
3\~mm\~dia
  7
normallatin1
 50
0.0
 73
0
 44
1.0
  0
MTEXT
  5
7C
100
AcDbEntity
100
AcDbMText
  8
dimensions
 62
256
370
-1
  6
ByLayer
 10
76.25
 20
-18.25
 30
0.0
 40
1.5
 41
100.0
 71
1
 72
2
  1
3\~mm\~dia
  7
normallatin1
 50
0.0
 73
0
 44
1.0
  0
LEADER
  5
7D
  8
dimensions
 62
256
370
-1
  6
ByLayer
100
AcDbEntity
100
AcDbLeader
  3
Standard
 71
1
 72
0
 73
3
 74
0
 75
0
 40
1.0
 41
10.0
 76
3
 10
70.9135802469135825
 20
-16.5351377018043664
 10
75.857075023741686
 20
-20.7967711301044638
 10
85.9145299145299077
 20
-20.7967711301044638
  0
LEADER
  5
7E
  8
dimensions
 62
256
370
-1
  6
ByLayer
100
AcDbEntity
100
AcDbLeader
  3
Standard
 71
1
 72
0
 73
3
 74
0
 75
0
 40
1.0
 41
10.0
 76
3
 10
70.2317188983855658
 20
16.5351377018043664
 10
76.1980056980057014
 20
19.7739791073124387
 10
86.7668566001899251
 20
19.7739791073124387
  0
MTEXT
  5
7F
100
AcDbEntity
100
AcDbMText
  8
dimensions
 62
256
370
5
  6
ByLayer
 10
53.0
 20
69.0
 30
0.0
 40
1.0
 41
100.0
 71
1
 72
2
  1
dish\~end\~with\Plarge\~drill
  7
normallatin1
 50
0.0
 73
1
 44
1.0
  0
LEADER
  5
80
  8
dimensions
 62
256
370
5
  6
ByLayer
100
AcDbEntity
100
AcDbLeader
  3
Standard
 71
1
 72
0
 73
3
 74
0
 75
0
 40
1.0
 41
10.0
 76
3
 10
68.0
 20
60.5
 10
60.5
 20
67.5
 10
60.5
 20
67.5
  0
LINE
  5
81
100
AcDbEntity
100
AcDbLine
  8
outlines
 62
256
370
13
  6
ByLayer
 10
67.5
 20
54.5
 30
0.0
 11
107.5
 21
54.5
 31
0.0
  0
LINE
  5
82
100
AcDbEntity
100
AcDbLine
  8
outlines
 62
256
370
13
  6
ByLayer
 10
107.5
 20
70.5
 30
0.0
 11
67.5
 21
70.5
 31
0.0
  0
LINE
  5
83
100
AcDbEntity
100
AcDbLine
  8
centres
 62
256
370
5
  6
CENTER2
 10
63.5
 20
62.5
 30
0.0
 11
111.5
 21
62.5
 31
0.0
  0
LINE
  5
84
100
AcDbEntity
100
AcDbLine
  8
outlines
 62
256
370
13
  6
CONTINUOUS
 10
107.5
 20
67.0
 30
0.0
 11
97.5
 21
67.0
 31
0.0
  0
LINE
  5
85
100
AcDbEntity
100
AcDbLine
  8
outlines
 62
256
370
13
  6
CONTINUOUS
 10
97.5
 20
57.5
 30
0.0
 11
107.5
 21
57.5
 31
0.0
  0
LINE
  5
86
100
AcDbEntity
100
AcDbLine
  8
outlines
 62
256
370
13
  6
CONTINUOUS
 10
67.5
 20
65.5
 30
0.0
 11
68.25
 21
64.25
 31
0.0
  0
LINE
  5
87
100
AcDbEntity
100
AcDbLine
  8
outlines
 62
256
370
13
  6
CONTINUOUS
 10
67.5
 20
59.5
 30
0.0
 11
68.25
 21
60.75
 31
0.0
  0
LINE
  5
88
100
AcDbEntity
100
AcDbLine
  8
outlines
 62
256
370
13
  6
CONTINUOUS
 10
68.25
 20
60.75
 30
0.0
 11
68.25
 21
64.25
 31
0.0
  0
LINE
  5
89
100
AcDbEntity
100
AcDbLine
  8
outlines
 62
256
370
13
  6
CONTINUOUS
 10
97.5
 20
65.75
 30
0.0
 11
71.5
 21
65.75
 31
0.0
  0
LINE
  5
8A
100
AcDbEntity
100
AcDbLine
  8
outlines
 62
256
370
13
  6
CONTINUOUS
 10
71.5
 20
59.25
 30
0.0
 11
97.5
 21
59.25
 31
0.0
  0
LINE
  5
8B
100
AcDbEntity
100
AcDbLine
  8
outlines
 62
256
370
13
  6
ByLayer
 10
68.25
 20
64.25
 30
0.0
 11
71.5
 21
64.25
 31
0.0
  0
LINE
  5
8C
100
AcDbEntity
100
AcDbLine
  8
outlines
 62
256
370
13
  6
ByLayer
 10
68.25
 20
60.75
 30
0.0
 11
71.5
 21
60.75
 31
0.0
  0
DIMENSION
  5
8D
100
AcDbEntity
  8
dimensions
 62
256
370
5
  6
CONTINUOUS
100
AcDbDimension
 10
71.5
 20
50.5
 30
0.0
 11
69.5
 21
52.125
 31
0.0
 70
0
 71
5
 72
1
 41
1.0
 42
0.0
  1

  3
Standard
100
AcDbAlignedDimension
 13
67.5
 23
54.75
 33
0.0
 14
71.5
 24
59.25
 34
0.0
 50
0.0
100
AcDbRotatedDimension
  0
DIMENSION
  5
8E
100
AcDbEntity
  8
dimensions
 62
256
370
5
  6
CONTINUOUS
100
AcDbDimension
 10
97.5
 20
48.5
 30
0.0
 11
82.5
 21
50.125
 31
0.0
 70
0
 71
5
 72
1
 41
1.0
 42
0.0
  1

  3
Standard
100
AcDbAlignedDimension
 13
67.5
 23
54.5
 33
0.0
 14
97.5
 24
57.5
 34
0.0
 50
0.0
100
AcDbRotatedDimension
  0
DIMENSION
  5
8F
100
AcDbEntity
  8
dimensions
 62
256
370
5
  6
CONTINUOUS
100
AcDbDimension
 10
107.5
 20
45.0
 30
0.0
 11
87.5
 21
46.625
 31
0.0
 70
0
 71
5
 72
1
 41
1.0
 42
0.0
  1

  3
Standard
100
AcDbAlignedDimension
 13
67.5
 23
54.5
 33
0.0
 14
107.5
 24
54.5
 34
0.0
 50
0.0
100
AcDbRotatedDimension
  0
LINE
  5
90
100
AcDbEntity
100
AcDbLine
  8
outlines
 62
256
370
13
  6
ByLayer
 10
67.5
 20
59.5
 30
0.0
 11
67.5
 21
54.5
 31
0.0
  0
LINE
  5
91
100
AcDbEntity
100
AcDbLine
  8
outlines
 62
256
370
13
  6
ByLayer
 10
67.5
 20
70.5
 30
0.0
 11
67.5
 21
65.5
 31
0.0
  0
LINE
  5
92
100
AcDbEntity
100
AcDbLine
  8
outlines
 62
256
370
13
  6
ByLayer
 10
67.5
 20
65.5
 30
0.0
 11
67.5
 21
59.5
 31
0.0
  0
LINE
  5
93
100
AcDbEntity
100
AcDbLine
  8
outlines
 62
256
370
13
  6
CONTINUOUS
 10
71.5
 20
65.75
 30
0.0
 11
71.5
 21
64.25
 31
0.0
  0
LINE
  5
94
100
AcDbEntity
100
AcDbLine
  8
outlines
 62
256
370
13
  6
CONTINUOUS
 10
71.5
 20
64.25
 30
0.0
 11
71.5
 21
60.75
 31
0.0
  0
LINE
  5
95
100
AcDbEntity
100
AcDbLine
  8
outlines
 62
256
370
13
  6
CONTINUOUS
 10
71.5
 20
60.75
 30
0.0
 11
71.5
 21
59.25
 31
0.0
  0
LINE
  5
96
100
AcDbEntity
100
AcDbLine
  8
outlines
 62
256
370
13
  6
CONTINUOUS
 10
97.5
 20
59.25
 30
0.0
 11
97.5
 21
57.5
 31
0.0
  0
LINE
  5
97
100
AcDbEntity
100
AcDbLine
  8
outlines
 62
256
370
13
  6
CONTINUOUS
 10
97.5
 20
67.0
 30
0.0
 11
97.5
 21
65.75
 31
0.0
  0
LINE
  5
98
100
AcDbEntity
100
AcDbLine
  8
outlines
 62
256
370
13
  6
CONTINUOUS
 10
97.5
 20
65.75
 30
0.0
 11
97.5
 21
59.25
 31
0.0
  0
LINE
  5
99
100
AcDbEntity
100
AcDbLine
  8
outlines
 62
256
370
13
  6
ByLayer
 10
107.5
 20
67.0
 30
0.0
 11
107.5
 21
70.5
 31
0.0
  0
LINE
  5
9A
100
AcDbEntity
100
AcDbLine
  8
outlines
 62
256
370
13
  6
ByLayer
 10
107.5
 20
54.5
 30
0.0
 11
107.5
 21
57.5
 31
0.0
  0
LINE
  5
9B
100
AcDbEntity
100
AcDbLine
  8
outlines
 62
256
370
13
  6
ByLayer
 10
107.5
 20
57.5
 30
0.0
 11
107.5
 21
67.0
 31
0.0
  0
DIMENSION
  5
9C
100
AcDbEntity
  8
dimensions
 62
256
370
5
  6
CONTINUOUS
100
AcDbDimension
 10
62.75
 20
54.5
 30
0.0
 11
61.125
 21
62.5
 31
0.0
 70
0
 71
5
 72
1
 41
1.0
 42
0.0
  1

  3
Standard
100
AcDbAlignedDimension
 13
67.5
 23
70.5
 33
0.0
 14
67.5
 24
54.5
 34
0.0
 50
90.0
100
AcDbRotatedDimension
  0
MTEXT
  5
9D
100
AcDbEntity
100
AcDbMText
  8
Names
 62
256
370
18
  6
ByLayer
 10
72.4942313611735187
 20
80.7920650140736996
 30
0.0
 40
1.5
 41
100.0
 71
1
 72
2
  1
16\~mm\~dia.\~PEEK\~insulator
  7
normallatin1
 50
0.0
 73
1
 44
1.0
  0
LEADER
  5
9E
  8
dimensions
 62
256
370
5
  6
CONTINUOUS
100
AcDbEntity
100
AcDbLeader
  3
Standard
 71
1
 72
0
 73
3
 74
0
 75
0
 40
1.0
 41
10.0
 76
4
 10
69.25
 20
64.25
 10
73.25
 20
72.75
 10
73.25
 20
72.75
 10
73.25
 20
72.75
  0
LEADER
  5
9F
  8
dimensions
 62
256
370
5
  6
CONTINUOUS
100
AcDbEntity
100
AcDbLeader
  3
Standard
 71
1
 72
0
 73
3
 74
0
 75
0
 40
1.0
 41
10.0
 76
3
 10
78.5
 20
65.75
 10
82.75
 20
72.75
 10
82.75
 20
72.75
  0
LEADER
  5
A0
  8
dimensions
 62
256
370
5
  6
CONTINUOUS
100
AcDbEntity
100
AcDbLeader
  3
Standard
 71
1
 72
0
 73
3
 74
0
 75
0
 40
1.0
 41
10.0
 76
2
 10
101.25
 20
67.0
 10
104.5
 20
72.75
  0
MTEXT
  5
A1
100
AcDbEntity
100
AcDbMText
  8
dimensions
 62
256
370
5
  6
CONTINUOUS
 10
68.25
 20
74.5
 30
0.0
 40
1.5
 41
100.0
 71
1
 72
0
  1
3.5mm\~dia.
  7
normallatin1
 50
0.0
 73
1
 44
1.0
  0
MTEXT
  5
A2
100
AcDbEntity
100
AcDbMText
  8
dimensions
 62
256
370
5
  6
CONTINUOUS
 10
81.25
 20
74.5
 30
0.0
 40
1.5
 41
100.0
 71
1
 72
0
  1
6.4mm\~dia.
  7
normallatin1
 50
0.0
 73
1
 44
1.0
  0
MTEXT
  5
A3
100
AcDbEntity
100
AcDbMText
  8
dimensions
 62
256
370
5
  6
CONTINUOUS
 10
100.75
 20
74.5
 30
0.0
 40
1.5
 41
100.0
 71
1
 72
0
  1
9.5\~mm\~dia.
  7
normallatin1
 50
0.0
 73
1
 44
1.0
  0
LINE
  5
A4
100
AcDbEntity
100
AcDbLine
  8
outlines
 62
256
370
13
  6
CONTINUOUS
 10
114.5
 20
62.5
 30
0.0
 11
114.5
 21
65.75
 31
0.0
  0
LINE
  5
A5
100
AcDbEntity
100
AcDbLine
  8
outlines
 62
256
370
13
  6
CONTINUOUS
 10
114.5
 20
65.75
 30
0.0
 11
152.5
 21
65.75
 31
0.0
  0
LINE
  5
A6
100
AcDbEntity
100
AcDbLine
  8
outlines
 62
256
370
13
  6
CONTINUOUS
 10
152.5
 20
65.75
 30
0.0
 11
152.5
 21
59.25
 31
0.0
  0
LINE
  5
A7
100
AcDbEntity
100
AcDbLine
  8
outlines
 62
256
370
13
  6
CONTINUOUS
 10
152.5
 20
59.25
 30
0.0
 11
114.5
 21
59.25
 31
0.0
  0
LINE
  5
A8
100
AcDbEntity
100
AcDbLine
  8
outlines
 62
256
370
13
  6
CONTINUOUS
 10
114.5
 20
59.25
 30
0.0
 11
114.5
 21
62.5
 31
0.0
  0
LINE
  5
A9
100
AcDbEntity
100
AcDbLine
  8
outlines
 62
256
370
5
  6
DOT
 10
114.5
 20
64.25
 30
0.0
 11
152.5
 21
64.25
 31
0.0
  0
LINE
  5
AA
100
AcDbEntity
100
AcDbLine
  8
outlines
 62
256
370
5
  6
DOT
 10
152.5
 20
60.75
 30
0.0
 11
114.5
 21
60.75
 31
0.0
  0
MTEXT
  5
AB
100
AcDbEntity
100
AcDbMText
  8
Names
 62
256
370
18
  6
CONTINUOUS
 10
120.25
 20
72.0
 30
0.0
 40
1.5
 41
100.0
 71
1
 72
0
  1
6.4\~mm\~dia\~PTFE\~sleeve
  7
normallatin1
 50
0.0
 73
1
 44
1.0
  0
LINE
  5
AC
100
AcDbEntity
100
AcDbLine
  8
centres
 62
256
370
5
  6
CENTER2
 10
113.25
 20
62.5
 30
0.0
 11
154.25
 21
62.5
 31
0.0
  0
DIMENSION
  5
AD
100
AcDbEntity
  8
dimensions
 62
256
370
5
  6
CONTINUOUS
100
AcDbDimension
 10
152.5
 20
55.0
 30
0.0
 11
133.5
 21
56.625
 31
0.0
 70
0
 71
5
 72
1
 41
1.0
 42
0.0
  1

  3
Standard
100
AcDbAlignedDimension
 13
114.5
 23
59.25
 33
0.0
 14
152.5
 24
59.25
 34
0.0
 50
0.0
100
AcDbRotatedDimension
  0
LEADER
  5
AE
  8
centres
 62
256
370
-1
  6
ByLayer
100
AcDbEntity
100
AcDbLeader
  3
Standard
 71
1
 72
0
 73
3
 74
0
 75
0
 40
1.0
 41
10.0
 76
5
 10
184.0
 20
64.25
 10
190.5
 20
55.75
 10
190.5
 20
55.75
 10
190.5
 20
55.75
 10
190.5
 20
55.75
  0
MTEXT
  5
AF
100
AcDbEntity
100
AcDbMText
  8
dimensions
 62
256
370
5
  6
ByLayer
 10
200.4079416197829175
 20
65.7873333705496748
 30
0.0
 40
1.0
 41
100.0
 71
1
 72
2
  1
nozzle\~0.5\~dia.
  7
normallatin1
 50
0.0
 73
1
 44
1.0
  0
MTEXT
  5
B0
100
AcDbEntity
100
AcDbMText
  8
dimensions
 62
256
370
5
  6
ByLayer
 10
199.3117110405670758
 20
57.4187136394205169
 30
0.0
 40
1.0
 41
100.0
 71
1
 72
2
  1
nozzle\~hole\~\P0.5\~mm\~long
  7
normallatin1
 50
0.0
 73
1
 44
1.0
  0
MTEXT
  5
B1
100
AcDbEntity
100
AcDbMText
  8
dimensions
 62
256
370
5
  6
ByLayer
 10
196.2614415360461351
 20
72.2349020483521826
 30
0.0
 40
1.0
 41
100.0
 71
1
 72
2
  1
cone\~angle\Pmatches\~drill\~tip\P
  7
normallatin1
 50
0.0
 73
1
 44
1.0
  0
LINE
  5
B2
100
AcDbEntity
100
AcDbLine
  8
outlines
 62
256
370
13
  6
CONTINUOUS
 10
162.25
 20
65.75
 30
0.0
 11
172.25
 21
65.75
 31
0.0
  0
LINE
  5
B3
100
AcDbEntity
100
AcDbLine
  8
outlines
 62
256
370
13
  6
CONTINUOUS
 10
172.25
 20
59.25
 30
0.0
 11
162.25
 21
59.25
 31
0.0
  0
DIMENSION
  5
B4
100
AcDbEntity
  8
dimensions
 62
256
370
5
  6
CONTINUOUS
100
AcDbDimension
 10
172.25
 20
54.25
 30
0.0
 11
167.25
 21
55.875
 31
0.0
 70
0
 71
5
 72
1
 41
1.0
 42
0.0
  1

  3
Standard
100
AcDbAlignedDimension
 13
162.25
 23
57.75
 33
0.0
 14
172.25
 24
59.25
 34
0.0
 50
0.0
100
AcDbRotatedDimension
  0
LINE
  5
B5
100
AcDbEntity
100
AcDbLine
  8
outlines
 62
256
370
13
  6
CONTINUOUS
 10
174.25
 20
66.5
 30
0.0
 11
174.5
 21
66.5
 31
0.0
  0
LINE
  5
B6
100
AcDbEntity
100
AcDbLine
  8
outlines
 62
256
370
13
  6
CONTINUOUS
 10
174.25
 20
67.25
 30
0.0
 11
174.25
 21
66.5
 31
0.0
  0
LINE
  5
B7
100
AcDbEntity
100
AcDbLine
  8
outlines
 62
256
370
13
  6
CONTINUOUS
 10
162.25
 20
67.25
 30
0.0
 11
174.25
 21
67.25
 31
0.0
  0
LINE
  5
B8
100
AcDbEntity
100
AcDbLine
  8
outlines
 62
256
370
13
  6
CONTINUOUS
 10
174.25
 20
57.75
 30
0.0
 11
174.25
 21
58.5
 31
0.0
  0
LINE
  5
B9
100
AcDbEntity
100
AcDbLine
  8
outlines
 62
256
370
13
  6
CONTINUOUS
 10
174.25
 20
57.75
 30
0.0
 11
162.25
 21
57.75
 31
0.0
  0
DIMENSION
  5
BA
100
AcDbEntity
  8
dimensions
 62
256
370
5
  6
CONTINUOUS
100
AcDbDimension
 10
174.25
 20
51.0
 30
0.0
 11
168.25
 21
52.625
 31
0.0
 70
0
 71
5
 72
1
 41
1.0
 42
0.0
  1

  3
Standard
100
AcDbAlignedDimension
 13
162.25
 23
57.75
 33
0.0
 14
174.25
 24
57.75
 34
0.0
 50
0.0
100
AcDbRotatedDimension
  0
MTEXT
  5
BB
100
AcDbEntity
100
AcDbMText
  8
dimensions
 62
256
370
5
  6
ByLayer
 10
191.6095988772171381
 20
55.5717254004390142
 30
0.0
 40
1.0
 41
100.0
 71
1
 72
2
  1
3.5\~dia.
  7
normallatin1
 50
0.0
 73
1
 44
1.0
  0
LINE
  5
BC
100
AcDbEntity
100
AcDbLine
  8
outlines
 62
256
370
13
  6
ByLayer
 10
196.6071428571428612
 20
62.75
 30
0.0
 11
196.6071428571428612
 21
62.25
 31
0.0
  0
LEADER
  5
BD
  8
dimensions
 62
256
370
5
  6
ByLayer
100
AcDbEntity
100
AcDbLeader
  3
Standard
 71
1
 72
0
 73
3
 74
0
 75
0
 40
1.0
 41
10.0
 76
2
 10
196.2531572250571514
 20
65.0138431657144622
 10
199.443804320002414
 20
69.0263236032971577
  0
LEADER
  5
BE
  8
dimensions
 62
256
370
5
  6
ByLayer
100
AcDbEntity
100
AcDbLeader
  3
Standard
 71
1
 72
0
 73
3
 74
0
 75
0
 40
1.0
 41
10.0
 76
2
 10
197.5659813264409763
 20
62.2603166811047402
 10
202.2158377130089661
 20
56.5558536913975871
  0
LINE
  5
BF
100
AcDbEntity
100
AcDbLine
  8
outlines
 62
256
370
13
  6
ByLayer
 10
195.75
 20
64.25
 30
0.0
 11
196.6071428571428612
 21
62.7500000000000071
 31
0.0
  0
LINE
  5
C0
100
AcDbEntity
100
AcDbLine
  8
outlines
 62
256
370
13
  6
ByLayer
 10
196.6071428571428612
 20
62.25
 30
0.0
 11
195.75
 21
60.75
 31
0.0
  0
LINE
  5
C1
100
AcDbEntity
100
AcDbLine
  8
outlines
 62
256
370
13
  6
ByLayer
 10
196.6071428571428612
 20
62.75
 30
0.0
 11
197.3541666666666572
 21
62.75
 31
0.0
  0
LINE
  5
C2
100
AcDbEntity
100
AcDbLine
  8
outlines
 62
256
370
13
  6
ByLayer
 10
196.6071428571428612
 20
62.25
 30
0.0
 11
197.3541666666666572
 21
62.25
 31
0.0
  0
LINE
  5
C3
100
AcDbEntity
100
AcDbLine
  8
outlines
 62
256
370
13
  6
ByLayer
 10
197.3541666666666572
 20
62.75
 30
0.0
 11
197.3541666666666572
 21
62.25
 31
0.0
  0
LINE
  5
C4
100
AcDbEntity
100
AcDbLine
  8
outlines
 62
256
370
13
  6
ByLayer
 10
195.75
 20
65.5
 30
0.0
 11
196.0416666666666572
 21
65.0
 31
0.0
  0
LEADER
  5
C5
  8
dimensions
 62
256
370
5
  6
ByLayer
100
AcDbEntity
100
AcDbLeader
  3
Standard
 71
1
 72
0
 73
3
 74
0
 75
0
 40
1.0
 41
10.0
 76
3
 10
197.5
 20
62.75
 10
203.25
 20
64.75
 10
203.25
 20
64.75
  0
LINE
  5
C6
100
AcDbEntity
100
AcDbLine
  8
outlines
 62
256
370
13
  6
ByLayer
 10
195.1666666666666572
 20
66.5
 30
0.0
 11
197.3541666666666572
 21
62.75
 31
0.0
  0
LINE
  5
C7
100
AcDbEntity
100
AcDbLine
  8
outlines
 62
256
370
13
  6
ByLayer
 10
174.5
 20
66.5
 30
0.0
 11
195.1666666666666572
 21
66.5
 31
0.0
  0
LINE
  5
C8
100
AcDbEntity
100
AcDbLine
  8
outlines
 62
256
370
13
  6
ByLayer
 10
195.75
 20
60.75
 30
0.0
 11
172.25
 21
60.75
 31
0.0
  0
LINE
  5
C9
100
AcDbEntity
100
AcDbLine
  8
outlines
 62
256
370
13
  6
ByLayer
 10
195.75
 20
64.25
 30
0.0
 11
195.75
 21
60.75
 31
0.0
  0
LINE
  5
CA
100
AcDbEntity
100
AcDbLine
  8
outlines
 62
256
370
13
  6
ByLayer
 10
172.25
 20
64.25
 30
0.0
 11
195.75
 21
64.25
 31
0.0
  0
DIMENSION
  5
CB
100
AcDbEntity
  8
dimensions
 62
256
370
5
  6
CONTINUOUS
100
AcDbDimension
 10
197.25
 20
49.25
 30
0.0
 11
179.75
 21
50.875
 31
0.0
 70
0
 71
5
 72
1
 41
1.0
 42
0.0
  1

  3
Standard
100
AcDbAlignedDimension
 13
162.25
 23
57.75
 33
0.0
 14
197.25
 24
62.5
 34
0.0
 50
0.0
100
AcDbRotatedDimension
  0
MTEXT
  5
CC
100
AcDbEntity
100
AcDbMText
  8
Names
 62
256
370
18
  6
ByLayer
 10
172.5
 20
79.75
 30
0.0
 40
1.5
 41
100.0
 71
1
 72
2
  1
Brass\~Nozzle
  7
normallatin1
 50
0.0
 73
1
 44
1.0
  0
LEADER
  5
CD
  8
dimensions
 62
256
370
5
  6
CONTINUOUS
100
AcDbEntity
100
AcDbLeader
  3
Standard
 71
1
 72
0
 73
3
 74
0
 75
0
 40
1.0
 41
10.0
 76
2
 10
179.0
 20
66.5
 10
183.25
 20
70.0
  0
LINE
  5
CE
100
AcDbEntity
100
AcDbLine
  8
outlines
 62
256
370
13
  6
CONTINUOUS
 10
162.25
 20
62.5
 30
0.0
 11
162.25
 21
65.75
 31
0.0
  0
LINE
  5
CF
100
AcDbEntity
100
AcDbLine
  8
outlines
 62
256
370
13
  6
CONTINUOUS
 10
162.25
 20
65.75
 30
0.0
 11
162.25
 21
67.25
 31
0.0
  0
LINE
  5
D0
100
AcDbEntity
100
AcDbLine
  8
outlines
 62
256
370
13
  6
CONTINUOUS
 10
162.25
 20
57.75
 30
0.0
 11
162.25
 21
59.25
 31
0.0
  0
LINE
  5
D1
100
AcDbEntity
100
AcDbLine
  8
outlines
 62
256
370
13
  6
CONTINUOUS
 10
162.25
 20
59.25
 30
0.0
 11
162.25
 21
62.5
 31
0.0
  0
LINE
  5
D2
100
AcDbEntity
100
AcDbLine
  8
outlines
 62
256
370
13
  6
CONTINUOUS
 10
172.25
 20
65.75
 30
0.0
 11
172.25
 21
64.25
 31
0.0
  0
LINE
  5
D3
100
AcDbEntity
100
AcDbLine
  8
outlines
 62
256
370
13
  6
CONTINUOUS
 10
172.25
 20
64.25
 30
0.0
 11
172.25
 21
60.75
 31
0.0
  0
LINE
  5
D4
100
AcDbEntity
100
AcDbLine
  8
outlines
 62
256
370
13
  6
CONTINUOUS
 10
172.25
 20
60.75
 30
0.0
 11
172.25
 21
59.25
 31
0.0
  0
LINE
  5
D5
100
AcDbEntity
100
AcDbLine
  8
outlines
 62
256
370
13
  6
CONTINUOUS
 10
174.25
 20
58.5
 30
0.0
 11
195.25
 21
58.5
 31
0.0
  0
LINE
  5
D6
100
AcDbEntity
100
AcDbLine
  8
outlines
 62
256
370
13
  6
CONTINUOUS
 10
195.25
 20
58.5
 30
0.0
 11
197.3541666666666572
 21
62.25
 31
0.0
  0
MTEXT
  5
D7
100
AcDbEntity
100
AcDbMText
  8
dimensions
 62
256
370
5
  6
CONTINUOUS
 10
181.0
 20
71.5
 30
0.0
 40
1.5
 41
100.0
 71
1
 72
0
  1
8\~mm\~dia
  7
normallatin1
 50
0.0
 73
1
 44
1.0
  0
LINE
  5
D8
100
AcDbEntity
100
AcDbLine
  8
centres
 62
256
370
5
  6
CENTER
 10
160.25
 20
62.5
 30
0.0
 11
201.25
 21
62.5
 31
0.0
  0
MTEXT
  5
D9
100
AcDbEntity
100
AcDbMText
  8
dimensions
 62
256
370
5
  6
CONTINUOUS
 10
159.75
 20
72.75
 30
0.0
 40
1.5
 41
100.0
 71
1
 72
0
  1
9.5mm\~dia
  7
normallatin1
 50
0.0
 73
1
 44
1.0
  0
LEADER
  5
DA
  8
dimensions
 62
256
370
5
  6
CONTINUOUS
100
AcDbEntity
100
AcDbLeader
  3
Standard
 71
1
 72
0
 73
3
 74
0
 75
0
 40
1.0
 41
10.0
 76
2
 10
167.0
 20
67.25
 10
164.25
 20
70.75
  0
LEADER
  5
DB
  8
dimensions
 62
256
370
5
  6
CONTINUOUS
100
AcDbEntity
100
AcDbLeader
  3
Standard
 71
1
 72
0
 73
3
 74
0
 75
0
 40
1.0
 41
10.0
 76
2
 10
169.25
 20
65.75
 10
177.25
 20
73.5
  0
MTEXT
  5
DC
100
AcDbEntity
100
AcDbMText
  8
dimensions
 62
256
370
5
  6
CONTINUOUS
 10
174.25
 20
75.25
 30
0.0
 40
1.5
 41
100.0
 71
1
 72
0
  1
6.4\~mm\~dia
  7
normallatin1
 50
0.0
 73
1
 44
1.0
  0
LINE
  5
DD
100
AcDbEntity
100
AcDbLine
  8
outlines
 62
256
370
5
  6
DOT2
 10
114.5
 20
65.5
 30
0.0
 11
115.25
 21
64.25
 31
0.0
  0
LINE
  5
DE
100
AcDbEntity
100
AcDbLine
  8
outlines
 62
256
370
5
  6
DOT2
 10
115.25
 20
64.25
 30
0.0
 11
115.25
 21
60.75
 31
0.0
  0
LINE
  5
DF
100
AcDbEntity
100
AcDbLine
  8
outlines
 62
256
370
5
  6
DOT2
 10
115.25
 20
60.75
 30
0.0
 11
114.5
 21
59.5
 31
0.0
  0
LEADER
  5
E0
  8
dimensions
 62
256
370
5
  6
CONTINUOUS
100
AcDbEntity
100
AcDbLeader
  3
Standard
 71
1
 72
0
 73
3
 74
0
 75
0
 40
1.0
 41
10.0
 76
2
 10
115.0
 20
60.25
 10
120.0
 20
50.0
  0
MTEXT
  5
E1
100
AcDbEntity
100
AcDbMText
  8
dimensions
 62
256
370
5
  6
CONTINUOUS
 10
120.25
 20
52.0
 30
0.0
 40
1.5
 41
100.0
 71
1
 72
0
  1
dish\~end\Pwith\~drill\Pby\~hand
  7
normallatin1
 50
0.0
 73
1
 44
1.0
  0
LINE
  5
E2
100
AcDbEntity
100
AcDbLine
  8
outlines
 62
256
370
15
  6
ByLayer
 10
155.0
 20
13.0
 30
0.0
 11
165.0
 21
13.0
 31
0.0
  0
LINE
  5
E3
100
AcDbEntity
100
AcDbLine
  8
outlines
 62
256
370
15
  6
ByLayer
 10
165.0
 20
13.0
 30
0.0
 11
165.0
 21
-5.0
 31
0.0
  0
LINE
  5
E4
100
AcDbEntity
100
AcDbLine
  8
outlines
 62
256
370
15
  6
ByLayer
 10
155.0
 20
-5.0
 30
0.0
 11
155.0
 21
13.0
 31
0.0
  0
LINE
  5
E5
100
AcDbEntity
100
AcDbLine
  8
outlines
 62
256
370
15
  6
ByLayer
 10
165.0
 20
-5.0
 30
0.0
 11
155.0
 21
-5.0
 31
0.0
  0
LINE
  5
E6
100
AcDbEntity
100
AcDbLine
  8
outlines
 62
256
370
5
  6
DASHED
 10
164.0
 20
-5.0
 30
0.0
 11
164.0
 21
-1.25
 31
0.0
  0
LINE
  5
E7
100
AcDbEntity
100
AcDbLine
  8
outlines
 62
256
370
5
  6
DASHED
 10
164.0
 20
-1.25
 30
0.0
 11
163.25
 21
-0.5
 31
0.0
  0
LINE
  5
E8
100
AcDbEntity
100
AcDbLine
  8
outlines
 62
256
370
5
  6
DASHED
 10
163.25
 20
-0.5
 30
0.0
 11
162.5
 21
-1.25
 31
0.0
  0
LINE
  5
E9
100
AcDbEntity
100
AcDbLine
  8
outlines
 62
256
370
5
  6
DASHED
 10
162.5
 20
-1.25
 30
0.0
 11
162.5
 21
-5.0
 31
0.0
  0
LINE
  5
EA
100
AcDbEntity
100
AcDbLine
  8
outlines
 62
256
370
5
  6
DASHED
 10
164.0
 20
-1.25
 30
0.0
 11
162.5
 21
-1.25
 31
0.0
  0
LINE
  5
EB
100
AcDbEntity
100
AcDbLine
  8
centres
 62
256
370
5
  6
DASHDOTX2
 10
155.75
 20
9.0
 30
0.0
 11
163.75
 21
9.0
 31
0.0
  0
LINE
  5
EC
100
AcDbEntity
100
AcDbLine
  8
centres
 62
256
370
5
  6
DASHDOTX2
 10
160.0
 20
12.5
 30
0.0
 11
160.0
 21
5.5
 31
0.0
  0
LINE
  5
ED
100
AcDbEntity
100
AcDbLine
  8
centres
 62
256
370
5
  6
DASHDOTX2
 10
163.25
 20
0.75
 30
0.0
 11
163.25
 21
-6.5
 31
0.0
  0
DIMENSION
  5
EE
100
AcDbEntity
  8
dimensions
 62
256
370
5
  6
ByLayer
100
AcDbDimension
 10
160.0
 20
-9.5
 30
0.0
 11
157.5
 21
-7.875
 31
0.0
 70
0
 71
5
 72
1
 41
1.0
 42
0.0
  1

  3
Standard
100
AcDbAlignedDimension
 13
155.0
 23
-5.0
 33
0.0
 14
160.0
 24
9.0
 34
0.0
 50
0.0
100
AcDbRotatedDimension
  0
DIMENSION
  5
EF
100
AcDbEntity
  8
dimensions
 62
256
370
5
  6
ByLayer
100
AcDbDimension
 10
163.25
 20
-13.25
 30
0.0
 11
159.125
 21
-11.625
 31
0.0
 70
0
 71
5
 72
1
 41
1.0
 42
0.0
  1

  3
Standard
100
AcDbAlignedDimension
 13
155.0
 23
-5.0
 33
0.0
 14
163.25
 24
-5.0
 34
0.0
 50
0.0
100
AcDbRotatedDimension
  0
DIMENSION
  5
F0
100
AcDbEntity
  8
dimensions
 62
256
370
5
  6
ByLayer
100
AcDbDimension
 10
165.0
 20
-16.25
 30
0.0
 11
160.0
 21
-14.625
 31
0.0
 70
0
 71
5
 72
1
 41
1.0
 42
0.0
  1

  3
Standard
100
AcDbAlignedDimension
 13
155.0
 23
-5.0
 33
0.0
 14
165.0
 24
-5.0
 34
0.0
 50
0.0
100
AcDbRotatedDimension
  0
DIMENSION
  5
F1
100
AcDbEntity
  8
dimensions
 62
256
370
5
  6
ByLayer
100
AcDbDimension
 10
146.25
 20
9.0000000000000018
 30
0.0
 11
144.625
 21
1.9999999999999993
 31
0.0
 70
0
 71
5
 72
1
 41
1.0
 42
0.0
  1

  3
Standard
100
AcDbAlignedDimension
 13
155.0
 23
-5.0
 33
0.0
 14
155.75
 24
9.0
 34
0.0
 50
90.0
100
AcDbRotatedDimension
  0
DIMENSION
  5
F2
100
AcDbEntity
  8
dimensions
 62
256
370
5
  6
ByLayer
100
AcDbDimension
 10
143.25
 20
13.0000000000000018
 30
0.0
 11
141.625
 21
4.0000000000000009
 31
0.0
 70
0
 71
5
 72
1
 41
1.0
 42
0.0
  1

  3
Standard
100
AcDbAlignedDimension
 13
155.0
 23
-5.0
 33
0.0
 14
155.0
 24
13.0
 34
0.0
 50
90.0
100
AcDbRotatedDimension
  0
DIMENSION
  5
F3
100
AcDbEntity
  8
dimensions
 62
256
370
5
  6
ByLayer
100
AcDbDimension
 10
168.0
 20
-0.5000000000000004
 30
0.0
 11
166.375
 21
-2.625
 31
0.0
 70
0
 71
5
 72
1
 41
1.0
 42
0.0
  1

  3
Standard
100
AcDbAlignedDimension
 13
165.0
 23
-4.75
 33
0.0
 14
164.5
 24
-0.5
 34
0.0
 50
90.0
100
AcDbRotatedDimension
  0
POINT
  5
F4
100
AcDbEntity
100
AcDbPoint
  8
outlines
 62
256
370
9
  6
DOTX2
 10
165.0
 20
3.25
 30
0.0
  0
POINT
  5
F5
100
AcDbEntity
100
AcDbPoint
  8
outlines
 62
256
370
9
  6
DOTX2
 10
155.0
 20
3.25
 30
0.0
  0
LEADER
  5
F6
  8
Names
 62
256
370
5
  6
ByLayer
100
AcDbEntity
100
AcDbLeader
  3
Standard
 71
1
 72
0
 73
3
 74
0
 75
0
 40
1.0
 41
10.0
 76
2
 10
177.0
 20
-2.5
 10
171.25
 20
-9.0
  0
CIRCLE
  5
F7
100
AcDbEntity
100
AcDbCircle
  8
outlines
 62
256
370
13
  6
ByLayer
 10
160.0
 20
9.0
 30
0.0
 40
3.0
  0
DIMENSION
  5
F8
100
AcDbEntity
  8
outlines
 62
256
370
5
  6
ByLayer
100
AcDbDimension
 10
157.5038491169864585
 20
7.3358994113243128
 30
0.0
 11
159.0986121811340013
 21
10.3520817282989981
 31
0.0
 70
3
 71
5
 72
0
 41
1.0
 42
0.0
  1

  3
Standard
100
AcDbDiametricDimension
 15
162.4961508830135415
 25
10.6641005886756872
 35
0.0
 40
0.0
  0
LINE
  5
F9
100
AcDbEntity
100
AcDbLine
  8
outlines
 62
256
370
5
  6
DOTX2
 10
165.0
 20
5.0
 30
0.0
 11
155.0
 21
5.0
 31
0.0
  0
LINE
  5
FA
100
AcDbEntity
100
AcDbLine
  8
outlines
 62
256
370
5
  6
DOTX2
 10
165.0
 20
-3.0
 30
0.0
 11
155.0
 21
-3.0
 31
0.0
  0
LINE
  5
FB
100
AcDbEntity
100
AcDbLine
  8
centres
 62
256
370
5
  6
CENTERX2
 10
169.0
 20
1.0
 30
0.0
 11
151.25
 21
1.0
 31
0.0
  0
LEADER
  5
FC
  8
dimensions
 62
256
370
5
  6
CONTINUOUS
100
AcDbEntity
100
AcDbLeader
  3
Standard
 71
1
 72
0
 73
3
 74
0
 75
0
 40
1.0
 41
10.0
 76
2
 10
183.0
 20
-4.0
 10
192.0
 20
-9.75
  0
LEADER
  5
FD
  8
dimensions
 62
256
370
5
  6
CONTINUOUS
100
AcDbEntity
100
AcDbLeader
  3
Standard
 71
1
 72
0
 73
3
 74
0
 75
0
 40
1.0
 41
10.0
 76
2
 10
186.0
 20
3.25
 10
194.25
 20
4.5
  0
LINE
  5
FE
100
AcDbEntity
100
AcDbLine
  8
outlines
 62
256
370
15
  6
ByLayer
 10
185.0
 20
-5.0
 30
0.0
 11
185.0
 21
13.0
 31
0.0
  0
LINE
  5
FF
100
AcDbEntity
100
AcDbLine
  8
outlines
 62
256
370
5
  6
DASHED
 10
187.0
 20
-5.0
 30
0.0
 11
187.0
 21
-1.25
 31
0.0
  0
LINE
  5
100
100
AcDbEntity
100
AcDbLine
  8
outlines
 62
256
370
5
  6
DASHED
 10
187.0
 20
-1.25
 30
0.0
 11
187.75
 21
-0.5
 31
0.0
  0
LINE
  5
101
100
AcDbEntity
100
AcDbLine
  8
outlines
 62
256
370
5
  6
DASHED
 10
187.75
 20
-0.5
 30
0.0
 11
188.5
 21
-1.25
 31
0.0
  0
LINE
  5
102
100
AcDbEntity
100
AcDbLine
  8
outlines
 62
256
370
5
  6
DASHED
 10
188.5
 20
-1.25
 30
0.0
 11
188.5
 21
-5.0
 31
0.0
  0
LINE
  5
103
100
AcDbEntity
100
AcDbLine
  8
outlines
 62
256
370
5
  6
DASHED
 10
188.5
 20
-1.25
 30
0.0
 11
187.0
 21
-1.25
 31
0.0
  0
LINE
  5
104
100
AcDbEntity
100
AcDbLine
  8
centres
 62
256
370
5
  6
DASHDOTX2
 10
187.75
 20
0.75
 30
0.0
 11
187.75
 21
-6.25
 31
0.0
  0
DIMENSION
  5
105
100
AcDbEntity
  8
dimensions
 62
256
370
5
  6
ByLayer
100
AcDbDimension
 10
187.75
 20
-9.25
 30
0.0
 11
186.375
 21
-7.625
 31
0.0
 70
0
 71
5
 72
1
 41
1.0
 42
0.0
  1

  3
Standard
100
AcDbAlignedDimension
 13
185.0
 23
-5.0
 33
0.0
 14
187.75
 24
-5.0
 34
0.0
 50
0.0
100
AcDbRotatedDimension
  0
DIMENSION
  5
106
100
AcDbEntity
  8
dimensions
 62
256
370
5
  6
ByLayer
100
AcDbDimension
 10
192.5
 20
-12.5
 30
0.0
 11
188.75
 21
-10.875
 31
0.0
 70
0
 71
5
 72
1
 41
1.0
 42
0.0
  1

  3
Standard
100
AcDbAlignedDimension
 13
185.0
 23
-5.0
 33
0.0
 14
192.5
 24
-4.0
 34
0.0
 50
0.0
100
AcDbRotatedDimension
  0
LINE
  5
107
100
AcDbEntity
100
AcDbLine
  8
outlines
 62
256
370
15
  6
ByLayer
 10
200.0
 20
-5.0
 30
0.0
 11
200.0
 21
13.0
 31
0.0
  0
DIMENSION
  5
108
100
AcDbEntity
  8
dimensions
 62
256
370
5
  6
ByLayer
100
AcDbDimension
 10
200.0
 20
-16.25
 30
0.0
 11
192.5
 21
-14.625
 31
0.0
 70
0
 71
5
 72
1
 41
1.0
 42
0.0
  1

  3
Standard
100
AcDbAlignedDimension
 13
185.0
 23
-5.0
 33
0.0
 14
200.0
 24
-5.0
 34
0.0
 50
0.0
100
AcDbRotatedDimension
  0
LINE
  5
109
100
AcDbEntity
100
AcDbLine
  8
outlines
 62
256
370
15
  6
ByLayer
 10
185.0
 20
13.0
 30
0.0
 11
200.0
 21
13.0
 31
0.0
  0
LINE
  5
10A
100
AcDbEntity
100
AcDbLine
  8
centres
 62
256
370
5
  6
DASHDOTX2
 10
183.0
 20
9.0
 30
0.0
 11
203.0878378378378386
 21
9.0
 31
0.0
  0
LINE
  5
10B
100
AcDbEntity
100
AcDbLine
  8
outlines
 62
256
370
5
  6
DASHED
 10
185.0
 20
12.0
 30
0.0
 11
200.0
 21
12.0
 31
0.0
  0
LINE
  5
10C
100
AcDbEntity
100
AcDbLine
  8
outlines
 62
256
370
5
  6
DASHED
 10
185.0
 20
6.0
 30
0.0
 11
200.0
 21
6.0
 31
0.0
  0
LINE
  5
10D
100
AcDbEntity
100
AcDbLine
  8
centres
 62
256
370
5
  6
CENTERX2
 10
197.75
 20
1.0
 30
0.0
 11
186.75
 21
1.0
 31
0.0
  0
LINE
  5
10E
100
AcDbEntity
100
AcDbLine
  8
centres
 62
256
370
5
  6
CENTERX2
 10
192.5
 20
-3.75
 30
0.0
 11
192.5
 21
5.5
 31
0.0
  0
ARC
  5
10F
100
AcDbEntity
  8
outlines
 62
7
370
13
  6
CONTINUOUS
100
AcDbCircle
 10
192.5
 20
1.0
 30
0.0
 40
4.0
100
AcDbArc
 50
277.1807557814582879
 51
262.8192442185417121
  0
LINE
  5
110
100
AcDbEntity
100
AcDbLine
  8
outlines
 62
256
370
15
  6
ByLayer
 10
192.0
 20
-5.0
 30
0.0
 11
185.0
 21
-5.0
 31
0.0
  0
LINE
  5
111
100
AcDbEntity
100
AcDbLine
  8
outlines
 62
256
370
13
  6
CONTINUOUS
 10
192.0
 20
-2.9686269665968861
 30
0.0
 11
192.0
 21
-5.0
 31
0.0
  0
LINE
  5
112
100
AcDbEntity
100
AcDbLine
  8
outlines
 62
256
370
15
  6
ByLayer
 10
200.0
 20
-5.0000000000000009
 30
0.0
 11
193.0
 21
-5.0
 31
0.0
  0
LINE
  5
113
100
AcDbEntity
100
AcDbLine
  8
outlines
 62
256
370
13
  6
CONTINUOUS
 10
193.0
 20
-2.9686269665968861
 30
0.0
 11
193.0
 21
-5.0
 31
0.0
  0
MTEXT
  5
114
100
AcDbEntity
100
AcDbMText
  8
dimensions
 62
256
370
5
  6
CONTINUOUS
 10
202.0
 20
-8.0
 30
0.0
 40
1.5
 41
100.0
 71
1
 72
0
  1
hacksaw\Pslot
  7
normallatin1
 50
0.0
 73
1
 44
1.0
  0
MTEXT
  5
115
100
AcDbEntity
100
AcDbMText
  8
dimensions
 62
256
370
5
  6
CONTINUOUS
 10
205.5
 20
5.25
 30
0.0
 40
1.5
 41
100.0
 71
1
 72
0
  1
8\~mm\~dia.
  7
normallatin1
 50
0.0
 73
1
 44
1.0
  0
MTEXT
  5
116
100
AcDbEntity
100
AcDbMText
  8
Names
 62
256
370
5
  6
ByLayer
 10
173.25
 20
-6.75
 30
0.0
 40
1.0
 41
100.0
 71
1
 72
2
  1
1.5mm\~dia\~for\Pthermistor
  7
normallatin1
 50
0.0
 73
1
 44
1.0
  0
LEADER
  5
117
  8
dimensions
 62
256
370
5
  6
CONTINUOUS
100
AcDbEntity
100
AcDbLeader
  3
Standard
 71
1
 72
0
 73
3
 74
0
 75
0
 40
1.0
 41
10.0
 76
2
 10
186.9624984970426453
 20
-2.9357747697882726
 10
178.464203110813429
 20
-6.0260640011443494
  0
MTEXT
  5
118
100
AcDbEntity
100
AcDbMText
  8
Names
 62
256
370
18
  6
ByLayer
 10
155.0
 20
30.0
 30
0.0
 40
1.5
 41
100.0
 71
1
 72
2
  1
Brass\~heater\~block\P\Pelevation\~\~\~\~\~\~\~\~\~\~\~\~\~\~\~\~\~\~\~\~\~\~\~plan
  7
normallatin1
 50
0.0
 73
1
 44
1.0
  0
LEADER
  5
119
  8
dimensions
 62
256
370
5
  6
CONTINUOUS
100
AcDbEntity
100
AcDbLeader
  3
Standard
 71
1
 72
0
 73
3
 74
0
 75
0
 40
1.0
 41
10.0
 76
2
 10
196.3878806526786605
 20
2.3177169235170574
 10
204.731661577340077
 20
4.1718904623307029
  0
ENDSEC
  0
SECTION
  2
OBJECTS
  0
DICTIONARY
  5
C
100
AcDbDictionary
280
0
281
1
  3
ACAD_GROUP
350
D
  3
ACAD_LAYOUT
350
1A
  3
ACAD_MLINESTYLE
350
17
  3
ACAD_PLOTSETTINGS
350
19
  3
ACAD_PLOTSTYLENAME
350
E
  3
AcDbVariableDictionary
350
11A
  0
DICTIONARY
  5
D
100
AcDbDictionary
280
0
281
1
  0
ACDBDICTIONARYWDFLT
  5
E
100
AcDbDictionary
281
1
  3
Normal
350
F
100
AcDbDictionaryWithDefault
340
F
  0
ACDBPLACEHOLDER
  5
F
  0
DICTIONARY
  5
17
100
AcDbDictionary
280
0
281
1
  3
Standard
350
18
  0
MLINESTYLE
  5
18
100
AcDbMlineStyle
  2
STANDARD
 70
0
  3

 62
256
 51
90.0
 52
90.0
 71
2
 49
0.5
 62
256
  6
BYLAYER
 49
-0.5
 62
256
  6
BYLAYER
  0
DICTIONARY
  5
19
100
AcDbDictionary
280
0
281
1
  0
DICTIONARY
  5
1A
100
AcDbDictionary
281
1
  3
Layout1
350
1E
  3
Layout2
350
26
  3
Model
350
22
  0
LAYOUT
  5
1E
100
AcDbPlotSettings
  1

  2
C:\Program Files\AutoCAD 2002\plotters\DWF ePlot (optimized for plotting).pc3
  4

  6

 40
0.0
 41
0.0
 42
0.0
 43
0.0
 44
0.0
 45
0.0
 46
0.0
 47
0.0
 48
0.0
 49
0.0
140
0.0
141
0.0
142
1.0
143
1.0
 70
688
 72
0
 73
0
 74
5
  7

 75
16
147
1.0
148
0.0
149
0.0
100
AcDbLayout
  1
Layout1
 70
1
 71
1
 10
0.0
 20
0.0
 11
420.0
 21
297.0
 12
0.0
 22
0.0
 32
0.0
 14
100000000000000000000.0
 24
100000000000000000000.0
 34
100000000000000000000.0
 15
-100000000000000000000.0
 25
-100000000000000000000.0
 35
-100000000000000000000.0
146
0.0
 13
0.0
 23
0.0
 33
0.0
 16
1.0
 26
0.0
 36
0.0
 17
0.0
 27
1.0
 37
0.0
 76
0
330
1B
  0
LAYOUT
  5
22
100
AcDbPlotSettings
  1

  2
C:\Program Files\AutoCAD 2002\plotters\DWF ePlot (optimized for plotting).pc3
  4

  6

 40
0.0
 41
0.0
 42
0.0
 43
0.0
 44
0.0
 45
0.0
 46
0.0
 47
0.0
 48
0.0
 49
0.0
140
0.0
141
0.0
142
1.0
143
1.0
 70
1712
 72
0
 73
0
 74
0
  7

 75
0
147
1.0
148
0.0
149
0.0
100
AcDbLayout
  1
Model
 70
1
 71
0
 10
0.0
 20
0.0
 11
12.0
 21
9.0
 12
0.0
 22
0.0
 32
0.0
 14
0.0
 24
0.0
 34
0.0
 15
0.0
 25
0.0
 35
0.0
146
0.0
 13
0.0
 23
0.0
 33
0.0
 16
1.0
 26
0.0
 36
0.0
 17
0.0
 27
1.0
 37
0.0
 76
0
330
1F
  0
LAYOUT
  5
26
100
AcDbPlotSettings
  1

  2
C:\Program Files\AutoCAD 2002\plotters\DWF ePlot (optimized for plotting).pc3
  4

  6

 40
0.0
 41
0.0
 42
0.0
 43
0.0
 44
0.0
 45
0.0
 46
0.0
 47
0.0
 48
0.0
 49
0.0
140
0.0
141
0.0
142
1.0
143
1.0
 70
688
 72
0
 73
0
 74
5
  7

 75
16
147
1.0
148
0.0
149
0.0
100
AcDbLayout
  1
Layout2
 70
1
 71
2
 10
0.0
 20
0.0
 11
12.0
 21
9.0
 12
0.0
 22
0.0
 32
0.0
 14
0.0
 24
0.0
 34
0.0
 15
0.0
 25
0.0
 35
0.0
146
0.0
 13
0.0
 23
0.0
 33
0.0
 16
1.0
 26
0.0
 36
0.0
 17
0.0
 27
1.0
 37
0.0
 76
0
330
23
  0
DICTIONARY
  5
11A
100
AcDbDictionary
281
1
  3
DIMASSOC
350
11C
  3
HIDETEXT
350
11B
  0
DICTIONARYVAR
  5
11B
100
DictionaryVariables
280
0
  1
2
  0
DICTIONARYVAR
  5
11C
100
DictionaryVariables
280
0
  1
1
  0
ENDSEC
  0
EOF
