solid ascii
  facet normal 8.451746e-001 -5.344904e-001 0.000000e+000
    outer loop
      vertex   -2.220080e+000 1.149454e+000 2.600000e+001
      vertex   -2.220080e+000 1.149454e+000 0.000000e+000
      vertex   -1.990119e+000 1.513085e+000 2.600000e+001
    endloop
  endfacet
  facet normal 8.451746e-001 -5.344904e-001 0.000000e+000
    outer loop
      vertex   -1.990119e+000 1.513085e+000 2.600000e+001
      vertex   -2.220080e+000 1.149454e+000 0.000000e+000
      vertex   -1.990119e+000 1.513085e+000 0.000000e+000
    endloop
  endfacet
  facet normal 7.410153e-001 -6.714881e-001 0.000000e+000
    outer loop
      vertex   -1.701215e+000 1.831902e+000 2.600000e+001
      vertex   -1.990119e+000 1.513085e+000 0.000000e+000
      vertex   -1.701215e+000 1.831902e+000 0.000000e+000
    endloop
  endfacet
  facet normal 6.149090e-001 -7.885981e-001 0.000000e+000
    outer loop
      vertex   -1.361926e+000 2.096463e+000 2.600000e+001
      vertex   -1.701215e+000 1.831902e+000 0.000000e+000
      vertex   -1.361926e+000 2.096463e+000 0.000000e+000
    endloop
  endfacet
  facet normal 4.705906e-001 -8.823517e-001 0.000000e+000
    outer loop
      vertex   -9.822998e-001 2.298932e+000 2.600000e+001
      vertex   -1.361926e+000 2.096463e+000 0.000000e+000
      vertex   -9.822998e-001 2.298932e+000 0.000000e+000
    endloop
  endfacet
  facet normal 3.123345e-001 -9.499722e-001 0.000000e+000
    outer loop
      vertex   -5.735802e-001 2.433312e+000 2.600000e+001
      vertex   -9.822998e-001 2.298932e+000 0.000000e+000
      vertex   -5.735802e-001 2.433312e+000 0.000000e+000
    endloop
  endfacet
  facet normal 1.448278e-001 -9.894569e-001 0.000000e+000
    outer loop
      vertex   -1.478727e-001 2.495623e+000 2.600000e+001
      vertex   -5.735802e-001 2.433312e+000 0.000000e+000
      vertex   -1.478727e-001 2.495623e+000 0.000000e+000
    endloop
  endfacet
  facet normal -2.696839e-002 -9.996363e-001 0.000000e+000
    outer loop
      vertex   2.822145e-001 2.484020e+000 2.600000e+001
      vertex   -1.478727e-001 2.495623e+000 0.000000e+000
      vertex   2.822145e-001 2.484020e+000 0.000000e+000
    endloop
  endfacet
  facet normal -1.979658e-001 -9.802089e-001 0.000000e+000
    outer loop
      vertex   7.039432e-001 2.398846e+000 2.600000e+001
      vertex   2.822145e-001 2.484020e+000 0.000000e+000
      vertex   7.039432e-001 2.398846e+000 0.000000e+000
    endloop
  endfacet
  facet normal -3.631000e-001 -9.317502e-001 0.000000e+000
    outer loop
      vertex   1.104823e+000 2.242625e+000 2.600000e+001
      vertex   7.039432e-001 2.398846e+000 0.000000e+000
      vertex   1.104823e+000 2.242625e+000 0.000000e+000
    endloop
  endfacet
  facet normal -3.631000e-001 -9.317502e-001 -0.000000e+000
    outer loop
      vertex   1.104823e+000 2.242625e+000 2.600000e+001
      vertex   7.039432e-001 2.398846e+000 2.600000e+001
      vertex   7.039432e-001 2.398846e+000 0.000000e+000
    endloop
  endfacet
  facet normal -1.979658e-001 -9.802089e-001 -0.000000e+000
    outer loop
      vertex   7.039432e-001 2.398846e+000 2.600000e+001
      vertex   2.822145e-001 2.484020e+000 2.600000e+001
      vertex   2.822145e-001 2.484020e+000 0.000000e+000
    endloop
  endfacet
  facet normal -2.696839e-002 -9.996363e-001 -0.000000e+000
    outer loop
      vertex   2.822145e-001 2.484020e+000 2.600000e+001
      vertex   -1.478727e-001 2.495623e+000 2.600000e+001
      vertex   -1.478727e-001 2.495623e+000 0.000000e+000
    endloop
  endfacet
  facet normal 1.448278e-001 -9.894569e-001 0.000000e+000
    outer loop
      vertex   -1.478727e-001 2.495623e+000 2.600000e+001
      vertex   -5.735802e-001 2.433312e+000 2.600000e+001
      vertex   -5.735802e-001 2.433312e+000 0.000000e+000
    endloop
  endfacet
  facet normal 3.123345e-001 -9.499722e-001 0.000000e+000
    outer loop
      vertex   -5.735802e-001 2.433312e+000 2.600000e+001
      vertex   -9.822998e-001 2.298932e+000 2.600000e+001
      vertex   -9.822998e-001 2.298932e+000 0.000000e+000
    endloop
  endfacet
  facet normal 4.705906e-001 -8.823517e-001 0.000000e+000
    outer loop
      vertex   -9.822998e-001 2.298932e+000 2.600000e+001
      vertex   -1.361926e+000 2.096463e+000 2.600000e+001
      vertex   -1.361926e+000 2.096463e+000 0.000000e+000
    endloop
  endfacet
  facet normal 6.149090e-001 -7.885981e-001 0.000000e+000
    outer loop
      vertex   -1.361926e+000 2.096463e+000 2.600000e+001
      vertex   -1.701215e+000 1.831902e+000 2.600000e+001
      vertex   -1.701215e+000 1.831902e+000 0.000000e+000
    endloop
  endfacet
  facet normal 7.410153e-001 -6.714881e-001 0.000000e+000
    outer loop
      vertex   -1.701215e+000 1.831902e+000 2.600000e+001
      vertex   -1.990119e+000 1.513085e+000 2.600000e+001
      vertex   -1.990119e+000 1.513085e+000 0.000000e+000
    endloop
  endfacet
  facet normal 9.469301e-001 -3.214395e-001 0.000000e+000
    outer loop
      vertex   4.502719e+000 -1.865087e+000 2.600000e+001
      vertex   4.502719e+000 -1.865087e+000 0.000000e+000
      vertex   4.707640e+000 -1.261408e+000 2.600000e+001
    endloop
  endfacet
  facet normal 9.469301e-001 -3.214395e-001 -1.239141e-016
    outer loop
      vertex   4.707640e+000 -1.261408e+000 2.600000e+001
      vertex   4.502719e+000 -1.865087e+000 0.000000e+000
      vertex   4.707640e+000 -1.261408e+000 0.000000e+000
    endloop
  endfacet
  facet normal 9.807853e-001 -1.950903e-001 -1.197278e-016
    outer loop
      vertex   4.832012e+000 -6.361465e-001 2.600000e+001
      vertex   4.707640e+000 -1.261408e+000 0.000000e+000
      vertex   4.832012e+000 -6.361465e-001 0.000000e+000
    endloop
  endfacet
  facet normal 9.978589e-001 -6.540313e-002 0.000000e+000
    outer loop
      vertex   4.873708e+000 5.905440e-017 2.600000e+001
      vertex   4.832012e+000 -6.361465e-001 0.000000e+000
      vertex   4.873708e+000 5.905440e-017 0.000000e+000
    endloop
  endfacet
  facet normal 9.978589e-001 -6.540313e-002 -1.316026e-016
    outer loop
      vertex   4.873708e+000 5.905440e-017 2.600000e+001
      vertex   4.832012e+000 -6.361465e-001 2.600000e+001
      vertex   4.832012e+000 -6.361465e-001 0.000000e+000
    endloop
  endfacet
  facet normal 9.807853e-001 -1.950903e-001 -1.171740e-016
    outer loop
      vertex   4.832012e+000 -6.361465e-001 2.600000e+001
      vertex   4.707640e+000 -1.261408e+000 2.600000e+001
      vertex   4.707640e+000 -1.261408e+000 0.000000e+000
    endloop
  endfacet
  facet normal -9.499722e-001 -3.123345e-001 -0.000000e+000
    outer loop
      vertex   1.104823e+000 2.242625e+000 2.600000e+001
      vertex   1.104823e+000 2.242625e+000 0.000000e+000
      vertex   2.220080e+000 -1.149454e+000 2.600000e+001
    endloop
  endfacet
  facet normal -9.499722e-001 -3.123345e-001 0.000000e+000
    outer loop
      vertex   2.220080e+000 -1.149454e+000 2.600000e+001
      vertex   1.104823e+000 2.242625e+000 0.000000e+000
      vertex   2.220080e+000 -1.149454e+000 0.000000e+000
    endloop
  endfacet
  facet normal 3.631000e-001 9.317502e-001 -0.000000e+000
    outer loop
      vertex   -1.104823e+000 -2.242625e+000 0.000000e+000
      vertex   -1.104823e+000 -2.242625e+000 2.600000e+001
      vertex   -7.039432e-001 -2.398846e+000 0.000000e+000
    endloop
  endfacet
  facet normal 3.631000e-001 9.317502e-001 0.000000e+000
    outer loop
      vertex   -7.039432e-001 -2.398846e+000 0.000000e+000
      vertex   -1.104823e+000 -2.242625e+000 2.600000e+001
      vertex   -7.039432e-001 -2.398846e+000 2.600000e+001
    endloop
  endfacet
  facet normal 1.979658e-001 9.802089e-001 0.000000e+000
    outer loop
      vertex   -2.822145e-001 -2.484020e+000 0.000000e+000
      vertex   -7.039432e-001 -2.398846e+000 2.600000e+001
      vertex   -2.822145e-001 -2.484020e+000 2.600000e+001
    endloop
  endfacet
  facet normal 2.696839e-002 9.996363e-001 0.000000e+000
    outer loop
      vertex   1.478727e-001 -2.495623e+000 0.000000e+000
      vertex   -2.822145e-001 -2.484020e+000 2.600000e+001
      vertex   1.478727e-001 -2.495623e+000 2.600000e+001
    endloop
  endfacet
  facet normal -1.448278e-001 9.894569e-001 0.000000e+000
    outer loop
      vertex   5.735802e-001 -2.433312e+000 0.000000e+000
      vertex   1.478727e-001 -2.495623e+000 2.600000e+001
      vertex   5.735802e-001 -2.433312e+000 2.600000e+001
    endloop
  endfacet
  facet normal -3.123345e-001 9.499722e-001 0.000000e+000
    outer loop
      vertex   9.822998e-001 -2.298932e+000 0.000000e+000
      vertex   5.735802e-001 -2.433312e+000 2.600000e+001
      vertex   9.822998e-001 -2.298932e+000 2.600000e+001
    endloop
  endfacet
  facet normal -4.705906e-001 8.823517e-001 0.000000e+000
    outer loop
      vertex   1.361926e+000 -2.096463e+000 0.000000e+000
      vertex   9.822998e-001 -2.298932e+000 2.600000e+001
      vertex   1.361926e+000 -2.096463e+000 2.600000e+001
    endloop
  endfacet
  facet normal -6.149090e-001 7.885981e-001 0.000000e+000
    outer loop
      vertex   1.701215e+000 -1.831902e+000 0.000000e+000
      vertex   1.361926e+000 -2.096463e+000 2.600000e+001
      vertex   1.701215e+000 -1.831902e+000 2.600000e+001
    endloop
  endfacet
  facet normal -7.410153e-001 6.714881e-001 0.000000e+000
    outer loop
      vertex   1.990119e+000 -1.513085e+000 0.000000e+000
      vertex   1.701215e+000 -1.831902e+000 2.600000e+001
      vertex   1.990119e+000 -1.513085e+000 2.600000e+001
    endloop
  endfacet
  facet normal -8.451746e-001 5.344904e-001 0.000000e+000
    outer loop
      vertex   2.220080e+000 -1.149454e+000 0.000000e+000
      vertex   1.990119e+000 -1.513085e+000 2.600000e+001
      vertex   2.220080e+000 -1.149454e+000 2.600000e+001
    endloop
  endfacet
  facet normal -8.451746e-001 5.344904e-001 0.000000e+000
    outer loop
      vertex   2.220080e+000 -1.149454e+000 0.000000e+000
      vertex   1.990119e+000 -1.513085e+000 0.000000e+000
      vertex   1.990119e+000 -1.513085e+000 2.600000e+001
    endloop
  endfacet
  facet normal -7.410153e-001 6.714881e-001 0.000000e+000
    outer loop
      vertex   1.990119e+000 -1.513085e+000 0.000000e+000
      vertex   1.701215e+000 -1.831902e+000 0.000000e+000
      vertex   1.701215e+000 -1.831902e+000 2.600000e+001
    endloop
  endfacet
  facet normal -6.149090e-001 7.885981e-001 0.000000e+000
    outer loop
      vertex   1.701215e+000 -1.831902e+000 0.000000e+000
      vertex   1.361926e+000 -2.096463e+000 0.000000e+000
      vertex   1.361926e+000 -2.096463e+000 2.600000e+001
    endloop
  endfacet
  facet normal -4.705906e-001 8.823517e-001 0.000000e+000
    outer loop
      vertex   1.361926e+000 -2.096463e+000 0.000000e+000
      vertex   9.822998e-001 -2.298932e+000 0.000000e+000
      vertex   9.822998e-001 -2.298932e+000 2.600000e+001
    endloop
  endfacet
  facet normal -3.123345e-001 9.499722e-001 0.000000e+000
    outer loop
      vertex   9.822998e-001 -2.298932e+000 0.000000e+000
      vertex   5.735802e-001 -2.433312e+000 0.000000e+000
      vertex   5.735802e-001 -2.433312e+000 2.600000e+001
    endloop
  endfacet
  facet normal -1.448278e-001 9.894569e-001 0.000000e+000
    outer loop
      vertex   5.735802e-001 -2.433312e+000 0.000000e+000
      vertex   1.478727e-001 -2.495623e+000 0.000000e+000
      vertex   1.478727e-001 -2.495623e+000 2.600000e+001
    endloop
  endfacet
  facet normal 2.696839e-002 9.996363e-001 -0.000000e+000
    outer loop
      vertex   1.478727e-001 -2.495623e+000 0.000000e+000
      vertex   -2.822145e-001 -2.484020e+000 0.000000e+000
      vertex   -2.822145e-001 -2.484020e+000 2.600000e+001
    endloop
  endfacet
  facet normal 1.979658e-001 9.802089e-001 -0.000000e+000
    outer loop
      vertex   -2.822145e-001 -2.484020e+000 0.000000e+000
      vertex   -7.039432e-001 -2.398846e+000 0.000000e+000
      vertex   -7.039432e-001 -2.398846e+000 2.600000e+001
    endloop
  endfacet
  facet normal -0.000000e+000 0.000000e+000 -1.000000e+000
    outer loop
      vertex   4.832012e+000 -6.361465e-001 0.000000e+000
      vertex   2.220080e+000 -1.149454e+000 0.000000e+000
      vertex   4.873708e+000 5.905440e-017 0.000000e+000
    endloop
  endfacet
  facet normal -0.000000e+000 0.000000e+000 -1.000000e+000
    outer loop
      vertex   4.832012e+000 -6.361465e-001 0.000000e+000
      vertex   4.707640e+000 -1.261408e+000 0.000000e+000
      vertex   2.220080e+000 -1.149454e+000 0.000000e+000
    endloop
  endfacet
  facet normal 0.000000e+000 -0.000000e+000 -1.000000e+000
    outer loop
      vertex   2.220080e+000 -1.149454e+000 0.000000e+000
      vertex   4.707640e+000 -1.261408e+000 0.000000e+000
      vertex   4.502719e+000 -1.865087e+000 0.000000e+000
    endloop
  endfacet
  facet normal 0.000000e+000 -0.000000e+000 -1.000000e+000
    outer loop
      vertex   1.990119e+000 -1.513085e+000 0.000000e+000
      vertex   4.502719e+000 -1.865087e+000 0.000000e+000
      vertex   3.446232e+000 -3.446232e+000 0.000000e+000
    endloop
  endfacet
  facet normal -0.000000e+000 -0.000000e+000 -1.000000e+000
    outer loop
      vertex   1.701215e+000 -1.831902e+000 0.000000e+000
      vertex   3.446232e+000 -3.446232e+000 0.000000e+000
      vertex   1.361926e+000 -2.096463e+000 0.000000e+000
    endloop
  endfacet
  facet normal 0.000000e+000 0.000000e+000 -1.000000e+000
    outer loop
      vertex   1.701215e+000 -1.831902e+000 0.000000e+000
      vertex   1.990119e+000 -1.513085e+000 0.000000e+000
      vertex   3.446232e+000 -3.446232e+000 0.000000e+000
    endloop
  endfacet
  facet normal -0.000000e+000 0.000000e+000 -1.000000e+000
    outer loop
      vertex   5.529049e+000 -2.817191e+000 0.000000e+000
      vertex   5.281517e+000 -3.257688e+000 0.000000e+000
      vertex   4.502719e+000 -1.865087e+000 0.000000e+000
    endloop
  endfacet
  facet normal 0.000000e+000 -0.000000e+000 -1.000000e+000
    outer loop
      vertex   4.502719e+000 -1.865087e+000 0.000000e+000
      vertex   5.281517e+000 -3.257688e+000 0.000000e+000
      vertex   3.446232e+000 -3.446232e+000 0.000000e+000
    endloop
  endfacet
  facet normal 0.000000e+000 -0.000000e+000 -1.000000e+000
    outer loop
      vertex   3.446232e+000 -3.446232e+000 0.000000e+000
      vertex   5.281517e+000 -3.257688e+000 0.000000e+000
      vertex   4.998967e+000 -3.676586e+000 0.000000e+000
    endloop
  endfacet
  facet normal 0.000000e+000 0.000000e+000 -1.000000e+000
    outer loop
      vertex   4.683273e+000 -4.071107e+000 0.000000e+000
      vertex   3.446232e+000 -3.446232e+000 0.000000e+000
      vertex   4.998967e+000 -3.676586e+000 0.000000e+000
    endloop
  endfacet
  facet normal -0.000000e+000 0.000000e+000 -1.000000e+000
    outer loop
      vertex   3.446232e+000 -3.446232e+000 0.000000e+000
      vertex   2.966925e+000 -3.866572e+000 0.000000e+000
      vertex   1.361926e+000 -2.096463e+000 0.000000e+000
    endloop
  endfacet
  facet normal 0.000000e+000 -0.000000e+000 -1.000000e+000
    outer loop
      vertex   1.361926e+000 -2.096463e+000 0.000000e+000
      vertex   2.966925e+000 -3.866572e+000 0.000000e+000
      vertex   2.436854e+000 -4.220755e+000 0.000000e+000
    endloop
  endfacet
  facet normal 0.000000e+000 -0.000000e+000 -1.000000e+000
    outer loop
      vertex   9.822998e-001 -2.298932e+000 0.000000e+000
      vertex   2.436854e+000 -4.220755e+000 0.000000e+000
      vertex   1.865087e+000 -4.502719e+000 0.000000e+000
    endloop
  endfacet
  facet normal 0.000000e+000 -0.000000e+000 -1.000000e+000
    outer loop
      vertex   5.735802e-001 -2.433312e+000 0.000000e+000
      vertex   1.865087e+000 -4.502719e+000 0.000000e+000
      vertex   -7.443873e-015 -4.873708e+000 0.000000e+000
    endloop
  endfacet
  facet normal -0.000000e+000 0.000000e+000 -1.000000e+000
    outer loop
      vertex   1.478727e-001 -2.495623e+000 0.000000e+000
      vertex   -7.443873e-015 -4.873708e+000 0.000000e+000
      vertex   -6.361465e-001 -4.832012e+000 0.000000e+000
    endloop
  endfacet
  facet normal -0.000000e+000 0.000000e+000 -1.000000e+000
    outer loop
      vertex   -2.822145e-001 -2.484020e+000 0.000000e+000
      vertex   -6.361465e-001 -4.832012e+000 0.000000e+000
      vertex   -1.261408e+000 -4.707640e+000 0.000000e+000
    endloop
  endfacet
  facet normal -0.000000e+000 0.000000e+000 -1.000000e+000
    outer loop
      vertex   -7.039432e-001 -2.398846e+000 0.000000e+000
      vertex   -1.261408e+000 -4.707640e+000 0.000000e+000
      vertex   -1.865087e+000 -4.502719e+000 0.000000e+000
    endloop
  endfacet
  facet normal -0.000000e+000 0.000000e+000 -1.000000e+000
    outer loop
      vertex   -1.104823e+000 -2.242625e+000 0.000000e+000
      vertex   -1.865087e+000 -4.502719e+000 0.000000e+000
      vertex   -3.446232e+000 -3.446232e+000 0.000000e+000
    endloop
  endfacet
  facet normal 0.000000e+000 -0.000000e+000 -1.000000e+000
    outer loop
      vertex   -3.866572e+000 -2.966925e+000 0.000000e+000
      vertex   -1.104823e+000 -2.242625e+000 0.000000e+000
      vertex   -3.446232e+000 -3.446232e+000 0.000000e+000
    endloop
  endfacet
  facet normal 0.000000e+000 0.000000e+000 -1.000000e+000
    outer loop
      vertex   -3.866572e+000 -2.966925e+000 0.000000e+000
      vertex   -4.220755e+000 -2.436854e+000 0.000000e+000
      vertex   -1.104823e+000 -2.242625e+000 0.000000e+000
    endloop
  endfacet
  facet normal -0.000000e+000 0.000000e+000 -1.000000e+000
    outer loop
      vertex   -1.104823e+000 -2.242625e+000 0.000000e+000
      vertex   -4.220755e+000 -2.436854e+000 0.000000e+000
      vertex   -4.502719e+000 -1.865087e+000 0.000000e+000
    endloop
  endfacet
  facet normal -0.000000e+000 0.000000e+000 -1.000000e+000
    outer loop
      vertex   -2.220080e+000 1.149454e+000 0.000000e+000
      vertex   -4.502719e+000 -1.865087e+000 0.000000e+000
      vertex   -4.873708e+000 2.934841e-015 0.000000e+000
    endloop
  endfacet
  facet normal 0.000000e+000 -0.000000e+000 -1.000000e+000
    outer loop
      vertex   -4.832012e+000 6.361465e-001 0.000000e+000
      vertex   -2.220080e+000 1.149454e+000 0.000000e+000
      vertex   -4.873708e+000 2.934841e-015 0.000000e+000
    endloop
  endfacet
  facet normal 0.000000e+000 0.000000e+000 -1.000000e+000
    outer loop
      vertex   -4.832012e+000 6.361465e-001 0.000000e+000
      vertex   -4.707640e+000 1.261408e+000 0.000000e+000
      vertex   -2.220080e+000 1.149454e+000 0.000000e+000
    endloop
  endfacet
  facet normal 0.000000e+000 0.000000e+000 -1.000000e+000
    outer loop
      vertex   -2.220080e+000 1.149454e+000 0.000000e+000
      vertex   -4.707640e+000 1.261408e+000 0.000000e+000
      vertex   -4.502719e+000 1.865087e+000 0.000000e+000
    endloop
  endfacet
  facet normal 0.000000e+000 0.000000e+000 -1.000000e+000
    outer loop
      vertex   -1.990119e+000 1.513085e+000 0.000000e+000
      vertex   -4.502719e+000 1.865087e+000 0.000000e+000
      vertex   -3.446232e+000 3.446232e+000 0.000000e+000
    endloop
  endfacet
  facet normal 0.000000e+000 0.000000e+000 -1.000000e+000
    outer loop
      vertex   -1.701215e+000 1.831902e+000 0.000000e+000
      vertex   -3.446232e+000 3.446232e+000 0.000000e+000
      vertex   -1.361926e+000 2.096463e+000 0.000000e+000
    endloop
  endfacet
  facet normal -0.000000e+000 0.000000e+000 -1.000000e+000
    outer loop
      vertex   -1.701215e+000 1.831902e+000 0.000000e+000
      vertex   -1.990119e+000 1.513085e+000 0.000000e+000
      vertex   -3.446232e+000 3.446232e+000 0.000000e+000
    endloop
  endfacet
  facet normal -0.000000e+000 0.000000e+000 -1.000000e+000
    outer loop
      vertex   1.917573e+000 -5.901683e+000 0.000000e+000
      vertex   1.431063e+000 -6.038130e+000 0.000000e+000
      vertex   1.865087e+000 -4.502719e+000 0.000000e+000
    endloop
  endfacet
  facet normal -0.000000e+000 0.000000e+000 -1.000000e+000
    outer loop
      vertex   1.865087e+000 -4.502719e+000 0.000000e+000
      vertex   1.431063e+000 -6.038130e+000 0.000000e+000
      vertex   -7.443873e-015 -4.873708e+000 0.000000e+000
    endloop
  endfacet
  facet normal 0.000000e+000 -0.000000e+000 -1.000000e+000
    outer loop
      vertex   -7.443873e-015 -4.873708e+000 0.000000e+000
      vertex   1.431063e+000 -6.038130e+000 0.000000e+000
      vertex   9.350647e-001 -6.134542e+000 0.000000e+000
    endloop
  endfacet
  facet normal 0.000000e+000 0.000000e+000 -1.000000e+000
    outer loop
      vertex   4.328666e-001 -6.190281e+000 0.000000e+000
      vertex   -7.443873e-015 -4.873708e+000 0.000000e+000
      vertex   9.350647e-001 -6.134542e+000 0.000000e+000
    endloop
  endfacet
  facet normal 0.000000e+000 0.000000e+000 -1.000000e+000
    outer loop
      vertex   -2.817191e+000 -5.529049e+000 0.000000e+000
      vertex   -3.257688e+000 -5.281517e+000 0.000000e+000
      vertex   -1.865087e+000 -4.502719e+000 0.000000e+000
    endloop
  endfacet
  facet normal -0.000000e+000 0.000000e+000 -1.000000e+000
    outer loop
      vertex   -1.865087e+000 -4.502719e+000 0.000000e+000
      vertex   -3.257688e+000 -5.281517e+000 0.000000e+000
      vertex   -3.676586e+000 -4.998967e+000 0.000000e+000
    endloop
  endfacet
  facet normal -0.000000e+000 0.000000e+000 -1.000000e+000
    outer loop
      vertex   -3.446232e+000 -3.446232e+000 0.000000e+000
      vertex   -3.676586e+000 -4.998967e+000 0.000000e+000
      vertex   -4.071107e+000 -4.683273e+000 0.000000e+000
    endloop
  endfacet
  facet normal 0.000000e+000 -0.000000e+000 -1.000000e+000
    outer loop
      vertex   -3.446232e+000 -3.446232e+000 0.000000e+000
      vertex   -1.865087e+000 -4.502719e+000 0.000000e+000
      vertex   -3.676586e+000 -4.998967e+000 0.000000e+000
    endloop
  endfacet
  facet normal 0.000000e+000 0.000000e+000 -1.000000e+000
    outer loop
      vertex   -5.901683e+000 -1.917573e+000 0.000000e+000
      vertex   -6.038130e+000 -1.431063e+000 0.000000e+000
      vertex   -4.502719e+000 -1.865087e+000 0.000000e+000
    endloop
  endfacet
  facet normal 0.000000e+000 0.000000e+000 -1.000000e+000
    outer loop
      vertex   -4.502719e+000 -1.865087e+000 0.000000e+000
      vertex   -6.038130e+000 -1.431063e+000 0.000000e+000
      vertex   -4.873708e+000 2.934841e-015 0.000000e+000
    endloop
  endfacet
  facet normal -0.000000e+000 0.000000e+000 -1.000000e+000
    outer loop
      vertex   -4.873708e+000 2.934841e-015 0.000000e+000
      vertex   -6.038130e+000 -1.431063e+000 0.000000e+000
      vertex   -6.134542e+000 -9.350647e-001 0.000000e+000
    endloop
  endfacet
  facet normal 0.000000e+000 -0.000000e+000 -1.000000e+000
    outer loop
      vertex   -6.190281e+000 -4.328666e-001 0.000000e+000
      vertex   -4.873708e+000 2.934841e-015 0.000000e+000
      vertex   -6.134542e+000 -9.350647e-001 0.000000e+000
    endloop
  endfacet
  facet normal 0.000000e+000 0.000000e+000 -1.000000e+000
    outer loop
      vertex   -5.529049e+000 2.817191e+000 0.000000e+000
      vertex   -5.281517e+000 3.257688e+000 0.000000e+000
      vertex   -4.502719e+000 1.865087e+000 0.000000e+000
    endloop
  endfacet
  facet normal 0.000000e+000 0.000000e+000 -1.000000e+000
    outer loop
      vertex   -4.502719e+000 1.865087e+000 0.000000e+000
      vertex   -5.281517e+000 3.257688e+000 0.000000e+000
      vertex   -3.446232e+000 3.446232e+000 0.000000e+000
    endloop
  endfacet
  facet normal -0.000000e+000 0.000000e+000 -1.000000e+000
    outer loop
      vertex   -3.446232e+000 3.446232e+000 0.000000e+000
      vertex   -5.281517e+000 3.257688e+000 0.000000e+000
      vertex   -4.998967e+000 3.676586e+000 0.000000e+000
    endloop
  endfacet
  facet normal -0.000000e+000 -0.000000e+000 -1.000000e+000
    outer loop
      vertex   -4.683273e+000 4.071107e+000 0.000000e+000
      vertex   -3.446232e+000 3.446232e+000 0.000000e+000
      vertex   -4.998967e+000 3.676586e+000 0.000000e+000
    endloop
  endfacet
  facet normal 0.000000e+000 0.000000e+000 -1.000000e+000
    outer loop
      vertex   -3.446232e+000 3.446232e+000 0.000000e+000
      vertex   -2.966925e+000 3.866572e+000 0.000000e+000
      vertex   -1.361926e+000 2.096463e+000 0.000000e+000
    endloop
  endfacet
  facet normal 0.000000e+000 0.000000e+000 -1.000000e+000
    outer loop
      vertex   -1.361926e+000 2.096463e+000 0.000000e+000
      vertex   -2.966925e+000 3.866572e+000 0.000000e+000
      vertex   -2.436854e+000 4.220755e+000 0.000000e+000
    endloop
  endfacet
  facet normal 0.000000e+000 0.000000e+000 -1.000000e+000
    outer loop
      vertex   -9.822998e-001 2.298932e+000 0.000000e+000
      vertex   -2.436854e+000 4.220755e+000 0.000000e+000
      vertex   -1.865087e+000 4.502719e+000 0.000000e+000
    endloop
  endfacet
  facet normal 0.000000e+000 0.000000e+000 -1.000000e+000
    outer loop
      vertex   -5.735802e-001 2.433312e+000 0.000000e+000
      vertex   -1.865087e+000 4.502719e+000 0.000000e+000
      vertex   5.882964e-015 4.873708e+000 0.000000e+000
    endloop
  endfacet
  facet normal 0.000000e+000 0.000000e+000 -1.000000e+000
    outer loop
      vertex   -1.478727e-001 2.495623e+000 0.000000e+000
      vertex   5.882964e-015 4.873708e+000 0.000000e+000
      vertex   6.361465e-001 4.832012e+000 0.000000e+000
    endloop
  endfacet
  facet normal 0.000000e+000 0.000000e+000 -1.000000e+000
    outer loop
      vertex   2.822145e-001 2.484020e+000 0.000000e+000
      vertex   6.361465e-001 4.832012e+000 0.000000e+000
      vertex   1.261408e+000 4.707640e+000 0.000000e+000
    endloop
  endfacet
  facet normal 0.000000e+000 0.000000e+000 -1.000000e+000
    outer loop
      vertex   7.039432e-001 2.398846e+000 0.000000e+000
      vertex   1.261408e+000 4.707640e+000 0.000000e+000
      vertex   1.865087e+000 4.502719e+000 0.000000e+000
    endloop
  endfacet
  facet normal 0.000000e+000 0.000000e+000 -1.000000e+000
    outer loop
      vertex   1.104823e+000 2.242625e+000 0.000000e+000
      vertex   1.865087e+000 4.502719e+000 0.000000e+000
      vertex   3.446232e+000 3.446232e+000 0.000000e+000
    endloop
  endfacet
  facet normal -0.000000e+000 0.000000e+000 -1.000000e+000
    outer loop
      vertex   3.866572e+000 2.966925e+000 0.000000e+000
      vertex   1.104823e+000 2.242625e+000 0.000000e+000
      vertex   3.446232e+000 3.446232e+000 0.000000e+000
    endloop
  endfacet
  facet normal 0.000000e+000 -0.000000e+000 -1.000000e+000
    outer loop
      vertex   3.866572e+000 2.966925e+000 0.000000e+000
      vertex   4.220755e+000 2.436854e+000 0.000000e+000
      vertex   1.104823e+000 2.242625e+000 0.000000e+000
    endloop
  endfacet
  facet normal 0.000000e+000 0.000000e+000 -1.000000e+000
    outer loop
      vertex   1.104823e+000 2.242625e+000 0.000000e+000
      vertex   4.220755e+000 2.436854e+000 0.000000e+000
      vertex   4.502719e+000 1.865087e+000 0.000000e+000
    endloop
  endfacet
  facet normal 0.000000e+000 0.000000e+000 -1.000000e+000
    outer loop
      vertex   2.220080e+000 -1.149454e+000 0.000000e+000
      vertex   4.502719e+000 1.865087e+000 0.000000e+000
      vertex   4.873708e+000 5.905440e-017 0.000000e+000
    endloop
  endfacet
  facet normal 0.000000e+000 0.000000e+000 -1.000000e+000
    outer loop
      vertex   2.220080e+000 -1.149454e+000 0.000000e+000
      vertex   1.104823e+000 2.242625e+000 0.000000e+000
      vertex   4.502719e+000 1.865087e+000 0.000000e+000
    endloop
  endfacet
  facet normal 0.000000e+000 -0.000000e+000 -1.000000e+000
    outer loop
      vertex   -1.917573e+000 5.901683e+000 0.000000e+000
      vertex   -1.431063e+000 6.038130e+000 0.000000e+000
      vertex   -1.865087e+000 4.502719e+000 0.000000e+000
    endloop
  endfacet
  facet normal 0.000000e+000 0.000000e+000 -1.000000e+000
    outer loop
      vertex   -1.865087e+000 4.502719e+000 0.000000e+000
      vertex   -1.431063e+000 6.038130e+000 0.000000e+000
      vertex   5.882964e-015 4.873708e+000 0.000000e+000
    endloop
  endfacet
  facet normal 0.000000e+000 0.000000e+000 -1.000000e+000
    outer loop
      vertex   5.882964e-015 4.873708e+000 0.000000e+000
      vertex   -1.431063e+000 6.038130e+000 0.000000e+000
      vertex   -9.350647e-001 6.134542e+000 0.000000e+000
    endloop
  endfacet
  facet normal -0.000000e+000 -0.000000e+000 -1.000000e+000
    outer loop
      vertex   -4.328666e-001 6.190281e+000 0.000000e+000
      vertex   5.882964e-015 4.873708e+000 0.000000e+000
      vertex   -9.350647e-001 6.134542e+000 0.000000e+000
    endloop
  endfacet
  facet normal 0.000000e+000 -0.000000e+000 -1.000000e+000
    outer loop
      vertex   2.817191e+000 5.529049e+000 0.000000e+000
      vertex   3.257688e+000 5.281517e+000 0.000000e+000
      vertex   1.865087e+000 4.502719e+000 0.000000e+000
    endloop
  endfacet
  facet normal 0.000000e+000 0.000000e+000 -1.000000e+000
    outer loop
      vertex   1.865087e+000 4.502719e+000 0.000000e+000
      vertex   3.257688e+000 5.281517e+000 0.000000e+000
      vertex   3.676586e+000 4.998967e+000 0.000000e+000
    endloop
  endfacet
  facet normal 0.000000e+000 0.000000e+000 -1.000000e+000
    outer loop
      vertex   3.446232e+000 3.446232e+000 0.000000e+000
      vertex   3.676586e+000 4.998967e+000 0.000000e+000
      vertex   4.071107e+000 4.683273e+000 0.000000e+000
    endloop
  endfacet
  facet normal 0.000000e+000 0.000000e+000 -1.000000e+000
    outer loop
      vertex   3.446232e+000 3.446232e+000 0.000000e+000
      vertex   1.865087e+000 4.502719e+000 0.000000e+000
      vertex   3.676586e+000 4.998967e+000 0.000000e+000
    endloop
  endfacet
  facet normal -0.000000e+000 -0.000000e+000 -1.000000e+000
    outer loop
      vertex   5.901683e+000 1.917573e+000 0.000000e+000
      vertex   6.038130e+000 1.431063e+000 0.000000e+000
      vertex   4.502719e+000 1.865087e+000 0.000000e+000
    endloop
  endfacet
  facet normal 0.000000e+000 0.000000e+000 -1.000000e+000
    outer loop
      vertex   4.502719e+000 1.865087e+000 0.000000e+000
      vertex   6.038130e+000 1.431063e+000 0.000000e+000
      vertex   6.134542e+000 9.350647e-001 0.000000e+000
    endloop
  endfacet
  facet normal 0.000000e+000 0.000000e+000 -1.000000e+000
    outer loop
      vertex   4.873708e+000 5.905440e-017 0.000000e+000
      vertex   6.134542e+000 9.350647e-001 0.000000e+000
      vertex   6.190281e+000 4.328666e-001 0.000000e+000
    endloop
  endfacet
  facet normal 0.000000e+000 0.000000e+000 -1.000000e+000
    outer loop
      vertex   4.873708e+000 5.905440e-017 0.000000e+000
      vertex   4.502719e+000 1.865087e+000 0.000000e+000
      vertex   6.134542e+000 9.350647e-001 0.000000e+000
    endloop
  endfacet
  facet normal 0.000000e+000 0.000000e+000 -1.000000e+000
    outer loop
      vertex   1.104823e+000 2.242625e+000 0.000000e+000
      vertex   7.039432e-001 2.398846e+000 0.000000e+000
      vertex   1.865087e+000 4.502719e+000 0.000000e+000
    endloop
  endfacet
  facet normal 0.000000e+000 0.000000e+000 -1.000000e+000
    outer loop
      vertex   7.039432e-001 2.398846e+000 0.000000e+000
      vertex   2.822145e-001 2.484020e+000 0.000000e+000
      vertex   1.261408e+000 4.707640e+000 0.000000e+000
    endloop
  endfacet
  facet normal 0.000000e+000 0.000000e+000 -1.000000e+000
    outer loop
      vertex   2.822145e-001 2.484020e+000 0.000000e+000
      vertex   -1.478727e-001 2.495623e+000 0.000000e+000
      vertex   6.361465e-001 4.832012e+000 0.000000e+000
    endloop
  endfacet
  facet normal -0.000000e+000 0.000000e+000 -1.000000e+000
    outer loop
      vertex   -1.478727e-001 2.495623e+000 0.000000e+000
      vertex   -5.735802e-001 2.433312e+000 0.000000e+000
      vertex   5.882964e-015 4.873708e+000 0.000000e+000
    endloop
  endfacet
  facet normal -0.000000e+000 0.000000e+000 -1.000000e+000
    outer loop
      vertex   -5.735802e-001 2.433312e+000 0.000000e+000
      vertex   -9.822998e-001 2.298932e+000 0.000000e+000
      vertex   -1.865087e+000 4.502719e+000 0.000000e+000
    endloop
  endfacet
  facet normal -0.000000e+000 0.000000e+000 -1.000000e+000
    outer loop
      vertex   -9.822998e-001 2.298932e+000 0.000000e+000
      vertex   -1.361926e+000 2.096463e+000 0.000000e+000
      vertex   -2.436854e+000 4.220755e+000 0.000000e+000
    endloop
  endfacet
  facet normal -0.000000e+000 0.000000e+000 -1.000000e+000
    outer loop
      vertex   -1.990119e+000 1.513085e+000 0.000000e+000
      vertex   -2.220080e+000 1.149454e+000 0.000000e+000
      vertex   -4.502719e+000 1.865087e+000 0.000000e+000
    endloop
  endfacet
  facet normal -0.000000e+000 -0.000000e+000 -1.000000e+000
    outer loop
      vertex   -2.220080e+000 1.149454e+000 0.000000e+000
      vertex   -1.104823e+000 -2.242625e+000 0.000000e+000
      vertex   -4.502719e+000 -1.865087e+000 0.000000e+000
    endloop
  endfacet
  facet normal 0.000000e+000 -0.000000e+000 -1.000000e+000
    outer loop
      vertex   -1.104823e+000 -2.242625e+000 0.000000e+000
      vertex   -7.039432e-001 -2.398846e+000 0.000000e+000
      vertex   -1.865087e+000 -4.502719e+000 0.000000e+000
    endloop
  endfacet
  facet normal 0.000000e+000 -0.000000e+000 -1.000000e+000
    outer loop
      vertex   -7.039432e-001 -2.398846e+000 0.000000e+000
      vertex   -2.822145e-001 -2.484020e+000 0.000000e+000
      vertex   -1.261408e+000 -4.707640e+000 0.000000e+000
    endloop
  endfacet
  facet normal 0.000000e+000 -0.000000e+000 -1.000000e+000
    outer loop
      vertex   -2.822145e-001 -2.484020e+000 0.000000e+000
      vertex   1.478727e-001 -2.495623e+000 0.000000e+000
      vertex   -6.361465e-001 -4.832012e+000 0.000000e+000
    endloop
  endfacet
  facet normal 0.000000e+000 -0.000000e+000 -1.000000e+000
    outer loop
      vertex   1.478727e-001 -2.495623e+000 0.000000e+000
      vertex   5.735802e-001 -2.433312e+000 0.000000e+000
      vertex   -7.443873e-015 -4.873708e+000 0.000000e+000
    endloop
  endfacet
  facet normal 0.000000e+000 0.000000e+000 -1.000000e+000
    outer loop
      vertex   5.735802e-001 -2.433312e+000 0.000000e+000
      vertex   9.822998e-001 -2.298932e+000 0.000000e+000
      vertex   1.865087e+000 -4.502719e+000 0.000000e+000
    endloop
  endfacet
  facet normal 0.000000e+000 0.000000e+000 -1.000000e+000
    outer loop
      vertex   9.822998e-001 -2.298932e+000 0.000000e+000
      vertex   1.361926e+000 -2.096463e+000 0.000000e+000
      vertex   2.436854e+000 -4.220755e+000 0.000000e+000
    endloop
  endfacet
  facet normal 0.000000e+000 0.000000e+000 -1.000000e+000
    outer loop
      vertex   1.990119e+000 -1.513085e+000 0.000000e+000
      vertex   2.220080e+000 -1.149454e+000 0.000000e+000
      vertex   4.502719e+000 -1.865087e+000 0.000000e+000
    endloop
  endfacet
  facet normal 9.938969e-001 1.103126e-001 0.000000e+000
    outer loop
      vertex   6.190281e+000 4.328666e-001 2.600000e+001
      vertex   6.190281e+000 4.328666e-001 0.000000e+000
      vertex   6.134542e+000 9.350647e-001 2.600000e+001
    endloop
  endfacet
  facet normal 9.938969e-001 1.103126e-001 -2.640908e-019
    outer loop
      vertex   6.134542e+000 9.350647e-001 2.600000e+001
      vertex   6.190281e+000 4.328666e-001 0.000000e+000
      vertex   6.134542e+000 9.350647e-001 0.000000e+000
    endloop
  endfacet
  facet normal 9.816272e-001 1.908090e-001 -8.147713e-019
    outer loop
      vertex   6.038130e+000 1.431063e+000 0.000000e+000
      vertex   6.134542e+000 9.350647e-001 2.600000e+001
      vertex   6.134542e+000 9.350647e-001 0.000000e+000
    endloop
  endfacet
  facet normal 9.816272e-001 1.908090e-001 -0.000000e+000
    outer loop
      vertex   6.038130e+000 1.431063e+000 0.000000e+000
      vertex   6.038130e+000 1.431063e+000 2.600000e+001
      vertex   6.134542e+000 9.350647e-001 2.600000e+001
    endloop
  endfacet
  facet normal 9.628490e-001 2.700403e-001 0.000000e+000
    outer loop
      vertex   6.038130e+000 1.431063e+000 0.000000e+000
      vertex   5.901683e+000 1.917573e+000 2.600000e+001
      vertex   6.038130e+000 1.431063e+000 2.600000e+001
    endloop
  endfacet
  facet normal 9.628490e-001 2.700403e-001 -0.000000e+000
    outer loop
      vertex   6.038130e+000 1.431063e+000 0.000000e+000
      vertex   5.901683e+000 1.917573e+000 0.000000e+000
      vertex   5.901683e+000 1.917573e+000 2.600000e+001
    endloop
  endfacet
  facet normal -3.749136e-002 9.992970e-001 0.000000e+000
    outer loop
      vertex   4.502719e+000 1.865087e+000 0.000000e+000
      vertex   4.502719e+000 1.865087e+000 2.600000e+001
      vertex   5.901683e+000 1.917573e+000 0.000000e+000
    endloop
  endfacet
  facet normal -3.749136e-002 9.992970e-001 0.000000e+000
    outer loop
      vertex   5.901683e+000 1.917573e+000 0.000000e+000
      vertex   4.502719e+000 1.865087e+000 2.600000e+001
      vertex   5.901683e+000 1.917573e+000 2.600000e+001
    endloop
  endfacet
  facet normal 8.968727e-001 4.422887e-001 0.000000e+000
    outer loop
      vertex   4.502719e+000 1.865087e+000 2.600000e+001
      vertex   4.502719e+000 1.865087e+000 0.000000e+000
      vertex   4.220755e+000 2.436854e+000 2.600000e+001
    endloop
  endfacet
  facet normal 8.968727e-001 4.422887e-001 -1.289376e-016
    outer loop
      vertex   4.220755e+000 2.436854e+000 2.600000e+001
      vertex   4.502719e+000 1.865087e+000 0.000000e+000
      vertex   4.220755e+000 2.436854e+000 0.000000e+000
    endloop
  endfacet
  facet normal 8.314696e-001 5.555702e-001 -9.042378e-017
    outer loop
      vertex   3.866572e+000 2.966925e+000 2.600000e+001
      vertex   4.220755e+000 2.436854e+000 0.000000e+000
      vertex   3.866572e+000 2.966925e+000 0.000000e+000
    endloop
  endfacet
  facet normal 7.518398e-001 6.593458e-001 0.000000e+000
    outer loop
      vertex   3.446232e+000 3.446232e+000 2.600000e+001
      vertex   3.866572e+000 2.966925e+000 0.000000e+000
      vertex   3.446232e+000 3.446232e+000 0.000000e+000
    endloop
  endfacet
  facet normal 7.518398e-001 6.593458e-001 -8.673217e-017
    outer loop
      vertex   3.446232e+000 3.446232e+000 2.600000e+001
      vertex   3.866572e+000 2.966925e+000 2.600000e+001
      vertex   3.866572e+000 2.966925e+000 0.000000e+000
    endloop
  endfacet
  facet normal 8.314696e-001 5.555702e-001 -1.326575e-016
    outer loop
      vertex   3.866572e+000 2.966925e+000 2.600000e+001
      vertex   4.220755e+000 2.436854e+000 2.600000e+001
      vertex   4.220755e+000 2.436854e+000 0.000000e+000
    endloop
  endfacet
  facet normal 0.000000e+000 0.000000e+000 1.000000e+000
    outer loop
      vertex   4.707640e+000 -1.261408e+000 2.600000e+001
      vertex   2.220080e+000 -1.149454e+000 2.600000e+001
      vertex   4.502719e+000 -1.865087e+000 2.600000e+001
    endloop
  endfacet
  facet normal 0.000000e+000 -0.000000e+000 1.000000e+000
    outer loop
      vertex   4.707640e+000 -1.261408e+000 2.600000e+001
      vertex   4.832012e+000 -6.361465e-001 2.600000e+001
      vertex   2.220080e+000 -1.149454e+000 2.600000e+001
    endloop
  endfacet
  facet normal 0.000000e+000 0.000000e+000 1.000000e+000
    outer loop
      vertex   2.220080e+000 -1.149454e+000 2.600000e+001
      vertex   4.832012e+000 -6.361465e-001 2.600000e+001
      vertex   4.873708e+000 5.905440e-017 2.600000e+001
    endloop
  endfacet
  facet normal -0.000000e+000 0.000000e+000 1.000000e+000
    outer loop
      vertex   4.502719e+000 1.865087e+000 2.600000e+001
      vertex   4.873708e+000 5.905440e-017 2.600000e+001
      vertex   6.134542e+000 9.350647e-001 2.600000e+001
    endloop
  endfacet
  facet normal 0.000000e+000 0.000000e+000 1.000000e+000
    outer loop
      vertex   6.038130e+000 1.431063e+000 2.600000e+001
      vertex   4.502719e+000 1.865087e+000 2.600000e+001
      vertex   6.134542e+000 9.350647e-001 2.600000e+001
    endloop
  endfacet
  facet normal 0.000000e+000 0.000000e+000 1.000000e+000
    outer loop
      vertex   6.038130e+000 1.431063e+000 2.600000e+001
      vertex   5.901683e+000 1.917573e+000 2.600000e+001
      vertex   4.502719e+000 1.865087e+000 2.600000e+001
    endloop
  endfacet
  facet normal 0.000000e+000 -0.000000e+000 1.000000e+000
    outer loop
      vertex   4.873708e+000 5.905440e-017 2.600000e+001
      vertex   6.190281e+000 4.328666e-001 2.600000e+001
      vertex   6.134542e+000 9.350647e-001 2.600000e+001
    endloop
  endfacet
  facet normal 0.000000e+000 0.000000e+000 1.000000e+000
    outer loop
      vertex   4.220755e+000 2.436854e+000 2.600000e+001
      vertex   1.104823e+000 2.242625e+000 2.600000e+001
      vertex   4.502719e+000 1.865087e+000 2.600000e+001
    endloop
  endfacet
  facet normal 0.000000e+000 0.000000e+000 1.000000e+000
    outer loop
      vertex   4.220755e+000 2.436854e+000 2.600000e+001
      vertex   3.866572e+000 2.966925e+000 2.600000e+001
      vertex   1.104823e+000 2.242625e+000 2.600000e+001
    endloop
  endfacet
  facet normal 0.000000e+000 -0.000000e+000 1.000000e+000
    outer loop
      vertex   1.104823e+000 2.242625e+000 2.600000e+001
      vertex   3.866572e+000 2.966925e+000 2.600000e+001
      vertex   3.446232e+000 3.446232e+000 2.600000e+001
    endloop
  endfacet
  facet normal -0.000000e+000 0.000000e+000 1.000000e+000
    outer loop
      vertex   1.865087e+000 4.502719e+000 2.600000e+001
      vertex   3.446232e+000 3.446232e+000 2.600000e+001
      vertex   3.676586e+000 4.998967e+000 2.600000e+001
    endloop
  endfacet
  facet normal -0.000000e+000 0.000000e+000 1.000000e+000
    outer loop
      vertex   3.257688e+000 5.281517e+000 2.600000e+001
      vertex   1.865087e+000 4.502719e+000 2.600000e+001
      vertex   3.676586e+000 4.998967e+000 2.600000e+001
    endloop
  endfacet
  facet normal 0.000000e+000 0.000000e+000 1.000000e+000
    outer loop
      vertex   3.257688e+000 5.281517e+000 2.600000e+001
      vertex   2.817191e+000 5.529049e+000 2.600000e+001
      vertex   1.865087e+000 4.502719e+000 2.600000e+001
    endloop
  endfacet
  facet normal 0.000000e+000 -0.000000e+000 1.000000e+000
    outer loop
      vertex   3.446232e+000 3.446232e+000 2.600000e+001
      vertex   4.071107e+000 4.683273e+000 2.600000e+001
      vertex   3.676586e+000 4.998967e+000 2.600000e+001
    endloop
  endfacet
  facet normal -0.000000e+000 -0.000000e+000 1.000000e+000
    outer loop
      vertex   -2.966925e+000 3.866572e+000 2.600000e+001
      vertex   -1.361926e+000 2.096463e+000 2.600000e+001
      vertex   -2.436854e+000 4.220755e+000 2.600000e+001
    endloop
  endfacet
  facet normal 0.000000e+000 0.000000e+000 1.000000e+000
    outer loop
      vertex   -2.966925e+000 3.866572e+000 2.600000e+001
      vertex   -3.446232e+000 3.446232e+000 2.600000e+001
      vertex   -1.361926e+000 2.096463e+000 2.600000e+001
    endloop
  endfacet
  facet normal 0.000000e+000 0.000000e+000 1.000000e+000
    outer loop
      vertex   -1.361926e+000 2.096463e+000 2.600000e+001
      vertex   -3.446232e+000 3.446232e+000 2.600000e+001
      vertex   -1.701215e+000 1.831902e+000 2.600000e+001
    endloop
  endfacet
  facet normal 0.000000e+000 0.000000e+000 1.000000e+000
    outer loop
      vertex   -1.701215e+000 1.831902e+000 2.600000e+001
      vertex   -3.446232e+000 3.446232e+000 2.600000e+001
      vertex   -1.990119e+000 1.513085e+000 2.600000e+001
    endloop
  endfacet
  facet normal 0.000000e+000 0.000000e+000 1.000000e+000
    outer loop
      vertex   -1.990119e+000 1.513085e+000 2.600000e+001
      vertex   -3.446232e+000 3.446232e+000 2.600000e+001
      vertex   -4.502719e+000 1.865087e+000 2.600000e+001
    endloop
  endfacet
  facet normal 0.000000e+000 0.000000e+000 1.000000e+000
    outer loop
      vertex   -2.220080e+000 1.149454e+000 2.600000e+001
      vertex   -4.502719e+000 1.865087e+000 2.600000e+001
      vertex   -4.707640e+000 1.261408e+000 2.600000e+001
    endloop
  endfacet
  facet normal 0.000000e+000 -0.000000e+000 1.000000e+000
    outer loop
      vertex   -4.832012e+000 6.361465e-001 2.600000e+001
      vertex   -2.220080e+000 1.149454e+000 2.600000e+001
      vertex   -4.707640e+000 1.261408e+000 2.600000e+001
    endloop
  endfacet
  facet normal -0.000000e+000 0.000000e+000 1.000000e+000
    outer loop
      vertex   -4.832012e+000 6.361465e-001 2.600000e+001
      vertex   -4.873708e+000 2.934841e-015 2.600000e+001
      vertex   -2.220080e+000 1.149454e+000 2.600000e+001
    endloop
  endfacet
  facet normal 0.000000e+000 0.000000e+000 1.000000e+000
    outer loop
      vertex   -2.220080e+000 1.149454e+000 2.600000e+001
      vertex   -4.873708e+000 2.934841e-015 2.600000e+001
      vertex   -4.502719e+000 -1.865087e+000 2.600000e+001
    endloop
  endfacet
  facet normal 0.000000e+000 0.000000e+000 1.000000e+000
    outer loop
      vertex   -1.104823e+000 -2.242625e+000 2.600000e+001
      vertex   -4.502719e+000 -1.865087e+000 2.600000e+001
      vertex   -4.220755e+000 -2.436854e+000 2.600000e+001
    endloop
  endfacet
  facet normal 0.000000e+000 -0.000000e+000 1.000000e+000
    outer loop
      vertex   -3.866572e+000 -2.966925e+000 2.600000e+001
      vertex   -1.104823e+000 -2.242625e+000 2.600000e+001
      vertex   -4.220755e+000 -2.436854e+000 2.600000e+001
    endloop
  endfacet
  facet normal -0.000000e+000 0.000000e+000 1.000000e+000
    outer loop
      vertex   -3.866572e+000 -2.966925e+000 2.600000e+001
      vertex   -3.446232e+000 -3.446232e+000 2.600000e+001
      vertex   -1.104823e+000 -2.242625e+000 2.600000e+001
    endloop
  endfacet
  facet normal 0.000000e+000 0.000000e+000 1.000000e+000
    outer loop
      vertex   -1.104823e+000 -2.242625e+000 2.600000e+001
      vertex   -3.446232e+000 -3.446232e+000 2.600000e+001
      vertex   -1.865087e+000 -4.502719e+000 2.600000e+001
    endloop
  endfacet
  facet normal 0.000000e+000 0.000000e+000 1.000000e+000
    outer loop
      vertex   -7.039432e-001 -2.398846e+000 2.600000e+001
      vertex   -1.865087e+000 -4.502719e+000 2.600000e+001
      vertex   -1.261408e+000 -4.707640e+000 2.600000e+001
    endloop
  endfacet
  facet normal 0.000000e+000 0.000000e+000 1.000000e+000
    outer loop
      vertex   -2.822145e-001 -2.484020e+000 2.600000e+001
      vertex   -1.261408e+000 -4.707640e+000 2.600000e+001
      vertex   -6.361465e-001 -4.832012e+000 2.600000e+001
    endloop
  endfacet
  facet normal 0.000000e+000 0.000000e+000 1.000000e+000
    outer loop
      vertex   1.478727e-001 -2.495623e+000 2.600000e+001
      vertex   -6.361465e-001 -4.832012e+000 2.600000e+001
      vertex   -7.443873e-015 -4.873708e+000 2.600000e+001
    endloop
  endfacet
  facet normal -0.000000e+000 0.000000e+000 1.000000e+000
    outer loop
      vertex   5.735802e-001 -2.433312e+000 2.600000e+001
      vertex   -7.443873e-015 -4.873708e+000 2.600000e+001
      vertex   1.865087e+000 -4.502719e+000 2.600000e+001
    endloop
  endfacet
  facet normal -0.000000e+000 0.000000e+000 1.000000e+000
    outer loop
      vertex   9.822998e-001 -2.298932e+000 2.600000e+001
      vertex   1.865087e+000 -4.502719e+000 2.600000e+001
      vertex   2.436854e+000 -4.220755e+000 2.600000e+001
    endloop
  endfacet
  facet normal -0.000000e+000 0.000000e+000 1.000000e+000
    outer loop
      vertex   1.361926e+000 -2.096463e+000 2.600000e+001
      vertex   2.436854e+000 -4.220755e+000 2.600000e+001
      vertex   2.966925e+000 -3.866572e+000 2.600000e+001
    endloop
  endfacet
  facet normal 0.000000e+000 0.000000e+000 1.000000e+000
    outer loop
      vertex   3.446232e+000 -3.446232e+000 2.600000e+001
      vertex   1.361926e+000 -2.096463e+000 2.600000e+001
      vertex   2.966925e+000 -3.866572e+000 2.600000e+001
    endloop
  endfacet
  facet normal 0.000000e+000 0.000000e+000 1.000000e+000
    outer loop
      vertex   3.446232e+000 -3.446232e+000 2.600000e+001
      vertex   1.701215e+000 -1.831902e+000 2.600000e+001
      vertex   1.361926e+000 -2.096463e+000 2.600000e+001
    endloop
  endfacet
  facet normal 0.000000e+000 0.000000e+000 1.000000e+000
    outer loop
      vertex   3.446232e+000 -3.446232e+000 2.600000e+001
      vertex   1.990119e+000 -1.513085e+000 2.600000e+001
      vertex   1.701215e+000 -1.831902e+000 2.600000e+001
    endloop
  endfacet
  facet normal 0.000000e+000 -0.000000e+000 1.000000e+000
    outer loop
      vertex   3.446232e+000 -3.446232e+000 2.600000e+001
      vertex   4.502719e+000 -1.865087e+000 2.600000e+001
      vertex   1.990119e+000 -1.513085e+000 2.600000e+001
    endloop
  endfacet
  facet normal 0.000000e+000 -0.000000e+000 1.000000e+000
    outer loop
      vertex   3.446232e+000 -3.446232e+000 2.600000e+001
      vertex   5.281517e+000 -3.257688e+000 2.600000e+001
      vertex   4.502719e+000 -1.865087e+000 2.600000e+001
    endloop
  endfacet
  facet normal -0.000000e+000 0.000000e+000 1.000000e+000
    outer loop
      vertex   3.446232e+000 -3.446232e+000 2.600000e+001
      vertex   4.998967e+000 -3.676586e+000 2.600000e+001
      vertex   5.281517e+000 -3.257688e+000 2.600000e+001
    endloop
  endfacet
  facet normal -0.000000e+000 0.000000e+000 1.000000e+000
    outer loop
      vertex   3.446232e+000 -3.446232e+000 2.600000e+001
      vertex   4.683273e+000 -4.071107e+000 2.600000e+001
      vertex   4.998967e+000 -3.676586e+000 2.600000e+001
    endloop
  endfacet
  facet normal -0.000000e+000 -0.000000e+000 1.000000e+000
    outer loop
      vertex   -2.436854e+000 4.220755e+000 2.600000e+001
      vertex   -9.822998e-001 2.298932e+000 2.600000e+001
      vertex   -1.865087e+000 4.502719e+000 2.600000e+001
    endloop
  endfacet
  facet normal -0.000000e+000 0.000000e+000 1.000000e+000
    outer loop
      vertex   -2.436854e+000 4.220755e+000 2.600000e+001
      vertex   -1.361926e+000 2.096463e+000 2.600000e+001
      vertex   -9.822998e-001 2.298932e+000 2.600000e+001
    endloop
  endfacet
  facet normal -0.000000e+000 0.000000e+000 1.000000e+000
    outer loop
      vertex   -1.865087e+000 4.502719e+000 2.600000e+001
      vertex   -5.735802e-001 2.433312e+000 2.600000e+001
      vertex   5.882964e-015 4.873708e+000 2.600000e+001
    endloop
  endfacet
  facet normal -0.000000e+000 -0.000000e+000 1.000000e+000
    outer loop
      vertex   -1.431063e+000 6.038130e+000 2.600000e+001
      vertex   5.882964e-015 4.873708e+000 2.600000e+001
      vertex   -9.350647e-001 6.134542e+000 2.600000e+001
    endloop
  endfacet
  facet normal -0.000000e+000 0.000000e+000 1.000000e+000
    outer loop
      vertex   -1.431063e+000 6.038130e+000 2.600000e+001
      vertex   -1.865087e+000 4.502719e+000 2.600000e+001
      vertex   5.882964e-015 4.873708e+000 2.600000e+001
    endloop
  endfacet
  facet normal 0.000000e+000 0.000000e+000 1.000000e+000
    outer loop
      vertex   -1.431063e+000 6.038130e+000 2.600000e+001
      vertex   -1.917573e+000 5.901683e+000 2.600000e+001
      vertex   -1.865087e+000 4.502719e+000 2.600000e+001
    endloop
  endfacet
  facet normal 0.000000e+000 0.000000e+000 1.000000e+000
    outer loop
      vertex   5.882964e-015 4.873708e+000 2.600000e+001
      vertex   -4.328666e-001 6.190281e+000 2.600000e+001
      vertex   -9.350647e-001 6.134542e+000 2.600000e+001
    endloop
  endfacet
  facet normal 0.000000e+000 0.000000e+000 1.000000e+000
    outer loop
      vertex   -4.683273e+000 4.071107e+000 2.600000e+001
      vertex   -4.998967e+000 3.676586e+000 2.600000e+001
      vertex   -3.446232e+000 3.446232e+000 2.600000e+001
    endloop
  endfacet
  facet normal 0.000000e+000 0.000000e+000 1.000000e+000
    outer loop
      vertex   -3.446232e+000 3.446232e+000 2.600000e+001
      vertex   -4.998967e+000 3.676586e+000 2.600000e+001
      vertex   -5.281517e+000 3.257688e+000 2.600000e+001
    endloop
  endfacet
  facet normal 0.000000e+000 0.000000e+000 1.000000e+000
    outer loop
      vertex   -4.502719e+000 1.865087e+000 2.600000e+001
      vertex   -5.281517e+000 3.257688e+000 2.600000e+001
      vertex   -5.529049e+000 2.817191e+000 2.600000e+001
    endloop
  endfacet
  facet normal 0.000000e+000 -0.000000e+000 1.000000e+000
    outer loop
      vertex   -4.502719e+000 1.865087e+000 2.600000e+001
      vertex   -3.446232e+000 3.446232e+000 2.600000e+001
      vertex   -5.281517e+000 3.257688e+000 2.600000e+001
    endloop
  endfacet
  facet normal -0.000000e+000 0.000000e+000 1.000000e+000
    outer loop
      vertex   -6.190281e+000 -4.328666e-001 2.600000e+001
      vertex   -6.134542e+000 -9.350647e-001 2.600000e+001
      vertex   -4.873708e+000 2.934841e-015 2.600000e+001
    endloop
  endfacet
  facet normal 0.000000e+000 0.000000e+000 1.000000e+000
    outer loop
      vertex   -4.873708e+000 2.934841e-015 2.600000e+001
      vertex   -6.134542e+000 -9.350647e-001 2.600000e+001
      vertex   -6.038130e+000 -1.431063e+000 2.600000e+001
    endloop
  endfacet
  facet normal 0.000000e+000 0.000000e+000 1.000000e+000
    outer loop
      vertex   -4.502719e+000 -1.865087e+000 2.600000e+001
      vertex   -6.038130e+000 -1.431063e+000 2.600000e+001
      vertex   -5.901683e+000 -1.917573e+000 2.600000e+001
    endloop
  endfacet
  facet normal 0.000000e+000 0.000000e+000 1.000000e+000
    outer loop
      vertex   -4.502719e+000 -1.865087e+000 2.600000e+001
      vertex   -4.873708e+000 2.934841e-015 2.600000e+001
      vertex   -6.038130e+000 -1.431063e+000 2.600000e+001
    endloop
  endfacet
  facet normal -0.000000e+000 0.000000e+000 1.000000e+000
    outer loop
      vertex   -4.071107e+000 -4.683273e+000 2.600000e+001
      vertex   -3.676586e+000 -4.998967e+000 2.600000e+001
      vertex   -3.446232e+000 -3.446232e+000 2.600000e+001
    endloop
  endfacet
  facet normal -0.000000e+000 0.000000e+000 1.000000e+000
    outer loop
      vertex   -3.446232e+000 -3.446232e+000 2.600000e+001
      vertex   -3.676586e+000 -4.998967e+000 2.600000e+001
      vertex   -1.865087e+000 -4.502719e+000 2.600000e+001
    endloop
  endfacet
  facet normal 0.000000e+000 0.000000e+000 1.000000e+000
    outer loop
      vertex   -1.865087e+000 -4.502719e+000 2.600000e+001
      vertex   -3.676586e+000 -4.998967e+000 2.600000e+001
      vertex   -3.257688e+000 -5.281517e+000 2.600000e+001
    endloop
  endfacet
  facet normal 0.000000e+000 -0.000000e+000 1.000000e+000
    outer loop
      vertex   -2.817191e+000 -5.529049e+000 2.600000e+001
      vertex   -1.865087e+000 -4.502719e+000 2.600000e+001
      vertex   -3.257688e+000 -5.281517e+000 2.600000e+001
    endloop
  endfacet
  facet normal 0.000000e+000 -0.000000e+000 1.000000e+000
    outer loop
      vertex   4.328666e-001 -6.190281e+000 2.600000e+001
      vertex   9.350647e-001 -6.134542e+000 2.600000e+001
      vertex   -7.443873e-015 -4.873708e+000 2.600000e+001
    endloop
  endfacet
  facet normal -0.000000e+000 0.000000e+000 1.000000e+000
    outer loop
      vertex   -7.443873e-015 -4.873708e+000 2.600000e+001
      vertex   9.350647e-001 -6.134542e+000 2.600000e+001
      vertex   1.431063e+000 -6.038130e+000 2.600000e+001
    endloop
  endfacet
  facet normal -0.000000e+000 0.000000e+000 1.000000e+000
    outer loop
      vertex   1.865087e+000 -4.502719e+000 2.600000e+001
      vertex   1.431063e+000 -6.038130e+000 2.600000e+001
      vertex   1.917573e+000 -5.901683e+000 2.600000e+001
    endloop
  endfacet
  facet normal 0.000000e+000 0.000000e+000 1.000000e+000
    outer loop
      vertex   1.865087e+000 -4.502719e+000 2.600000e+001
      vertex   -7.443873e-015 -4.873708e+000 2.600000e+001
      vertex   1.431063e+000 -6.038130e+000 2.600000e+001
    endloop
  endfacet
  facet normal 0.000000e+000 -0.000000e+000 1.000000e+000
    outer loop
      vertex   5.281517e+000 -3.257688e+000 2.600000e+001
      vertex   5.529049e+000 -2.817191e+000 2.600000e+001
      vertex   4.502719e+000 -1.865087e+000 2.600000e+001
    endloop
  endfacet
  facet normal 0.000000e+000 -0.000000e+000 1.000000e+000
    outer loop
      vertex   -2.220080e+000 1.149454e+000 2.600000e+001
      vertex   -1.990119e+000 1.513085e+000 2.600000e+001
      vertex   -4.502719e+000 1.865087e+000 2.600000e+001
    endloop
  endfacet
  facet normal 0.000000e+000 -0.000000e+000 1.000000e+000
    outer loop
      vertex   -9.822998e-001 2.298932e+000 2.600000e+001
      vertex   -5.735802e-001 2.433312e+000 2.600000e+001
      vertex   -1.865087e+000 4.502719e+000 2.600000e+001
    endloop
  endfacet
  facet normal 0.000000e+000 0.000000e+000 1.000000e+000
    outer loop
      vertex   -5.735802e-001 2.433312e+000 2.600000e+001
      vertex   -1.478727e-001 2.495623e+000 2.600000e+001
      vertex   5.882964e-015 4.873708e+000 2.600000e+001
    endloop
  endfacet
  facet normal -0.000000e+000 0.000000e+000 1.000000e+000
    outer loop
      vertex   5.882964e-015 4.873708e+000 2.600000e+001
      vertex   -1.478727e-001 2.495623e+000 2.600000e+001
      vertex   6.361465e-001 4.832012e+000 2.600000e+001
    endloop
  endfacet
  facet normal 0.000000e+000 0.000000e+000 1.000000e+000
    outer loop
      vertex   6.361465e-001 4.832012e+000 2.600000e+001
      vertex   -1.478727e-001 2.495623e+000 2.600000e+001
      vertex   2.822145e-001 2.484020e+000 2.600000e+001
    endloop
  endfacet
  facet normal 0.000000e+000 0.000000e+000 1.000000e+000
    outer loop
      vertex   1.261408e+000 4.707640e+000 2.600000e+001
      vertex   2.822145e-001 2.484020e+000 2.600000e+001
      vertex   7.039432e-001 2.398846e+000 2.600000e+001
    endloop
  endfacet
  facet normal 0.000000e+000 0.000000e+000 1.000000e+000
    outer loop
      vertex   1.865087e+000 4.502719e+000 2.600000e+001
      vertex   7.039432e-001 2.398846e+000 2.600000e+001
      vertex   1.104823e+000 2.242625e+000 2.600000e+001
    endloop
  endfacet
  facet normal 0.000000e+000 0.000000e+000 1.000000e+000
    outer loop
      vertex   3.446232e+000 3.446232e+000 2.600000e+001
      vertex   1.865087e+000 4.502719e+000 2.600000e+001
      vertex   1.104823e+000 2.242625e+000 2.600000e+001
    endloop
  endfacet
  facet normal -0.000000e+000 0.000000e+000 1.000000e+000
    outer loop
      vertex   1.104823e+000 2.242625e+000 2.600000e+001
      vertex   2.220080e+000 -1.149454e+000 2.600000e+001
      vertex   4.502719e+000 1.865087e+000 2.600000e+001
    endloop
  endfacet
  facet normal -0.000000e+000 0.000000e+000 1.000000e+000
    outer loop
      vertex   4.502719e+000 1.865087e+000 2.600000e+001
      vertex   2.220080e+000 -1.149454e+000 2.600000e+001
      vertex   4.873708e+000 5.905440e-017 2.600000e+001
    endloop
  endfacet
  facet normal 0.000000e+000 0.000000e+000 1.000000e+000
    outer loop
      vertex   2.220080e+000 -1.149454e+000 2.600000e+001
      vertex   1.990119e+000 -1.513085e+000 2.600000e+001
      vertex   4.502719e+000 -1.865087e+000 2.600000e+001
    endloop
  endfacet
  facet normal 0.000000e+000 0.000000e+000 1.000000e+000
    outer loop
      vertex   1.361926e+000 -2.096463e+000 2.600000e+001
      vertex   9.822998e-001 -2.298932e+000 2.600000e+001
      vertex   2.436854e+000 -4.220755e+000 2.600000e+001
    endloop
  endfacet
  facet normal 0.000000e+000 0.000000e+000 1.000000e+000
    outer loop
      vertex   9.822998e-001 -2.298932e+000 2.600000e+001
      vertex   5.735802e-001 -2.433312e+000 2.600000e+001
      vertex   1.865087e+000 -4.502719e+000 2.600000e+001
    endloop
  endfacet
  facet normal 0.000000e+000 0.000000e+000 1.000000e+000
    outer loop
      vertex   5.735802e-001 -2.433312e+000 2.600000e+001
      vertex   1.478727e-001 -2.495623e+000 2.600000e+001
      vertex   -7.443873e-015 -4.873708e+000 2.600000e+001
    endloop
  endfacet
  facet normal 0.000000e+000 0.000000e+000 1.000000e+000
    outer loop
      vertex   1.478727e-001 -2.495623e+000 2.600000e+001
      vertex   -2.822145e-001 -2.484020e+000 2.600000e+001
      vertex   -6.361465e-001 -4.832012e+000 2.600000e+001
    endloop
  endfacet
  facet normal 0.000000e+000 0.000000e+000 1.000000e+000
    outer loop
      vertex   -2.822145e-001 -2.484020e+000 2.600000e+001
      vertex   -7.039432e-001 -2.398846e+000 2.600000e+001
      vertex   -1.261408e+000 -4.707640e+000 2.600000e+001
    endloop
  endfacet
  facet normal 0.000000e+000 0.000000e+000 1.000000e+000
    outer loop
      vertex   -7.039432e-001 -2.398846e+000 2.600000e+001
      vertex   -1.104823e+000 -2.242625e+000 2.600000e+001
      vertex   -1.865087e+000 -4.502719e+000 2.600000e+001
    endloop
  endfacet
  facet normal 0.000000e+000 0.000000e+000 1.000000e+000
    outer loop
      vertex   -1.104823e+000 -2.242625e+000 2.600000e+001
      vertex   -2.220080e+000 1.149454e+000 2.600000e+001
      vertex   -4.502719e+000 -1.865087e+000 2.600000e+001
    endloop
  endfacet
  facet normal -0.000000e+000 0.000000e+000 1.000000e+000
    outer loop
      vertex   6.361465e-001 4.832012e+000 2.600000e+001
      vertex   2.822145e-001 2.484020e+000 2.600000e+001
      vertex   1.261408e+000 4.707640e+000 2.600000e+001
    endloop
  endfacet
  facet normal 0.000000e+000 -0.000000e+000 1.000000e+000
    outer loop
      vertex   7.039432e-001 2.398846e+000 2.600000e+001
      vertex   1.865087e+000 4.502719e+000 2.600000e+001
      vertex   1.261408e+000 4.707640e+000 2.600000e+001
    endloop
  endfacet
  facet normal 3.123345e-001 -9.499722e-001 0.000000e+000
    outer loop
      vertex   6.190281e+000 4.328666e-001 0.000000e+000
      vertex   6.190281e+000 4.328666e-001 2.600000e+001
      vertex   4.873708e+000 5.905440e-017 0.000000e+000
    endloop
  endfacet
  facet normal 3.123345e-001 -9.499722e-001 0.000000e+000
    outer loop
      vertex   4.873708e+000 5.905440e-017 0.000000e+000
      vertex   6.190281e+000 4.328666e-001 2.600000e+001
      vertex   4.873708e+000 5.905440e-017 2.600000e+001
    endloop
  endfacet
  facet normal 6.800993e-001 7.331200e-001 -0.000000e+000
    outer loop
      vertex   4.502719e+000 -1.865087e+000 0.000000e+000
      vertex   4.502719e+000 -1.865087e+000 2.600000e+001
      vertex   5.529049e+000 -2.817191e+000 0.000000e+000
    endloop
  endfacet
  facet normal 6.800993e-001 7.331200e-001 0.000000e+000
    outer loop
      vertex   5.529049e+000 -2.817191e+000 0.000000e+000
      vertex   4.502719e+000 -1.865087e+000 2.600000e+001
      vertex   5.529049e+000 -2.817191e+000 2.600000e+001
    endloop
  endfacet
  facet normal 7.807940e-001 -6.247885e-001 0.000000e+000
    outer loop
      vertex   4.683273e+000 -4.071107e+000 2.600000e+001
      vertex   4.683273e+000 -4.071107e+000 0.000000e+000
      vertex   4.998967e+000 -3.676586e+000 2.600000e+001
    endloop
  endfacet
  facet normal 7.807940e-001 -6.247885e-001 0.000000e+000
    outer loop
      vertex   4.998967e+000 -3.676586e+000 2.600000e+001
      vertex   4.683273e+000 -4.071107e+000 0.000000e+000
      vertex   4.998967e+000 -3.676586e+000 0.000000e+000
    endloop
  endfacet
  facet normal 8.290376e-001 -5.591929e-001 0.000000e+000
    outer loop
      vertex   5.281517e+000 -3.257688e+000 0.000000e+000
      vertex   4.998967e+000 -3.676586e+000 2.600000e+001
      vertex   4.998967e+000 -3.676586e+000 0.000000e+000
    endloop
  endfacet
  facet normal 8.290376e-001 -5.591929e-001 0.000000e+000
    outer loop
      vertex   5.281517e+000 -3.257688e+000 0.000000e+000
      vertex   5.281517e+000 -3.257688e+000 2.600000e+001
      vertex   4.998967e+000 -3.676586e+000 2.600000e+001
    endloop
  endfacet
  facet normal 8.717844e-001 -4.898897e-001 0.000000e+000
    outer loop
      vertex   5.281517e+000 -3.257688e+000 0.000000e+000
      vertex   5.529049e+000 -2.817191e+000 2.600000e+001
      vertex   5.281517e+000 -3.257688e+000 2.600000e+001
    endloop
  endfacet
  facet normal 8.717844e-001 -4.898897e-001 0.000000e+000
    outer loop
      vertex   5.281517e+000 -3.257688e+000 0.000000e+000
      vertex   5.529049e+000 -2.817191e+000 0.000000e+000
      vertex   5.529049e+000 -2.817191e+000 2.600000e+001
    endloop
  endfacet
  facet normal -4.508780e-001 -8.925856e-001 0.000000e+000
    outer loop
      vertex   4.683273e+000 -4.071107e+000 0.000000e+000
      vertex   4.683273e+000 -4.071107e+000 2.600000e+001
      vertex   3.446232e+000 -3.446232e+000 0.000000e+000
    endloop
  endfacet
  facet normal -4.508780e-001 -8.925856e-001 0.000000e+000
    outer loop
      vertex   3.446232e+000 -3.446232e+000 0.000000e+000
      vertex   4.683273e+000 -4.071107e+000 2.600000e+001
      vertex   3.446232e+000 -3.446232e+000 2.600000e+001
    endloop
  endfacet
  facet normal 4.422887e-001 -8.968727e-001 0.000000e+000
    outer loop
      vertex   1.865087e+000 -4.502719e+000 2.600000e+001
      vertex   1.865087e+000 -4.502719e+000 0.000000e+000
      vertex   2.436854e+000 -4.220755e+000 2.600000e+001
    endloop
  endfacet
  facet normal 4.422887e-001 -8.968727e-001 -1.289376e-016
    outer loop
      vertex   2.436854e+000 -4.220755e+000 2.600000e+001
      vertex   1.865087e+000 -4.502719e+000 0.000000e+000
      vertex   2.436854e+000 -4.220755e+000 0.000000e+000
    endloop
  endfacet
  facet normal 5.555702e-001 -8.314696e-001 -1.038199e-016
    outer loop
      vertex   2.966925e+000 -3.866572e+000 2.600000e+001
      vertex   2.436854e+000 -4.220755e+000 0.000000e+000
      vertex   2.966925e+000 -3.866572e+000 0.000000e+000
    endloop
  endfacet
  facet normal 6.593458e-001 -7.518398e-001 0.000000e+000
    outer loop
      vertex   3.446232e+000 -3.446232e+000 2.600000e+001
      vertex   2.966925e+000 -3.866572e+000 0.000000e+000
      vertex   3.446232e+000 -3.446232e+000 0.000000e+000
    endloop
  endfacet
  facet normal 6.593458e-001 -7.518398e-001 -1.076761e-016
    outer loop
      vertex   3.446232e+000 -3.446232e+000 2.600000e+001
      vertex   2.966925e+000 -3.866572e+000 2.600000e+001
      vertex   2.966925e+000 -3.866572e+000 0.000000e+000
    endloop
  endfacet
  facet normal 5.555702e-001 -8.314696e-001 -1.326575e-016
    outer loop
      vertex   2.966925e+000 -3.866572e+000 2.600000e+001
      vertex   2.436854e+000 -4.220755e+000 2.600000e+001
      vertex   2.436854e+000 -4.220755e+000 0.000000e+000
    endloop
  endfacet
  facet normal 9.992970e-001 3.749136e-002 -0.000000e+000
    outer loop
      vertex   1.865087e+000 -4.502719e+000 0.000000e+000
      vertex   1.865087e+000 -4.502719e+000 2.600000e+001
      vertex   1.917573e+000 -5.901683e+000 0.000000e+000
    endloop
  endfacet
  facet normal 9.992970e-001 3.749136e-002 0.000000e+000
    outer loop
      vertex   1.917573e+000 -5.901683e+000 0.000000e+000
      vertex   1.865087e+000 -4.502719e+000 2.600000e+001
      vertex   1.917573e+000 -5.901683e+000 2.600000e+001
    endloop
  endfacet
  facet normal 1.103126e-001 -9.938969e-001 0.000000e+000
    outer loop
      vertex   4.328666e-001 -6.190281e+000 2.600000e+001
      vertex   4.328666e-001 -6.190281e+000 0.000000e+000
      vertex   9.350647e-001 -6.134542e+000 2.600000e+001
    endloop
  endfacet
  facet normal 1.103126e-001 -9.938969e-001 -5.281815e-019
    outer loop
      vertex   9.350647e-001 -6.134542e+000 2.600000e+001
      vertex   4.328666e-001 -6.190281e+000 0.000000e+000
      vertex   9.350647e-001 -6.134542e+000 0.000000e+000
    endloop
  endfacet
  facet normal 1.908090e-001 -9.816272e-001 -8.147713e-019
    outer loop
      vertex   1.431063e+000 -6.038130e+000 0.000000e+000
      vertex   9.350647e-001 -6.134542e+000 2.600000e+001
      vertex   9.350647e-001 -6.134542e+000 0.000000e+000
    endloop
  endfacet
  facet normal 1.908090e-001 -9.816272e-001 0.000000e+000
    outer loop
      vertex   1.431063e+000 -6.038130e+000 0.000000e+000
      vertex   1.431063e+000 -6.038130e+000 2.600000e+001
      vertex   9.350647e-001 -6.134542e+000 2.600000e+001
    endloop
  endfacet
  facet normal 2.700403e-001 -9.628490e-001 0.000000e+000
    outer loop
      vertex   1.431063e+000 -6.038130e+000 0.000000e+000
      vertex   1.917573e+000 -5.901683e+000 2.600000e+001
      vertex   1.431063e+000 -6.038130e+000 2.600000e+001
    endloop
  endfacet
  facet normal 2.700403e-001 -9.628490e-001 0.000000e+000
    outer loop
      vertex   1.431063e+000 -6.038130e+000 0.000000e+000
      vertex   1.917573e+000 -5.901683e+000 0.000000e+000
      vertex   1.917573e+000 -5.901683e+000 2.600000e+001
    endloop
  endfacet
  facet normal -9.499722e-001 -3.123345e-001 0.000000e+000
    outer loop
      vertex   4.328666e-001 -6.190281e+000 0.000000e+000
      vertex   4.328666e-001 -6.190281e+000 2.600000e+001
      vertex   -7.443873e-015 -4.873708e+000 0.000000e+000
    endloop
  endfacet
  facet normal -9.499722e-001 -3.123345e-001 0.000000e+000
    outer loop
      vertex   -7.443873e-015 -4.873708e+000 0.000000e+000
      vertex   4.328666e-001 -6.190281e+000 2.600000e+001
      vertex   -7.443873e-015 -4.873708e+000 2.600000e+001
    endloop
  endfacet
  facet normal -3.214395e-001 -9.469301e-001 -0.000000e+000
    outer loop
      vertex   -1.865087e+000 -4.502719e+000 2.600000e+001
      vertex   -1.865087e+000 -4.502719e+000 0.000000e+000
      vertex   -1.261408e+000 -4.707640e+000 2.600000e+001
    endloop
  endfacet
  facet normal -3.214395e-001 -9.469301e-001 -9.209829e-017
    outer loop
      vertex   -1.261408e+000 -4.707640e+000 2.600000e+001
      vertex   -1.865087e+000 -4.502719e+000 0.000000e+000
      vertex   -1.261408e+000 -4.707640e+000 0.000000e+000
    endloop
  endfacet
  facet normal -1.950903e-001 -9.807853e-001 -6.698058e-017
    outer loop
      vertex   -6.361465e-001 -4.832012e+000 2.600000e+001
      vertex   -1.261408e+000 -4.707640e+000 0.000000e+000
      vertex   -6.361465e-001 -4.832012e+000 0.000000e+000
    endloop
  endfacet
  facet normal -6.540313e-002 -9.978589e-001 0.000000e+000
    outer loop
      vertex   -7.443873e-015 -4.873708e+000 2.600000e+001
      vertex   -6.361465e-001 -4.832012e+000 0.000000e+000
      vertex   -7.443873e-015 -4.873708e+000 0.000000e+000
    endloop
  endfacet
  facet normal -6.540313e-002 -9.978589e-001 -6.817514e-017
    outer loop
      vertex   -7.443873e-015 -4.873708e+000 2.600000e+001
      vertex   -6.361465e-001 -4.832012e+000 2.600000e+001
      vertex   -6.361465e-001 -4.832012e+000 0.000000e+000
    endloop
  endfacet
  facet normal -1.950903e-001 -9.807853e-001 -8.366970e-017
    outer loop
      vertex   -6.361465e-001 -4.832012e+000 2.600000e+001
      vertex   -1.261408e+000 -4.707640e+000 2.600000e+001
      vertex   -1.261408e+000 -4.707640e+000 0.000000e+000
    endloop
  endfacet
  facet normal 7.331200e-001 -6.800993e-001 0.000000e+000
    outer loop
      vertex   -1.865087e+000 -4.502719e+000 0.000000e+000
      vertex   -1.865087e+000 -4.502719e+000 2.600000e+001
      vertex   -2.817191e+000 -5.529049e+000 0.000000e+000
    endloop
  endfacet
  facet normal 7.331200e-001 -6.800993e-001 0.000000e+000
    outer loop
      vertex   -2.817191e+000 -5.529049e+000 0.000000e+000
      vertex   -1.865087e+000 -4.502719e+000 2.600000e+001
      vertex   -2.817191e+000 -5.529049e+000 2.600000e+001
    endloop
  endfacet
  facet normal -6.247885e-001 -7.807940e-001 -0.000000e+000
    outer loop
      vertex   -4.071107e+000 -4.683273e+000 2.600000e+001
      vertex   -4.071107e+000 -4.683273e+000 0.000000e+000
      vertex   -3.676586e+000 -4.998967e+000 2.600000e+001
    endloop
  endfacet
  facet normal -6.247885e-001 -7.807940e-001 0.000000e+000
    outer loop
      vertex   -3.676586e+000 -4.998967e+000 2.600000e+001
      vertex   -4.071107e+000 -4.683273e+000 0.000000e+000
      vertex   -3.676586e+000 -4.998967e+000 0.000000e+000
    endloop
  endfacet
  facet normal -5.591929e-001 -8.290376e-001 -0.000000e+000
    outer loop
      vertex   -3.257688e+000 -5.281517e+000 0.000000e+000
      vertex   -3.676586e+000 -4.998967e+000 2.600000e+001
      vertex   -3.676586e+000 -4.998967e+000 0.000000e+000
    endloop
  endfacet
  facet normal -5.591929e-001 -8.290376e-001 0.000000e+000
    outer loop
      vertex   -3.257688e+000 -5.281517e+000 0.000000e+000
      vertex   -3.257688e+000 -5.281517e+000 2.600000e+001
      vertex   -3.676586e+000 -4.998967e+000 2.600000e+001
    endloop
  endfacet
  facet normal -4.898897e-001 -8.717844e-001 0.000000e+000
    outer loop
      vertex   -3.257688e+000 -5.281517e+000 0.000000e+000
      vertex   -2.817191e+000 -5.529049e+000 2.600000e+001
      vertex   -3.257688e+000 -5.281517e+000 2.600000e+001
    endloop
  endfacet
  facet normal -4.898897e-001 -8.717844e-001 0.000000e+000
    outer loop
      vertex   -3.257688e+000 -5.281517e+000 0.000000e+000
      vertex   -2.817191e+000 -5.529049e+000 0.000000e+000
      vertex   -2.817191e+000 -5.529049e+000 2.600000e+001
    endloop
  endfacet
  facet normal -8.925856e-001 4.508780e-001 0.000000e+000
    outer loop
      vertex   -4.071107e+000 -4.683273e+000 0.000000e+000
      vertex   -4.071107e+000 -4.683273e+000 2.600000e+001
      vertex   -3.446232e+000 -3.446232e+000 0.000000e+000
    endloop
  endfacet
  facet normal -8.925856e-001 4.508780e-001 0.000000e+000
    outer loop
      vertex   -3.446232e+000 -3.446232e+000 0.000000e+000
      vertex   -4.071107e+000 -4.683273e+000 2.600000e+001
      vertex   -3.446232e+000 -3.446232e+000 2.600000e+001
    endloop
  endfacet
  facet normal -8.968727e-001 -4.422887e-001 -0.000000e+000
    outer loop
      vertex   -4.502719e+000 -1.865087e+000 2.600000e+001
      vertex   -4.502719e+000 -1.865087e+000 0.000000e+000
      vertex   -4.220755e+000 -2.436854e+000 2.600000e+001
    endloop
  endfacet
  facet normal -8.968727e-001 -4.422887e-001 -1.222396e-016
    outer loop
      vertex   -4.220755e+000 -2.436854e+000 2.600000e+001
      vertex   -4.502719e+000 -1.865087e+000 0.000000e+000
      vertex   -4.220755e+000 -2.436854e+000 0.000000e+000
    endloop
  endfacet
  facet normal -8.314696e-001 -5.555702e-001 -9.879635e-017
    outer loop
      vertex   -3.866572e+000 -2.966925e+000 2.600000e+001
      vertex   -4.220755e+000 -2.436854e+000 0.000000e+000
      vertex   -3.866572e+000 -2.966925e+000 0.000000e+000
    endloop
  endfacet
  facet normal -7.518398e-001 -6.593458e-001 0.000000e+000
    outer loop
      vertex   -3.446232e+000 -3.446232e+000 2.600000e+001
      vertex   -3.866572e+000 -2.966925e+000 0.000000e+000
      vertex   -3.446232e+000 -3.446232e+000 0.000000e+000
    endloop
  endfacet
  facet normal -7.518398e-001 -6.593458e-001 -8.989183e-017
    outer loop
      vertex   -3.446232e+000 -3.446232e+000 2.600000e+001
      vertex   -3.866572e+000 -2.966925e+000 2.600000e+001
      vertex   -3.866572e+000 -2.966925e+000 0.000000e+000
    endloop
  endfacet
  facet normal -8.314696e-001 -5.555702e-001 -1.136144e-016
    outer loop
      vertex   -3.866572e+000 -2.966925e+000 2.600000e+001
      vertex   -4.220755e+000 -2.436854e+000 2.600000e+001
      vertex   -4.220755e+000 -2.436854e+000 0.000000e+000
    endloop
  endfacet
  facet normal 3.749136e-002 -9.992970e-001 0.000000e+000
    outer loop
      vertex   -4.502719e+000 -1.865087e+000 0.000000e+000
      vertex   -4.502719e+000 -1.865087e+000 2.600000e+001
      vertex   -5.901683e+000 -1.917573e+000 0.000000e+000
    endloop
  endfacet
  facet normal 3.749136e-002 -9.992970e-001 0.000000e+000
    outer loop
      vertex   -5.901683e+000 -1.917573e+000 0.000000e+000
      vertex   -4.502719e+000 -1.865087e+000 2.600000e+001
      vertex   -5.901683e+000 -1.917573e+000 2.600000e+001
    endloop
  endfacet
  facet normal -9.938969e-001 -1.103126e-001 -0.000000e+000
    outer loop
      vertex   -6.190281e+000 -4.328666e-001 2.600000e+001
      vertex   -6.190281e+000 -4.328666e-001 0.000000e+000
      vertex   -6.134542e+000 -9.350647e-001 2.600000e+001
    endloop
  endfacet
  facet normal -9.938969e-001 -1.103126e-001 5.281815e-019
    outer loop
      vertex   -6.134542e+000 -9.350647e-001 2.600000e+001
      vertex   -6.190281e+000 -4.328666e-001 0.000000e+000
      vertex   -6.134542e+000 -9.350647e-001 0.000000e+000
    endloop
  endfacet
  facet normal -9.816272e-001 -1.908090e-001 8.147713e-019
    outer loop
      vertex   -6.038130e+000 -1.431063e+000 0.000000e+000
      vertex   -6.134542e+000 -9.350647e-001 2.600000e+001
      vertex   -6.134542e+000 -9.350647e-001 0.000000e+000
    endloop
  endfacet
  facet normal -9.816272e-001 -1.908090e-001 0.000000e+000
    outer loop
      vertex   -6.038130e+000 -1.431063e+000 0.000000e+000
      vertex   -6.038130e+000 -1.431063e+000 2.600000e+001
      vertex   -6.134542e+000 -9.350647e-001 2.600000e+001
    endloop
  endfacet
  facet normal -9.628490e-001 -2.700403e-001 0.000000e+000
    outer loop
      vertex   -6.038130e+000 -1.431063e+000 0.000000e+000
      vertex   -5.901683e+000 -1.917573e+000 2.600000e+001
      vertex   -6.038130e+000 -1.431063e+000 2.600000e+001
    endloop
  endfacet
  facet normal -9.628490e-001 -2.700403e-001 0.000000e+000
    outer loop
      vertex   -6.038130e+000 -1.431063e+000 0.000000e+000
      vertex   -5.901683e+000 -1.917573e+000 0.000000e+000
      vertex   -5.901683e+000 -1.917573e+000 2.600000e+001
    endloop
  endfacet
  facet normal -3.123345e-001 9.499722e-001 0.000000e+000
    outer loop
      vertex   -6.190281e+000 -4.328666e-001 0.000000e+000
      vertex   -6.190281e+000 -4.328666e-001 2.600000e+001
      vertex   -4.873708e+000 2.934841e-015 0.000000e+000
    endloop
  endfacet
  facet normal -3.123345e-001 9.499722e-001 0.000000e+000
    outer loop
      vertex   -4.873708e+000 2.934841e-015 0.000000e+000
      vertex   -6.190281e+000 -4.328666e-001 2.600000e+001
      vertex   -4.873708e+000 2.934841e-015 2.600000e+001
    endloop
  endfacet
  facet normal -9.469301e-001 3.214395e-001 0.000000e+000
    outer loop
      vertex   -4.502719e+000 1.865087e+000 2.600000e+001
      vertex   -4.502719e+000 1.865087e+000 0.000000e+000
      vertex   -4.707640e+000 1.261408e+000 2.600000e+001
    endloop
  endfacet
  facet normal -9.469301e-001 3.214395e-001 -8.121395e-017
    outer loop
      vertex   -4.707640e+000 1.261408e+000 2.600000e+001
      vertex   -4.502719e+000 1.865087e+000 0.000000e+000
      vertex   -4.707640e+000 1.261408e+000 0.000000e+000
    endloop
  endfacet
  facet normal -9.807853e-001 1.950903e-001 -8.707475e-017
    outer loop
      vertex   -4.832012e+000 6.361465e-001 2.600000e+001
      vertex   -4.707640e+000 1.261408e+000 0.000000e+000
      vertex   -4.832012e+000 6.361465e-001 0.000000e+000
    endloop
  endfacet
  facet normal -9.978589e-001 6.540313e-002 0.000000e+000
    outer loop
      vertex   -4.873708e+000 2.934841e-015 2.600000e+001
      vertex   -4.832012e+000 6.361465e-001 0.000000e+000
      vertex   -4.873708e+000 2.934841e-015 0.000000e+000
    endloop
  endfacet
  facet normal -9.978589e-001 6.540313e-002 -9.779427e-017
    outer loop
      vertex   -4.873708e+000 2.934841e-015 2.600000e+001
      vertex   -4.832012e+000 6.361465e-001 2.600000e+001
      vertex   -4.832012e+000 6.361465e-001 0.000000e+000
    endloop
  endfacet
  facet normal -9.807853e-001 1.950903e-001 -9.051632e-017
    outer loop
      vertex   -4.832012e+000 6.361465e-001 2.600000e+001
      vertex   -4.707640e+000 1.261408e+000 2.600000e+001
      vertex   -4.707640e+000 1.261408e+000 0.000000e+000
    endloop
  endfacet
  facet normal -6.800993e-001 -7.331200e-001 0.000000e+000
    outer loop
      vertex   -4.502719e+000 1.865087e+000 0.000000e+000
      vertex   -4.502719e+000 1.865087e+000 2.600000e+001
      vertex   -5.529049e+000 2.817191e+000 0.000000e+000
    endloop
  endfacet
  facet normal -6.800993e-001 -7.331200e-001 0.000000e+000
    outer loop
      vertex   -5.529049e+000 2.817191e+000 0.000000e+000
      vertex   -4.502719e+000 1.865087e+000 2.600000e+001
      vertex   -5.529049e+000 2.817191e+000 2.600000e+001
    endloop
  endfacet
  facet normal -7.807940e-001 6.247885e-001 0.000000e+000
    outer loop
      vertex   -4.683273e+000 4.071107e+000 2.600000e+001
      vertex   -4.683273e+000 4.071107e+000 0.000000e+000
      vertex   -4.998967e+000 3.676586e+000 2.600000e+001
    endloop
  endfacet
  facet normal -7.807940e-001 6.247885e-001 0.000000e+000
    outer loop
      vertex   -4.998967e+000 3.676586e+000 2.600000e+001
      vertex   -4.683273e+000 4.071107e+000 0.000000e+000
      vertex   -4.998967e+000 3.676586e+000 0.000000e+000
    endloop
  endfacet
  facet normal -8.290376e-001 5.591929e-001 0.000000e+000
    outer loop
      vertex   -5.281517e+000 3.257688e+000 0.000000e+000
      vertex   -4.998967e+000 3.676586e+000 2.600000e+001
      vertex   -4.998967e+000 3.676586e+000 0.000000e+000
    endloop
  endfacet
  facet normal -8.290376e-001 5.591929e-001 0.000000e+000
    outer loop
      vertex   -5.281517e+000 3.257688e+000 0.000000e+000
      vertex   -5.281517e+000 3.257688e+000 2.600000e+001
      vertex   -4.998967e+000 3.676586e+000 2.600000e+001
    endloop
  endfacet
  facet normal -8.717844e-001 4.898897e-001 0.000000e+000
    outer loop
      vertex   -5.281517e+000 3.257688e+000 0.000000e+000
      vertex   -5.529049e+000 2.817191e+000 2.600000e+001
      vertex   -5.281517e+000 3.257688e+000 2.600000e+001
    endloop
  endfacet
  facet normal -8.717844e-001 4.898897e-001 0.000000e+000
    outer loop
      vertex   -5.281517e+000 3.257688e+000 0.000000e+000
      vertex   -5.529049e+000 2.817191e+000 0.000000e+000
      vertex   -5.529049e+000 2.817191e+000 2.600000e+001
    endloop
  endfacet
  facet normal 4.508780e-001 8.925856e-001 -0.000000e+000
    outer loop
      vertex   -4.683273e+000 4.071107e+000 0.000000e+000
      vertex   -4.683273e+000 4.071107e+000 2.600000e+001
      vertex   -3.446232e+000 3.446232e+000 0.000000e+000
    endloop
  endfacet
  facet normal 4.508780e-001 8.925856e-001 0.000000e+000
    outer loop
      vertex   -3.446232e+000 3.446232e+000 0.000000e+000
      vertex   -4.683273e+000 4.071107e+000 2.600000e+001
      vertex   -3.446232e+000 3.446232e+000 2.600000e+001
    endloop
  endfacet
  facet normal -4.422887e-001 8.968727e-001 0.000000e+000
    outer loop
      vertex   -1.865087e+000 4.502719e+000 2.600000e+001
      vertex   -1.865087e+000 4.502719e+000 0.000000e+000
      vertex   -2.436854e+000 4.220755e+000 2.600000e+001
    endloop
  endfacet
  facet normal -4.422887e-001 8.968727e-001 -1.222396e-016
    outer loop
      vertex   -2.436854e+000 4.220755e+000 2.600000e+001
      vertex   -1.865087e+000 4.502719e+000 0.000000e+000
      vertex   -2.436854e+000 4.220755e+000 0.000000e+000
    endloop
  endfacet
  facet normal -5.555702e-001 8.314696e-001 -6.028252e-017
    outer loop
      vertex   -2.966925e+000 3.866572e+000 2.600000e+001
      vertex   -2.436854e+000 4.220755e+000 0.000000e+000
      vertex   -2.966925e+000 3.866572e+000 0.000000e+000
    endloop
  endfacet
  facet normal -6.593458e-001 7.518398e-001 0.000000e+000
    outer loop
      vertex   -3.446232e+000 3.446232e+000 2.600000e+001
      vertex   -2.966925e+000 3.866572e+000 0.000000e+000
      vertex   -3.446232e+000 3.446232e+000 0.000000e+000
    endloop
  endfacet
  facet normal -6.593458e-001 7.518398e-001 -6.104879e-017
    outer loop
      vertex   -3.446232e+000 3.446232e+000 2.600000e+001
      vertex   -2.966925e+000 3.866572e+000 2.600000e+001
      vertex   -2.966925e+000 3.866572e+000 0.000000e+000
    endloop
  endfacet
  facet normal -5.555702e-001 8.314696e-001 -1.136144e-016
    outer loop
      vertex   -2.966925e+000 3.866572e+000 2.600000e+001
      vertex   -2.436854e+000 4.220755e+000 2.600000e+001
      vertex   -2.436854e+000 4.220755e+000 0.000000e+000
    endloop
  endfacet
  facet normal -9.992970e-001 -3.749136e-002 0.000000e+000
    outer loop
      vertex   -1.865087e+000 4.502719e+000 0.000000e+000
      vertex   -1.865087e+000 4.502719e+000 2.600000e+001
      vertex   -1.917573e+000 5.901683e+000 0.000000e+000
    endloop
  endfacet
  facet normal -9.992970e-001 -3.749136e-002 0.000000e+000
    outer loop
      vertex   -1.917573e+000 5.901683e+000 0.000000e+000
      vertex   -1.865087e+000 4.502719e+000 2.600000e+001
      vertex   -1.917573e+000 5.901683e+000 2.600000e+001
    endloop
  endfacet
  facet normal -1.103126e-001 9.938969e-001 0.000000e+000
    outer loop
      vertex   -4.328666e-001 6.190281e+000 2.600000e+001
      vertex   -4.328666e-001 6.190281e+000 0.000000e+000
      vertex   -9.350647e-001 6.134542e+000 2.600000e+001
    endloop
  endfacet
  facet normal -1.103126e-001 9.938969e-001 5.281815e-019
    outer loop
      vertex   -9.350647e-001 6.134542e+000 2.600000e+001
      vertex   -4.328666e-001 6.190281e+000 0.000000e+000
      vertex   -9.350647e-001 6.134542e+000 0.000000e+000
    endloop
  endfacet
  facet normal -1.908090e-001 9.816272e-001 8.147713e-019
    outer loop
      vertex   -1.431063e+000 6.038130e+000 0.000000e+000
      vertex   -9.350647e-001 6.134542e+000 2.600000e+001
      vertex   -9.350647e-001 6.134542e+000 0.000000e+000
    endloop
  endfacet
  facet normal -1.908090e-001 9.816272e-001 0.000000e+000
    outer loop
      vertex   -1.431063e+000 6.038130e+000 0.000000e+000
      vertex   -1.431063e+000 6.038130e+000 2.600000e+001
      vertex   -9.350647e-001 6.134542e+000 2.600000e+001
    endloop
  endfacet
  facet normal -2.700403e-001 9.628490e-001 0.000000e+000
    outer loop
      vertex   -1.431063e+000 6.038130e+000 0.000000e+000
      vertex   -1.917573e+000 5.901683e+000 2.600000e+001
      vertex   -1.431063e+000 6.038130e+000 2.600000e+001
    endloop
  endfacet
  facet normal -2.700403e-001 9.628490e-001 0.000000e+000
    outer loop
      vertex   -1.431063e+000 6.038130e+000 0.000000e+000
      vertex   -1.917573e+000 5.901683e+000 0.000000e+000
      vertex   -1.917573e+000 5.901683e+000 2.600000e+001
    endloop
  endfacet
  facet normal 9.499722e-001 3.123345e-001 -0.000000e+000
    outer loop
      vertex   -4.328666e-001 6.190281e+000 0.000000e+000
      vertex   -4.328666e-001 6.190281e+000 2.600000e+001
      vertex   5.882964e-015 4.873708e+000 0.000000e+000
    endloop
  endfacet
  facet normal 9.499722e-001 3.123345e-001 0.000000e+000
    outer loop
      vertex   5.882964e-015 4.873708e+000 0.000000e+000
      vertex   -4.328666e-001 6.190281e+000 2.600000e+001
      vertex   5.882964e-015 4.873708e+000 2.600000e+001
    endloop
  endfacet
  facet normal 3.214395e-001 9.469301e-001 0.000000e+000
    outer loop
      vertex   1.865087e+000 4.502719e+000 2.600000e+001
      vertex   1.865087e+000 4.502719e+000 0.000000e+000
      vertex   1.261408e+000 4.707640e+000 2.600000e+001
    endloop
  endfacet
  facet normal 3.214395e-001 9.469301e-001 -1.163788e-016
    outer loop
      vertex   1.261408e+000 4.707640e+000 2.600000e+001
      vertex   1.865087e+000 4.502719e+000 0.000000e+000
      vertex   1.261408e+000 4.707640e+000 0.000000e+000
    endloop
  endfacet
  facet normal 1.950903e-001 9.807853e-001 -1.105180e-016
    outer loop
      vertex   6.361465e-001 4.832012e+000 2.600000e+001
      vertex   1.261408e+000 4.707640e+000 0.000000e+000
      vertex   6.361465e-001 4.832012e+000 0.000000e+000
    endloop
  endfacet
  facet normal 6.540313e-002 9.978589e-001 0.000000e+000
    outer loop
      vertex   5.882964e-015 4.873708e+000 2.600000e+001
      vertex   6.361465e-001 4.832012e+000 0.000000e+000
      vertex   5.882964e-015 4.873708e+000 0.000000e+000
    endloop
  endfacet
  facet normal 6.540313e-002 9.978589e-001 -1.056140e-016
    outer loop
      vertex   5.882964e-015 4.873708e+000 2.600000e+001
      vertex   6.361465e-001 4.832012e+000 2.600000e+001
      vertex   6.361465e-001 4.832012e+000 0.000000e+000
    endloop
  endfacet
  facet normal 1.950903e-001 9.807853e-001 -1.121757e-016
    outer loop
      vertex   6.361465e-001 4.832012e+000 2.600000e+001
      vertex   1.261408e+000 4.707640e+000 2.600000e+001
      vertex   1.261408e+000 4.707640e+000 0.000000e+000
    endloop
  endfacet
  facet normal -7.331200e-001 6.800993e-001 0.000000e+000
    outer loop
      vertex   1.865087e+000 4.502719e+000 0.000000e+000
      vertex   1.865087e+000 4.502719e+000 2.600000e+001
      vertex   2.817191e+000 5.529049e+000 0.000000e+000
    endloop
  endfacet
  facet normal -7.331200e-001 6.800993e-001 0.000000e+000
    outer loop
      vertex   2.817191e+000 5.529049e+000 0.000000e+000
      vertex   1.865087e+000 4.502719e+000 2.600000e+001
      vertex   2.817191e+000 5.529049e+000 2.600000e+001
    endloop
  endfacet
  facet normal 6.247885e-001 7.807940e-001 0.000000e+000
    outer loop
      vertex   4.071107e+000 4.683273e+000 2.600000e+001
      vertex   4.071107e+000 4.683273e+000 0.000000e+000
      vertex   3.676586e+000 4.998967e+000 2.600000e+001
    endloop
  endfacet
  facet normal 6.247885e-001 7.807940e-001 0.000000e+000
    outer loop
      vertex   3.676586e+000 4.998967e+000 2.600000e+001
      vertex   4.071107e+000 4.683273e+000 0.000000e+000
      vertex   3.676586e+000 4.998967e+000 0.000000e+000
    endloop
  endfacet
  facet normal 5.591929e-001 8.290376e-001 0.000000e+000
    outer loop
      vertex   3.257688e+000 5.281517e+000 0.000000e+000
      vertex   3.676586e+000 4.998967e+000 2.600000e+001
      vertex   3.676586e+000 4.998967e+000 0.000000e+000
    endloop
  endfacet
  facet normal 5.591929e-001 8.290376e-001 -0.000000e+000
    outer loop
      vertex   3.257688e+000 5.281517e+000 0.000000e+000
      vertex   3.257688e+000 5.281517e+000 2.600000e+001
      vertex   3.676586e+000 4.998967e+000 2.600000e+001
    endloop
  endfacet
  facet normal 4.898897e-001 8.717844e-001 0.000000e+000
    outer loop
      vertex   3.257688e+000 5.281517e+000 0.000000e+000
      vertex   2.817191e+000 5.529049e+000 2.600000e+001
      vertex   3.257688e+000 5.281517e+000 2.600000e+001
    endloop
  endfacet
  facet normal 4.898897e-001 8.717844e-001 -0.000000e+000
    outer loop
      vertex   3.257688e+000 5.281517e+000 0.000000e+000
      vertex   2.817191e+000 5.529049e+000 0.000000e+000
      vertex   2.817191e+000 5.529049e+000 2.600000e+001
    endloop
  endfacet
  facet normal 8.925856e-001 -4.508780e-001 0.000000e+000
    outer loop
      vertex   4.071107e+000 4.683273e+000 0.000000e+000
      vertex   4.071107e+000 4.683273e+000 2.600000e+001
      vertex   3.446232e+000 3.446232e+000 0.000000e+000
    endloop
  endfacet
  facet normal 8.925856e-001 -4.508780e-001 0.000000e+000
    outer loop
      vertex   3.446232e+000 3.446232e+000 0.000000e+000
      vertex   4.071107e+000 4.683273e+000 2.600000e+001
      vertex   3.446232e+000 3.446232e+000 2.600000e+001
    endloop
  endfacet
  facet normal 9.499722e-001 3.123345e-001 0.000000e+000
    outer loop
      vertex   -1.104823e+000 -2.242625e+000 2.600000e+001
      vertex   -1.104823e+000 -2.242625e+000 0.000000e+000
      vertex   -2.220080e+000 1.149454e+000 2.600000e+001
    endloop
  endfacet
  facet normal 9.499722e-001 3.123345e-001 0.000000e+000
    outer loop
      vertex   -2.220080e+000 1.149454e+000 2.600000e+001
      vertex   -1.104823e+000 -2.242625e+000 0.000000e+000
      vertex   -2.220080e+000 1.149454e+000 0.000000e+000
    endloop
  endfacet
endsolid
