solid ascii
  facet normal -6.162842e-002 6.162842e-002 -9.961947e-001
    outer loop
      vertex   -1.268036e+002 -1.063271e+002 1.905442e+001
      vertex   -1.395315e+002 -1.190551e+002 1.905442e+001
      vertex   -1.271720e+002 -1.059588e+002 1.910000e+001
    endloop
  endfacet
  facet normal -1.830127e-001 1.830127e-001 -9.659258e-001
    outer loop
      vertex   -1.268036e+002 -1.063271e+002 1.905442e+001
      vertex   -1.391744e+002 -1.194122e+002 1.891908e+001
      vertex   -1.395315e+002 -1.190551e+002 1.905442e+001
    endloop
  endfacet
  facet normal -1.830127e-001 1.830127e-001 -9.659258e-001
    outer loop
      vertex   -1.268036e+002 -1.063271e+002 1.905442e+001
      vertex   -1.264465e+002 -1.066843e+002 1.891908e+001
      vertex   -1.391744e+002 -1.194122e+002 1.891908e+001
    endloop
  endfacet
  facet normal -2.988362e-001 2.988362e-001 -9.063078e-001
    outer loop
      vertex   -1.391744e+002 -1.194122e+002 1.891908e+001
      vertex   -1.264465e+002 -1.066843e+002 1.891908e+001
      vertex   -1.388392e+002 -1.197474e+002 1.869808e+001
    endloop
  endfacet
  facet normal -2.988362e-001 2.988362e-001 -9.063078e-001
    outer loop
      vertex   -1.388392e+002 -1.197474e+002 1.869808e+001
      vertex   -1.264465e+002 -1.066843e+002 1.891908e+001
      vertex   -1.261113e+002 -1.070194e+002 1.869808e+001
    endloop
  endfacet
  facet normal -4.055798e-001 4.055798e-001 -8.191520e-001
    outer loop
      vertex   -1.385364e+002 -1.200503e+002 1.839813e+001
      vertex   -1.261113e+002 -1.070194e+002 1.869808e+001
      vertex   -1.258084e+002 -1.073223e+002 1.839813e+001
    endloop
  endfacet
  facet normal -5.000000e-001 5.000000e-001 -7.071068e-001
    outer loop
      vertex   -1.382749e+002 -1.203117e+002 1.802836e+001
      vertex   -1.258084e+002 -1.073223e+002 1.839813e+001
      vertex   -1.255470e+002 -1.075838e+002 1.802836e+001
    endloop
  endfacet
  facet normal -5.792280e-001 5.792280e-001 -5.735764e-001
    outer loop
      vertex   -1.380628e+002 -1.205238e+002 1.760000e+001
      vertex   -1.255470e+002 -1.075838e+002 1.802836e+001
      vertex   -1.253349e+002 -1.077959e+002 1.760000e+001
    endloop
  endfacet
  facet normal -6.408564e-001 6.408564e-001 -4.226183e-001
    outer loop
      vertex   -1.379065e+002 -1.206801e+002 1.712606e+001
      vertex   -1.253349e+002 -1.077959e+002 1.760000e+001
      vertex   -1.251786e+002 -1.079522e+002 1.712606e+001
    endloop
  endfacet
  facet normal -6.830127e-001 6.830127e-001 -2.588190e-001
    outer loop
      vertex   -1.378108e+002 -1.207758e+002 1.662094e+001
      vertex   -1.251786e+002 -1.079522e+002 1.712606e+001
      vertex   -1.250829e+002 -1.080479e+002 1.662094e+001
    endloop
  endfacet
  facet normal -7.044160e-001 7.044160e-001 -8.715574e-002
    outer loop
      vertex   -1.377786e+002 -1.208080e+002 1.610000e+001
      vertex   -1.250829e+002 -1.080479e+002 1.662094e+001
      vertex   -1.250507e+002 -1.080801e+002 1.610000e+001
    endloop
  endfacet
  facet normal -7.044160e-001 7.044160e-001 8.715574e-002
    outer loop
      vertex   -1.378108e+002 -1.207758e+002 1.557906e+001
      vertex   -1.250507e+002 -1.080801e+002 1.610000e+001
      vertex   -1.250829e+002 -1.080479e+002 1.557906e+001
    endloop
  endfacet
  facet normal -6.830127e-001 6.830127e-001 2.588190e-001
    outer loop
      vertex   -1.379065e+002 -1.206801e+002 1.507394e+001
      vertex   -1.250829e+002 -1.080479e+002 1.557906e+001
      vertex   -1.251786e+002 -1.079522e+002 1.507394e+001
    endloop
  endfacet
  facet normal -6.408564e-001 6.408564e-001 4.226183e-001
    outer loop
      vertex   -1.380628e+002 -1.205238e+002 1.460000e+001
      vertex   -1.251786e+002 -1.079522e+002 1.507394e+001
      vertex   -1.253349e+002 -1.077959e+002 1.460000e+001
    endloop
  endfacet
  facet normal -5.792280e-001 5.792280e-001 5.735764e-001
    outer loop
      vertex   -1.382749e+002 -1.203117e+002 1.417164e+001
      vertex   -1.253349e+002 -1.077959e+002 1.460000e+001
      vertex   -1.255470e+002 -1.075838e+002 1.417164e+001
    endloop
  endfacet
  facet normal -5.000000e-001 5.000000e-001 7.071068e-001
    outer loop
      vertex   -1.385364e+002 -1.200503e+002 1.380187e+001
      vertex   -1.255470e+002 -1.075838e+002 1.417164e+001
      vertex   -1.258084e+002 -1.073223e+002 1.380187e+001
    endloop
  endfacet
  facet normal -4.055798e-001 4.055798e-001 8.191520e-001
    outer loop
      vertex   -1.388392e+002 -1.197474e+002 1.350192e+001
      vertex   -1.258084e+002 -1.073223e+002 1.380187e+001
      vertex   -1.261113e+002 -1.070194e+002 1.350192e+001
    endloop
  endfacet
  facet normal -2.988362e-001 2.988362e-001 9.063078e-001
    outer loop
      vertex   -1.391744e+002 -1.194122e+002 1.328092e+001
      vertex   -1.261113e+002 -1.070194e+002 1.350192e+001
      vertex   -1.264465e+002 -1.066843e+002 1.328092e+001
    endloop
  endfacet
  facet normal -1.830127e-001 1.830127e-001 9.659258e-001
    outer loop
      vertex   -1.395315e+002 -1.190551e+002 1.314558e+001
      vertex   -1.264465e+002 -1.066843e+002 1.328092e+001
      vertex   -1.268036e+002 -1.063271e+002 1.314558e+001
    endloop
  endfacet
  facet normal -6.162842e-002 6.162842e-002 9.961947e-001
    outer loop
      vertex   -1.398999e+002 -1.186867e+002 1.310000e+001
      vertex   -1.268036e+002 -1.063271e+002 1.314558e+001
      vertex   -1.271720e+002 -1.059588e+002 1.310000e+001
    endloop
  endfacet
  facet normal 6.162842e-002 -6.162842e-002 9.961947e-001
    outer loop
      vertex   -1.402683e+002 -1.183183e+002 1.314558e+001
      vertex   -1.271720e+002 -1.059588e+002 1.310000e+001
      vertex   -1.275404e+002 -1.055904e+002 1.314558e+001
    endloop
  endfacet
  facet normal 1.830127e-001 -1.830127e-001 9.659258e-001
    outer loop
      vertex   -1.406254e+002 -1.179612e+002 1.328092e+001
      vertex   -1.275404e+002 -1.055904e+002 1.314558e+001
      vertex   -1.278975e+002 -1.052332e+002 1.328092e+001
    endloop
  endfacet
  facet normal 2.988362e-001 -2.988362e-001 9.063078e-001
    outer loop
      vertex   -1.409606e+002 -1.176260e+002 1.350192e+001
      vertex   -1.278975e+002 -1.052332e+002 1.328092e+001
      vertex   -1.282326e+002 -1.048981e+002 1.350192e+001
    endloop
  endfacet
  facet normal 4.055798e-001 -4.055798e-001 8.191520e-001
    outer loop
      vertex   -1.412635e+002 -1.173231e+002 1.380187e+001
      vertex   -1.282326e+002 -1.048981e+002 1.350192e+001
      vertex   -1.285355e+002 -1.045952e+002 1.380187e+001
    endloop
  endfacet
  facet normal 5.000000e-001 -5.000000e-001 7.071068e-001
    outer loop
      vertex   -1.415249e+002 -1.170617e+002 1.417164e+001
      vertex   -1.285355e+002 -1.045952e+002 1.380187e+001
      vertex   -1.287970e+002 -1.043338e+002 1.417164e+001
    endloop
  endfacet
  facet normal 5.792280e-001 -5.792280e-001 5.735764e-001
    outer loop
      vertex   -1.417370e+002 -1.168496e+002 1.460000e+001
      vertex   -1.287970e+002 -1.043338e+002 1.417164e+001
      vertex   -1.290091e+002 -1.041217e+002 1.460000e+001
    endloop
  endfacet
  facet normal 6.408564e-001 -6.408564e-001 4.226183e-001
    outer loop
      vertex   -1.418933e+002 -1.166933e+002 1.507394e+001
      vertex   -1.290091e+002 -1.041217e+002 1.460000e+001
      vertex   -1.291654e+002 -1.039654e+002 1.507394e+001
    endloop
  endfacet
  facet normal 6.830127e-001 -6.830127e-001 2.588190e-001
    outer loop
      vertex   -1.419890e+002 -1.165976e+002 1.557906e+001
      vertex   -1.291654e+002 -1.039654e+002 1.507394e+001
      vertex   -1.292611e+002 -1.038697e+002 1.557906e+001
    endloop
  endfacet
  facet normal 7.044160e-001 -7.044160e-001 8.715574e-002
    outer loop
      vertex   -1.420212e+002 -1.165654e+002 1.610000e+001
      vertex   -1.292611e+002 -1.038697e+002 1.557906e+001
      vertex   -1.292933e+002 -1.038375e+002 1.610000e+001
    endloop
  endfacet
  facet normal 7.044160e-001 -7.044160e-001 -8.715574e-002
    outer loop
      vertex   -1.419890e+002 -1.165976e+002 1.662094e+001
      vertex   -1.292933e+002 -1.038375e+002 1.610000e+001
      vertex   -1.292611e+002 -1.038697e+002 1.662094e+001
    endloop
  endfacet
  facet normal 6.830127e-001 -6.830127e-001 -2.588190e-001
    outer loop
      vertex   -1.418933e+002 -1.166933e+002 1.712606e+001
      vertex   -1.292611e+002 -1.038697e+002 1.662094e+001
      vertex   -1.291654e+002 -1.039654e+002 1.712606e+001
    endloop
  endfacet
  facet normal 6.408564e-001 -6.408564e-001 -4.226183e-001
    outer loop
      vertex   -1.417370e+002 -1.168496e+002 1.760000e+001
      vertex   -1.291654e+002 -1.039654e+002 1.712606e+001
      vertex   -1.290091e+002 -1.041217e+002 1.760000e+001
    endloop
  endfacet
  facet normal 5.792280e-001 -5.792280e-001 -5.735764e-001
    outer loop
      vertex   -1.415249e+002 -1.170617e+002 1.802836e+001
      vertex   -1.290091e+002 -1.041217e+002 1.760000e+001
      vertex   -1.287970e+002 -1.043338e+002 1.802836e+001
    endloop
  endfacet
  facet normal 5.000000e-001 -5.000000e-001 -7.071068e-001
    outer loop
      vertex   -1.412635e+002 -1.173231e+002 1.839813e+001
      vertex   -1.287970e+002 -1.043338e+002 1.802836e+001
      vertex   -1.285355e+002 -1.045952e+002 1.839813e+001
    endloop
  endfacet
  facet normal 4.055798e-001 -4.055798e-001 -8.191520e-001
    outer loop
      vertex   -1.409606e+002 -1.176260e+002 1.869808e+001
      vertex   -1.285355e+002 -1.045952e+002 1.839813e+001
      vertex   -1.282326e+002 -1.048981e+002 1.869808e+001
    endloop
  endfacet
  facet normal 2.988362e-001 -2.988362e-001 -9.063078e-001
    outer loop
      vertex   -1.406254e+002 -1.179612e+002 1.891908e+001
      vertex   -1.282326e+002 -1.048981e+002 1.869808e+001
      vertex   -1.278975e+002 -1.052332e+002 1.891908e+001
    endloop
  endfacet
  facet normal 1.830127e-001 -1.830127e-001 -9.659258e-001
    outer loop
      vertex   -1.402683e+002 -1.183183e+002 1.905442e+001
      vertex   -1.278975e+002 -1.052332e+002 1.891908e+001
      vertex   -1.275404e+002 -1.055904e+002 1.905442e+001
    endloop
  endfacet
  facet normal 6.162842e-002 -6.162842e-002 -9.961947e-001
    outer loop
      vertex   -1.398999e+002 -1.186867e+002 1.910000e+001
      vertex   -1.275404e+002 -1.055904e+002 1.905442e+001
      vertex   -1.271720e+002 -1.059588e+002 1.910000e+001
    endloop
  endfacet
  facet normal -6.162842e-002 6.162842e-002 -9.961947e-001
    outer loop
      vertex   -1.395315e+002 -1.190551e+002 1.905442e+001
      vertex   -1.398999e+002 -1.186867e+002 1.910000e+001
      vertex   -1.271720e+002 -1.059588e+002 1.910000e+001
    endloop
  endfacet
  facet normal 6.162842e-002 -6.162842e-002 -9.961947e-001
    outer loop
      vertex   -1.398999e+002 -1.186867e+002 1.910000e+001
      vertex   -1.402683e+002 -1.183183e+002 1.905442e+001
      vertex   -1.275404e+002 -1.055904e+002 1.905442e+001
    endloop
  endfacet
  facet normal 1.830127e-001 -1.830127e-001 -9.659258e-001
    outer loop
      vertex   -1.402683e+002 -1.183183e+002 1.905442e+001
      vertex   -1.406254e+002 -1.179612e+002 1.891908e+001
      vertex   -1.278975e+002 -1.052332e+002 1.891908e+001
    endloop
  endfacet
  facet normal 2.988362e-001 -2.988362e-001 -9.063078e-001
    outer loop
      vertex   -1.406254e+002 -1.179612e+002 1.891908e+001
      vertex   -1.409606e+002 -1.176260e+002 1.869808e+001
      vertex   -1.282326e+002 -1.048981e+002 1.869808e+001
    endloop
  endfacet
  facet normal 4.055798e-001 -4.055798e-001 -8.191520e-001
    outer loop
      vertex   -1.409606e+002 -1.176260e+002 1.869808e+001
      vertex   -1.412635e+002 -1.173231e+002 1.839813e+001
      vertex   -1.285355e+002 -1.045952e+002 1.839813e+001
    endloop
  endfacet
  facet normal 5.000000e-001 -5.000000e-001 -7.071068e-001
    outer loop
      vertex   -1.412635e+002 -1.173231e+002 1.839813e+001
      vertex   -1.415249e+002 -1.170617e+002 1.802836e+001
      vertex   -1.287970e+002 -1.043338e+002 1.802836e+001
    endloop
  endfacet
  facet normal 5.792280e-001 -5.792280e-001 -5.735764e-001
    outer loop
      vertex   -1.415249e+002 -1.170617e+002 1.802836e+001
      vertex   -1.417370e+002 -1.168496e+002 1.760000e+001
      vertex   -1.290091e+002 -1.041217e+002 1.760000e+001
    endloop
  endfacet
  facet normal 6.408564e-001 -6.408564e-001 -4.226183e-001
    outer loop
      vertex   -1.417370e+002 -1.168496e+002 1.760000e+001
      vertex   -1.418933e+002 -1.166933e+002 1.712606e+001
      vertex   -1.291654e+002 -1.039654e+002 1.712606e+001
    endloop
  endfacet
  facet normal 6.830127e-001 -6.830127e-001 -2.588190e-001
    outer loop
      vertex   -1.418933e+002 -1.166933e+002 1.712606e+001
      vertex   -1.419890e+002 -1.165976e+002 1.662094e+001
      vertex   -1.292611e+002 -1.038697e+002 1.662094e+001
    endloop
  endfacet
  facet normal 7.044160e-001 -7.044160e-001 -8.715574e-002
    outer loop
      vertex   -1.419890e+002 -1.165976e+002 1.662094e+001
      vertex   -1.420212e+002 -1.165654e+002 1.610000e+001
      vertex   -1.292933e+002 -1.038375e+002 1.610000e+001
    endloop
  endfacet
  facet normal 7.044160e-001 -7.044160e-001 8.715574e-002
    outer loop
      vertex   -1.420212e+002 -1.165654e+002 1.610000e+001
      vertex   -1.419890e+002 -1.165976e+002 1.557906e+001
      vertex   -1.292611e+002 -1.038697e+002 1.557906e+001
    endloop
  endfacet
  facet normal 6.830127e-001 -6.830127e-001 2.588190e-001
    outer loop
      vertex   -1.419890e+002 -1.165976e+002 1.557906e+001
      vertex   -1.418933e+002 -1.166933e+002 1.507394e+001
      vertex   -1.291654e+002 -1.039654e+002 1.507394e+001
    endloop
  endfacet
  facet normal 6.408564e-001 -6.408564e-001 4.226183e-001
    outer loop
      vertex   -1.418933e+002 -1.166933e+002 1.507394e+001
      vertex   -1.417370e+002 -1.168496e+002 1.460000e+001
      vertex   -1.290091e+002 -1.041217e+002 1.460000e+001
    endloop
  endfacet
  facet normal 5.792280e-001 -5.792280e-001 5.735764e-001
    outer loop
      vertex   -1.417370e+002 -1.168496e+002 1.460000e+001
      vertex   -1.415249e+002 -1.170617e+002 1.417164e+001
      vertex   -1.287970e+002 -1.043338e+002 1.417164e+001
    endloop
  endfacet
  facet normal 5.000000e-001 -5.000000e-001 7.071068e-001
    outer loop
      vertex   -1.415249e+002 -1.170617e+002 1.417164e+001
      vertex   -1.412635e+002 -1.173231e+002 1.380187e+001
      vertex   -1.285355e+002 -1.045952e+002 1.380187e+001
    endloop
  endfacet
  facet normal 4.055798e-001 -4.055798e-001 8.191520e-001
    outer loop
      vertex   -1.412635e+002 -1.173231e+002 1.380187e+001
      vertex   -1.409606e+002 -1.176260e+002 1.350192e+001
      vertex   -1.282326e+002 -1.048981e+002 1.350192e+001
    endloop
  endfacet
  facet normal 2.988362e-001 -2.988362e-001 9.063078e-001
    outer loop
      vertex   -1.409606e+002 -1.176260e+002 1.350192e+001
      vertex   -1.406254e+002 -1.179612e+002 1.328092e+001
      vertex   -1.278975e+002 -1.052332e+002 1.328092e+001
    endloop
  endfacet
  facet normal 1.830127e-001 -1.830127e-001 9.659258e-001
    outer loop
      vertex   -1.406254e+002 -1.179612e+002 1.328092e+001
      vertex   -1.402683e+002 -1.183183e+002 1.314558e+001
      vertex   -1.275404e+002 -1.055904e+002 1.314558e+001
    endloop
  endfacet
  facet normal 6.162842e-002 -6.162842e-002 9.961947e-001
    outer loop
      vertex   -1.402683e+002 -1.183183e+002 1.314558e+001
      vertex   -1.398999e+002 -1.186867e+002 1.310000e+001
      vertex   -1.271720e+002 -1.059588e+002 1.310000e+001
    endloop
  endfacet
  facet normal -6.162842e-002 6.162842e-002 9.961947e-001
    outer loop
      vertex   -1.398999e+002 -1.186867e+002 1.310000e+001
      vertex   -1.395315e+002 -1.190551e+002 1.314558e+001
      vertex   -1.268036e+002 -1.063271e+002 1.314558e+001
    endloop
  endfacet
  facet normal -1.830127e-001 1.830127e-001 9.659258e-001
    outer loop
      vertex   -1.395315e+002 -1.190551e+002 1.314558e+001
      vertex   -1.391744e+002 -1.194122e+002 1.328092e+001
      vertex   -1.264465e+002 -1.066843e+002 1.328092e+001
    endloop
  endfacet
  facet normal -2.988362e-001 2.988362e-001 9.063078e-001
    outer loop
      vertex   -1.391744e+002 -1.194122e+002 1.328092e+001
      vertex   -1.388392e+002 -1.197474e+002 1.350192e+001
      vertex   -1.261113e+002 -1.070194e+002 1.350192e+001
    endloop
  endfacet
  facet normal -4.055798e-001 4.055798e-001 8.191520e-001
    outer loop
      vertex   -1.388392e+002 -1.197474e+002 1.350192e+001
      vertex   -1.385364e+002 -1.200503e+002 1.380187e+001
      vertex   -1.258084e+002 -1.073223e+002 1.380187e+001
    endloop
  endfacet
  facet normal -5.000000e-001 5.000000e-001 7.071068e-001
    outer loop
      vertex   -1.385364e+002 -1.200503e+002 1.380187e+001
      vertex   -1.382749e+002 -1.203117e+002 1.417164e+001
      vertex   -1.255470e+002 -1.075838e+002 1.417164e+001
    endloop
  endfacet
  facet normal -5.792280e-001 5.792280e-001 5.735764e-001
    outer loop
      vertex   -1.382749e+002 -1.203117e+002 1.417164e+001
      vertex   -1.380628e+002 -1.205238e+002 1.460000e+001
      vertex   -1.253349e+002 -1.077959e+002 1.460000e+001
    endloop
  endfacet
  facet normal -6.408564e-001 6.408564e-001 4.226183e-001
    outer loop
      vertex   -1.380628e+002 -1.205238e+002 1.460000e+001
      vertex   -1.379065e+002 -1.206801e+002 1.507394e+001
      vertex   -1.251786e+002 -1.079522e+002 1.507394e+001
    endloop
  endfacet
  facet normal -6.830127e-001 6.830127e-001 2.588190e-001
    outer loop
      vertex   -1.379065e+002 -1.206801e+002 1.507394e+001
      vertex   -1.378108e+002 -1.207758e+002 1.557906e+001
      vertex   -1.250829e+002 -1.080479e+002 1.557906e+001
    endloop
  endfacet
  facet normal -7.044160e-001 7.044160e-001 8.715574e-002
    outer loop
      vertex   -1.378108e+002 -1.207758e+002 1.557906e+001
      vertex   -1.377786e+002 -1.208080e+002 1.610000e+001
      vertex   -1.250507e+002 -1.080801e+002 1.610000e+001
    endloop
  endfacet
  facet normal -7.044160e-001 7.044160e-001 -8.715574e-002
    outer loop
      vertex   -1.377786e+002 -1.208080e+002 1.610000e+001
      vertex   -1.378108e+002 -1.207758e+002 1.662094e+001
      vertex   -1.250829e+002 -1.080479e+002 1.662094e+001
    endloop
  endfacet
  facet normal -6.830127e-001 6.830127e-001 -2.588190e-001
    outer loop
      vertex   -1.378108e+002 -1.207758e+002 1.662094e+001
      vertex   -1.379065e+002 -1.206801e+002 1.712606e+001
      vertex   -1.251786e+002 -1.079522e+002 1.712606e+001
    endloop
  endfacet
  facet normal -6.408564e-001 6.408564e-001 -4.226183e-001
    outer loop
      vertex   -1.379065e+002 -1.206801e+002 1.712606e+001
      vertex   -1.380628e+002 -1.205238e+002 1.760000e+001
      vertex   -1.253349e+002 -1.077959e+002 1.760000e+001
    endloop
  endfacet
  facet normal -5.792280e-001 5.792280e-001 -5.735764e-001
    outer loop
      vertex   -1.380628e+002 -1.205238e+002 1.760000e+001
      vertex   -1.382749e+002 -1.203117e+002 1.802836e+001
      vertex   -1.255470e+002 -1.075838e+002 1.802836e+001
    endloop
  endfacet
  facet normal -5.000000e-001 5.000000e-001 -7.071068e-001
    outer loop
      vertex   -1.382749e+002 -1.203117e+002 1.802836e+001
      vertex   -1.385364e+002 -1.200503e+002 1.839813e+001
      vertex   -1.258084e+002 -1.073223e+002 1.839813e+001
    endloop
  endfacet
  facet normal -4.055798e-001 4.055798e-001 -8.191520e-001
    outer loop
      vertex   -1.385364e+002 -1.200503e+002 1.839813e+001
      vertex   -1.388392e+002 -1.197474e+002 1.869808e+001
      vertex   -1.261113e+002 -1.070194e+002 1.869808e+001
    endloop
  endfacet
  facet normal -6.162842e-002 6.162842e-002 9.961947e-001
    outer loop
      vertex   -1.277859e+002 -1.053448e+002 2.102404e+001
      vertex   -1.405138e+002 -1.180728e+002 2.102404e+001
      vertex   -1.271720e+002 -1.059588e+002 2.110000e+001
    endloop
  endfacet
  facet normal -1.830127e-001 1.830127e-001 9.659258e-001
    outer loop
      vertex   -1.277859e+002 -1.053448e+002 2.102404e+001
      vertex   -1.411091e+002 -1.174775e+002 2.079846e+001
      vertex   -1.405138e+002 -1.180728e+002 2.102404e+001
    endloop
  endfacet
  facet normal -1.830127e-001 1.830127e-001 9.659258e-001
    outer loop
      vertex   -1.277859e+002 -1.053448e+002 2.102404e+001
      vertex   -1.283812e+002 -1.047496e+002 2.079846e+001
      vertex   -1.411091e+002 -1.174775e+002 2.079846e+001
    endloop
  endfacet
  facet normal -2.988362e-001 2.988362e-001 9.063078e-001
    outer loop
      vertex   -1.411091e+002 -1.174775e+002 2.079846e+001
      vertex   -1.283812e+002 -1.047496e+002 2.079846e+001
      vertex   -1.416677e+002 -1.169189e+002 2.043013e+001
    endloop
  endfacet
  facet normal -2.988362e-001 2.988362e-001 9.063078e-001
    outer loop
      vertex   -1.416677e+002 -1.169189e+002 2.043013e+001
      vertex   -1.283812e+002 -1.047496e+002 2.079846e+001
      vertex   -1.289398e+002 -1.041910e+002 2.043013e+001
    endloop
  endfacet
  facet normal -4.055798e-001 4.055798e-001 8.191520e-001
    outer loop
      vertex   -1.421725e+002 -1.164141e+002 1.993022e+001
      vertex   -1.289398e+002 -1.041910e+002 2.043013e+001
      vertex   -1.294446e+002 -1.036862e+002 1.993022e+001
    endloop
  endfacet
  facet normal -5.000000e-001 5.000000e-001 7.071068e-001
    outer loop
      vertex   -1.426083e+002 -1.159783e+002 1.931394e+001
      vertex   -1.294446e+002 -1.036862e+002 1.993022e+001
      vertex   -1.298804e+002 -1.032504e+002 1.931394e+001
    endloop
  endfacet
  facet normal -5.792280e-001 5.792280e-001 5.735764e-001
    outer loop
      vertex   -1.429618e+002 -1.156248e+002 1.860000e+001
      vertex   -1.298804e+002 -1.032504e+002 1.931394e+001
      vertex   -1.302338e+002 -1.028969e+002 1.860000e+001
    endloop
  endfacet
  facet normal -6.408564e-001 6.408564e-001 4.226183e-001
    outer loop
      vertex   -1.432222e+002 -1.153644e+002 1.781010e+001
      vertex   -1.302338e+002 -1.028969e+002 1.860000e+001
      vertex   -1.304943e+002 -1.026365e+002 1.781010e+001
    endloop
  endfacet
  facet normal -6.830127e-001 6.830127e-001 2.588190e-001
    outer loop
      vertex   -1.433817e+002 -1.152049e+002 1.696824e+001
      vertex   -1.304943e+002 -1.026365e+002 1.781010e+001
      vertex   -1.306538e+002 -1.024770e+002 1.696824e+001
    endloop
  endfacet
  facet normal -7.044160e-001 7.044160e-001 8.715574e-002
    outer loop
      vertex   -1.434354e+002 -1.151512e+002 1.610000e+001
      vertex   -1.306538e+002 -1.024770e+002 1.696824e+001
      vertex   -1.307075e+002 -1.024232e+002 1.610000e+001
    endloop
  endfacet
  facet normal -7.044160e-001 7.044160e-001 -8.715574e-002
    outer loop
      vertex   -1.433817e+002 -1.152049e+002 1.523176e+001
      vertex   -1.307075e+002 -1.024232e+002 1.610000e+001
      vertex   -1.306538e+002 -1.024770e+002 1.523176e+001
    endloop
  endfacet
  facet normal -6.830127e-001 6.830127e-001 -2.588190e-001
    outer loop
      vertex   -1.432222e+002 -1.153644e+002 1.438990e+001
      vertex   -1.306538e+002 -1.024770e+002 1.523176e+001
      vertex   -1.304943e+002 -1.026365e+002 1.438990e+001
    endloop
  endfacet
  facet normal -6.408564e-001 6.408564e-001 -4.226183e-001
    outer loop
      vertex   -1.429618e+002 -1.156248e+002 1.360000e+001
      vertex   -1.304943e+002 -1.026365e+002 1.438990e+001
      vertex   -1.302338e+002 -1.028969e+002 1.360000e+001
    endloop
  endfacet
  facet normal -5.792280e-001 5.792280e-001 -5.735764e-001
    outer loop
      vertex   -1.426083e+002 -1.159783e+002 1.288606e+001
      vertex   -1.302338e+002 -1.028969e+002 1.360000e+001
      vertex   -1.298804e+002 -1.032504e+002 1.288606e+001
    endloop
  endfacet
  facet normal -5.000000e-001 5.000000e-001 -7.071068e-001
    outer loop
      vertex   -1.421725e+002 -1.164141e+002 1.226978e+001
      vertex   -1.298804e+002 -1.032504e+002 1.288606e+001
      vertex   -1.294446e+002 -1.036862e+002 1.226978e+001
    endloop
  endfacet
  facet normal -4.055798e-001 4.055798e-001 -8.191520e-001
    outer loop
      vertex   -1.416677e+002 -1.169189e+002 1.176987e+001
      vertex   -1.294446e+002 -1.036862e+002 1.226978e+001
      vertex   -1.289398e+002 -1.041910e+002 1.176987e+001
    endloop
  endfacet
  facet normal -2.988362e-001 2.988362e-001 -9.063078e-001
    outer loop
      vertex   -1.411091e+002 -1.174775e+002 1.140154e+001
      vertex   -1.289398e+002 -1.041910e+002 1.176987e+001
      vertex   -1.283812e+002 -1.047496e+002 1.140154e+001
    endloop
  endfacet
  facet normal -1.830127e-001 1.830127e-001 -9.659258e-001
    outer loop
      vertex   -1.405138e+002 -1.180728e+002 1.117596e+001
      vertex   -1.283812e+002 -1.047496e+002 1.140154e+001
      vertex   -1.277859e+002 -1.053448e+002 1.117596e+001
    endloop
  endfacet
  facet normal -6.162842e-002 6.162842e-002 -9.961947e-001
    outer loop
      vertex   -1.398999e+002 -1.186867e+002 1.110000e+001
      vertex   -1.277859e+002 -1.053448e+002 1.117596e+001
      vertex   -1.271720e+002 -1.059588e+002 1.110000e+001
    endloop
  endfacet
  facet normal 6.162842e-002 -6.162842e-002 -9.961947e-001
    outer loop
      vertex   -1.392860e+002 -1.193006e+002 1.117596e+001
      vertex   -1.271720e+002 -1.059588e+002 1.110000e+001
      vertex   -1.265580e+002 -1.065727e+002 1.117596e+001
    endloop
  endfacet
  facet normal 1.830127e-001 -1.830127e-001 -9.659258e-001
    outer loop
      vertex   -1.386907e+002 -1.198959e+002 1.140154e+001
      vertex   -1.265580e+002 -1.065727e+002 1.117596e+001
      vertex   -1.259628e+002 -1.071680e+002 1.140154e+001
    endloop
  endfacet
  facet normal 2.988362e-001 -2.988362e-001 -9.063078e-001
    outer loop
      vertex   -1.381321e+002 -1.204545e+002 1.176987e+001
      vertex   -1.259628e+002 -1.071680e+002 1.140154e+001
      vertex   -1.254042e+002 -1.077266e+002 1.176987e+001
    endloop
  endfacet
  facet normal 4.055798e-001 -4.055798e-001 -8.191520e-001
    outer loop
      vertex   -1.376273e+002 -1.209593e+002 1.226978e+001
      vertex   -1.254042e+002 -1.077266e+002 1.176987e+001
      vertex   -1.248994e+002 -1.082314e+002 1.226978e+001
    endloop
  endfacet
  facet normal 5.000000e-001 -5.000000e-001 -7.071068e-001
    outer loop
      vertex   -1.371915e+002 -1.213951e+002 1.288606e+001
      vertex   -1.248994e+002 -1.082314e+002 1.226978e+001
      vertex   -1.244636e+002 -1.086672e+002 1.288606e+001
    endloop
  endfacet
  facet normal 5.792280e-001 -5.792280e-001 -5.735764e-001
    outer loop
      vertex   -1.368380e+002 -1.217486e+002 1.360000e+001
      vertex   -1.244636e+002 -1.086672e+002 1.288606e+001
      vertex   -1.241101e+002 -1.090206e+002 1.360000e+001
    endloop
  endfacet
  facet normal 6.408564e-001 -6.408564e-001 -4.226183e-001
    outer loop
      vertex   -1.365776e+002 -1.220090e+002 1.438990e+001
      vertex   -1.241101e+002 -1.090206e+002 1.360000e+001
      vertex   -1.238497e+002 -1.092811e+002 1.438990e+001
    endloop
  endfacet
  facet normal 6.830127e-001 -6.830127e-001 -2.588190e-001
    outer loop
      vertex   -1.364181e+002 -1.221685e+002 1.523176e+001
      vertex   -1.238497e+002 -1.092811e+002 1.438990e+001
      vertex   -1.236902e+002 -1.094406e+002 1.523176e+001
    endloop
  endfacet
  facet normal 7.044160e-001 -7.044160e-001 -8.715574e-002
    outer loop
      vertex   -1.363644e+002 -1.222222e+002 1.610000e+001
      vertex   -1.236902e+002 -1.094406e+002 1.523176e+001
      vertex   -1.236365e+002 -1.094943e+002 1.610000e+001
    endloop
  endfacet
  facet normal 7.044160e-001 -7.044160e-001 8.715574e-002
    outer loop
      vertex   -1.364181e+002 -1.221685e+002 1.696824e+001
      vertex   -1.236365e+002 -1.094943e+002 1.610000e+001
      vertex   -1.236902e+002 -1.094406e+002 1.696824e+001
    endloop
  endfacet
  facet normal 6.830127e-001 -6.830127e-001 2.588190e-001
    outer loop
      vertex   -1.365776e+002 -1.220090e+002 1.781010e+001
      vertex   -1.236902e+002 -1.094406e+002 1.696824e+001
      vertex   -1.238497e+002 -1.092811e+002 1.781010e+001
    endloop
  endfacet
  facet normal 6.408564e-001 -6.408564e-001 4.226183e-001
    outer loop
      vertex   -1.368380e+002 -1.217486e+002 1.860000e+001
      vertex   -1.238497e+002 -1.092811e+002 1.781010e+001
      vertex   -1.241101e+002 -1.090206e+002 1.860000e+001
    endloop
  endfacet
  facet normal 5.792280e-001 -5.792280e-001 5.735764e-001
    outer loop
      vertex   -1.371915e+002 -1.213951e+002 1.931394e+001
      vertex   -1.241101e+002 -1.090206e+002 1.860000e+001
      vertex   -1.244636e+002 -1.086672e+002 1.931394e+001
    endloop
  endfacet
  facet normal 5.000000e-001 -5.000000e-001 7.071068e-001
    outer loop
      vertex   -1.376273e+002 -1.209593e+002 1.993022e+001
      vertex   -1.244636e+002 -1.086672e+002 1.931394e+001
      vertex   -1.248994e+002 -1.082314e+002 1.993022e+001
    endloop
  endfacet
  facet normal 4.055798e-001 -4.055798e-001 8.191520e-001
    outer loop
      vertex   -1.381321e+002 -1.204545e+002 2.043013e+001
      vertex   -1.248994e+002 -1.082314e+002 1.993022e+001
      vertex   -1.254042e+002 -1.077266e+002 2.043013e+001
    endloop
  endfacet
  facet normal 2.988362e-001 -2.988362e-001 9.063078e-001
    outer loop
      vertex   -1.386907e+002 -1.198959e+002 2.079846e+001
      vertex   -1.254042e+002 -1.077266e+002 2.043013e+001
      vertex   -1.259628e+002 -1.071680e+002 2.079846e+001
    endloop
  endfacet
  facet normal 1.830127e-001 -1.830127e-001 9.659258e-001
    outer loop
      vertex   -1.392860e+002 -1.193006e+002 2.102404e+001
      vertex   -1.259628e+002 -1.071680e+002 2.079846e+001
      vertex   -1.265580e+002 -1.065727e+002 2.102404e+001
    endloop
  endfacet
  facet normal 6.162842e-002 -6.162842e-002 9.961947e-001
    outer loop
      vertex   -1.398999e+002 -1.186867e+002 2.110000e+001
      vertex   -1.265580e+002 -1.065727e+002 2.102404e+001
      vertex   -1.271720e+002 -1.059588e+002 2.110000e+001
    endloop
  endfacet
  facet normal -6.162842e-002 6.162842e-002 9.961947e-001
    outer loop
      vertex   -1.405138e+002 -1.180728e+002 2.102404e+001
      vertex   -1.398999e+002 -1.186867e+002 2.110000e+001
      vertex   -1.271720e+002 -1.059588e+002 2.110000e+001
    endloop
  endfacet
  facet normal 6.162842e-002 -6.162842e-002 9.961947e-001
    outer loop
      vertex   -1.398999e+002 -1.186867e+002 2.110000e+001
      vertex   -1.392860e+002 -1.193006e+002 2.102404e+001
      vertex   -1.265580e+002 -1.065727e+002 2.102404e+001
    endloop
  endfacet
  facet normal 1.830127e-001 -1.830127e-001 9.659258e-001
    outer loop
      vertex   -1.392860e+002 -1.193006e+002 2.102404e+001
      vertex   -1.386907e+002 -1.198959e+002 2.079846e+001
      vertex   -1.259628e+002 -1.071680e+002 2.079846e+001
    endloop
  endfacet
  facet normal 2.988362e-001 -2.988362e-001 9.063078e-001
    outer loop
      vertex   -1.386907e+002 -1.198959e+002 2.079846e+001
      vertex   -1.381321e+002 -1.204545e+002 2.043013e+001
      vertex   -1.254042e+002 -1.077266e+002 2.043013e+001
    endloop
  endfacet
  facet normal 4.055798e-001 -4.055798e-001 8.191520e-001
    outer loop
      vertex   -1.381321e+002 -1.204545e+002 2.043013e+001
      vertex   -1.376273e+002 -1.209593e+002 1.993022e+001
      vertex   -1.248994e+002 -1.082314e+002 1.993022e+001
    endloop
  endfacet
  facet normal 5.000000e-001 -5.000000e-001 7.071068e-001
    outer loop
      vertex   -1.376273e+002 -1.209593e+002 1.993022e+001
      vertex   -1.371915e+002 -1.213951e+002 1.931394e+001
      vertex   -1.244636e+002 -1.086672e+002 1.931394e+001
    endloop
  endfacet
  facet normal 5.792280e-001 -5.792280e-001 5.735764e-001
    outer loop
      vertex   -1.371915e+002 -1.213951e+002 1.931394e+001
      vertex   -1.368380e+002 -1.217486e+002 1.860000e+001
      vertex   -1.241101e+002 -1.090206e+002 1.860000e+001
    endloop
  endfacet
  facet normal 6.408564e-001 -6.408564e-001 4.226183e-001
    outer loop
      vertex   -1.368380e+002 -1.217486e+002 1.860000e+001
      vertex   -1.365776e+002 -1.220090e+002 1.781010e+001
      vertex   -1.238497e+002 -1.092811e+002 1.781010e+001
    endloop
  endfacet
  facet normal 6.830127e-001 -6.830127e-001 2.588190e-001
    outer loop
      vertex   -1.365776e+002 -1.220090e+002 1.781010e+001
      vertex   -1.364181e+002 -1.221685e+002 1.696824e+001
      vertex   -1.236902e+002 -1.094406e+002 1.696824e+001
    endloop
  endfacet
  facet normal 7.044160e-001 -7.044160e-001 8.715574e-002
    outer loop
      vertex   -1.364181e+002 -1.221685e+002 1.696824e+001
      vertex   -1.363644e+002 -1.222222e+002 1.610000e+001
      vertex   -1.236365e+002 -1.094943e+002 1.610000e+001
    endloop
  endfacet
  facet normal 7.044160e-001 -7.044160e-001 -8.715574e-002
    outer loop
      vertex   -1.363644e+002 -1.222222e+002 1.610000e+001
      vertex   -1.364181e+002 -1.221685e+002 1.523176e+001
      vertex   -1.236902e+002 -1.094406e+002 1.523176e+001
    endloop
  endfacet
  facet normal 6.830127e-001 -6.830127e-001 -2.588190e-001
    outer loop
      vertex   -1.364181e+002 -1.221685e+002 1.523176e+001
      vertex   -1.365776e+002 -1.220090e+002 1.438990e+001
      vertex   -1.238497e+002 -1.092811e+002 1.438990e+001
    endloop
  endfacet
  facet normal 6.408564e-001 -6.408564e-001 -4.226183e-001
    outer loop
      vertex   -1.365776e+002 -1.220090e+002 1.438990e+001
      vertex   -1.368380e+002 -1.217486e+002 1.360000e+001
      vertex   -1.241101e+002 -1.090206e+002 1.360000e+001
    endloop
  endfacet
  facet normal 5.792280e-001 -5.792280e-001 -5.735764e-001
    outer loop
      vertex   -1.368380e+002 -1.217486e+002 1.360000e+001
      vertex   -1.371915e+002 -1.213951e+002 1.288606e+001
      vertex   -1.244636e+002 -1.086672e+002 1.288606e+001
    endloop
  endfacet
  facet normal 5.000000e-001 -5.000000e-001 -7.071068e-001
    outer loop
      vertex   -1.371915e+002 -1.213951e+002 1.288606e+001
      vertex   -1.376273e+002 -1.209593e+002 1.226978e+001
      vertex   -1.248994e+002 -1.082314e+002 1.226978e+001
    endloop
  endfacet
  facet normal 4.055798e-001 -4.055798e-001 -8.191520e-001
    outer loop
      vertex   -1.376273e+002 -1.209593e+002 1.226978e+001
      vertex   -1.381321e+002 -1.204545e+002 1.176987e+001
      vertex   -1.254042e+002 -1.077266e+002 1.176987e+001
    endloop
  endfacet
  facet normal 2.988362e-001 -2.988362e-001 -9.063078e-001
    outer loop
      vertex   -1.381321e+002 -1.204545e+002 1.176987e+001
      vertex   -1.386907e+002 -1.198959e+002 1.140154e+001
      vertex   -1.259628e+002 -1.071680e+002 1.140154e+001
    endloop
  endfacet
  facet normal 1.830127e-001 -1.830127e-001 -9.659258e-001
    outer loop
      vertex   -1.386907e+002 -1.198959e+002 1.140154e+001
      vertex   -1.392860e+002 -1.193006e+002 1.117596e+001
      vertex   -1.265580e+002 -1.065727e+002 1.117596e+001
    endloop
  endfacet
  facet normal 6.162842e-002 -6.162842e-002 -9.961947e-001
    outer loop
      vertex   -1.392860e+002 -1.193006e+002 1.117596e+001
      vertex   -1.398999e+002 -1.186867e+002 1.110000e+001
      vertex   -1.271720e+002 -1.059588e+002 1.110000e+001
    endloop
  endfacet
  facet normal -6.162842e-002 6.162842e-002 -9.961947e-001
    outer loop
      vertex   -1.398999e+002 -1.186867e+002 1.110000e+001
      vertex   -1.405138e+002 -1.180728e+002 1.117596e+001
      vertex   -1.277859e+002 -1.053448e+002 1.117596e+001
    endloop
  endfacet
  facet normal -1.830127e-001 1.830127e-001 -9.659258e-001
    outer loop
      vertex   -1.405138e+002 -1.180728e+002 1.117596e+001
      vertex   -1.411091e+002 -1.174775e+002 1.140154e+001
      vertex   -1.283812e+002 -1.047496e+002 1.140154e+001
    endloop
  endfacet
  facet normal -2.988362e-001 2.988362e-001 -9.063078e-001
    outer loop
      vertex   -1.411091e+002 -1.174775e+002 1.140154e+001
      vertex   -1.416677e+002 -1.169189e+002 1.176987e+001
      vertex   -1.289398e+002 -1.041910e+002 1.176987e+001
    endloop
  endfacet
  facet normal -4.055798e-001 4.055798e-001 -8.191520e-001
    outer loop
      vertex   -1.416677e+002 -1.169189e+002 1.176987e+001
      vertex   -1.421725e+002 -1.164141e+002 1.226978e+001
      vertex   -1.294446e+002 -1.036862e+002 1.226978e+001
    endloop
  endfacet
  facet normal -5.000000e-001 5.000000e-001 -7.071068e-001
    outer loop
      vertex   -1.421725e+002 -1.164141e+002 1.226978e+001
      vertex   -1.426083e+002 -1.159783e+002 1.288606e+001
      vertex   -1.298804e+002 -1.032504e+002 1.288606e+001
    endloop
  endfacet
  facet normal -5.792280e-001 5.792280e-001 -5.735764e-001
    outer loop
      vertex   -1.426083e+002 -1.159783e+002 1.288606e+001
      vertex   -1.429618e+002 -1.156248e+002 1.360000e+001
      vertex   -1.302338e+002 -1.028969e+002 1.360000e+001
    endloop
  endfacet
  facet normal -6.408564e-001 6.408564e-001 -4.226183e-001
    outer loop
      vertex   -1.429618e+002 -1.156248e+002 1.360000e+001
      vertex   -1.432222e+002 -1.153644e+002 1.438990e+001
      vertex   -1.304943e+002 -1.026365e+002 1.438990e+001
    endloop
  endfacet
  facet normal -6.830127e-001 6.830127e-001 -2.588190e-001
    outer loop
      vertex   -1.432222e+002 -1.153644e+002 1.438990e+001
      vertex   -1.433817e+002 -1.152049e+002 1.523176e+001
      vertex   -1.306538e+002 -1.024770e+002 1.523176e+001
    endloop
  endfacet
  facet normal -7.044160e-001 7.044160e-001 -8.715574e-002
    outer loop
      vertex   -1.433817e+002 -1.152049e+002 1.523176e+001
      vertex   -1.434354e+002 -1.151512e+002 1.610000e+001
      vertex   -1.307075e+002 -1.024232e+002 1.610000e+001
    endloop
  endfacet
  facet normal -7.044160e-001 7.044160e-001 8.715574e-002
    outer loop
      vertex   -1.434354e+002 -1.151512e+002 1.610000e+001
      vertex   -1.433817e+002 -1.152049e+002 1.696824e+001
      vertex   -1.306538e+002 -1.024770e+002 1.696824e+001
    endloop
  endfacet
  facet normal -6.830127e-001 6.830127e-001 2.588190e-001
    outer loop
      vertex   -1.433817e+002 -1.152049e+002 1.696824e+001
      vertex   -1.432222e+002 -1.153644e+002 1.781010e+001
      vertex   -1.304943e+002 -1.026365e+002 1.781010e+001
    endloop
  endfacet
  facet normal -6.408564e-001 6.408564e-001 4.226183e-001
    outer loop
      vertex   -1.432222e+002 -1.153644e+002 1.781010e+001
      vertex   -1.429618e+002 -1.156248e+002 1.860000e+001
      vertex   -1.302338e+002 -1.028969e+002 1.860000e+001
    endloop
  endfacet
  facet normal -5.792280e-001 5.792280e-001 5.735764e-001
    outer loop
      vertex   -1.429618e+002 -1.156248e+002 1.860000e+001
      vertex   -1.426083e+002 -1.159783e+002 1.931394e+001
      vertex   -1.298804e+002 -1.032504e+002 1.931394e+001
    endloop
  endfacet
  facet normal -5.000000e-001 5.000000e-001 7.071068e-001
    outer loop
      vertex   -1.426083e+002 -1.159783e+002 1.931394e+001
      vertex   -1.421725e+002 -1.164141e+002 1.993022e+001
      vertex   -1.294446e+002 -1.036862e+002 1.993022e+001
    endloop
  endfacet
  facet normal -4.055798e-001 4.055798e-001 8.191520e-001
    outer loop
      vertex   -1.421725e+002 -1.164141e+002 1.993022e+001
      vertex   -1.416677e+002 -1.169189e+002 2.043013e+001
      vertex   -1.289398e+002 -1.041910e+002 2.043013e+001
    endloop
  endfacet
  facet normal -7.071068e-001 -7.071068e-001 -3.356598e-015
    outer loop
      vertex   -1.395315e+002 -1.190551e+002 1.905442e+001
      vertex   -1.392860e+002 -1.193006e+002 2.102404e+001
      vertex   -1.398999e+002 -1.186867e+002 1.910000e+001
    endloop
  endfacet
  facet normal -7.071068e-001 -7.071068e-001 3.349938e-015
    outer loop
      vertex   -1.395315e+002 -1.190551e+002 1.905442e+001
      vertex   -1.391744e+002 -1.194122e+002 1.891908e+001
      vertex   -1.392860e+002 -1.193006e+002 2.102404e+001
    endloop
  endfacet
  facet normal -7.071068e-001 -7.071068e-001 3.959986e-015
    outer loop
      vertex   -1.392860e+002 -1.193006e+002 2.102404e+001
      vertex   -1.391744e+002 -1.194122e+002 1.891908e+001
      vertex   -1.386907e+002 -1.198959e+002 2.079846e+001
    endloop
  endfacet
  facet normal -7.071068e-001 -7.071068e-001 -6.579997e-015
    outer loop
      vertex   -1.386907e+002 -1.198959e+002 2.079846e+001
      vertex   -1.391744e+002 -1.194122e+002 1.891908e+001
      vertex   -1.388392e+002 -1.197474e+002 1.869808e+001
    endloop
  endfacet
  facet normal -7.071068e-001 -7.071068e-001 1.102882e-014
    outer loop
      vertex   -1.381321e+002 -1.204545e+002 2.043013e+001
      vertex   -1.388392e+002 -1.197474e+002 1.869808e+001
      vertex   -1.385364e+002 -1.200503e+002 1.839813e+001
    endloop
  endfacet
  facet normal -7.071068e-001 -7.071068e-001 -2.123181e-014
    outer loop
      vertex   -1.376273e+002 -1.209593e+002 1.993022e+001
      vertex   -1.385364e+002 -1.200503e+002 1.839813e+001
      vertex   -1.382749e+002 -1.203117e+002 1.802836e+001
    endloop
  endfacet
  facet normal -7.071068e-001 -7.071068e-001 -5.780807e-015
    outer loop
      vertex   -1.371915e+002 -1.213951e+002 1.931394e+001
      vertex   -1.382749e+002 -1.203117e+002 1.802836e+001
      vertex   -1.380628e+002 -1.205238e+002 1.760000e+001
    endloop
  endfacet
  facet normal -7.071068e-001 -7.071068e-001 3.127497e-014
    outer loop
      vertex   -1.368380e+002 -1.217486e+002 1.860000e+001
      vertex   -1.380628e+002 -1.205238e+002 1.760000e+001
      vertex   -1.379065e+002 -1.206801e+002 1.712606e+001
    endloop
  endfacet
  facet normal -7.071068e-001 -7.071068e-001 -1.683627e-014
    outer loop
      vertex   -1.365776e+002 -1.220090e+002 1.781010e+001
      vertex   -1.379065e+002 -1.206801e+002 1.712606e+001
      vertex   -1.378108e+002 -1.207758e+002 1.662094e+001
    endloop
  endfacet
  facet normal -7.071068e-001 -7.071068e-001 1.899408e-014
    outer loop
      vertex   -1.364181e+002 -1.221685e+002 1.696824e+001
      vertex   -1.378108e+002 -1.207758e+002 1.662094e+001
      vertex   -1.377786e+002 -1.208080e+002 1.610000e+001
    endloop
  endfacet
  facet normal -7.071068e-001 -7.071068e-001 -3.836112e-016
    outer loop
      vertex   -1.363644e+002 -1.222222e+002 1.610000e+001
      vertex   -1.377786e+002 -1.208080e+002 1.610000e+001
      vertex   -1.364181e+002 -1.221685e+002 1.523176e+001
    endloop
  endfacet
  facet normal -7.071068e-001 -7.071068e-001 4.395545e-016
    outer loop
      vertex   -1.363644e+002 -1.222222e+002 1.610000e+001
      vertex   -1.364181e+002 -1.221685e+002 1.696824e+001
      vertex   -1.377786e+002 -1.208080e+002 1.610000e+001
    endloop
  endfacet
  facet normal -7.071068e-001 -7.071068e-001 -1.899408e-014
    outer loop
      vertex   -1.377786e+002 -1.208080e+002 1.610000e+001
      vertex   -1.378108e+002 -1.207758e+002 1.557906e+001
      vertex   -1.364181e+002 -1.221685e+002 1.523176e+001
    endloop
  endfacet
  facet normal -7.071068e-001 -7.071068e-001 0.000000e+000
    outer loop
      vertex   -1.364181e+002 -1.221685e+002 1.523176e+001
      vertex   -1.378108e+002 -1.207758e+002 1.557906e+001
      vertex   -1.365776e+002 -1.220090e+002 1.438990e+001
    endloop
  endfacet
  facet normal -7.071068e-001 -7.071068e-001 1.682295e-014
    outer loop
      vertex   -1.365776e+002 -1.220090e+002 1.438990e+001
      vertex   -1.378108e+002 -1.207758e+002 1.557906e+001
      vertex   -1.379065e+002 -1.206801e+002 1.507394e+001
    endloop
  endfacet
  facet normal -7.071068e-001 -7.071068e-001 -3.127497e-014
    outer loop
      vertex   -1.368380e+002 -1.217486e+002 1.360000e+001
      vertex   -1.379065e+002 -1.206801e+002 1.507394e+001
      vertex   -1.380628e+002 -1.205238e+002 1.460000e+001
    endloop
  endfacet
  facet normal -7.071068e-001 -7.071068e-001 5.780807e-015
    outer loop
      vertex   -1.371915e+002 -1.213951e+002 1.288606e+001
      vertex   -1.380628e+002 -1.205238e+002 1.460000e+001
      vertex   -1.382749e+002 -1.203117e+002 1.417164e+001
    endloop
  endfacet
  facet normal -7.071068e-001 -7.071068e-001 2.123181e-014
    outer loop
      vertex   -1.376273e+002 -1.209593e+002 1.226978e+001
      vertex   -1.382749e+002 -1.203117e+002 1.417164e+001
      vertex   -1.385364e+002 -1.200503e+002 1.380187e+001
    endloop
  endfacet
  facet normal -7.071068e-001 -7.071068e-001 -1.101550e-014
    outer loop
      vertex   -1.381321e+002 -1.204545e+002 1.176987e+001
      vertex   -1.385364e+002 -1.200503e+002 1.380187e+001
      vertex   -1.388392e+002 -1.197474e+002 1.350192e+001
    endloop
  endfacet
  facet normal -7.071068e-001 -7.071068e-001 6.593317e-015
    outer loop
      vertex   -1.386907e+002 -1.198959e+002 1.140154e+001
      vertex   -1.388392e+002 -1.197474e+002 1.350192e+001
      vertex   -1.391744e+002 -1.194122e+002 1.328092e+001
    endloop
  endfacet
  facet normal -7.071068e-001 -7.071068e-001 -3.349938e-015
    outer loop
      vertex   -1.392860e+002 -1.193006e+002 1.117596e+001
      vertex   -1.391744e+002 -1.194122e+002 1.328092e+001
      vertex   -1.395315e+002 -1.190551e+002 1.314558e+001
    endloop
  endfacet
  facet normal -7.071068e-001 -7.071068e-001 0.000000e+000
    outer loop
      vertex   -1.398999e+002 -1.186867e+002 1.110000e+001
      vertex   -1.395315e+002 -1.190551e+002 1.314558e+001
      vertex   -1.398999e+002 -1.186867e+002 1.310000e+001
    endloop
  endfacet
  facet normal -7.071068e-001 -7.071068e-001 0.000000e+000
    outer loop
      vertex   -1.402683e+002 -1.183183e+002 1.314558e+001
      vertex   -1.398999e+002 -1.186867e+002 1.110000e+001
      vertex   -1.398999e+002 -1.186867e+002 1.310000e+001
    endloop
  endfacet
  facet normal -7.071068e-001 -7.071068e-001 -8.039851e-015
    outer loop
      vertex   -1.402683e+002 -1.183183e+002 1.314558e+001
      vertex   -1.405138e+002 -1.180728e+002 1.117596e+001
      vertex   -1.398999e+002 -1.186867e+002 1.110000e+001
    endloop
  endfacet
  facet normal -7.071068e-001 -7.071068e-001 -6.393520e-015
    outer loop
      vertex   -1.402683e+002 -1.183183e+002 1.314558e+001
      vertex   -1.406254e+002 -1.179612e+002 1.328092e+001
      vertex   -1.405138e+002 -1.180728e+002 1.117596e+001
    endloop
  endfacet
  facet normal -7.071068e-001 -7.071068e-001 -3.959986e-015
    outer loop
      vertex   -1.405138e+002 -1.180728e+002 1.117596e+001
      vertex   -1.406254e+002 -1.179612e+002 1.328092e+001
      vertex   -1.411091e+002 -1.174775e+002 1.140154e+001
    endloop
  endfacet
  facet normal -7.071068e-001 -7.071068e-001 -6.579997e-015
    outer loop
      vertex   -1.411091e+002 -1.174775e+002 1.140154e+001
      vertex   -1.406254e+002 -1.179612e+002 1.328092e+001
      vertex   -1.409606e+002 -1.176260e+002 1.350192e+001
    endloop
  endfacet
  facet normal -7.071068e-001 -7.071068e-001 1.102882e-014
    outer loop
      vertex   -1.416677e+002 -1.169189e+002 1.176987e+001
      vertex   -1.409606e+002 -1.176260e+002 1.350192e+001
      vertex   -1.412635e+002 -1.173231e+002 1.380187e+001
    endloop
  endfacet
  facet normal -7.071068e-001 -7.071068e-001 -2.123181e-014
    outer loop
      vertex   -1.421725e+002 -1.164141e+002 1.226978e+001
      vertex   -1.412635e+002 -1.173231e+002 1.380187e+001
      vertex   -1.415249e+002 -1.170617e+002 1.417164e+001
    endloop
  endfacet
  facet normal -7.071068e-001 -7.071068e-001 -5.780807e-015
    outer loop
      vertex   -1.426083e+002 -1.159783e+002 1.288606e+001
      vertex   -1.415249e+002 -1.170617e+002 1.417164e+001
      vertex   -1.417370e+002 -1.168496e+002 1.460000e+001
    endloop
  endfacet
  facet normal -7.071068e-001 -7.071068e-001 3.127497e-014
    outer loop
      vertex   -1.429618e+002 -1.156248e+002 1.360000e+001
      vertex   -1.417370e+002 -1.168496e+002 1.460000e+001
      vertex   -1.418933e+002 -1.166933e+002 1.507394e+001
    endloop
  endfacet
  facet normal -7.071068e-001 -7.071068e-001 -1.683627e-014
    outer loop
      vertex   -1.432222e+002 -1.153644e+002 1.438990e+001
      vertex   -1.418933e+002 -1.166933e+002 1.507394e+001
      vertex   -1.419890e+002 -1.165976e+002 1.557906e+001
    endloop
  endfacet
  facet normal -7.071068e-001 -7.071068e-001 1.899408e-014
    outer loop
      vertex   -1.433817e+002 -1.152049e+002 1.523176e+001
      vertex   -1.419890e+002 -1.165976e+002 1.557906e+001
      vertex   -1.420212e+002 -1.165654e+002 1.610000e+001
    endloop
  endfacet
  facet normal -7.071068e-001 -7.071068e-001 -3.836112e-016
    outer loop
      vertex   -1.434354e+002 -1.151512e+002 1.610000e+001
      vertex   -1.420212e+002 -1.165654e+002 1.610000e+001
      vertex   -1.433817e+002 -1.152049e+002 1.696824e+001
    endloop
  endfacet
  facet normal -7.071068e-001 -7.071068e-001 4.395545e-016
    outer loop
      vertex   -1.434354e+002 -1.151512e+002 1.610000e+001
      vertex   -1.433817e+002 -1.152049e+002 1.523176e+001
      vertex   -1.420212e+002 -1.165654e+002 1.610000e+001
    endloop
  endfacet
  facet normal -7.071068e-001 -7.071068e-001 -1.899408e-014
    outer loop
      vertex   -1.420212e+002 -1.165654e+002 1.610000e+001
      vertex   -1.419890e+002 -1.165976e+002 1.662094e+001
      vertex   -1.433817e+002 -1.152049e+002 1.696824e+001
    endloop
  endfacet
  facet normal -7.071068e-001 -7.071068e-001 0.000000e+000
    outer loop
      vertex   -1.433817e+002 -1.152049e+002 1.696824e+001
      vertex   -1.419890e+002 -1.165976e+002 1.662094e+001
      vertex   -1.432222e+002 -1.153644e+002 1.781010e+001
    endloop
  endfacet
  facet normal -7.071068e-001 -7.071068e-001 1.682295e-014
    outer loop
      vertex   -1.432222e+002 -1.153644e+002 1.781010e+001
      vertex   -1.419890e+002 -1.165976e+002 1.662094e+001
      vertex   -1.418933e+002 -1.166933e+002 1.712606e+001
    endloop
  endfacet
  facet normal -7.071068e-001 -7.071068e-001 -3.127497e-014
    outer loop
      vertex   -1.429618e+002 -1.156248e+002 1.860000e+001
      vertex   -1.418933e+002 -1.166933e+002 1.712606e+001
      vertex   -1.417370e+002 -1.168496e+002 1.760000e+001
    endloop
  endfacet
  facet normal -7.071068e-001 -7.071068e-001 5.780807e-015
    outer loop
      vertex   -1.426083e+002 -1.159783e+002 1.931394e+001
      vertex   -1.417370e+002 -1.168496e+002 1.760000e+001
      vertex   -1.415249e+002 -1.170617e+002 1.802836e+001
    endloop
  endfacet
  facet normal -7.071068e-001 -7.071068e-001 2.123181e-014
    outer loop
      vertex   -1.421725e+002 -1.164141e+002 1.993022e+001
      vertex   -1.415249e+002 -1.170617e+002 1.802836e+001
      vertex   -1.412635e+002 -1.173231e+002 1.839813e+001
    endloop
  endfacet
  facet normal -7.071068e-001 -7.071068e-001 -1.928712e-014
    outer loop
      vertex   -1.416677e+002 -1.169189e+002 2.043013e+001
      vertex   -1.412635e+002 -1.173231e+002 1.839813e+001
      vertex   -1.409606e+002 -1.176260e+002 1.869808e+001
    endloop
  endfacet
  facet normal -7.071068e-001 -7.071068e-001 6.593317e-015
    outer loop
      vertex   -1.411091e+002 -1.174775e+002 2.079846e+001
      vertex   -1.409606e+002 -1.176260e+002 1.869808e+001
      vertex   -1.406254e+002 -1.179612e+002 1.891908e+001
    endloop
  endfacet
  facet normal -7.071068e-001 -7.071068e-001 -3.349938e-015
    outer loop
      vertex   -1.405138e+002 -1.180728e+002 2.102404e+001
      vertex   -1.406254e+002 -1.179612e+002 1.891908e+001
      vertex   -1.402683e+002 -1.183183e+002 1.905442e+001
    endloop
  endfacet
  facet normal -7.071068e-001 -7.071068e-001 0.000000e+000
    outer loop
      vertex   -1.398999e+002 -1.186867e+002 2.110000e+001
      vertex   -1.402683e+002 -1.183183e+002 1.905442e+001
      vertex   -1.398999e+002 -1.186867e+002 1.910000e+001
    endloop
  endfacet
  facet normal -7.071068e-001 -7.071068e-001 -0.000000e+000
    outer loop
      vertex   -1.392860e+002 -1.193006e+002 2.102404e+001
      vertex   -1.398999e+002 -1.186867e+002 2.110000e+001
      vertex   -1.398999e+002 -1.186867e+002 1.910000e+001
    endloop
  endfacet
  facet normal -7.071068e-001 -7.071068e-001 2.013959e-015
    outer loop
      vertex   -1.398999e+002 -1.186867e+002 2.110000e+001
      vertex   -1.405138e+002 -1.180728e+002 2.102404e+001
      vertex   -1.402683e+002 -1.183183e+002 1.905442e+001
    endloop
  endfacet
  facet normal -7.071068e-001 -7.071068e-001 -3.932015e-015
    outer loop
      vertex   -1.405138e+002 -1.180728e+002 2.102404e+001
      vertex   -1.411091e+002 -1.174775e+002 2.079846e+001
      vertex   -1.406254e+002 -1.179612e+002 1.891908e+001
    endloop
  endfacet
  facet normal -7.071068e-001 -7.071068e-001 5.786135e-015
    outer loop
      vertex   -1.411091e+002 -1.174775e+002 2.079846e+001
      vertex   -1.416677e+002 -1.169189e+002 2.043013e+001
      vertex   -1.409606e+002 -1.176260e+002 1.869808e+001
    endloop
  endfacet
  facet normal -7.071068e-001 -7.071068e-001 -1.157227e-014
    outer loop
      vertex   -1.416677e+002 -1.169189e+002 2.043013e+001
      vertex   -1.421725e+002 -1.164141e+002 1.993022e+001
      vertex   -1.412635e+002 -1.173231e+002 1.839813e+001
    endloop
  endfacet
  facet normal -7.071068e-001 -7.071068e-001 -1.726250e-015
    outer loop
      vertex   -1.421725e+002 -1.164141e+002 1.993022e+001
      vertex   -1.426083e+002 -1.159783e+002 1.931394e+001
      vertex   -1.415249e+002 -1.170617e+002 1.802836e+001
    endloop
  endfacet
  facet normal -7.071068e-001 -7.071068e-001 1.291491e-014
    outer loop
      vertex   -1.426083e+002 -1.159783e+002 1.931394e+001
      vertex   -1.429618e+002 -1.156248e+002 1.860000e+001
      vertex   -1.417370e+002 -1.168496e+002 1.760000e+001
    endloop
  endfacet
  facet normal -7.071068e-001 -7.071068e-001 -2.109861e-015
    outer loop
      vertex   -1.429618e+002 -1.156248e+002 1.860000e+001
      vertex   -1.432222e+002 -1.153644e+002 1.781010e+001
      vertex   -1.418933e+002 -1.166933e+002 1.712606e+001
    endloop
  endfacet
  facet normal -7.071068e-001 -7.071068e-001 0.000000e+000
    outer loop
      vertex   -1.433817e+002 -1.152049e+002 1.523176e+001
      vertex   -1.432222e+002 -1.153644e+002 1.438990e+001
      vertex   -1.419890e+002 -1.165976e+002 1.557906e+001
    endloop
  endfacet
  facet normal -7.071068e-001 -7.071068e-001 2.109861e-015
    outer loop
      vertex   -1.432222e+002 -1.153644e+002 1.438990e+001
      vertex   -1.429618e+002 -1.156248e+002 1.360000e+001
      vertex   -1.418933e+002 -1.166933e+002 1.507394e+001
    endloop
  endfacet
  facet normal -7.071068e-001 -7.071068e-001 -1.291491e-014
    outer loop
      vertex   -1.429618e+002 -1.156248e+002 1.360000e+001
      vertex   -1.426083e+002 -1.159783e+002 1.288606e+001
      vertex   -1.417370e+002 -1.168496e+002 1.460000e+001
    endloop
  endfacet
  facet normal -7.071068e-001 -7.071068e-001 1.726250e-015
    outer loop
      vertex   -1.426083e+002 -1.159783e+002 1.288606e+001
      vertex   -1.421725e+002 -1.164141e+002 1.226978e+001
      vertex   -1.415249e+002 -1.170617e+002 1.417164e+001
    endloop
  endfacet
  facet normal -7.071068e-001 -7.071068e-001 -3.308646e-015
    outer loop
      vertex   -1.421725e+002 -1.164141e+002 1.226978e+001
      vertex   -1.416677e+002 -1.169189e+002 1.176987e+001
      vertex   -1.412635e+002 -1.173231e+002 1.380187e+001
    endloop
  endfacet
  facet normal -7.071068e-001 -7.071068e-001 -3.356598e-015
    outer loop
      vertex   -1.416677e+002 -1.169189e+002 1.176987e+001
      vertex   -1.411091e+002 -1.174775e+002 1.140154e+001
      vertex   -1.409606e+002 -1.176260e+002 1.350192e+001
    endloop
  endfacet
  facet normal -7.071068e-001 -7.071068e-001 2.013959e-015
    outer loop
      vertex   -1.398999e+002 -1.186867e+002 1.110000e+001
      vertex   -1.392860e+002 -1.193006e+002 1.117596e+001
      vertex   -1.395315e+002 -1.190551e+002 1.314558e+001
    endloop
  endfacet
  facet normal -7.071068e-001 -7.071068e-001 -3.932015e-015
    outer loop
      vertex   -1.392860e+002 -1.193006e+002 1.117596e+001
      vertex   -1.386907e+002 -1.198959e+002 1.140154e+001
      vertex   -1.391744e+002 -1.194122e+002 1.328092e+001
    endloop
  endfacet
  facet normal -7.071068e-001 -7.071068e-001 3.356598e-015
    outer loop
      vertex   -1.386907e+002 -1.198959e+002 1.140154e+001
      vertex   -1.381321e+002 -1.204545e+002 1.176987e+001
      vertex   -1.388392e+002 -1.197474e+002 1.350192e+001
    endloop
  endfacet
  facet normal -7.071068e-001 -7.071068e-001 3.324630e-015
    outer loop
      vertex   -1.381321e+002 -1.204545e+002 1.176987e+001
      vertex   -1.376273e+002 -1.209593e+002 1.226978e+001
      vertex   -1.385364e+002 -1.200503e+002 1.380187e+001
    endloop
  endfacet
  facet normal -7.071068e-001 -7.071068e-001 -1.726250e-015
    outer loop
      vertex   -1.376273e+002 -1.209593e+002 1.226978e+001
      vertex   -1.371915e+002 -1.213951e+002 1.288606e+001
      vertex   -1.382749e+002 -1.203117e+002 1.417164e+001
    endloop
  endfacet
  facet normal -7.071068e-001 -7.071068e-001 1.291491e-014
    outer loop
      vertex   -1.371915e+002 -1.213951e+002 1.288606e+001
      vertex   -1.368380e+002 -1.217486e+002 1.360000e+001
      vertex   -1.380628e+002 -1.205238e+002 1.460000e+001
    endloop
  endfacet
  facet normal -7.071068e-001 -7.071068e-001 -2.109861e-015
    outer loop
      vertex   -1.368380e+002 -1.217486e+002 1.360000e+001
      vertex   -1.365776e+002 -1.220090e+002 1.438990e+001
      vertex   -1.379065e+002 -1.206801e+002 1.507394e+001
    endloop
  endfacet
  facet normal -7.071068e-001 -7.071068e-001 0.000000e+000
    outer loop
      vertex   -1.364181e+002 -1.221685e+002 1.696824e+001
      vertex   -1.365776e+002 -1.220090e+002 1.781010e+001
      vertex   -1.378108e+002 -1.207758e+002 1.662094e+001
    endloop
  endfacet
  facet normal -7.071068e-001 -7.071068e-001 2.109861e-015
    outer loop
      vertex   -1.365776e+002 -1.220090e+002 1.781010e+001
      vertex   -1.368380e+002 -1.217486e+002 1.860000e+001
      vertex   -1.379065e+002 -1.206801e+002 1.712606e+001
    endloop
  endfacet
  facet normal -7.071068e-001 -7.071068e-001 -1.291491e-014
    outer loop
      vertex   -1.368380e+002 -1.217486e+002 1.860000e+001
      vertex   -1.371915e+002 -1.213951e+002 1.931394e+001
      vertex   -1.380628e+002 -1.205238e+002 1.760000e+001
    endloop
  endfacet
  facet normal -7.071068e-001 -7.071068e-001 1.726250e-015
    outer loop
      vertex   -1.371915e+002 -1.213951e+002 1.931394e+001
      vertex   -1.376273e+002 -1.209593e+002 1.993022e+001
      vertex   -1.382749e+002 -1.203117e+002 1.802836e+001
    endloop
  endfacet
  facet normal -7.071068e-001 -7.071068e-001 -3.308646e-015
    outer loop
      vertex   -1.376273e+002 -1.209593e+002 1.993022e+001
      vertex   -1.381321e+002 -1.204545e+002 2.043013e+001
      vertex   -1.385364e+002 -1.200503e+002 1.839813e+001
    endloop
  endfacet
  facet normal -7.071068e-001 -7.071068e-001 -3.356598e-015
    outer loop
      vertex   -1.381321e+002 -1.204545e+002 2.043013e+001
      vertex   -1.386907e+002 -1.198959e+002 2.079846e+001
      vertex   -1.388392e+002 -1.197474e+002 1.869808e+001
    endloop
  endfacet
  facet normal 7.071068e-001 7.071068e-001 -0.000000e+000
    outer loop
      vertex   -1.268036e+002 -1.063271e+002 1.905442e+001
      vertex   -1.271720e+002 -1.059588e+002 1.910000e+001
      vertex   -1.271720e+002 -1.059588e+002 2.110000e+001
    endloop
  endfacet
  facet normal 7.071068e-001 7.071068e-001 0.000000e+000
    outer loop
      vertex   -1.265580e+002 -1.065727e+002 2.102404e+001
      vertex   -1.268036e+002 -1.063271e+002 1.905442e+001
      vertex   -1.271720e+002 -1.059588e+002 2.110000e+001
    endloop
  endfacet
  facet normal 7.071068e-001 7.071068e-001 0.000000e+000
    outer loop
      vertex   -1.265580e+002 -1.065727e+002 2.102404e+001
      vertex   -1.264465e+002 -1.066843e+002 1.891908e+001
      vertex   -1.268036e+002 -1.063271e+002 1.905442e+001
    endloop
  endfacet
  facet normal 7.071068e-001 7.071068e-001 0.000000e+000
    outer loop
      vertex   -1.265580e+002 -1.065727e+002 2.102404e+001
      vertex   -1.259628e+002 -1.071680e+002 2.079846e+001
      vertex   -1.264465e+002 -1.066843e+002 1.891908e+001
    endloop
  endfacet
  facet normal 7.071068e-001 7.071068e-001 0.000000e+000
    outer loop
      vertex   -1.264465e+002 -1.066843e+002 1.891908e+001
      vertex   -1.259628e+002 -1.071680e+002 2.079846e+001
      vertex   -1.261113e+002 -1.070194e+002 1.869808e+001
    endloop
  endfacet
  facet normal 7.071068e-001 7.071068e-001 0.000000e+000
    outer loop
      vertex   -1.261113e+002 -1.070194e+002 1.869808e+001
      vertex   -1.259628e+002 -1.071680e+002 2.079846e+001
      vertex   -1.254042e+002 -1.077266e+002 2.043013e+001
    endloop
  endfacet
  facet normal 7.071068e-001 7.071068e-001 0.000000e+000
    outer loop
      vertex   -1.258084e+002 -1.073223e+002 1.839813e+001
      vertex   -1.254042e+002 -1.077266e+002 2.043013e+001
      vertex   -1.248994e+002 -1.082314e+002 1.993022e+001
    endloop
  endfacet
  facet normal 7.071068e-001 7.071068e-001 0.000000e+000
    outer loop
      vertex   -1.255470e+002 -1.075838e+002 1.802836e+001
      vertex   -1.248994e+002 -1.082314e+002 1.993022e+001
      vertex   -1.244636e+002 -1.086672e+002 1.931394e+001
    endloop
  endfacet
  facet normal 7.071068e-001 7.071068e-001 0.000000e+000
    outer loop
      vertex   -1.253349e+002 -1.077959e+002 1.760000e+001
      vertex   -1.244636e+002 -1.086672e+002 1.931394e+001
      vertex   -1.241101e+002 -1.090206e+002 1.860000e+001
    endloop
  endfacet
  facet normal 7.071068e-001 7.071068e-001 0.000000e+000
    outer loop
      vertex   -1.251786e+002 -1.079522e+002 1.712606e+001
      vertex   -1.241101e+002 -1.090206e+002 1.860000e+001
      vertex   -1.238497e+002 -1.092811e+002 1.781010e+001
    endloop
  endfacet
  facet normal 7.071068e-001 7.071068e-001 0.000000e+000
    outer loop
      vertex   -1.250829e+002 -1.080479e+002 1.662094e+001
      vertex   -1.238497e+002 -1.092811e+002 1.781010e+001
      vertex   -1.236902e+002 -1.094406e+002 1.696824e+001
    endloop
  endfacet
  facet normal 7.071068e-001 7.071068e-001 0.000000e+000
    outer loop
      vertex   -1.250507e+002 -1.080801e+002 1.610000e+001
      vertex   -1.236902e+002 -1.094406e+002 1.696824e+001
      vertex   -1.236365e+002 -1.094943e+002 1.610000e+001
    endloop
  endfacet
  facet normal 7.071068e-001 7.071068e-001 0.000000e+000
    outer loop
      vertex   -1.236902e+002 -1.094406e+002 1.523176e+001
      vertex   -1.250507e+002 -1.080801e+002 1.610000e+001
      vertex   -1.236365e+002 -1.094943e+002 1.610000e+001
    endloop
  endfacet
  facet normal 7.071068e-001 7.071068e-001 0.000000e+000
    outer loop
      vertex   -1.236902e+002 -1.094406e+002 1.523176e+001
      vertex   -1.250829e+002 -1.080479e+002 1.557906e+001
      vertex   -1.250507e+002 -1.080801e+002 1.610000e+001
    endloop
  endfacet
  facet normal 7.071068e-001 7.071068e-001 0.000000e+000
    outer loop
      vertex   -1.236902e+002 -1.094406e+002 1.523176e+001
      vertex   -1.238497e+002 -1.092811e+002 1.438990e+001
      vertex   -1.250829e+002 -1.080479e+002 1.557906e+001
    endloop
  endfacet
  facet normal 7.071068e-001 7.071068e-001 0.000000e+000
    outer loop
      vertex   -1.250829e+002 -1.080479e+002 1.557906e+001
      vertex   -1.238497e+002 -1.092811e+002 1.438990e+001
      vertex   -1.251786e+002 -1.079522e+002 1.507394e+001
    endloop
  endfacet
  facet normal 7.071068e-001 7.071068e-001 0.000000e+000
    outer loop
      vertex   -1.251786e+002 -1.079522e+002 1.507394e+001
      vertex   -1.238497e+002 -1.092811e+002 1.438990e+001
      vertex   -1.241101e+002 -1.090206e+002 1.360000e+001
    endloop
  endfacet
  facet normal 7.071068e-001 7.071068e-001 0.000000e+000
    outer loop
      vertex   -1.253349e+002 -1.077959e+002 1.460000e+001
      vertex   -1.241101e+002 -1.090206e+002 1.360000e+001
      vertex   -1.244636e+002 -1.086672e+002 1.288606e+001
    endloop
  endfacet
  facet normal 7.071068e-001 7.071068e-001 0.000000e+000
    outer loop
      vertex   -1.255470e+002 -1.075838e+002 1.417164e+001
      vertex   -1.244636e+002 -1.086672e+002 1.288606e+001
      vertex   -1.248994e+002 -1.082314e+002 1.226978e+001
    endloop
  endfacet
  facet normal 7.071068e-001 7.071068e-001 0.000000e+000
    outer loop
      vertex   -1.258084e+002 -1.073223e+002 1.380187e+001
      vertex   -1.248994e+002 -1.082314e+002 1.226978e+001
      vertex   -1.254042e+002 -1.077266e+002 1.176987e+001
    endloop
  endfacet
  facet normal 7.071068e-001 7.071068e-001 0.000000e+000
    outer loop
      vertex   -1.261113e+002 -1.070194e+002 1.350192e+001
      vertex   -1.254042e+002 -1.077266e+002 1.176987e+001
      vertex   -1.259628e+002 -1.071680e+002 1.140154e+001
    endloop
  endfacet
  facet normal 7.071068e-001 7.071068e-001 0.000000e+000
    outer loop
      vertex   -1.264465e+002 -1.066843e+002 1.328092e+001
      vertex   -1.259628e+002 -1.071680e+002 1.140154e+001
      vertex   -1.265580e+002 -1.065727e+002 1.117596e+001
    endloop
  endfacet
  facet normal 7.071068e-001 7.071068e-001 0.000000e+000
    outer loop
      vertex   -1.268036e+002 -1.063271e+002 1.314558e+001
      vertex   -1.265580e+002 -1.065727e+002 1.117596e+001
      vertex   -1.271720e+002 -1.059588e+002 1.310000e+001
    endloop
  endfacet
  facet normal 7.071068e-001 7.071068e-001 0.000000e+000
    outer loop
      vertex   -1.268036e+002 -1.063271e+002 1.314558e+001
      vertex   -1.264465e+002 -1.066843e+002 1.328092e+001
      vertex   -1.265580e+002 -1.065727e+002 1.117596e+001
    endloop
  endfacet
  facet normal 7.071068e-001 7.071068e-001 2.270499e-014
    outer loop
      vertex   -1.306538e+002 -1.024770e+002 1.523176e+001
      vertex   -1.307075e+002 -1.024232e+002 1.610000e+001
      vertex   -1.292933e+002 -1.038375e+002 1.610000e+001
    endloop
  endfacet
  facet normal 7.071068e-001 7.071068e-001 -1.811497e-014
    outer loop
      vertex   -1.292611e+002 -1.038697e+002 1.557906e+001
      vertex   -1.306538e+002 -1.024770e+002 1.523176e+001
      vertex   -1.292933e+002 -1.038375e+002 1.610000e+001
    endloop
  endfacet
  facet normal 7.071068e-001 7.071068e-001 2.605359e-015
    outer loop
      vertex   -1.292611e+002 -1.038697e+002 1.557906e+001
      vertex   -1.304943e+002 -1.026365e+002 1.438990e+001
      vertex   -1.306538e+002 -1.024770e+002 1.523176e+001
    endloop
  endfacet
  facet normal 7.071068e-001 7.071068e-001 1.944696e-014
    outer loop
      vertex   -1.292611e+002 -1.038697e+002 1.557906e+001
      vertex   -1.291654e+002 -1.039654e+002 1.507394e+001
      vertex   -1.304943e+002 -1.026365e+002 1.438990e+001
    endloop
  endfacet
  facet normal 7.071068e-001 7.071068e-001 2.173797e-015
    outer loop
      vertex   -1.304943e+002 -1.026365e+002 1.438990e+001
      vertex   -1.291654e+002 -1.039654e+002 1.507394e+001
      vertex   -1.302338e+002 -1.028969e+002 1.360000e+001
    endloop
  endfacet
  facet normal 7.071068e-001 7.071068e-001 2.131173e-015
    outer loop
      vertex   -1.302338e+002 -1.028969e+002 1.360000e+001
      vertex   -1.291654e+002 -1.039654e+002 1.507394e+001
      vertex   -1.290091e+002 -1.041217e+002 1.460000e+001
    endloop
  endfacet
  facet normal 7.071068e-001 7.071068e-001 0.000000e+000
    outer loop
      vertex   -1.298804e+002 -1.032504e+002 1.288606e+001
      vertex   -1.290091e+002 -1.041217e+002 1.460000e+001
      vertex   -1.287970e+002 -1.043338e+002 1.417164e+001
    endloop
  endfacet
  facet normal 7.071068e-001 7.071068e-001 3.569715e-015
    outer loop
      vertex   -1.294446e+002 -1.036862e+002 1.226978e+001
      vertex   -1.287970e+002 -1.043338e+002 1.417164e+001
      vertex   -1.285355e+002 -1.045952e+002 1.380187e+001
    endloop
  endfacet
  facet normal 7.071068e-001 7.071068e-001 0.000000e+000
    outer loop
      vertex   -1.289398e+002 -1.041910e+002 1.176987e+001
      vertex   -1.285355e+002 -1.045952e+002 1.380187e+001
      vertex   -1.282326e+002 -1.048981e+002 1.350192e+001
    endloop
  endfacet
  facet normal 7.071068e-001 7.071068e-001 -4.568703e-015
    outer loop
      vertex   -1.283812e+002 -1.047496e+002 1.140154e+001
      vertex   -1.282326e+002 -1.048981e+002 1.350192e+001
      vertex   -1.278975e+002 -1.052332e+002 1.328092e+001
    endloop
  endfacet
  facet normal 7.071068e-001 7.071068e-001 0.000000e+000
    outer loop
      vertex   -1.277859e+002 -1.053448e+002 1.117596e+001
      vertex   -1.278975e+002 -1.052332e+002 1.328092e+001
      vertex   -1.275404e+002 -1.055904e+002 1.314558e+001
    endloop
  endfacet
  facet normal 7.071068e-001 7.071068e-001 0.000000e+000
    outer loop
      vertex   -1.271720e+002 -1.059588e+002 1.110000e+001
      vertex   -1.275404e+002 -1.055904e+002 1.314558e+001
      vertex   -1.271720e+002 -1.059588e+002 1.310000e+001
    endloop
  endfacet
  facet normal 7.071068e-001 7.071068e-001 -0.000000e+000
    outer loop
      vertex   -1.265580e+002 -1.065727e+002 1.117596e+001
      vertex   -1.271720e+002 -1.059588e+002 1.110000e+001
      vertex   -1.271720e+002 -1.059588e+002 1.310000e+001
    endloop
  endfacet
  facet normal 7.071068e-001 7.071068e-001 1.811497e-014
    outer loop
      vertex   -1.292933e+002 -1.038375e+002 1.610000e+001
      vertex   -1.306538e+002 -1.024770e+002 1.696824e+001
      vertex   -1.292611e+002 -1.038697e+002 1.662094e+001
    endloop
  endfacet
  facet normal 7.071068e-001 7.071068e-001 -2.270499e-014
    outer loop
      vertex   -1.292933e+002 -1.038375e+002 1.610000e+001
      vertex   -1.307075e+002 -1.024232e+002 1.610000e+001
      vertex   -1.306538e+002 -1.024770e+002 1.696824e+001
    endloop
  endfacet
  facet normal 7.071068e-001 7.071068e-001 -1.939368e-014
    outer loop
      vertex   -1.292611e+002 -1.038697e+002 1.662094e+001
      vertex   -1.304943e+002 -1.026365e+002 1.781010e+001
      vertex   -1.291654e+002 -1.039654e+002 1.712606e+001
    endloop
  endfacet
  facet normal 7.071068e-001 7.071068e-001 -2.621343e-015
    outer loop
      vertex   -1.292611e+002 -1.038697e+002 1.662094e+001
      vertex   -1.306538e+002 -1.024770e+002 1.696824e+001
      vertex   -1.304943e+002 -1.026365e+002 1.781010e+001
    endloop
  endfacet
  facet normal 7.071068e-001 7.071068e-001 -2.131173e-015
    outer loop
      vertex   -1.291654e+002 -1.039654e+002 1.712606e+001
      vertex   -1.302338e+002 -1.028969e+002 1.860000e+001
      vertex   -1.290091e+002 -1.041217e+002 1.760000e+001
    endloop
  endfacet
  facet normal 7.071068e-001 7.071068e-001 -2.141829e-015
    outer loop
      vertex   -1.291654e+002 -1.039654e+002 1.712606e+001
      vertex   -1.304943e+002 -1.026365e+002 1.781010e+001
      vertex   -1.302338e+002 -1.028969e+002 1.860000e+001
    endloop
  endfacet
  facet normal 7.071068e-001 7.071068e-001 0.000000e+000
    outer loop
      vertex   -1.290091e+002 -1.041217e+002 1.760000e+001
      vertex   -1.298804e+002 -1.032504e+002 1.931394e+001
      vertex   -1.287970e+002 -1.043338e+002 1.802836e+001
    endloop
  endfacet
  facet normal 7.071068e-001 7.071068e-001 7.128774e-015
    outer loop
      vertex   -1.290091e+002 -1.041217e+002 1.760000e+001
      vertex   -1.302338e+002 -1.028969e+002 1.860000e+001
      vertex   -1.298804e+002 -1.032504e+002 1.931394e+001
    endloop
  endfacet
  facet normal 7.071068e-001 7.071068e-001 0.000000e+000
    outer loop
      vertex   -1.264465e+002 -1.066843e+002 1.328092e+001
      vertex   -1.261113e+002 -1.070194e+002 1.350192e+001
      vertex   -1.259628e+002 -1.071680e+002 1.140154e+001
    endloop
  endfacet
  facet normal 7.071068e-001 7.071068e-001 0.000000e+000
    outer loop
      vertex   -1.261113e+002 -1.070194e+002 1.350192e+001
      vertex   -1.258084e+002 -1.073223e+002 1.380187e+001
      vertex   -1.254042e+002 -1.077266e+002 1.176987e+001
    endloop
  endfacet
  facet normal 7.071068e-001 7.071068e-001 0.000000e+000
    outer loop
      vertex   -1.258084e+002 -1.073223e+002 1.380187e+001
      vertex   -1.255470e+002 -1.075838e+002 1.417164e+001
      vertex   -1.248994e+002 -1.082314e+002 1.226978e+001
    endloop
  endfacet
  facet normal 7.071068e-001 7.071068e-001 0.000000e+000
    outer loop
      vertex   -1.255470e+002 -1.075838e+002 1.417164e+001
      vertex   -1.253349e+002 -1.077959e+002 1.460000e+001
      vertex   -1.244636e+002 -1.086672e+002 1.288606e+001
    endloop
  endfacet
  facet normal 7.071068e-001 7.071068e-001 0.000000e+000
    outer loop
      vertex   -1.253349e+002 -1.077959e+002 1.460000e+001
      vertex   -1.251786e+002 -1.079522e+002 1.507394e+001
      vertex   -1.241101e+002 -1.090206e+002 1.360000e+001
    endloop
  endfacet
  facet normal 7.071068e-001 7.071068e-001 0.000000e+000
    outer loop
      vertex   -1.250507e+002 -1.080801e+002 1.610000e+001
      vertex   -1.250829e+002 -1.080479e+002 1.662094e+001
      vertex   -1.236902e+002 -1.094406e+002 1.696824e+001
    endloop
  endfacet
  facet normal 7.071068e-001 7.071068e-001 0.000000e+000
    outer loop
      vertex   -1.250829e+002 -1.080479e+002 1.662094e+001
      vertex   -1.251786e+002 -1.079522e+002 1.712606e+001
      vertex   -1.238497e+002 -1.092811e+002 1.781010e+001
    endloop
  endfacet
  facet normal 7.071068e-001 7.071068e-001 0.000000e+000
    outer loop
      vertex   -1.251786e+002 -1.079522e+002 1.712606e+001
      vertex   -1.253349e+002 -1.077959e+002 1.760000e+001
      vertex   -1.241101e+002 -1.090206e+002 1.860000e+001
    endloop
  endfacet
  facet normal 7.071068e-001 7.071068e-001 0.000000e+000
    outer loop
      vertex   -1.253349e+002 -1.077959e+002 1.760000e+001
      vertex   -1.255470e+002 -1.075838e+002 1.802836e+001
      vertex   -1.244636e+002 -1.086672e+002 1.931394e+001
    endloop
  endfacet
  facet normal 7.071068e-001 7.071068e-001 0.000000e+000
    outer loop
      vertex   -1.255470e+002 -1.075838e+002 1.802836e+001
      vertex   -1.258084e+002 -1.073223e+002 1.839813e+001
      vertex   -1.248994e+002 -1.082314e+002 1.993022e+001
    endloop
  endfacet
  facet normal 7.071068e-001 7.071068e-001 0.000000e+000
    outer loop
      vertex   -1.258084e+002 -1.073223e+002 1.839813e+001
      vertex   -1.261113e+002 -1.070194e+002 1.869808e+001
      vertex   -1.254042e+002 -1.077266e+002 2.043013e+001
    endloop
  endfacet
  facet normal 7.071068e-001 7.071068e-001 0.000000e+000
    outer loop
      vertex   -1.271720e+002 -1.059588e+002 1.110000e+001
      vertex   -1.277859e+002 -1.053448e+002 1.117596e+001
      vertex   -1.275404e+002 -1.055904e+002 1.314558e+001
    endloop
  endfacet
  facet normal 7.071068e-001 7.071068e-001 -9.270603e-016
    outer loop
      vertex   -1.277859e+002 -1.053448e+002 1.117596e+001
      vertex   -1.283812e+002 -1.047496e+002 1.140154e+001
      vertex   -1.278975e+002 -1.052332e+002 1.328092e+001
    endloop
  endfacet
  facet normal 7.071068e-001 7.071068e-001 -5.786135e-015
    outer loop
      vertex   -1.283812e+002 -1.047496e+002 1.140154e+001
      vertex   -1.289398e+002 -1.041910e+002 1.176987e+001
      vertex   -1.282326e+002 -1.048981e+002 1.350192e+001
    endloop
  endfacet
  facet normal 7.071068e-001 7.071068e-001 -3.324630e-015
    outer loop
      vertex   -1.289398e+002 -1.041910e+002 1.176987e+001
      vertex   -1.294446e+002 -1.036862e+002 1.226978e+001
      vertex   -1.285355e+002 -1.045952e+002 1.380187e+001
    endloop
  endfacet
  facet normal 7.071068e-001 7.071068e-001 8.886992e-015
    outer loop
      vertex   -1.294446e+002 -1.036862e+002 1.226978e+001
      vertex   -1.298804e+002 -1.032504e+002 1.288606e+001
      vertex   -1.287970e+002 -1.043338e+002 1.417164e+001
    endloop
  endfacet
  facet normal 7.071068e-001 7.071068e-001 -7.128774e-015
    outer loop
      vertex   -1.298804e+002 -1.032504e+002 1.288606e+001
      vertex   -1.302338e+002 -1.028969e+002 1.360000e+001
      vertex   -1.290091e+002 -1.041217e+002 1.460000e+001
    endloop
  endfacet
  facet normal 7.071068e-001 7.071068e-001 -8.855025e-015
    outer loop
      vertex   -1.298804e+002 -1.032504e+002 1.931394e+001
      vertex   -1.294446e+002 -1.036862e+002 1.993022e+001
      vertex   -1.287970e+002 -1.043338e+002 1.802836e+001
    endloop
  endfacet
  facet normal 7.071068e-001 7.071068e-001 -3.622994e-015
    outer loop
      vertex   -1.287970e+002 -1.043338e+002 1.802836e+001
      vertex   -1.294446e+002 -1.036862e+002 1.993022e+001
      vertex   -1.285355e+002 -1.045952e+002 1.839813e+001
    endloop
  endfacet
  facet normal 7.071068e-001 7.071068e-001 3.324630e-015
    outer loop
      vertex   -1.285355e+002 -1.045952e+002 1.839813e+001
      vertex   -1.294446e+002 -1.036862e+002 1.993022e+001
      vertex   -1.289398e+002 -1.041910e+002 2.043013e+001
    endloop
  endfacet
  facet normal 7.071068e-001 7.071068e-001 5.786135e-015
    outer loop
      vertex   -1.282326e+002 -1.048981e+002 1.869808e+001
      vertex   -1.289398e+002 -1.041910e+002 2.043013e+001
      vertex   -1.283812e+002 -1.047496e+002 2.079846e+001
    endloop
  endfacet
  facet normal 7.071068e-001 7.071068e-001 9.270603e-016
    outer loop
      vertex   -1.278975e+002 -1.052332e+002 1.891908e+001
      vertex   -1.283812e+002 -1.047496e+002 2.079846e+001
      vertex   -1.277859e+002 -1.053448e+002 2.102404e+001
    endloop
  endfacet
  facet normal 7.071068e-001 7.071068e-001 0.000000e+000
    outer loop
      vertex   -1.275404e+002 -1.055904e+002 1.905442e+001
      vertex   -1.277859e+002 -1.053448e+002 2.102404e+001
      vertex   -1.271720e+002 -1.059588e+002 2.110000e+001
    endloop
  endfacet
  facet normal 7.071068e-001 7.071068e-001 0.000000e+000
    outer loop
      vertex   -1.271720e+002 -1.059588e+002 1.910000e+001
      vertex   -1.275404e+002 -1.055904e+002 1.905442e+001
      vertex   -1.271720e+002 -1.059588e+002 2.110000e+001
    endloop
  endfacet
  facet normal 7.071068e-001 7.071068e-001 0.000000e+000
    outer loop
      vertex   -1.277859e+002 -1.053448e+002 2.102404e+001
      vertex   -1.275404e+002 -1.055904e+002 1.905442e+001
      vertex   -1.278975e+002 -1.052332e+002 1.891908e+001
    endloop
  endfacet
  facet normal 7.071068e-001 7.071068e-001 4.555383e-015
    outer loop
      vertex   -1.283812e+002 -1.047496e+002 2.079846e+001
      vertex   -1.278975e+002 -1.052332e+002 1.891908e+001
      vertex   -1.282326e+002 -1.048981e+002 1.869808e+001
    endloop
  endfacet
  facet normal 7.071068e-001 7.071068e-001 0.000000e+000
    outer loop
      vertex   -1.289398e+002 -1.041910e+002 2.043013e+001
      vertex   -1.282326e+002 -1.048981e+002 1.869808e+001
      vertex   -1.285355e+002 -1.045952e+002 1.839813e+001
    endloop
  endfacet
endsolid
