solid ascii
  facet normal 0.000000e+000 1.000000e+000 0.000000e+000
    outer loop
      vertex   -3.464597e+001 2.950000e+001 1.176316e+001
      vertex   -3.464597e+001 2.950000e+001 -1.173684e+001
      vertex   -3.764597e+001 2.950000e+001 1.176316e+001
    endloop
  endfacet
  facet normal 0.000000e+000 1.000000e+000 0.000000e+000
    outer loop
      vertex   -3.764597e+001 2.950000e+001 1.176316e+001
      vertex   -3.464597e+001 2.950000e+001 -1.173684e+001
      vertex   -3.764597e+001 2.950000e+001 -1.173684e+001
    endloop
  endfacet
  facet normal -0.000000e+000 -1.000000e+000 0.000000e+000
    outer loop
      vertex   -3.464597e+001 2.250000e+001 -1.173684e+001
      vertex   -3.464597e+001 2.250000e+001 1.176316e+001
      vertex   -3.764597e+001 2.250000e+001 -1.173684e+001
    endloop
  endfacet
  facet normal 0.000000e+000 -1.000000e+000 0.000000e+000
    outer loop
      vertex   -3.764597e+001 2.250000e+001 -1.173684e+001
      vertex   -3.464597e+001 2.250000e+001 1.176316e+001
      vertex   -3.764597e+001 2.250000e+001 1.176316e+001
    endloop
  endfacet
  facet normal 0.000000e+000 0.000000e+000 1.000000e+000
    outer loop
      vertex   -3.464597e+001 2.950000e+001 1.176316e+001
      vertex   -3.764597e+001 2.950000e+001 1.176316e+001
      vertex   -3.464597e+001 2.250000e+001 1.176316e+001
    endloop
  endfacet
  facet normal 0.000000e+000 0.000000e+000 1.000000e+000
    outer loop
      vertex   -3.464597e+001 2.250000e+001 1.176316e+001
      vertex   -3.764597e+001 2.950000e+001 1.176316e+001
      vertex   -3.764597e+001 2.250000e+001 1.176316e+001
    endloop
  endfacet
  facet normal -1.000000e+000 0.000000e+000 0.000000e+000
    outer loop
      vertex   -3.764597e+001 2.767417e+001 7.467958e+000
      vertex   -3.764597e+001 2.770000e+001 7.763160e+000
      vertex   -3.764597e+001 2.950000e+001 1.176316e+001
    endloop
  endfacet
  facet normal -1.000000e+000 0.000000e+000 0.000000e+000
    outer loop
      vertex   -3.764597e+001 2.950000e+001 -1.173684e+001
      vertex   -3.764597e+001 2.767417e+001 7.467958e+000
      vertex   -3.764597e+001 2.950000e+001 1.176316e+001
    endloop
  endfacet
  facet normal -1.000000e+000 0.000000e+000 0.000000e+000
    outer loop
      vertex   -3.764597e+001 2.950000e+001 -1.173684e+001
      vertex   -3.764597e+001 2.767417e+001 -7.467958e+000
      vertex   -3.764597e+001 2.767417e+001 7.467958e+000
    endloop
  endfacet
  facet normal -1.000000e+000 0.000000e+000 0.000000e+000
    outer loop
      vertex   -3.764597e+001 2.950000e+001 -1.173684e+001
      vertex   -3.764597e+001 2.770000e+001 -7.763160e+000
      vertex   -3.764597e+001 2.767417e+001 -7.467958e+000
    endloop
  endfacet
  facet normal -1.000000e+000 0.000000e+000 0.000000e+000
    outer loop
      vertex   -3.764597e+001 2.950000e+001 -1.173684e+001
      vertex   -3.764597e+001 2.767417e+001 -8.058362e+000
      vertex   -3.764597e+001 2.770000e+001 -7.763160e+000
    endloop
  endfacet
  facet normal -1.000000e+000 0.000000e+000 0.000000e+000
    outer loop
      vertex   -3.764597e+001 2.950000e+001 -1.173684e+001
      vertex   -3.764597e+001 2.759748e+001 -8.344594e+000
      vertex   -3.764597e+001 2.767417e+001 -8.058362e+000
    endloop
  endfacet
  facet normal -1.000000e+000 0.000000e+000 0.000000e+000
    outer loop
      vertex   -3.764597e+001 2.950000e+001 -1.173684e+001
      vertex   -3.764597e+001 2.747224e+001 -8.613160e+000
      vertex   -3.764597e+001 2.759748e+001 -8.344594e+000
    endloop
  endfacet
  facet normal -1.000000e+000 0.000000e+000 0.000000e+000
    outer loop
      vertex   -3.764597e+001 2.950000e+001 -1.173684e+001
      vertex   -3.764597e+001 2.730228e+001 -8.855899e+000
      vertex   -3.764597e+001 2.747224e+001 -8.613160e+000
    endloop
  endfacet
  facet normal -1.000000e+000 0.000000e+000 0.000000e+000
    outer loop
      vertex   -3.764597e+001 2.950000e+001 -1.173684e+001
      vertex   -3.764597e+001 2.709274e+001 -9.065435e+000
      vertex   -3.764597e+001 2.730228e+001 -8.855899e+000
    endloop
  endfacet
  facet normal -1.000000e+000 0.000000e+000 0.000000e+000
    outer loop
      vertex   -3.764597e+001 2.950000e+001 -1.173684e+001
      vertex   -3.764597e+001 2.685000e+001 -9.235403e+000
      vertex   -3.764597e+001 2.709274e+001 -9.065435e+000
    endloop
  endfacet
  facet normal -1.000000e+000 0.000000e+000 0.000000e+000
    outer loop
      vertex   -3.764597e+001 2.950000e+001 -1.173684e+001
      vertex   -3.764597e+001 2.658143e+001 -9.360637e+000
      vertex   -3.764597e+001 2.685000e+001 -9.235403e+000
    endloop
  endfacet
  facet normal -1.000000e+000 0.000000e+000 0.000000e+000
    outer loop
      vertex   -3.764597e+001 2.950000e+001 -1.173684e+001
      vertex   -3.764597e+001 2.629520e+001 -9.437333e+000
      vertex   -3.764597e+001 2.658143e+001 -9.360637e+000
    endloop
  endfacet
  facet normal -1.000000e+000 0.000000e+000 0.000000e+000
    outer loop
      vertex   -3.764597e+001 2.950000e+001 -1.173684e+001
      vertex   -3.764597e+001 2.600000e+001 -9.463160e+000
      vertex   -3.764597e+001 2.629520e+001 -9.437333e+000
    endloop
  endfacet
  facet normal -1.000000e+000 0.000000e+000 0.000000e+000
    outer loop
      vertex   -3.764597e+001 2.950000e+001 -1.173684e+001
      vertex   -3.764597e+001 2.250000e+001 -1.173684e+001
      vertex   -3.764597e+001 2.600000e+001 -9.463160e+000
    endloop
  endfacet
  facet normal -1.000000e+000 -0.000000e+000 0.000000e+000
    outer loop
      vertex   -3.764597e+001 2.600000e+001 -9.463160e+000
      vertex   -3.764597e+001 2.250000e+001 -1.173684e+001
      vertex   -3.764597e+001 2.570480e+001 -9.437333e+000
    endloop
  endfacet
  facet normal -1.000000e+000 -0.000000e+000 0.000000e+000
    outer loop
      vertex   -3.764597e+001 2.570480e+001 -9.437333e+000
      vertex   -3.764597e+001 2.250000e+001 -1.173684e+001
      vertex   -3.764597e+001 2.541857e+001 -9.360637e+000
    endloop
  endfacet
  facet normal -1.000000e+000 -0.000000e+000 0.000000e+000
    outer loop
      vertex   -3.764597e+001 2.541857e+001 -9.360637e+000
      vertex   -3.764597e+001 2.250000e+001 -1.173684e+001
      vertex   -3.764597e+001 2.515000e+001 -9.235403e+000
    endloop
  endfacet
  facet normal -1.000000e+000 -0.000000e+000 0.000000e+000
    outer loop
      vertex   -3.764597e+001 2.515000e+001 -9.235403e+000
      vertex   -3.764597e+001 2.250000e+001 -1.173684e+001
      vertex   -3.764597e+001 2.490726e+001 -9.065435e+000
    endloop
  endfacet
  facet normal -1.000000e+000 -0.000000e+000 0.000000e+000
    outer loop
      vertex   -3.764597e+001 2.490726e+001 -9.065435e+000
      vertex   -3.764597e+001 2.250000e+001 -1.173684e+001
      vertex   -3.764597e+001 2.469772e+001 -8.855899e+000
    endloop
  endfacet
  facet normal -1.000000e+000 -0.000000e+000 0.000000e+000
    outer loop
      vertex   -3.764597e+001 2.469772e+001 -8.855899e+000
      vertex   -3.764597e+001 2.250000e+001 -1.173684e+001
      vertex   -3.764597e+001 2.452776e+001 -8.613160e+000
    endloop
  endfacet
  facet normal -1.000000e+000 -0.000000e+000 0.000000e+000
    outer loop
      vertex   -3.764597e+001 2.452776e+001 -8.613160e+000
      vertex   -3.764597e+001 2.250000e+001 -1.173684e+001
      vertex   -3.764597e+001 2.440252e+001 -8.344594e+000
    endloop
  endfacet
  facet normal -1.000000e+000 -0.000000e+000 0.000000e+000
    outer loop
      vertex   -3.764597e+001 2.440252e+001 -8.344594e+000
      vertex   -3.764597e+001 2.250000e+001 -1.173684e+001
      vertex   -3.764597e+001 2.432583e+001 -8.058362e+000
    endloop
  endfacet
  facet normal -1.000000e+000 -0.000000e+000 0.000000e+000
    outer loop
      vertex   -3.764597e+001 2.432583e+001 -8.058362e+000
      vertex   -3.764597e+001 2.250000e+001 -1.173684e+001
      vertex   -3.764597e+001 2.430000e+001 -7.763160e+000
    endloop
  endfacet
  facet normal -1.000000e+000 -0.000000e+000 0.000000e+000
    outer loop
      vertex   -3.764597e+001 2.430000e+001 -7.763160e+000
      vertex   -3.764597e+001 2.250000e+001 -1.173684e+001
      vertex   -3.764597e+001 2.432583e+001 -7.467958e+000
    endloop
  endfacet
  facet normal -1.000000e+000 -0.000000e+000 0.000000e+000
    outer loop
      vertex   -3.764597e+001 2.432583e+001 -7.467958e+000
      vertex   -3.764597e+001 2.250000e+001 -1.173684e+001
      vertex   -3.764597e+001 2.250000e+001 1.176316e+001
    endloop
  endfacet
  facet normal -1.000000e+000 0.000000e+000 0.000000e+000
    outer loop
      vertex   -3.764597e+001 2.432583e+001 7.467958e+000
      vertex   -3.764597e+001 2.250000e+001 1.176316e+001
      vertex   -3.764597e+001 2.430000e+001 7.763160e+000
    endloop
  endfacet
  facet normal -1.000000e+000 -0.000000e+000 -0.000000e+000
    outer loop
      vertex   -3.764597e+001 2.432583e+001 7.467958e+000
      vertex   -3.764597e+001 2.432583e+001 -7.467958e+000
      vertex   -3.764597e+001 2.250000e+001 1.176316e+001
    endloop
  endfacet
  facet normal -1.000000e+000 0.000000e+000 -0.000000e+000
    outer loop
      vertex   -3.764597e+001 2.432583e+001 7.467958e+000
      vertex   -3.764597e+001 2.440252e+001 -7.181725e+000
      vertex   -3.764597e+001 2.432583e+001 -7.467958e+000
    endloop
  endfacet
  facet normal -1.000000e+000 0.000000e+000 0.000000e+000
    outer loop
      vertex   -3.764597e+001 2.432583e+001 7.467958e+000
      vertex   -3.764597e+001 2.440252e+001 7.181725e+000
      vertex   -3.764597e+001 2.440252e+001 -7.181725e+000
    endloop
  endfacet
  facet normal -1.000000e+000 0.000000e+000 0.000000e+000
    outer loop
      vertex   -3.764597e+001 2.440252e+001 -7.181725e+000
      vertex   -3.764597e+001 2.440252e+001 7.181725e+000
      vertex   -3.764597e+001 2.452776e+001 -6.913160e+000
    endloop
  endfacet
  facet normal -1.000000e+000 0.000000e+000 0.000000e+000
    outer loop
      vertex   -3.764597e+001 2.452776e+001 -6.913160e+000
      vertex   -3.764597e+001 2.440252e+001 7.181725e+000
      vertex   -3.764597e+001 2.452776e+001 6.913160e+000
    endloop
  endfacet
  facet normal -1.000000e+000 0.000000e+000 0.000000e+000
    outer loop
      vertex   -3.764597e+001 2.469772e+001 -6.670421e+000
      vertex   -3.764597e+001 2.452776e+001 6.913160e+000
      vertex   -3.764597e+001 2.469772e+001 6.670421e+000
    endloop
  endfacet
  facet normal -1.000000e+000 0.000000e+000 0.000000e+000
    outer loop
      vertex   -3.764597e+001 2.490726e+001 -6.460884e+000
      vertex   -3.764597e+001 2.469772e+001 6.670421e+000
      vertex   -3.764597e+001 2.490726e+001 6.460884e+000
    endloop
  endfacet
  facet normal -1.000000e+000 0.000000e+000 0.000000e+000
    outer loop
      vertex   -3.764597e+001 2.515000e+001 -6.290916e+000
      vertex   -3.764597e+001 2.490726e+001 6.460884e+000
      vertex   -3.764597e+001 2.515000e+001 6.290916e+000
    endloop
  endfacet
  facet normal -1.000000e+000 0.000000e+000 0.000000e+000
    outer loop
      vertex   -3.764597e+001 2.541857e+001 -6.165682e+000
      vertex   -3.764597e+001 2.515000e+001 6.290916e+000
      vertex   -3.764597e+001 2.541857e+001 6.165682e+000
    endloop
  endfacet
  facet normal -1.000000e+000 0.000000e+000 0.000000e+000
    outer loop
      vertex   -3.764597e+001 2.570480e+001 -6.088986e+000
      vertex   -3.764597e+001 2.541857e+001 6.165682e+000
      vertex   -3.764597e+001 2.570480e+001 6.088986e+000
    endloop
  endfacet
  facet normal -1.000000e+000 0.000000e+000 0.000000e+000
    outer loop
      vertex   -3.764597e+001 2.600000e+001 -6.063160e+000
      vertex   -3.764597e+001 2.570480e+001 6.088986e+000
      vertex   -3.764597e+001 2.600000e+001 6.063160e+000
    endloop
  endfacet
  facet normal -1.000000e+000 0.000000e+000 0.000000e+000
    outer loop
      vertex   -3.764597e+001 2.629520e+001 -6.088986e+000
      vertex   -3.764597e+001 2.600000e+001 6.063160e+000
      vertex   -3.764597e+001 2.629520e+001 6.088986e+000
    endloop
  endfacet
  facet normal -1.000000e+000 0.000000e+000 0.000000e+000
    outer loop
      vertex   -3.764597e+001 2.658143e+001 -6.165682e+000
      vertex   -3.764597e+001 2.629520e+001 6.088986e+000
      vertex   -3.764597e+001 2.658143e+001 6.165682e+000
    endloop
  endfacet
  facet normal -1.000000e+000 0.000000e+000 0.000000e+000
    outer loop
      vertex   -3.764597e+001 2.685000e+001 -6.290916e+000
      vertex   -3.764597e+001 2.658143e+001 6.165682e+000
      vertex   -3.764597e+001 2.685000e+001 6.290916e+000
    endloop
  endfacet
  facet normal -1.000000e+000 0.000000e+000 0.000000e+000
    outer loop
      vertex   -3.764597e+001 2.709274e+001 -6.460884e+000
      vertex   -3.764597e+001 2.685000e+001 6.290916e+000
      vertex   -3.764597e+001 2.709274e+001 6.460884e+000
    endloop
  endfacet
  facet normal -1.000000e+000 0.000000e+000 0.000000e+000
    outer loop
      vertex   -3.764597e+001 2.730228e+001 -6.670421e+000
      vertex   -3.764597e+001 2.709274e+001 6.460884e+000
      vertex   -3.764597e+001 2.730228e+001 6.670421e+000
    endloop
  endfacet
  facet normal -1.000000e+000 0.000000e+000 0.000000e+000
    outer loop
      vertex   -3.764597e+001 2.747224e+001 -6.913160e+000
      vertex   -3.764597e+001 2.730228e+001 6.670421e+000
      vertex   -3.764597e+001 2.747224e+001 6.913160e+000
    endloop
  endfacet
  facet normal -1.000000e+000 0.000000e+000 0.000000e+000
    outer loop
      vertex   -3.764597e+001 2.759748e+001 -7.181725e+000
      vertex   -3.764597e+001 2.747224e+001 6.913160e+000
      vertex   -3.764597e+001 2.759748e+001 7.181725e+000
    endloop
  endfacet
  facet normal -1.000000e+000 0.000000e+000 0.000000e+000
    outer loop
      vertex   -3.764597e+001 2.767417e+001 -7.467958e+000
      vertex   -3.764597e+001 2.759748e+001 7.181725e+000
      vertex   -3.764597e+001 2.767417e+001 7.467958e+000
    endloop
  endfacet
  facet normal -1.000000e+000 0.000000e+000 0.000000e+000
    outer loop
      vertex   -3.764597e+001 2.767417e+001 -7.467958e+000
      vertex   -3.764597e+001 2.759748e+001 -7.181725e+000
      vertex   -3.764597e+001 2.759748e+001 7.181725e+000
    endloop
  endfacet
  facet normal -1.000000e+000 0.000000e+000 0.000000e+000
    outer loop
      vertex   -3.764597e+001 2.770000e+001 7.763160e+000
      vertex   -3.764597e+001 2.767417e+001 8.058362e+000
      vertex   -3.764597e+001 2.950000e+001 1.176316e+001
    endloop
  endfacet
  facet normal -1.000000e+000 -0.000000e+000 0.000000e+000
    outer loop
      vertex   -3.764597e+001 2.950000e+001 1.176316e+001
      vertex   -3.764597e+001 2.767417e+001 8.058362e+000
      vertex   -3.764597e+001 2.759748e+001 8.344594e+000
    endloop
  endfacet
  facet normal -1.000000e+000 0.000000e+000 -0.000000e+000
    outer loop
      vertex   -3.764597e+001 2.747224e+001 8.613160e+000
      vertex   -3.764597e+001 2.950000e+001 1.176316e+001
      vertex   -3.764597e+001 2.759748e+001 8.344594e+000
    endloop
  endfacet
  facet normal -1.000000e+000 0.000000e+000 0.000000e+000
    outer loop
      vertex   -3.764597e+001 2.747224e+001 8.613160e+000
      vertex   -3.764597e+001 2.730228e+001 8.855899e+000
      vertex   -3.764597e+001 2.950000e+001 1.176316e+001
    endloop
  endfacet
  facet normal -1.000000e+000 -0.000000e+000 0.000000e+000
    outer loop
      vertex   -3.764597e+001 2.950000e+001 1.176316e+001
      vertex   -3.764597e+001 2.730228e+001 8.855899e+000
      vertex   -3.764597e+001 2.709274e+001 9.065435e+000
    endloop
  endfacet
  facet normal -1.000000e+000 0.000000e+000 -0.000000e+000
    outer loop
      vertex   -3.764597e+001 2.685000e+001 9.235403e+000
      vertex   -3.764597e+001 2.950000e+001 1.176316e+001
      vertex   -3.764597e+001 2.709274e+001 9.065435e+000
    endloop
  endfacet
  facet normal -1.000000e+000 0.000000e+000 0.000000e+000
    outer loop
      vertex   -3.764597e+001 2.685000e+001 9.235403e+000
      vertex   -3.764597e+001 2.658143e+001 9.360637e+000
      vertex   -3.764597e+001 2.950000e+001 1.176316e+001
    endloop
  endfacet
  facet normal -1.000000e+000 -0.000000e+000 0.000000e+000
    outer loop
      vertex   -3.764597e+001 2.950000e+001 1.176316e+001
      vertex   -3.764597e+001 2.658143e+001 9.360637e+000
      vertex   -3.764597e+001 2.629520e+001 9.437333e+000
    endloop
  endfacet
  facet normal -1.000000e+000 0.000000e+000 -0.000000e+000
    outer loop
      vertex   -3.764597e+001 2.600000e+001 9.463160e+000
      vertex   -3.764597e+001 2.950000e+001 1.176316e+001
      vertex   -3.764597e+001 2.629520e+001 9.437333e+000
    endloop
  endfacet
  facet normal -1.000000e+000 0.000000e+000 0.000000e+000
    outer loop
      vertex   -3.764597e+001 2.600000e+001 9.463160e+000
      vertex   -3.764597e+001 2.250000e+001 1.176316e+001
      vertex   -3.764597e+001 2.950000e+001 1.176316e+001
    endloop
  endfacet
  facet normal -1.000000e+000 -0.000000e+000 0.000000e+000
    outer loop
      vertex   -3.764597e+001 2.600000e+001 9.463160e+000
      vertex   -3.764597e+001 2.570480e+001 9.437333e+000
      vertex   -3.764597e+001 2.250000e+001 1.176316e+001
    endloop
  endfacet
  facet normal -1.000000e+000 0.000000e+000 -0.000000e+000
    outer loop
      vertex   -3.764597e+001 2.250000e+001 1.176316e+001
      vertex   -3.764597e+001 2.570480e+001 9.437333e+000
      vertex   -3.764597e+001 2.541857e+001 9.360637e+000
    endloop
  endfacet
  facet normal -1.000000e+000 0.000000e+000 0.000000e+000
    outer loop
      vertex   -3.764597e+001 2.515000e+001 9.235403e+000
      vertex   -3.764597e+001 2.250000e+001 1.176316e+001
      vertex   -3.764597e+001 2.541857e+001 9.360637e+000
    endloop
  endfacet
  facet normal -1.000000e+000 -0.000000e+000 0.000000e+000
    outer loop
      vertex   -3.764597e+001 2.515000e+001 9.235403e+000
      vertex   -3.764597e+001 2.490726e+001 9.065435e+000
      vertex   -3.764597e+001 2.250000e+001 1.176316e+001
    endloop
  endfacet
  facet normal -1.000000e+000 0.000000e+000 -0.000000e+000
    outer loop
      vertex   -3.764597e+001 2.250000e+001 1.176316e+001
      vertex   -3.764597e+001 2.490726e+001 9.065435e+000
      vertex   -3.764597e+001 2.469772e+001 8.855899e+000
    endloop
  endfacet
  facet normal -1.000000e+000 0.000000e+000 0.000000e+000
    outer loop
      vertex   -3.764597e+001 2.452776e+001 8.613160e+000
      vertex   -3.764597e+001 2.250000e+001 1.176316e+001
      vertex   -3.764597e+001 2.469772e+001 8.855899e+000
    endloop
  endfacet
  facet normal -1.000000e+000 -0.000000e+000 0.000000e+000
    outer loop
      vertex   -3.764597e+001 2.452776e+001 8.613160e+000
      vertex   -3.764597e+001 2.440252e+001 8.344594e+000
      vertex   -3.764597e+001 2.250000e+001 1.176316e+001
    endloop
  endfacet
  facet normal -1.000000e+000 0.000000e+000 -0.000000e+000
    outer loop
      vertex   -3.764597e+001 2.250000e+001 1.176316e+001
      vertex   -3.764597e+001 2.440252e+001 8.344594e+000
      vertex   -3.764597e+001 2.432583e+001 8.058362e+000
    endloop
  endfacet
  facet normal -1.000000e+000 0.000000e+000 0.000000e+000
    outer loop
      vertex   -3.764597e+001 2.430000e+001 7.763160e+000
      vertex   -3.764597e+001 2.250000e+001 1.176316e+001
      vertex   -3.764597e+001 2.432583e+001 8.058362e+000
    endloop
  endfacet
  facet normal -1.000000e+000 0.000000e+000 0.000000e+000
    outer loop
      vertex   -3.764597e+001 2.759748e+001 -7.181725e+000
      vertex   -3.764597e+001 2.747224e+001 -6.913160e+000
      vertex   -3.764597e+001 2.747224e+001 6.913160e+000
    endloop
  endfacet
  facet normal -1.000000e+000 0.000000e+000 0.000000e+000
    outer loop
      vertex   -3.764597e+001 2.747224e+001 -6.913160e+000
      vertex   -3.764597e+001 2.730228e+001 -6.670421e+000
      vertex   -3.764597e+001 2.730228e+001 6.670421e+000
    endloop
  endfacet
  facet normal -1.000000e+000 0.000000e+000 0.000000e+000
    outer loop
      vertex   -3.764597e+001 2.730228e+001 -6.670421e+000
      vertex   -3.764597e+001 2.709274e+001 -6.460884e+000
      vertex   -3.764597e+001 2.709274e+001 6.460884e+000
    endloop
  endfacet
  facet normal -1.000000e+000 0.000000e+000 0.000000e+000
    outer loop
      vertex   -3.764597e+001 2.709274e+001 -6.460884e+000
      vertex   -3.764597e+001 2.685000e+001 -6.290916e+000
      vertex   -3.764597e+001 2.685000e+001 6.290916e+000
    endloop
  endfacet
  facet normal -1.000000e+000 0.000000e+000 0.000000e+000
    outer loop
      vertex   -3.764597e+001 2.685000e+001 -6.290916e+000
      vertex   -3.764597e+001 2.658143e+001 -6.165682e+000
      vertex   -3.764597e+001 2.658143e+001 6.165682e+000
    endloop
  endfacet
  facet normal -1.000000e+000 0.000000e+000 0.000000e+000
    outer loop
      vertex   -3.764597e+001 2.658143e+001 -6.165682e+000
      vertex   -3.764597e+001 2.629520e+001 -6.088986e+000
      vertex   -3.764597e+001 2.629520e+001 6.088986e+000
    endloop
  endfacet
  facet normal -1.000000e+000 0.000000e+000 0.000000e+000
    outer loop
      vertex   -3.764597e+001 2.629520e+001 -6.088986e+000
      vertex   -3.764597e+001 2.600000e+001 -6.063160e+000
      vertex   -3.764597e+001 2.600000e+001 6.063160e+000
    endloop
  endfacet
  facet normal -1.000000e+000 -0.000000e+000 0.000000e+000
    outer loop
      vertex   -3.764597e+001 2.600000e+001 -6.063160e+000
      vertex   -3.764597e+001 2.570480e+001 -6.088986e+000
      vertex   -3.764597e+001 2.570480e+001 6.088986e+000
    endloop
  endfacet
  facet normal -1.000000e+000 -0.000000e+000 0.000000e+000
    outer loop
      vertex   -3.764597e+001 2.570480e+001 -6.088986e+000
      vertex   -3.764597e+001 2.541857e+001 -6.165682e+000
      vertex   -3.764597e+001 2.541857e+001 6.165682e+000
    endloop
  endfacet
  facet normal -1.000000e+000 -0.000000e+000 0.000000e+000
    outer loop
      vertex   -3.764597e+001 2.541857e+001 -6.165682e+000
      vertex   -3.764597e+001 2.515000e+001 -6.290916e+000
      vertex   -3.764597e+001 2.515000e+001 6.290916e+000
    endloop
  endfacet
  facet normal -1.000000e+000 -0.000000e+000 0.000000e+000
    outer loop
      vertex   -3.764597e+001 2.515000e+001 -6.290916e+000
      vertex   -3.764597e+001 2.490726e+001 -6.460884e+000
      vertex   -3.764597e+001 2.490726e+001 6.460884e+000
    endloop
  endfacet
  facet normal -1.000000e+000 -0.000000e+000 0.000000e+000
    outer loop
      vertex   -3.764597e+001 2.490726e+001 -6.460884e+000
      vertex   -3.764597e+001 2.469772e+001 -6.670421e+000
      vertex   -3.764597e+001 2.469772e+001 6.670421e+000
    endloop
  endfacet
  facet normal -1.000000e+000 -0.000000e+000 0.000000e+000
    outer loop
      vertex   -3.764597e+001 2.469772e+001 -6.670421e+000
      vertex   -3.764597e+001 2.452776e+001 -6.913160e+000
      vertex   -3.764597e+001 2.452776e+001 6.913160e+000
    endloop
  endfacet
  facet normal 0.000000e+000 -9.961947e-001 8.715574e-002
    outer loop
      vertex   -3.764597e+001 2.767417e+001 7.467958e+000
      vertex   -3.464597e+001 2.767417e+001 7.467958e+000
      vertex   -3.764597e+001 2.770000e+001 7.763160e+000
    endloop
  endfacet
  facet normal 0.000000e+000 -9.659258e-001 2.588190e-001
    outer loop
      vertex   -3.764597e+001 2.767417e+001 7.467958e+000
      vertex   -3.464597e+001 2.759748e+001 7.181725e+000
      vertex   -3.464597e+001 2.767417e+001 7.467958e+000
    endloop
  endfacet
  facet normal 0.000000e+000 -9.659258e-001 2.588190e-001
    outer loop
      vertex   -3.764597e+001 2.767417e+001 7.467958e+000
      vertex   -3.764597e+001 2.759748e+001 7.181725e+000
      vertex   -3.464597e+001 2.759748e+001 7.181725e+000
    endloop
  endfacet
  facet normal 0.000000e+000 -9.063078e-001 4.226183e-001
    outer loop
      vertex   -3.464597e+001 2.759748e+001 7.181725e+000
      vertex   -3.764597e+001 2.759748e+001 7.181725e+000
      vertex   -3.464597e+001 2.747224e+001 6.913160e+000
    endloop
  endfacet
  facet normal 0.000000e+000 -9.063078e-001 4.226183e-001
    outer loop
      vertex   -3.464597e+001 2.747224e+001 6.913160e+000
      vertex   -3.764597e+001 2.759748e+001 7.181725e+000
      vertex   -3.764597e+001 2.747224e+001 6.913160e+000
    endloop
  endfacet
  facet normal 0.000000e+000 -8.191520e-001 5.735764e-001
    outer loop
      vertex   -3.464597e+001 2.730228e+001 6.670421e+000
      vertex   -3.764597e+001 2.747224e+001 6.913160e+000
      vertex   -3.764597e+001 2.730228e+001 6.670421e+000
    endloop
  endfacet
  facet normal 0.000000e+000 -7.071068e-001 7.071068e-001
    outer loop
      vertex   -3.464597e+001 2.709274e+001 6.460884e+000
      vertex   -3.764597e+001 2.730228e+001 6.670421e+000
      vertex   -3.764597e+001 2.709274e+001 6.460884e+000
    endloop
  endfacet
  facet normal 0.000000e+000 -5.735764e-001 8.191520e-001
    outer loop
      vertex   -3.464597e+001 2.685000e+001 6.290916e+000
      vertex   -3.764597e+001 2.709274e+001 6.460884e+000
      vertex   -3.764597e+001 2.685000e+001 6.290916e+000
    endloop
  endfacet
  facet normal 0.000000e+000 -4.226183e-001 9.063078e-001
    outer loop
      vertex   -3.464597e+001 2.658143e+001 6.165682e+000
      vertex   -3.764597e+001 2.685000e+001 6.290916e+000
      vertex   -3.764597e+001 2.658143e+001 6.165682e+000
    endloop
  endfacet
  facet normal 0.000000e+000 -2.588190e-001 9.659258e-001
    outer loop
      vertex   -3.464597e+001 2.629520e+001 6.088986e+000
      vertex   -3.764597e+001 2.658143e+001 6.165682e+000
      vertex   -3.764597e+001 2.629520e+001 6.088986e+000
    endloop
  endfacet
  facet normal 0.000000e+000 -8.715574e-002 9.961947e-001
    outer loop
      vertex   -3.464597e+001 2.600000e+001 6.063160e+000
      vertex   -3.764597e+001 2.629520e+001 6.088986e+000
      vertex   -3.764597e+001 2.600000e+001 6.063160e+000
    endloop
  endfacet
  facet normal 0.000000e+000 8.715574e-002 9.961947e-001
    outer loop
      vertex   -3.464597e+001 2.570480e+001 6.088986e+000
      vertex   -3.764597e+001 2.600000e+001 6.063160e+000
      vertex   -3.764597e+001 2.570480e+001 6.088986e+000
    endloop
  endfacet
  facet normal 0.000000e+000 2.588190e-001 9.659258e-001
    outer loop
      vertex   -3.464597e+001 2.541857e+001 6.165682e+000
      vertex   -3.764597e+001 2.570480e+001 6.088986e+000
      vertex   -3.764597e+001 2.541857e+001 6.165682e+000
    endloop
  endfacet
  facet normal 0.000000e+000 4.226183e-001 9.063078e-001
    outer loop
      vertex   -3.464597e+001 2.515000e+001 6.290916e+000
      vertex   -3.764597e+001 2.541857e+001 6.165682e+000
      vertex   -3.764597e+001 2.515000e+001 6.290916e+000
    endloop
  endfacet
  facet normal 0.000000e+000 5.735764e-001 8.191520e-001
    outer loop
      vertex   -3.464597e+001 2.490726e+001 6.460884e+000
      vertex   -3.764597e+001 2.515000e+001 6.290916e+000
      vertex   -3.764597e+001 2.490726e+001 6.460884e+000
    endloop
  endfacet
  facet normal 0.000000e+000 7.071068e-001 7.071068e-001
    outer loop
      vertex   -3.464597e+001 2.469772e+001 6.670421e+000
      vertex   -3.764597e+001 2.490726e+001 6.460884e+000
      vertex   -3.764597e+001 2.469772e+001 6.670421e+000
    endloop
  endfacet
  facet normal 0.000000e+000 8.191520e-001 5.735764e-001
    outer loop
      vertex   -3.464597e+001 2.452776e+001 6.913160e+000
      vertex   -3.764597e+001 2.469772e+001 6.670421e+000
      vertex   -3.764597e+001 2.452776e+001 6.913160e+000
    endloop
  endfacet
  facet normal 0.000000e+000 9.063078e-001 4.226183e-001
    outer loop
      vertex   -3.464597e+001 2.440252e+001 7.181725e+000
      vertex   -3.764597e+001 2.452776e+001 6.913160e+000
      vertex   -3.764597e+001 2.440252e+001 7.181725e+000
    endloop
  endfacet
  facet normal 0.000000e+000 9.659258e-001 2.588190e-001
    outer loop
      vertex   -3.464597e+001 2.432583e+001 7.467958e+000
      vertex   -3.764597e+001 2.440252e+001 7.181725e+000
      vertex   -3.764597e+001 2.432583e+001 7.467958e+000
    endloop
  endfacet
  facet normal 0.000000e+000 9.961947e-001 8.715574e-002
    outer loop
      vertex   -3.464597e+001 2.430000e+001 7.763160e+000
      vertex   -3.764597e+001 2.432583e+001 7.467958e+000
      vertex   -3.764597e+001 2.430000e+001 7.763160e+000
    endloop
  endfacet
  facet normal 0.000000e+000 9.961947e-001 -8.715574e-002
    outer loop
      vertex   -3.464597e+001 2.432583e+001 8.058362e+000
      vertex   -3.764597e+001 2.430000e+001 7.763160e+000
      vertex   -3.764597e+001 2.432583e+001 8.058362e+000
    endloop
  endfacet
  facet normal 0.000000e+000 9.659258e-001 -2.588190e-001
    outer loop
      vertex   -3.464597e+001 2.440252e+001 8.344594e+000
      vertex   -3.764597e+001 2.432583e+001 8.058362e+000
      vertex   -3.764597e+001 2.440252e+001 8.344594e+000
    endloop
  endfacet
  facet normal 0.000000e+000 9.063078e-001 -4.226183e-001
    outer loop
      vertex   -3.464597e+001 2.452776e+001 8.613160e+000
      vertex   -3.764597e+001 2.440252e+001 8.344594e+000
      vertex   -3.764597e+001 2.452776e+001 8.613160e+000
    endloop
  endfacet
  facet normal 0.000000e+000 8.191520e-001 -5.735764e-001
    outer loop
      vertex   -3.464597e+001 2.469772e+001 8.855899e+000
      vertex   -3.764597e+001 2.452776e+001 8.613160e+000
      vertex   -3.764597e+001 2.469772e+001 8.855899e+000
    endloop
  endfacet
  facet normal 0.000000e+000 7.071068e-001 -7.071068e-001
    outer loop
      vertex   -3.464597e+001 2.490726e+001 9.065435e+000
      vertex   -3.764597e+001 2.469772e+001 8.855899e+000
      vertex   -3.764597e+001 2.490726e+001 9.065435e+000
    endloop
  endfacet
  facet normal 0.000000e+000 5.735764e-001 -8.191520e-001
    outer loop
      vertex   -3.464597e+001 2.515000e+001 9.235403e+000
      vertex   -3.764597e+001 2.490726e+001 9.065435e+000
      vertex   -3.764597e+001 2.515000e+001 9.235403e+000
    endloop
  endfacet
  facet normal 0.000000e+000 4.226183e-001 -9.063078e-001
    outer loop
      vertex   -3.464597e+001 2.541857e+001 9.360637e+000
      vertex   -3.764597e+001 2.515000e+001 9.235403e+000
      vertex   -3.764597e+001 2.541857e+001 9.360637e+000
    endloop
  endfacet
  facet normal 0.000000e+000 2.588190e-001 -9.659258e-001
    outer loop
      vertex   -3.464597e+001 2.570480e+001 9.437333e+000
      vertex   -3.764597e+001 2.541857e+001 9.360637e+000
      vertex   -3.764597e+001 2.570480e+001 9.437333e+000
    endloop
  endfacet
  facet normal 0.000000e+000 8.715574e-002 -9.961947e-001
    outer loop
      vertex   -3.464597e+001 2.600000e+001 9.463160e+000
      vertex   -3.764597e+001 2.570480e+001 9.437333e+000
      vertex   -3.764597e+001 2.600000e+001 9.463160e+000
    endloop
  endfacet
  facet normal 0.000000e+000 -8.715574e-002 -9.961947e-001
    outer loop
      vertex   -3.464597e+001 2.629520e+001 9.437333e+000
      vertex   -3.764597e+001 2.600000e+001 9.463160e+000
      vertex   -3.764597e+001 2.629520e+001 9.437333e+000
    endloop
  endfacet
  facet normal 0.000000e+000 -2.588190e-001 -9.659258e-001
    outer loop
      vertex   -3.464597e+001 2.658143e+001 9.360637e+000
      vertex   -3.764597e+001 2.629520e+001 9.437333e+000
      vertex   -3.764597e+001 2.658143e+001 9.360637e+000
    endloop
  endfacet
  facet normal 0.000000e+000 -4.226183e-001 -9.063078e-001
    outer loop
      vertex   -3.464597e+001 2.685000e+001 9.235403e+000
      vertex   -3.764597e+001 2.658143e+001 9.360637e+000
      vertex   -3.764597e+001 2.685000e+001 9.235403e+000
    endloop
  endfacet
  facet normal 0.000000e+000 -5.735764e-001 -8.191520e-001
    outer loop
      vertex   -3.464597e+001 2.709274e+001 9.065435e+000
      vertex   -3.764597e+001 2.685000e+001 9.235403e+000
      vertex   -3.764597e+001 2.709274e+001 9.065435e+000
    endloop
  endfacet
  facet normal 0.000000e+000 -7.071068e-001 -7.071068e-001
    outer loop
      vertex   -3.464597e+001 2.730228e+001 8.855899e+000
      vertex   -3.764597e+001 2.709274e+001 9.065435e+000
      vertex   -3.764597e+001 2.730228e+001 8.855899e+000
    endloop
  endfacet
  facet normal 0.000000e+000 -8.191520e-001 -5.735764e-001
    outer loop
      vertex   -3.464597e+001 2.747224e+001 8.613160e+000
      vertex   -3.764597e+001 2.730228e+001 8.855899e+000
      vertex   -3.764597e+001 2.747224e+001 8.613160e+000
    endloop
  endfacet
  facet normal 0.000000e+000 -9.063078e-001 -4.226183e-001
    outer loop
      vertex   -3.464597e+001 2.759748e+001 8.344594e+000
      vertex   -3.764597e+001 2.747224e+001 8.613160e+000
      vertex   -3.764597e+001 2.759748e+001 8.344594e+000
    endloop
  endfacet
  facet normal 0.000000e+000 -9.659258e-001 -2.588190e-001
    outer loop
      vertex   -3.464597e+001 2.767417e+001 8.058362e+000
      vertex   -3.764597e+001 2.759748e+001 8.344594e+000
      vertex   -3.764597e+001 2.767417e+001 8.058362e+000
    endloop
  endfacet
  facet normal 0.000000e+000 -9.961947e-001 -8.715574e-002
    outer loop
      vertex   -3.464597e+001 2.770000e+001 7.763160e+000
      vertex   -3.764597e+001 2.767417e+001 8.058362e+000
      vertex   -3.764597e+001 2.770000e+001 7.763160e+000
    endloop
  endfacet
  facet normal 0.000000e+000 -9.961947e-001 8.715574e-002
    outer loop
      vertex   -3.464597e+001 2.767417e+001 7.467958e+000
      vertex   -3.464597e+001 2.770000e+001 7.763160e+000
      vertex   -3.764597e+001 2.770000e+001 7.763160e+000
    endloop
  endfacet
  facet normal -0.000000e+000 -9.961947e-001 -8.715574e-002
    outer loop
      vertex   -3.464597e+001 2.770000e+001 7.763160e+000
      vertex   -3.464597e+001 2.767417e+001 8.058362e+000
      vertex   -3.764597e+001 2.767417e+001 8.058362e+000
    endloop
  endfacet
  facet normal -0.000000e+000 -9.659258e-001 -2.588190e-001
    outer loop
      vertex   -3.464597e+001 2.767417e+001 8.058362e+000
      vertex   -3.464597e+001 2.759748e+001 8.344594e+000
      vertex   -3.764597e+001 2.759748e+001 8.344594e+000
    endloop
  endfacet
  facet normal -0.000000e+000 -9.063078e-001 -4.226183e-001
    outer loop
      vertex   -3.464597e+001 2.759748e+001 8.344594e+000
      vertex   -3.464597e+001 2.747224e+001 8.613160e+000
      vertex   -3.764597e+001 2.747224e+001 8.613160e+000
    endloop
  endfacet
  facet normal -0.000000e+000 -8.191520e-001 -5.735764e-001
    outer loop
      vertex   -3.464597e+001 2.747224e+001 8.613160e+000
      vertex   -3.464597e+001 2.730228e+001 8.855899e+000
      vertex   -3.764597e+001 2.730228e+001 8.855899e+000
    endloop
  endfacet
  facet normal -0.000000e+000 -7.071068e-001 -7.071068e-001
    outer loop
      vertex   -3.464597e+001 2.730228e+001 8.855899e+000
      vertex   -3.464597e+001 2.709274e+001 9.065435e+000
      vertex   -3.764597e+001 2.709274e+001 9.065435e+000
    endloop
  endfacet
  facet normal -0.000000e+000 -5.735764e-001 -8.191520e-001
    outer loop
      vertex   -3.464597e+001 2.709274e+001 9.065435e+000
      vertex   -3.464597e+001 2.685000e+001 9.235403e+000
      vertex   -3.764597e+001 2.685000e+001 9.235403e+000
    endloop
  endfacet
  facet normal -0.000000e+000 -4.226183e-001 -9.063078e-001
    outer loop
      vertex   -3.464597e+001 2.685000e+001 9.235403e+000
      vertex   -3.464597e+001 2.658143e+001 9.360637e+000
      vertex   -3.764597e+001 2.658143e+001 9.360637e+000
    endloop
  endfacet
  facet normal -0.000000e+000 -2.588190e-001 -9.659258e-001
    outer loop
      vertex   -3.464597e+001 2.658143e+001 9.360637e+000
      vertex   -3.464597e+001 2.629520e+001 9.437333e+000
      vertex   -3.764597e+001 2.629520e+001 9.437333e+000
    endloop
  endfacet
  facet normal -0.000000e+000 -8.715574e-002 -9.961947e-001
    outer loop
      vertex   -3.464597e+001 2.629520e+001 9.437333e+000
      vertex   -3.464597e+001 2.600000e+001 9.463160e+000
      vertex   -3.764597e+001 2.600000e+001 9.463160e+000
    endloop
  endfacet
  facet normal 0.000000e+000 8.715574e-002 -9.961947e-001
    outer loop
      vertex   -3.464597e+001 2.600000e+001 9.463160e+000
      vertex   -3.464597e+001 2.570480e+001 9.437333e+000
      vertex   -3.764597e+001 2.570480e+001 9.437333e+000
    endloop
  endfacet
  facet normal 0.000000e+000 2.588190e-001 -9.659258e-001
    outer loop
      vertex   -3.464597e+001 2.570480e+001 9.437333e+000
      vertex   -3.464597e+001 2.541857e+001 9.360637e+000
      vertex   -3.764597e+001 2.541857e+001 9.360637e+000
    endloop
  endfacet
  facet normal 0.000000e+000 4.226183e-001 -9.063078e-001
    outer loop
      vertex   -3.464597e+001 2.541857e+001 9.360637e+000
      vertex   -3.464597e+001 2.515000e+001 9.235403e+000
      vertex   -3.764597e+001 2.515000e+001 9.235403e+000
    endloop
  endfacet
  facet normal 0.000000e+000 5.735764e-001 -8.191520e-001
    outer loop
      vertex   -3.464597e+001 2.515000e+001 9.235403e+000
      vertex   -3.464597e+001 2.490726e+001 9.065435e+000
      vertex   -3.764597e+001 2.490726e+001 9.065435e+000
    endloop
  endfacet
  facet normal 0.000000e+000 7.071068e-001 -7.071068e-001
    outer loop
      vertex   -3.464597e+001 2.490726e+001 9.065435e+000
      vertex   -3.464597e+001 2.469772e+001 8.855899e+000
      vertex   -3.764597e+001 2.469772e+001 8.855899e+000
    endloop
  endfacet
  facet normal 0.000000e+000 8.191520e-001 -5.735764e-001
    outer loop
      vertex   -3.464597e+001 2.469772e+001 8.855899e+000
      vertex   -3.464597e+001 2.452776e+001 8.613160e+000
      vertex   -3.764597e+001 2.452776e+001 8.613160e+000
    endloop
  endfacet
  facet normal 0.000000e+000 9.063078e-001 -4.226183e-001
    outer loop
      vertex   -3.464597e+001 2.452776e+001 8.613160e+000
      vertex   -3.464597e+001 2.440252e+001 8.344594e+000
      vertex   -3.764597e+001 2.440252e+001 8.344594e+000
    endloop
  endfacet
  facet normal 0.000000e+000 9.659258e-001 -2.588190e-001
    outer loop
      vertex   -3.464597e+001 2.440252e+001 8.344594e+000
      vertex   -3.464597e+001 2.432583e+001 8.058362e+000
      vertex   -3.764597e+001 2.432583e+001 8.058362e+000
    endloop
  endfacet
  facet normal 0.000000e+000 9.961947e-001 -8.715574e-002
    outer loop
      vertex   -3.464597e+001 2.432583e+001 8.058362e+000
      vertex   -3.464597e+001 2.430000e+001 7.763160e+000
      vertex   -3.764597e+001 2.430000e+001 7.763160e+000
    endloop
  endfacet
  facet normal 0.000000e+000 9.961947e-001 8.715574e-002
    outer loop
      vertex   -3.464597e+001 2.430000e+001 7.763160e+000
      vertex   -3.464597e+001 2.432583e+001 7.467958e+000
      vertex   -3.764597e+001 2.432583e+001 7.467958e+000
    endloop
  endfacet
  facet normal 0.000000e+000 9.659258e-001 2.588190e-001
    outer loop
      vertex   -3.464597e+001 2.432583e+001 7.467958e+000
      vertex   -3.464597e+001 2.440252e+001 7.181725e+000
      vertex   -3.764597e+001 2.440252e+001 7.181725e+000
    endloop
  endfacet
  facet normal 0.000000e+000 9.063078e-001 4.226183e-001
    outer loop
      vertex   -3.464597e+001 2.440252e+001 7.181725e+000
      vertex   -3.464597e+001 2.452776e+001 6.913160e+000
      vertex   -3.764597e+001 2.452776e+001 6.913160e+000
    endloop
  endfacet
  facet normal 0.000000e+000 8.191520e-001 5.735764e-001
    outer loop
      vertex   -3.464597e+001 2.452776e+001 6.913160e+000
      vertex   -3.464597e+001 2.469772e+001 6.670421e+000
      vertex   -3.764597e+001 2.469772e+001 6.670421e+000
    endloop
  endfacet
  facet normal 0.000000e+000 7.071068e-001 7.071068e-001
    outer loop
      vertex   -3.464597e+001 2.469772e+001 6.670421e+000
      vertex   -3.464597e+001 2.490726e+001 6.460884e+000
      vertex   -3.764597e+001 2.490726e+001 6.460884e+000
    endloop
  endfacet
  facet normal 0.000000e+000 5.735764e-001 8.191520e-001
    outer loop
      vertex   -3.464597e+001 2.490726e+001 6.460884e+000
      vertex   -3.464597e+001 2.515000e+001 6.290916e+000
      vertex   -3.764597e+001 2.515000e+001 6.290916e+000
    endloop
  endfacet
  facet normal 0.000000e+000 4.226183e-001 9.063078e-001
    outer loop
      vertex   -3.464597e+001 2.515000e+001 6.290916e+000
      vertex   -3.464597e+001 2.541857e+001 6.165682e+000
      vertex   -3.764597e+001 2.541857e+001 6.165682e+000
    endloop
  endfacet
  facet normal 0.000000e+000 2.588190e-001 9.659258e-001
    outer loop
      vertex   -3.464597e+001 2.541857e+001 6.165682e+000
      vertex   -3.464597e+001 2.570480e+001 6.088986e+000
      vertex   -3.764597e+001 2.570480e+001 6.088986e+000
    endloop
  endfacet
  facet normal 0.000000e+000 8.715574e-002 9.961947e-001
    outer loop
      vertex   -3.464597e+001 2.570480e+001 6.088986e+000
      vertex   -3.464597e+001 2.600000e+001 6.063160e+000
      vertex   -3.764597e+001 2.600000e+001 6.063160e+000
    endloop
  endfacet
  facet normal 0.000000e+000 -8.715574e-002 9.961947e-001
    outer loop
      vertex   -3.464597e+001 2.600000e+001 6.063160e+000
      vertex   -3.464597e+001 2.629520e+001 6.088986e+000
      vertex   -3.764597e+001 2.629520e+001 6.088986e+000
    endloop
  endfacet
  facet normal 0.000000e+000 -2.588190e-001 9.659258e-001
    outer loop
      vertex   -3.464597e+001 2.629520e+001 6.088986e+000
      vertex   -3.464597e+001 2.658143e+001 6.165682e+000
      vertex   -3.764597e+001 2.658143e+001 6.165682e+000
    endloop
  endfacet
  facet normal 0.000000e+000 -4.226183e-001 9.063078e-001
    outer loop
      vertex   -3.464597e+001 2.658143e+001 6.165682e+000
      vertex   -3.464597e+001 2.685000e+001 6.290916e+000
      vertex   -3.764597e+001 2.685000e+001 6.290916e+000
    endloop
  endfacet
  facet normal 0.000000e+000 -5.735764e-001 8.191520e-001
    outer loop
      vertex   -3.464597e+001 2.685000e+001 6.290916e+000
      vertex   -3.464597e+001 2.709274e+001 6.460884e+000
      vertex   -3.764597e+001 2.709274e+001 6.460884e+000
    endloop
  endfacet
  facet normal 0.000000e+000 -7.071068e-001 7.071068e-001
    outer loop
      vertex   -3.464597e+001 2.709274e+001 6.460884e+000
      vertex   -3.464597e+001 2.730228e+001 6.670421e+000
      vertex   -3.764597e+001 2.730228e+001 6.670421e+000
    endloop
  endfacet
  facet normal 0.000000e+000 -8.191520e-001 5.735764e-001
    outer loop
      vertex   -3.464597e+001 2.730228e+001 6.670421e+000
      vertex   -3.464597e+001 2.747224e+001 6.913160e+000
      vertex   -3.764597e+001 2.747224e+001 6.913160e+000
    endloop
  endfacet
  facet normal 1.000000e+000 -0.000000e+000 0.000000e+000
    outer loop
      vertex   -3.464597e+001 2.767417e+001 8.058362e+000
      vertex   -3.464597e+001 2.770000e+001 7.763160e+000
      vertex   -3.464597e+001 2.950000e+001 1.176316e+001
    endloop
  endfacet
  facet normal 1.000000e+000 0.000000e+000 -0.000000e+000
    outer loop
      vertex   -3.464597e+001 2.759748e+001 8.344594e+000
      vertex   -3.464597e+001 2.950000e+001 1.176316e+001
      vertex   -3.464597e+001 2.747224e+001 8.613160e+000
    endloop
  endfacet
  facet normal 1.000000e+000 -0.000000e+000 0.000000e+000
    outer loop
      vertex   -3.464597e+001 2.759748e+001 8.344594e+000
      vertex   -3.464597e+001 2.767417e+001 8.058362e+000
      vertex   -3.464597e+001 2.950000e+001 1.176316e+001
    endloop
  endfacet
  facet normal 1.000000e+000 -0.000000e+000 0.000000e+000
    outer loop
      vertex   -3.464597e+001 2.250000e+001 1.176316e+001
      vertex   -3.464597e+001 2.250000e+001 -1.173684e+001
      vertex   -3.464597e+001 2.432583e+001 7.467958e+000
    endloop
  endfacet
  facet normal 1.000000e+000 0.000000e+000 0.000000e+000
    outer loop
      vertex   -3.464597e+001 2.430000e+001 7.763160e+000
      vertex   -3.464597e+001 2.250000e+001 1.176316e+001
      vertex   -3.464597e+001 2.432583e+001 7.467958e+000
    endloop
  endfacet
  facet normal 1.000000e+000 0.000000e+000 -0.000000e+000
    outer loop
      vertex   -3.464597e+001 2.430000e+001 7.763160e+000
      vertex   -3.464597e+001 2.432583e+001 8.058362e+000
      vertex   -3.464597e+001 2.250000e+001 1.176316e+001
    endloop
  endfacet
  facet normal 1.000000e+000 -0.000000e+000 0.000000e+000
    outer loop
      vertex   -3.464597e+001 2.250000e+001 1.176316e+001
      vertex   -3.464597e+001 2.432583e+001 8.058362e+000
      vertex   -3.464597e+001 2.440252e+001 8.344594e+000
    endloop
  endfacet
  facet normal 1.000000e+000 0.000000e+000 0.000000e+000
    outer loop
      vertex   -3.464597e+001 2.452776e+001 8.613160e+000
      vertex   -3.464597e+001 2.250000e+001 1.176316e+001
      vertex   -3.464597e+001 2.440252e+001 8.344594e+000
    endloop
  endfacet
  facet normal 1.000000e+000 0.000000e+000 -0.000000e+000
    outer loop
      vertex   -3.464597e+001 2.452776e+001 8.613160e+000
      vertex   -3.464597e+001 2.469772e+001 8.855899e+000
      vertex   -3.464597e+001 2.250000e+001 1.176316e+001
    endloop
  endfacet
  facet normal 1.000000e+000 -0.000000e+000 0.000000e+000
    outer loop
      vertex   -3.464597e+001 2.250000e+001 1.176316e+001
      vertex   -3.464597e+001 2.469772e+001 8.855899e+000
      vertex   -3.464597e+001 2.490726e+001 9.065435e+000
    endloop
  endfacet
  facet normal 1.000000e+000 0.000000e+000 0.000000e+000
    outer loop
      vertex   -3.464597e+001 2.515000e+001 9.235403e+000
      vertex   -3.464597e+001 2.250000e+001 1.176316e+001
      vertex   -3.464597e+001 2.490726e+001 9.065435e+000
    endloop
  endfacet
  facet normal 1.000000e+000 0.000000e+000 -0.000000e+000
    outer loop
      vertex   -3.464597e+001 2.515000e+001 9.235403e+000
      vertex   -3.464597e+001 2.541857e+001 9.360637e+000
      vertex   -3.464597e+001 2.250000e+001 1.176316e+001
    endloop
  endfacet
  facet normal 1.000000e+000 -0.000000e+000 0.000000e+000
    outer loop
      vertex   -3.464597e+001 2.250000e+001 1.176316e+001
      vertex   -3.464597e+001 2.541857e+001 9.360637e+000
      vertex   -3.464597e+001 2.570480e+001 9.437333e+000
    endloop
  endfacet
  facet normal 1.000000e+000 0.000000e+000 0.000000e+000
    outer loop
      vertex   -3.464597e+001 2.600000e+001 9.463160e+000
      vertex   -3.464597e+001 2.250000e+001 1.176316e+001
      vertex   -3.464597e+001 2.570480e+001 9.437333e+000
    endloop
  endfacet
  facet normal 1.000000e+000 0.000000e+000 -0.000000e+000
    outer loop
      vertex   -3.464597e+001 2.600000e+001 9.463160e+000
      vertex   -3.464597e+001 2.950000e+001 1.176316e+001
      vertex   -3.464597e+001 2.250000e+001 1.176316e+001
    endloop
  endfacet
  facet normal 1.000000e+000 -0.000000e+000 0.000000e+000
    outer loop
      vertex   -3.464597e+001 2.600000e+001 9.463160e+000
      vertex   -3.464597e+001 2.629520e+001 9.437333e+000
      vertex   -3.464597e+001 2.950000e+001 1.176316e+001
    endloop
  endfacet
  facet normal 1.000000e+000 0.000000e+000 0.000000e+000
    outer loop
      vertex   -3.464597e+001 2.950000e+001 1.176316e+001
      vertex   -3.464597e+001 2.629520e+001 9.437333e+000
      vertex   -3.464597e+001 2.658143e+001 9.360637e+000
    endloop
  endfacet
  facet normal 1.000000e+000 0.000000e+000 -0.000000e+000
    outer loop
      vertex   -3.464597e+001 2.685000e+001 9.235403e+000
      vertex   -3.464597e+001 2.950000e+001 1.176316e+001
      vertex   -3.464597e+001 2.658143e+001 9.360637e+000
    endloop
  endfacet
  facet normal 1.000000e+000 -0.000000e+000 0.000000e+000
    outer loop
      vertex   -3.464597e+001 2.685000e+001 9.235403e+000
      vertex   -3.464597e+001 2.709274e+001 9.065435e+000
      vertex   -3.464597e+001 2.950000e+001 1.176316e+001
    endloop
  endfacet
  facet normal 1.000000e+000 0.000000e+000 0.000000e+000
    outer loop
      vertex   -3.464597e+001 2.950000e+001 1.176316e+001
      vertex   -3.464597e+001 2.709274e+001 9.065435e+000
      vertex   -3.464597e+001 2.730228e+001 8.855899e+000
    endloop
  endfacet
  facet normal 1.000000e+000 0.000000e+000 -0.000000e+000
    outer loop
      vertex   -3.464597e+001 2.747224e+001 8.613160e+000
      vertex   -3.464597e+001 2.950000e+001 1.176316e+001
      vertex   -3.464597e+001 2.730228e+001 8.855899e+000
    endloop
  endfacet
  facet normal 1.000000e+000 -0.000000e+000 0.000000e+000
    outer loop
      vertex   -3.464597e+001 2.432583e+001 7.467958e+000
      vertex   -3.464597e+001 2.432583e+001 -7.467958e+000
      vertex   -3.464597e+001 2.440252e+001 7.181725e+000
    endloop
  endfacet
  facet normal 1.000000e+000 -0.000000e+000 0.000000e+000
    outer loop
      vertex   -3.464597e+001 2.432583e+001 7.467958e+000
      vertex   -3.464597e+001 2.250000e+001 -1.173684e+001
      vertex   -3.464597e+001 2.432583e+001 -7.467958e+000
    endloop
  endfacet
  facet normal 1.000000e+000 -0.000000e+000 0.000000e+000
    outer loop
      vertex   -3.464597e+001 2.432583e+001 -7.467958e+000
      vertex   -3.464597e+001 2.250000e+001 -1.173684e+001
      vertex   -3.464597e+001 2.430000e+001 -7.763160e+000
    endloop
  endfacet
  facet normal 1.000000e+000 -0.000000e+000 0.000000e+000
    outer loop
      vertex   -3.464597e+001 2.430000e+001 -7.763160e+000
      vertex   -3.464597e+001 2.250000e+001 -1.173684e+001
      vertex   -3.464597e+001 2.432583e+001 -8.058362e+000
    endloop
  endfacet
  facet normal 1.000000e+000 -0.000000e+000 0.000000e+000
    outer loop
      vertex   -3.464597e+001 2.432583e+001 -8.058362e+000
      vertex   -3.464597e+001 2.250000e+001 -1.173684e+001
      vertex   -3.464597e+001 2.440252e+001 -8.344594e+000
    endloop
  endfacet
  facet normal 1.000000e+000 -0.000000e+000 0.000000e+000
    outer loop
      vertex   -3.464597e+001 2.440252e+001 -8.344594e+000
      vertex   -3.464597e+001 2.250000e+001 -1.173684e+001
      vertex   -3.464597e+001 2.452776e+001 -8.613160e+000
    endloop
  endfacet
  facet normal 1.000000e+000 -0.000000e+000 0.000000e+000
    outer loop
      vertex   -3.464597e+001 2.452776e+001 -8.613160e+000
      vertex   -3.464597e+001 2.250000e+001 -1.173684e+001
      vertex   -3.464597e+001 2.469772e+001 -8.855899e+000
    endloop
  endfacet
  facet normal 1.000000e+000 -0.000000e+000 0.000000e+000
    outer loop
      vertex   -3.464597e+001 2.469772e+001 -8.855899e+000
      vertex   -3.464597e+001 2.250000e+001 -1.173684e+001
      vertex   -3.464597e+001 2.490726e+001 -9.065435e+000
    endloop
  endfacet
  facet normal 1.000000e+000 -0.000000e+000 0.000000e+000
    outer loop
      vertex   -3.464597e+001 2.490726e+001 -9.065435e+000
      vertex   -3.464597e+001 2.250000e+001 -1.173684e+001
      vertex   -3.464597e+001 2.515000e+001 -9.235403e+000
    endloop
  endfacet
  facet normal 1.000000e+000 -0.000000e+000 0.000000e+000
    outer loop
      vertex   -3.464597e+001 2.515000e+001 -9.235403e+000
      vertex   -3.464597e+001 2.250000e+001 -1.173684e+001
      vertex   -3.464597e+001 2.541857e+001 -9.360637e+000
    endloop
  endfacet
  facet normal 1.000000e+000 -0.000000e+000 0.000000e+000
    outer loop
      vertex   -3.464597e+001 2.541857e+001 -9.360637e+000
      vertex   -3.464597e+001 2.250000e+001 -1.173684e+001
      vertex   -3.464597e+001 2.570480e+001 -9.437333e+000
    endloop
  endfacet
  facet normal 1.000000e+000 -0.000000e+000 0.000000e+000
    outer loop
      vertex   -3.464597e+001 2.570480e+001 -9.437333e+000
      vertex   -3.464597e+001 2.250000e+001 -1.173684e+001
      vertex   -3.464597e+001 2.600000e+001 -9.463160e+000
    endloop
  endfacet
  facet normal 1.000000e+000 -0.000000e+000 0.000000e+000
    outer loop
      vertex   -3.464597e+001 2.600000e+001 -9.463160e+000
      vertex   -3.464597e+001 2.250000e+001 -1.173684e+001
      vertex   -3.464597e+001 2.950000e+001 -1.173684e+001
    endloop
  endfacet
  facet normal 1.000000e+000 -0.000000e+000 -0.000000e+000
    outer loop
      vertex   -3.464597e+001 2.629520e+001 -9.437333e+000
      vertex   -3.464597e+001 2.950000e+001 -1.173684e+001
      vertex   -3.464597e+001 2.658143e+001 -9.360637e+000
    endloop
  endfacet
  facet normal 1.000000e+000 0.000000e+000 0.000000e+000
    outer loop
      vertex   -3.464597e+001 2.629520e+001 -9.437333e+000
      vertex   -3.464597e+001 2.600000e+001 -9.463160e+000
      vertex   -3.464597e+001 2.950000e+001 -1.173684e+001
    endloop
  endfacet
  facet normal 1.000000e+000 -0.000000e+000 0.000000e+000
    outer loop
      vertex   -3.464597e+001 2.440252e+001 7.181725e+000
      vertex   -3.464597e+001 2.440252e+001 -7.181725e+000
      vertex   -3.464597e+001 2.452776e+001 6.913160e+000
    endloop
  endfacet
  facet normal 1.000000e+000 -0.000000e+000 0.000000e+000
    outer loop
      vertex   -3.464597e+001 2.440252e+001 7.181725e+000
      vertex   -3.464597e+001 2.432583e+001 -7.467958e+000
      vertex   -3.464597e+001 2.440252e+001 -7.181725e+000
    endloop
  endfacet
  facet normal 1.000000e+000 -0.000000e+000 0.000000e+000
    outer loop
      vertex   -3.464597e+001 2.452776e+001 6.913160e+000
      vertex   -3.464597e+001 2.452776e+001 -6.913160e+000
      vertex   -3.464597e+001 2.469772e+001 6.670421e+000
    endloop
  endfacet
  facet normal 1.000000e+000 -0.000000e+000 0.000000e+000
    outer loop
      vertex   -3.464597e+001 2.452776e+001 6.913160e+000
      vertex   -3.464597e+001 2.440252e+001 -7.181725e+000
      vertex   -3.464597e+001 2.452776e+001 -6.913160e+000
    endloop
  endfacet
  facet normal 1.000000e+000 -0.000000e+000 0.000000e+000
    outer loop
      vertex   -3.464597e+001 2.469772e+001 6.670421e+000
      vertex   -3.464597e+001 2.469772e+001 -6.670421e+000
      vertex   -3.464597e+001 2.490726e+001 6.460884e+000
    endloop
  endfacet
  facet normal 1.000000e+000 -0.000000e+000 0.000000e+000
    outer loop
      vertex   -3.464597e+001 2.469772e+001 6.670421e+000
      vertex   -3.464597e+001 2.452776e+001 -6.913160e+000
      vertex   -3.464597e+001 2.469772e+001 -6.670421e+000
    endloop
  endfacet
  facet normal 1.000000e+000 -0.000000e+000 0.000000e+000
    outer loop
      vertex   -3.464597e+001 2.490726e+001 6.460884e+000
      vertex   -3.464597e+001 2.490726e+001 -6.460884e+000
      vertex   -3.464597e+001 2.515000e+001 6.290916e+000
    endloop
  endfacet
  facet normal 1.000000e+000 -0.000000e+000 0.000000e+000
    outer loop
      vertex   -3.464597e+001 2.490726e+001 6.460884e+000
      vertex   -3.464597e+001 2.469772e+001 -6.670421e+000
      vertex   -3.464597e+001 2.490726e+001 -6.460884e+000
    endloop
  endfacet
  facet normal 1.000000e+000 -0.000000e+000 0.000000e+000
    outer loop
      vertex   -3.464597e+001 2.515000e+001 6.290916e+000
      vertex   -3.464597e+001 2.515000e+001 -6.290916e+000
      vertex   -3.464597e+001 2.541857e+001 6.165682e+000
    endloop
  endfacet
  facet normal 1.000000e+000 -0.000000e+000 0.000000e+000
    outer loop
      vertex   -3.464597e+001 2.515000e+001 6.290916e+000
      vertex   -3.464597e+001 2.490726e+001 -6.460884e+000
      vertex   -3.464597e+001 2.515000e+001 -6.290916e+000
    endloop
  endfacet
  facet normal 1.000000e+000 -0.000000e+000 0.000000e+000
    outer loop
      vertex   -3.464597e+001 2.541857e+001 6.165682e+000
      vertex   -3.464597e+001 2.541857e+001 -6.165682e+000
      vertex   -3.464597e+001 2.570480e+001 6.088986e+000
    endloop
  endfacet
  facet normal 1.000000e+000 -0.000000e+000 0.000000e+000
    outer loop
      vertex   -3.464597e+001 2.541857e+001 6.165682e+000
      vertex   -3.464597e+001 2.515000e+001 -6.290916e+000
      vertex   -3.464597e+001 2.541857e+001 -6.165682e+000
    endloop
  endfacet
  facet normal 1.000000e+000 -0.000000e+000 0.000000e+000
    outer loop
      vertex   -3.464597e+001 2.570480e+001 6.088986e+000
      vertex   -3.464597e+001 2.570480e+001 -6.088986e+000
      vertex   -3.464597e+001 2.600000e+001 6.063160e+000
    endloop
  endfacet
  facet normal 1.000000e+000 -0.000000e+000 0.000000e+000
    outer loop
      vertex   -3.464597e+001 2.570480e+001 6.088986e+000
      vertex   -3.464597e+001 2.541857e+001 -6.165682e+000
      vertex   -3.464597e+001 2.570480e+001 -6.088986e+000
    endloop
  endfacet
  facet normal 1.000000e+000 -0.000000e+000 0.000000e+000
    outer loop
      vertex   -3.464597e+001 2.770000e+001 7.763160e+000
      vertex   -3.464597e+001 2.767417e+001 7.467958e+000
      vertex   -3.464597e+001 2.950000e+001 1.176316e+001
    endloop
  endfacet
  facet normal 1.000000e+000 0.000000e+000 0.000000e+000
    outer loop
      vertex   -3.464597e+001 2.950000e+001 1.176316e+001
      vertex   -3.464597e+001 2.767417e+001 7.467958e+000
      vertex   -3.464597e+001 2.767417e+001 -7.467958e+000
    endloop
  endfacet
  facet normal 1.000000e+000 0.000000e+000 0.000000e+000
    outer loop
      vertex   -3.464597e+001 2.950000e+001 -1.173684e+001
      vertex   -3.464597e+001 2.767417e+001 -7.467958e+000
      vertex   -3.464597e+001 2.770000e+001 -7.763160e+000
    endloop
  endfacet
  facet normal 1.000000e+000 -0.000000e+000 -0.000000e+000
    outer loop
      vertex   -3.464597e+001 2.767417e+001 -8.058362e+000
      vertex   -3.464597e+001 2.950000e+001 -1.173684e+001
      vertex   -3.464597e+001 2.770000e+001 -7.763160e+000
    endloop
  endfacet
  facet normal 1.000000e+000 0.000000e+000 0.000000e+000
    outer loop
      vertex   -3.464597e+001 2.767417e+001 -8.058362e+000
      vertex   -3.464597e+001 2.759748e+001 -8.344594e+000
      vertex   -3.464597e+001 2.950000e+001 -1.173684e+001
    endloop
  endfacet
  facet normal 1.000000e+000 0.000000e+000 0.000000e+000
    outer loop
      vertex   -3.464597e+001 2.950000e+001 -1.173684e+001
      vertex   -3.464597e+001 2.759748e+001 -8.344594e+000
      vertex   -3.464597e+001 2.747224e+001 -8.613160e+000
    endloop
  endfacet
  facet normal 1.000000e+000 -0.000000e+000 -0.000000e+000
    outer loop
      vertex   -3.464597e+001 2.730228e+001 -8.855899e+000
      vertex   -3.464597e+001 2.950000e+001 -1.173684e+001
      vertex   -3.464597e+001 2.747224e+001 -8.613160e+000
    endloop
  endfacet
  facet normal 1.000000e+000 0.000000e+000 0.000000e+000
    outer loop
      vertex   -3.464597e+001 2.730228e+001 -8.855899e+000
      vertex   -3.464597e+001 2.709274e+001 -9.065435e+000
      vertex   -3.464597e+001 2.950000e+001 -1.173684e+001
    endloop
  endfacet
  facet normal 1.000000e+000 0.000000e+000 0.000000e+000
    outer loop
      vertex   -3.464597e+001 2.950000e+001 -1.173684e+001
      vertex   -3.464597e+001 2.709274e+001 -9.065435e+000
      vertex   -3.464597e+001 2.685000e+001 -9.235403e+000
    endloop
  endfacet
  facet normal 1.000000e+000 -0.000000e+000 -0.000000e+000
    outer loop
      vertex   -3.464597e+001 2.658143e+001 -9.360637e+000
      vertex   -3.464597e+001 2.950000e+001 -1.173684e+001
      vertex   -3.464597e+001 2.685000e+001 -9.235403e+000
    endloop
  endfacet
  facet normal 1.000000e+000 0.000000e+000 0.000000e+000
    outer loop
      vertex   -3.464597e+001 2.570480e+001 -6.088986e+000
      vertex   -3.464597e+001 2.600000e+001 -6.063160e+000
      vertex   -3.464597e+001 2.600000e+001 6.063160e+000
    endloop
  endfacet
  facet normal 1.000000e+000 -0.000000e+000 0.000000e+000
    outer loop
      vertex   -3.464597e+001 2.600000e+001 6.063160e+000
      vertex   -3.464597e+001 2.600000e+001 -6.063160e+000
      vertex   -3.464597e+001 2.629520e+001 6.088986e+000
    endloop
  endfacet
  facet normal 1.000000e+000 0.000000e+000 0.000000e+000
    outer loop
      vertex   -3.464597e+001 2.629520e+001 6.088986e+000
      vertex   -3.464597e+001 2.600000e+001 -6.063160e+000
      vertex   -3.464597e+001 2.629520e+001 -6.088986e+000
    endloop
  endfacet
  facet normal 1.000000e+000 0.000000e+000 0.000000e+000
    outer loop
      vertex   -3.464597e+001 2.658143e+001 6.165682e+000
      vertex   -3.464597e+001 2.629520e+001 -6.088986e+000
      vertex   -3.464597e+001 2.658143e+001 -6.165682e+000
    endloop
  endfacet
  facet normal 1.000000e+000 0.000000e+000 0.000000e+000
    outer loop
      vertex   -3.464597e+001 2.685000e+001 6.290916e+000
      vertex   -3.464597e+001 2.658143e+001 -6.165682e+000
      vertex   -3.464597e+001 2.685000e+001 -6.290916e+000
    endloop
  endfacet
  facet normal 1.000000e+000 0.000000e+000 0.000000e+000
    outer loop
      vertex   -3.464597e+001 2.709274e+001 6.460884e+000
      vertex   -3.464597e+001 2.685000e+001 -6.290916e+000
      vertex   -3.464597e+001 2.709274e+001 -6.460884e+000
    endloop
  endfacet
  facet normal 1.000000e+000 0.000000e+000 0.000000e+000
    outer loop
      vertex   -3.464597e+001 2.730228e+001 6.670421e+000
      vertex   -3.464597e+001 2.709274e+001 -6.460884e+000
      vertex   -3.464597e+001 2.730228e+001 -6.670421e+000
    endloop
  endfacet
  facet normal 1.000000e+000 0.000000e+000 0.000000e+000
    outer loop
      vertex   -3.464597e+001 2.747224e+001 6.913160e+000
      vertex   -3.464597e+001 2.730228e+001 -6.670421e+000
      vertex   -3.464597e+001 2.747224e+001 -6.913160e+000
    endloop
  endfacet
  facet normal 1.000000e+000 0.000000e+000 0.000000e+000
    outer loop
      vertex   -3.464597e+001 2.759748e+001 7.181725e+000
      vertex   -3.464597e+001 2.747224e+001 -6.913160e+000
      vertex   -3.464597e+001 2.759748e+001 -7.181725e+000
    endloop
  endfacet
  facet normal 1.000000e+000 0.000000e+000 0.000000e+000
    outer loop
      vertex   -3.464597e+001 2.767417e+001 7.467958e+000
      vertex   -3.464597e+001 2.759748e+001 -7.181725e+000
      vertex   -3.464597e+001 2.767417e+001 -7.467958e+000
    endloop
  endfacet
  facet normal 1.000000e+000 0.000000e+000 0.000000e+000
    outer loop
      vertex   -3.464597e+001 2.767417e+001 7.467958e+000
      vertex   -3.464597e+001 2.759748e+001 7.181725e+000
      vertex   -3.464597e+001 2.759748e+001 -7.181725e+000
    endloop
  endfacet
  facet normal 1.000000e+000 -0.000000e+000 0.000000e+000
    outer loop
      vertex   -3.464597e+001 2.767417e+001 -7.467958e+000
      vertex   -3.464597e+001 2.950000e+001 -1.173684e+001
      vertex   -3.464597e+001 2.950000e+001 1.176316e+001
    endloop
  endfacet
  facet normal 1.000000e+000 -0.000000e+000 0.000000e+000
    outer loop
      vertex   -3.464597e+001 2.629520e+001 6.088986e+000
      vertex   -3.464597e+001 2.629520e+001 -6.088986e+000
      vertex   -3.464597e+001 2.658143e+001 6.165682e+000
    endloop
  endfacet
  facet normal 1.000000e+000 -0.000000e+000 0.000000e+000
    outer loop
      vertex   -3.464597e+001 2.658143e+001 6.165682e+000
      vertex   -3.464597e+001 2.658143e+001 -6.165682e+000
      vertex   -3.464597e+001 2.685000e+001 6.290916e+000
    endloop
  endfacet
  facet normal 1.000000e+000 -0.000000e+000 0.000000e+000
    outer loop
      vertex   -3.464597e+001 2.685000e+001 6.290916e+000
      vertex   -3.464597e+001 2.685000e+001 -6.290916e+000
      vertex   -3.464597e+001 2.709274e+001 6.460884e+000
    endloop
  endfacet
  facet normal 1.000000e+000 -0.000000e+000 0.000000e+000
    outer loop
      vertex   -3.464597e+001 2.709274e+001 6.460884e+000
      vertex   -3.464597e+001 2.709274e+001 -6.460884e+000
      vertex   -3.464597e+001 2.730228e+001 6.670421e+000
    endloop
  endfacet
  facet normal 1.000000e+000 -0.000000e+000 0.000000e+000
    outer loop
      vertex   -3.464597e+001 2.730228e+001 6.670421e+000
      vertex   -3.464597e+001 2.730228e+001 -6.670421e+000
      vertex   -3.464597e+001 2.747224e+001 6.913160e+000
    endloop
  endfacet
  facet normal 1.000000e+000 -0.000000e+000 0.000000e+000
    outer loop
      vertex   -3.464597e+001 2.747224e+001 6.913160e+000
      vertex   -3.464597e+001 2.747224e+001 -6.913160e+000
      vertex   -3.464597e+001 2.759748e+001 7.181725e+000
    endloop
  endfacet
  facet normal 0.000000e+000 -9.961947e-001 8.715574e-002
    outer loop
      vertex   -3.764597e+001 2.767417e+001 -8.058362e+000
      vertex   -3.464597e+001 2.767417e+001 -8.058362e+000
      vertex   -3.764597e+001 2.770000e+001 -7.763160e+000
    endloop
  endfacet
  facet normal 0.000000e+000 -9.659258e-001 2.588190e-001
    outer loop
      vertex   -3.764597e+001 2.767417e+001 -8.058362e+000
      vertex   -3.464597e+001 2.759748e+001 -8.344594e+000
      vertex   -3.464597e+001 2.767417e+001 -8.058362e+000
    endloop
  endfacet
  facet normal 0.000000e+000 -9.659258e-001 2.588190e-001
    outer loop
      vertex   -3.764597e+001 2.767417e+001 -8.058362e+000
      vertex   -3.764597e+001 2.759748e+001 -8.344594e+000
      vertex   -3.464597e+001 2.759748e+001 -8.344594e+000
    endloop
  endfacet
  facet normal 0.000000e+000 -9.063078e-001 4.226183e-001
    outer loop
      vertex   -3.464597e+001 2.759748e+001 -8.344594e+000
      vertex   -3.764597e+001 2.759748e+001 -8.344594e+000
      vertex   -3.464597e+001 2.747224e+001 -8.613160e+000
    endloop
  endfacet
  facet normal 0.000000e+000 -9.063078e-001 4.226183e-001
    outer loop
      vertex   -3.464597e+001 2.747224e+001 -8.613160e+000
      vertex   -3.764597e+001 2.759748e+001 -8.344594e+000
      vertex   -3.764597e+001 2.747224e+001 -8.613160e+000
    endloop
  endfacet
  facet normal 0.000000e+000 -8.191520e-001 5.735764e-001
    outer loop
      vertex   -3.464597e+001 2.730228e+001 -8.855899e+000
      vertex   -3.764597e+001 2.747224e+001 -8.613160e+000
      vertex   -3.764597e+001 2.730228e+001 -8.855899e+000
    endloop
  endfacet
  facet normal 0.000000e+000 -7.071068e-001 7.071068e-001
    outer loop
      vertex   -3.464597e+001 2.709274e+001 -9.065435e+000
      vertex   -3.764597e+001 2.730228e+001 -8.855899e+000
      vertex   -3.764597e+001 2.709274e+001 -9.065435e+000
    endloop
  endfacet
  facet normal 0.000000e+000 -5.735764e-001 8.191520e-001
    outer loop
      vertex   -3.464597e+001 2.685000e+001 -9.235403e+000
      vertex   -3.764597e+001 2.709274e+001 -9.065435e+000
      vertex   -3.764597e+001 2.685000e+001 -9.235403e+000
    endloop
  endfacet
  facet normal 0.000000e+000 -4.226183e-001 9.063078e-001
    outer loop
      vertex   -3.464597e+001 2.658143e+001 -9.360637e+000
      vertex   -3.764597e+001 2.685000e+001 -9.235403e+000
      vertex   -3.764597e+001 2.658143e+001 -9.360637e+000
    endloop
  endfacet
  facet normal 0.000000e+000 -2.588190e-001 9.659258e-001
    outer loop
      vertex   -3.464597e+001 2.629520e+001 -9.437333e+000
      vertex   -3.764597e+001 2.658143e+001 -9.360637e+000
      vertex   -3.764597e+001 2.629520e+001 -9.437333e+000
    endloop
  endfacet
  facet normal 0.000000e+000 -8.715574e-002 9.961947e-001
    outer loop
      vertex   -3.464597e+001 2.600000e+001 -9.463160e+000
      vertex   -3.764597e+001 2.629520e+001 -9.437333e+000
      vertex   -3.764597e+001 2.600000e+001 -9.463160e+000
    endloop
  endfacet
  facet normal 0.000000e+000 8.715574e-002 9.961947e-001
    outer loop
      vertex   -3.464597e+001 2.570480e+001 -9.437333e+000
      vertex   -3.764597e+001 2.600000e+001 -9.463160e+000
      vertex   -3.764597e+001 2.570480e+001 -9.437333e+000
    endloop
  endfacet
  facet normal 0.000000e+000 2.588190e-001 9.659258e-001
    outer loop
      vertex   -3.464597e+001 2.541857e+001 -9.360637e+000
      vertex   -3.764597e+001 2.570480e+001 -9.437333e+000
      vertex   -3.764597e+001 2.541857e+001 -9.360637e+000
    endloop
  endfacet
  facet normal 0.000000e+000 4.226183e-001 9.063078e-001
    outer loop
      vertex   -3.464597e+001 2.515000e+001 -9.235403e+000
      vertex   -3.764597e+001 2.541857e+001 -9.360637e+000
      vertex   -3.764597e+001 2.515000e+001 -9.235403e+000
    endloop
  endfacet
  facet normal 0.000000e+000 5.735764e-001 8.191520e-001
    outer loop
      vertex   -3.464597e+001 2.490726e+001 -9.065435e+000
      vertex   -3.764597e+001 2.515000e+001 -9.235403e+000
      vertex   -3.764597e+001 2.490726e+001 -9.065435e+000
    endloop
  endfacet
  facet normal 0.000000e+000 7.071068e-001 7.071068e-001
    outer loop
      vertex   -3.464597e+001 2.469772e+001 -8.855899e+000
      vertex   -3.764597e+001 2.490726e+001 -9.065435e+000
      vertex   -3.764597e+001 2.469772e+001 -8.855899e+000
    endloop
  endfacet
  facet normal 0.000000e+000 8.191520e-001 5.735764e-001
    outer loop
      vertex   -3.464597e+001 2.452776e+001 -8.613160e+000
      vertex   -3.764597e+001 2.469772e+001 -8.855899e+000
      vertex   -3.764597e+001 2.452776e+001 -8.613160e+000
    endloop
  endfacet
  facet normal 0.000000e+000 9.063078e-001 4.226183e-001
    outer loop
      vertex   -3.464597e+001 2.440252e+001 -8.344594e+000
      vertex   -3.764597e+001 2.452776e+001 -8.613160e+000
      vertex   -3.764597e+001 2.440252e+001 -8.344594e+000
    endloop
  endfacet
  facet normal 0.000000e+000 9.659258e-001 2.588190e-001
    outer loop
      vertex   -3.464597e+001 2.432583e+001 -8.058362e+000
      vertex   -3.764597e+001 2.440252e+001 -8.344594e+000
      vertex   -3.764597e+001 2.432583e+001 -8.058362e+000
    endloop
  endfacet
  facet normal 0.000000e+000 9.961947e-001 8.715574e-002
    outer loop
      vertex   -3.464597e+001 2.430000e+001 -7.763160e+000
      vertex   -3.764597e+001 2.432583e+001 -8.058362e+000
      vertex   -3.764597e+001 2.430000e+001 -7.763160e+000
    endloop
  endfacet
  facet normal 0.000000e+000 9.961947e-001 -8.715574e-002
    outer loop
      vertex   -3.464597e+001 2.432583e+001 -7.467958e+000
      vertex   -3.764597e+001 2.430000e+001 -7.763160e+000
      vertex   -3.764597e+001 2.432583e+001 -7.467958e+000
    endloop
  endfacet
  facet normal 0.000000e+000 9.659258e-001 -2.588190e-001
    outer loop
      vertex   -3.464597e+001 2.440252e+001 -7.181725e+000
      vertex   -3.764597e+001 2.432583e+001 -7.467958e+000
      vertex   -3.764597e+001 2.440252e+001 -7.181725e+000
    endloop
  endfacet
  facet normal 0.000000e+000 9.063078e-001 -4.226183e-001
    outer loop
      vertex   -3.464597e+001 2.452776e+001 -6.913160e+000
      vertex   -3.764597e+001 2.440252e+001 -7.181725e+000
      vertex   -3.764597e+001 2.452776e+001 -6.913160e+000
    endloop
  endfacet
  facet normal 0.000000e+000 8.191520e-001 -5.735764e-001
    outer loop
      vertex   -3.464597e+001 2.469772e+001 -6.670421e+000
      vertex   -3.764597e+001 2.452776e+001 -6.913160e+000
      vertex   -3.764597e+001 2.469772e+001 -6.670421e+000
    endloop
  endfacet
  facet normal 0.000000e+000 7.071068e-001 -7.071068e-001
    outer loop
      vertex   -3.464597e+001 2.490726e+001 -6.460884e+000
      vertex   -3.764597e+001 2.469772e+001 -6.670421e+000
      vertex   -3.764597e+001 2.490726e+001 -6.460884e+000
    endloop
  endfacet
  facet normal 0.000000e+000 5.735764e-001 -8.191520e-001
    outer loop
      vertex   -3.464597e+001 2.515000e+001 -6.290916e+000
      vertex   -3.764597e+001 2.490726e+001 -6.460884e+000
      vertex   -3.764597e+001 2.515000e+001 -6.290916e+000
    endloop
  endfacet
  facet normal 0.000000e+000 4.226183e-001 -9.063078e-001
    outer loop
      vertex   -3.464597e+001 2.541857e+001 -6.165682e+000
      vertex   -3.764597e+001 2.515000e+001 -6.290916e+000
      vertex   -3.764597e+001 2.541857e+001 -6.165682e+000
    endloop
  endfacet
  facet normal 0.000000e+000 2.588190e-001 -9.659258e-001
    outer loop
      vertex   -3.464597e+001 2.570480e+001 -6.088986e+000
      vertex   -3.764597e+001 2.541857e+001 -6.165682e+000
      vertex   -3.764597e+001 2.570480e+001 -6.088986e+000
    endloop
  endfacet
  facet normal 0.000000e+000 8.715574e-002 -9.961947e-001
    outer loop
      vertex   -3.464597e+001 2.600000e+001 -6.063160e+000
      vertex   -3.764597e+001 2.570480e+001 -6.088986e+000
      vertex   -3.764597e+001 2.600000e+001 -6.063160e+000
    endloop
  endfacet
  facet normal 0.000000e+000 -8.715574e-002 -9.961947e-001
    outer loop
      vertex   -3.464597e+001 2.629520e+001 -6.088986e+000
      vertex   -3.764597e+001 2.600000e+001 -6.063160e+000
      vertex   -3.764597e+001 2.629520e+001 -6.088986e+000
    endloop
  endfacet
  facet normal 0.000000e+000 -2.588190e-001 -9.659258e-001
    outer loop
      vertex   -3.464597e+001 2.658143e+001 -6.165682e+000
      vertex   -3.764597e+001 2.629520e+001 -6.088986e+000
      vertex   -3.764597e+001 2.658143e+001 -6.165682e+000
    endloop
  endfacet
  facet normal 0.000000e+000 -4.226183e-001 -9.063078e-001
    outer loop
      vertex   -3.464597e+001 2.685000e+001 -6.290916e+000
      vertex   -3.764597e+001 2.658143e+001 -6.165682e+000
      vertex   -3.764597e+001 2.685000e+001 -6.290916e+000
    endloop
  endfacet
  facet normal 0.000000e+000 -5.735764e-001 -8.191520e-001
    outer loop
      vertex   -3.464597e+001 2.709274e+001 -6.460884e+000
      vertex   -3.764597e+001 2.685000e+001 -6.290916e+000
      vertex   -3.764597e+001 2.709274e+001 -6.460884e+000
    endloop
  endfacet
  facet normal 0.000000e+000 -7.071068e-001 -7.071068e-001
    outer loop
      vertex   -3.464597e+001 2.730228e+001 -6.670421e+000
      vertex   -3.764597e+001 2.709274e+001 -6.460884e+000
      vertex   -3.764597e+001 2.730228e+001 -6.670421e+000
    endloop
  endfacet
  facet normal 0.000000e+000 -8.191520e-001 -5.735764e-001
    outer loop
      vertex   -3.464597e+001 2.747224e+001 -6.913160e+000
      vertex   -3.764597e+001 2.730228e+001 -6.670421e+000
      vertex   -3.764597e+001 2.747224e+001 -6.913160e+000
    endloop
  endfacet
  facet normal 0.000000e+000 -9.063078e-001 -4.226183e-001
    outer loop
      vertex   -3.464597e+001 2.759748e+001 -7.181725e+000
      vertex   -3.764597e+001 2.747224e+001 -6.913160e+000
      vertex   -3.764597e+001 2.759748e+001 -7.181725e+000
    endloop
  endfacet
  facet normal 0.000000e+000 -9.659258e-001 -2.588190e-001
    outer loop
      vertex   -3.464597e+001 2.767417e+001 -7.467958e+000
      vertex   -3.764597e+001 2.759748e+001 -7.181725e+000
      vertex   -3.764597e+001 2.767417e+001 -7.467958e+000
    endloop
  endfacet
  facet normal 0.000000e+000 -9.961947e-001 -8.715574e-002
    outer loop
      vertex   -3.464597e+001 2.770000e+001 -7.763160e+000
      vertex   -3.764597e+001 2.767417e+001 -7.467958e+000
      vertex   -3.764597e+001 2.770000e+001 -7.763160e+000
    endloop
  endfacet
  facet normal 0.000000e+000 -9.961947e-001 8.715574e-002
    outer loop
      vertex   -3.464597e+001 2.767417e+001 -8.058362e+000
      vertex   -3.464597e+001 2.770000e+001 -7.763160e+000
      vertex   -3.764597e+001 2.770000e+001 -7.763160e+000
    endloop
  endfacet
  facet normal -0.000000e+000 -9.961947e-001 -8.715574e-002
    outer loop
      vertex   -3.464597e+001 2.770000e+001 -7.763160e+000
      vertex   -3.464597e+001 2.767417e+001 -7.467958e+000
      vertex   -3.764597e+001 2.767417e+001 -7.467958e+000
    endloop
  endfacet
  facet normal -0.000000e+000 -9.659258e-001 -2.588190e-001
    outer loop
      vertex   -3.464597e+001 2.767417e+001 -7.467958e+000
      vertex   -3.464597e+001 2.759748e+001 -7.181725e+000
      vertex   -3.764597e+001 2.759748e+001 -7.181725e+000
    endloop
  endfacet
  facet normal -0.000000e+000 -9.063078e-001 -4.226183e-001
    outer loop
      vertex   -3.464597e+001 2.759748e+001 -7.181725e+000
      vertex   -3.464597e+001 2.747224e+001 -6.913160e+000
      vertex   -3.764597e+001 2.747224e+001 -6.913160e+000
    endloop
  endfacet
  facet normal -0.000000e+000 -8.191520e-001 -5.735764e-001
    outer loop
      vertex   -3.464597e+001 2.747224e+001 -6.913160e+000
      vertex   -3.464597e+001 2.730228e+001 -6.670421e+000
      vertex   -3.764597e+001 2.730228e+001 -6.670421e+000
    endloop
  endfacet
  facet normal -0.000000e+000 -7.071068e-001 -7.071068e-001
    outer loop
      vertex   -3.464597e+001 2.730228e+001 -6.670421e+000
      vertex   -3.464597e+001 2.709274e+001 -6.460884e+000
      vertex   -3.764597e+001 2.709274e+001 -6.460884e+000
    endloop
  endfacet
  facet normal -0.000000e+000 -5.735764e-001 -8.191520e-001
    outer loop
      vertex   -3.464597e+001 2.709274e+001 -6.460884e+000
      vertex   -3.464597e+001 2.685000e+001 -6.290916e+000
      vertex   -3.764597e+001 2.685000e+001 -6.290916e+000
    endloop
  endfacet
  facet normal -0.000000e+000 -4.226183e-001 -9.063078e-001
    outer loop
      vertex   -3.464597e+001 2.685000e+001 -6.290916e+000
      vertex   -3.464597e+001 2.658143e+001 -6.165682e+000
      vertex   -3.764597e+001 2.658143e+001 -6.165682e+000
    endloop
  endfacet
  facet normal -0.000000e+000 -2.588190e-001 -9.659258e-001
    outer loop
      vertex   -3.464597e+001 2.658143e+001 -6.165682e+000
      vertex   -3.464597e+001 2.629520e+001 -6.088986e+000
      vertex   -3.764597e+001 2.629520e+001 -6.088986e+000
    endloop
  endfacet
  facet normal -0.000000e+000 -8.715574e-002 -9.961947e-001
    outer loop
      vertex   -3.464597e+001 2.629520e+001 -6.088986e+000
      vertex   -3.464597e+001 2.600000e+001 -6.063160e+000
      vertex   -3.764597e+001 2.600000e+001 -6.063160e+000
    endloop
  endfacet
  facet normal 0.000000e+000 8.715574e-002 -9.961947e-001
    outer loop
      vertex   -3.464597e+001 2.600000e+001 -6.063160e+000
      vertex   -3.464597e+001 2.570480e+001 -6.088986e+000
      vertex   -3.764597e+001 2.570480e+001 -6.088986e+000
    endloop
  endfacet
  facet normal 0.000000e+000 2.588190e-001 -9.659258e-001
    outer loop
      vertex   -3.464597e+001 2.570480e+001 -6.088986e+000
      vertex   -3.464597e+001 2.541857e+001 -6.165682e+000
      vertex   -3.764597e+001 2.541857e+001 -6.165682e+000
    endloop
  endfacet
  facet normal 0.000000e+000 4.226183e-001 -9.063078e-001
    outer loop
      vertex   -3.464597e+001 2.541857e+001 -6.165682e+000
      vertex   -3.464597e+001 2.515000e+001 -6.290916e+000
      vertex   -3.764597e+001 2.515000e+001 -6.290916e+000
    endloop
  endfacet
  facet normal 0.000000e+000 5.735764e-001 -8.191520e-001
    outer loop
      vertex   -3.464597e+001 2.515000e+001 -6.290916e+000
      vertex   -3.464597e+001 2.490726e+001 -6.460884e+000
      vertex   -3.764597e+001 2.490726e+001 -6.460884e+000
    endloop
  endfacet
  facet normal 0.000000e+000 7.071068e-001 -7.071068e-001
    outer loop
      vertex   -3.464597e+001 2.490726e+001 -6.460884e+000
      vertex   -3.464597e+001 2.469772e+001 -6.670421e+000
      vertex   -3.764597e+001 2.469772e+001 -6.670421e+000
    endloop
  endfacet
  facet normal 0.000000e+000 8.191520e-001 -5.735764e-001
    outer loop
      vertex   -3.464597e+001 2.469772e+001 -6.670421e+000
      vertex   -3.464597e+001 2.452776e+001 -6.913160e+000
      vertex   -3.764597e+001 2.452776e+001 -6.913160e+000
    endloop
  endfacet
  facet normal 0.000000e+000 9.063078e-001 -4.226183e-001
    outer loop
      vertex   -3.464597e+001 2.452776e+001 -6.913160e+000
      vertex   -3.464597e+001 2.440252e+001 -7.181725e+000
      vertex   -3.764597e+001 2.440252e+001 -7.181725e+000
    endloop
  endfacet
  facet normal 0.000000e+000 9.659258e-001 -2.588190e-001
    outer loop
      vertex   -3.464597e+001 2.440252e+001 -7.181725e+000
      vertex   -3.464597e+001 2.432583e+001 -7.467958e+000
      vertex   -3.764597e+001 2.432583e+001 -7.467958e+000
    endloop
  endfacet
  facet normal 0.000000e+000 9.961947e-001 -8.715574e-002
    outer loop
      vertex   -3.464597e+001 2.432583e+001 -7.467958e+000
      vertex   -3.464597e+001 2.430000e+001 -7.763160e+000
      vertex   -3.764597e+001 2.430000e+001 -7.763160e+000
    endloop
  endfacet
  facet normal 0.000000e+000 9.961947e-001 8.715574e-002
    outer loop
      vertex   -3.464597e+001 2.430000e+001 -7.763160e+000
      vertex   -3.464597e+001 2.432583e+001 -8.058362e+000
      vertex   -3.764597e+001 2.432583e+001 -8.058362e+000
    endloop
  endfacet
  facet normal 0.000000e+000 9.659258e-001 2.588190e-001
    outer loop
      vertex   -3.464597e+001 2.432583e+001 -8.058362e+000
      vertex   -3.464597e+001 2.440252e+001 -8.344594e+000
      vertex   -3.764597e+001 2.440252e+001 -8.344594e+000
    endloop
  endfacet
  facet normal 0.000000e+000 9.063078e-001 4.226183e-001
    outer loop
      vertex   -3.464597e+001 2.440252e+001 -8.344594e+000
      vertex   -3.464597e+001 2.452776e+001 -8.613160e+000
      vertex   -3.764597e+001 2.452776e+001 -8.613160e+000
    endloop
  endfacet
  facet normal 0.000000e+000 8.191520e-001 5.735764e-001
    outer loop
      vertex   -3.464597e+001 2.452776e+001 -8.613160e+000
      vertex   -3.464597e+001 2.469772e+001 -8.855899e+000
      vertex   -3.764597e+001 2.469772e+001 -8.855899e+000
    endloop
  endfacet
  facet normal 0.000000e+000 7.071068e-001 7.071068e-001
    outer loop
      vertex   -3.464597e+001 2.469772e+001 -8.855899e+000
      vertex   -3.464597e+001 2.490726e+001 -9.065435e+000
      vertex   -3.764597e+001 2.490726e+001 -9.065435e+000
    endloop
  endfacet
  facet normal 0.000000e+000 5.735764e-001 8.191520e-001
    outer loop
      vertex   -3.464597e+001 2.490726e+001 -9.065435e+000
      vertex   -3.464597e+001 2.515000e+001 -9.235403e+000
      vertex   -3.764597e+001 2.515000e+001 -9.235403e+000
    endloop
  endfacet
  facet normal 0.000000e+000 4.226183e-001 9.063078e-001
    outer loop
      vertex   -3.464597e+001 2.515000e+001 -9.235403e+000
      vertex   -3.464597e+001 2.541857e+001 -9.360637e+000
      vertex   -3.764597e+001 2.541857e+001 -9.360637e+000
    endloop
  endfacet
  facet normal 0.000000e+000 2.588190e-001 9.659258e-001
    outer loop
      vertex   -3.464597e+001 2.541857e+001 -9.360637e+000
      vertex   -3.464597e+001 2.570480e+001 -9.437333e+000
      vertex   -3.764597e+001 2.570480e+001 -9.437333e+000
    endloop
  endfacet
  facet normal 0.000000e+000 8.715574e-002 9.961947e-001
    outer loop
      vertex   -3.464597e+001 2.570480e+001 -9.437333e+000
      vertex   -3.464597e+001 2.600000e+001 -9.463160e+000
      vertex   -3.764597e+001 2.600000e+001 -9.463160e+000
    endloop
  endfacet
  facet normal 0.000000e+000 -8.715574e-002 9.961947e-001
    outer loop
      vertex   -3.464597e+001 2.600000e+001 -9.463160e+000
      vertex   -3.464597e+001 2.629520e+001 -9.437333e+000
      vertex   -3.764597e+001 2.629520e+001 -9.437333e+000
    endloop
  endfacet
  facet normal 0.000000e+000 -2.588190e-001 9.659258e-001
    outer loop
      vertex   -3.464597e+001 2.629520e+001 -9.437333e+000
      vertex   -3.464597e+001 2.658143e+001 -9.360637e+000
      vertex   -3.764597e+001 2.658143e+001 -9.360637e+000
    endloop
  endfacet
  facet normal 0.000000e+000 -4.226183e-001 9.063078e-001
    outer loop
      vertex   -3.464597e+001 2.658143e+001 -9.360637e+000
      vertex   -3.464597e+001 2.685000e+001 -9.235403e+000
      vertex   -3.764597e+001 2.685000e+001 -9.235403e+000
    endloop
  endfacet
  facet normal 0.000000e+000 -5.735764e-001 8.191520e-001
    outer loop
      vertex   -3.464597e+001 2.685000e+001 -9.235403e+000
      vertex   -3.464597e+001 2.709274e+001 -9.065435e+000
      vertex   -3.764597e+001 2.709274e+001 -9.065435e+000
    endloop
  endfacet
  facet normal 0.000000e+000 -7.071068e-001 7.071068e-001
    outer loop
      vertex   -3.464597e+001 2.709274e+001 -9.065435e+000
      vertex   -3.464597e+001 2.730228e+001 -8.855899e+000
      vertex   -3.764597e+001 2.730228e+001 -8.855899e+000
    endloop
  endfacet
  facet normal 0.000000e+000 -8.191520e-001 5.735764e-001
    outer loop
      vertex   -3.464597e+001 2.730228e+001 -8.855899e+000
      vertex   -3.464597e+001 2.747224e+001 -8.613160e+000
      vertex   -3.764597e+001 2.747224e+001 -8.613160e+000
    endloop
  endfacet
  facet normal 0.000000e+000 0.000000e+000 -1.000000e+000
    outer loop
      vertex   -3.464597e+001 2.250000e+001 -1.173684e+001
      vertex   -3.764597e+001 2.250000e+001 -1.173684e+001
      vertex   -3.464597e+001 2.950000e+001 -1.173684e+001
    endloop
  endfacet
  facet normal -0.000000e+000 0.000000e+000 -1.000000e+000
    outer loop
      vertex   -3.464597e+001 2.950000e+001 -1.173684e+001
      vertex   -3.764597e+001 2.250000e+001 -1.173684e+001
      vertex   -3.764597e+001 2.950000e+001 -1.173684e+001
    endloop
  endfacet
endsolid
