solid ascii
  facet normal 0.000000e+000 0.000000e+000 1.000000e+000
    outer loop
      vertex   1.050000e+002 3.183935e+001 6.000000e+000
      vertex   7.700000e+001 3.183935e+001 6.000000e+000
      vertex   9.900000e+001 2.913025e+001 6.000000e+000
    endloop
  endfacet
  facet normal 0.000000e+000 -0.000000e+000 1.000000e+000
    outer loop
      vertex   1.018500e+002 2.748480e+001 6.000000e+000
      vertex   1.050000e+002 3.183935e+001 6.000000e+000
      vertex   9.900000e+001 2.913025e+001 6.000000e+000
    endloop
  endfacet
  facet normal -0.000000e+000 0.000000e+000 1.000000e+000
    outer loop
      vertex   1.018500e+002 2.748480e+001 6.000000e+000
      vertex   1.050000e+002 1.983935e+001 6.000000e+000
      vertex   1.050000e+002 3.183935e+001 6.000000e+000
    endloop
  endfacet
  facet normal 0.000000e+000 0.000000e+000 1.000000e+000
    outer loop
      vertex   1.018500e+002 2.748480e+001 6.000000e+000
      vertex   1.018500e+002 2.419391e+001 6.000000e+000
      vertex   1.050000e+002 1.983935e+001 6.000000e+000
    endloop
  endfacet
  facet normal 0.000000e+000 0.000000e+000 1.000000e+000
    outer loop
      vertex   1.050000e+002 1.983935e+001 6.000000e+000
      vertex   1.018500e+002 2.419391e+001 6.000000e+000
      vertex   9.900000e+001 2.254846e+001 6.000000e+000
    endloop
  endfacet
  facet normal 0.000000e+000 -0.000000e+000 1.000000e+000
    outer loop
      vertex   8.300000e+001 2.254846e+001 6.000000e+000
      vertex   9.900000e+001 2.254846e+001 6.000000e+000
      vertex   8.585000e+001 2.419391e+001 6.000000e+000
    endloop
  endfacet
  facet normal -0.000000e+000 -0.000000e+000 1.000000e+000
    outer loop
      vertex   8.300000e+001 2.254846e+001 6.000000e+000
      vertex   1.050000e+002 1.983935e+001 6.000000e+000
      vertex   9.900000e+001 2.254846e+001 6.000000e+000
    endloop
  endfacet
  facet normal -0.000000e+000 0.000000e+000 1.000000e+000
    outer loop
      vertex   8.300000e+001 2.254846e+001 6.000000e+000
      vertex   7.700000e+001 1.983935e+001 6.000000e+000
      vertex   1.050000e+002 1.983935e+001 6.000000e+000
    endloop
  endfacet
  facet normal 0.000000e+000 0.000000e+000 1.000000e+000
    outer loop
      vertex   8.300000e+001 2.254846e+001 6.000000e+000
      vertex   8.015000e+001 2.419391e+001 6.000000e+000
      vertex   7.700000e+001 1.983935e+001 6.000000e+000
    endloop
  endfacet
  facet normal 0.000000e+000 0.000000e+000 1.000000e+000
    outer loop
      vertex   7.700000e+001 1.983935e+001 6.000000e+000
      vertex   8.015000e+001 2.419391e+001 6.000000e+000
      vertex   8.015000e+001 2.748480e+001 6.000000e+000
    endloop
  endfacet
  facet normal -0.000000e+000 0.000000e+000 1.000000e+000
    outer loop
      vertex   7.700000e+001 3.183935e+001 6.000000e+000
      vertex   8.015000e+001 2.748480e+001 6.000000e+000
      vertex   8.300000e+001 2.913025e+001 6.000000e+000
    endloop
  endfacet
  facet normal 0.000000e+000 0.000000e+000 1.000000e+000
    outer loop
      vertex   9.900000e+001 2.913025e+001 6.000000e+000
      vertex   8.300000e+001 2.913025e+001 6.000000e+000
      vertex   9.615000e+001 2.748480e+001 6.000000e+000
    endloop
  endfacet
  facet normal 0.000000e+000 0.000000e+000 1.000000e+000
    outer loop
      vertex   9.900000e+001 2.913025e+001 6.000000e+000
      vertex   7.700000e+001 3.183935e+001 6.000000e+000
      vertex   8.300000e+001 2.913025e+001 6.000000e+000
    endloop
  endfacet
  facet normal 0.000000e+000 0.000000e+000 1.000000e+000
    outer loop
      vertex   9.615000e+001 2.748480e+001 6.000000e+000
      vertex   8.585000e+001 2.748480e+001 6.000000e+000
      vertex   9.615000e+001 2.419391e+001 6.000000e+000
    endloop
  endfacet
  facet normal 0.000000e+000 0.000000e+000 1.000000e+000
    outer loop
      vertex   9.615000e+001 2.748480e+001 6.000000e+000
      vertex   8.300000e+001 2.913025e+001 6.000000e+000
      vertex   8.585000e+001 2.748480e+001 6.000000e+000
    endloop
  endfacet
  facet normal -0.000000e+000 0.000000e+000 1.000000e+000
    outer loop
      vertex   7.700000e+001 3.183935e+001 6.000000e+000
      vertex   7.700000e+001 1.983935e+001 6.000000e+000
      vertex   8.015000e+001 2.748480e+001 6.000000e+000
    endloop
  endfacet
  facet normal -0.000000e+000 0.000000e+000 1.000000e+000
    outer loop
      vertex   8.585000e+001 2.748480e+001 6.000000e+000
      vertex   8.585000e+001 2.419391e+001 6.000000e+000
      vertex   9.615000e+001 2.419391e+001 6.000000e+000
    endloop
  endfacet
  facet normal 0.000000e+000 0.000000e+000 1.000000e+000
    outer loop
      vertex   9.615000e+001 2.419391e+001 6.000000e+000
      vertex   8.585000e+001 2.419391e+001 6.000000e+000
      vertex   9.900000e+001 2.254846e+001 6.000000e+000
    endloop
  endfacet
  facet normal -1.000000e+000 0.000000e+000 0.000000e+000
    outer loop
      vertex   7.700000e+001 1.983935e+001 0.000000e+000
      vertex   7.700000e+001 1.983935e+001 6.000000e+000
      vertex   7.700000e+001 3.183935e+001 0.000000e+000
    endloop
  endfacet
  facet normal -1.000000e+000 0.000000e+000 0.000000e+000
    outer loop
      vertex   7.700000e+001 3.183935e+001 0.000000e+000
      vertex   7.700000e+001 1.983935e+001 6.000000e+000
      vertex   7.700000e+001 3.183935e+001 6.000000e+000
    endloop
  endfacet
  facet normal 0.000000e+000 0.000000e+000 1.000000e+000
    outer loop
      vertex   8.140252e+001 2.525792e+001 3.000000e+000
      vertex   8.132583e+001 2.554415e+001 3.000000e+000
      vertex   8.015000e+001 2.419391e+001 3.000000e+000
    endloop
  endfacet
  facet normal -0.000000e+000 0.000000e+000 1.000000e+000
    outer loop
      vertex   8.152776e+001 2.498935e+001 3.000000e+000
      vertex   8.015000e+001 2.419391e+001 3.000000e+000
      vertex   8.169772e+001 2.474662e+001 3.000000e+000
    endloop
  endfacet
  facet normal 0.000000e+000 0.000000e+000 1.000000e+000
    outer loop
      vertex   8.152776e+001 2.498935e+001 3.000000e+000
      vertex   8.140252e+001 2.525792e+001 3.000000e+000
      vertex   8.015000e+001 2.419391e+001 3.000000e+000
    endloop
  endfacet
  facet normal 0.000000e+000 0.000000e+000 1.000000e+000
    outer loop
      vertex   8.270480e+001 2.416518e+001 3.000000e+000
      vertex   8.241857e+001 2.424188e+001 3.000000e+000
      vertex   8.300000e+001 2.254846e+001 3.000000e+000
    endloop
  endfacet
  facet normal -0.000000e+000 0.000000e+000 1.000000e+000
    outer loop
      vertex   8.300000e+001 2.413935e+001 3.000000e+000
      vertex   8.300000e+001 2.254846e+001 3.000000e+000
      vertex   8.329520e+001 2.416518e+001 3.000000e+000
    endloop
  endfacet
  facet normal 0.000000e+000 0.000000e+000 1.000000e+000
    outer loop
      vertex   8.300000e+001 2.413935e+001 3.000000e+000
      vertex   8.270480e+001 2.416518e+001 3.000000e+000
      vertex   8.300000e+001 2.254846e+001 3.000000e+000
    endloop
  endfacet
  facet normal 0.000000e+000 0.000000e+000 1.000000e+000
    outer loop
      vertex   8.430228e+001 2.474662e+001 3.000000e+000
      vertex   8.409274e+001 2.453708e+001 3.000000e+000
      vertex   8.585000e+001 2.419391e+001 3.000000e+000
    endloop
  endfacet
  facet normal -0.000000e+000 -0.000000e+000 1.000000e+000
    outer loop
      vertex   8.447224e+001 2.498935e+001 3.000000e+000
      vertex   8.585000e+001 2.419391e+001 3.000000e+000
      vertex   8.459748e+001 2.525792e+001 3.000000e+000
    endloop
  endfacet
  facet normal 0.000000e+000 0.000000e+000 1.000000e+000
    outer loop
      vertex   8.447224e+001 2.498935e+001 3.000000e+000
      vertex   8.430228e+001 2.474662e+001 3.000000e+000
      vertex   8.585000e+001 2.419391e+001 3.000000e+000
    endloop
  endfacet
  facet normal -0.000000e+000 0.000000e+000 1.000000e+000
    outer loop
      vertex   8.459748e+001 2.642079e+001 3.000000e+000
      vertex   8.467417e+001 2.613456e+001 3.000000e+000
      vertex   8.585000e+001 2.748480e+001 3.000000e+000
    endloop
  endfacet
  facet normal 0.000000e+000 -0.000000e+000 1.000000e+000
    outer loop
      vertex   8.447224e+001 2.668935e+001 3.000000e+000
      vertex   8.585000e+001 2.748480e+001 3.000000e+000
      vertex   8.430228e+001 2.693209e+001 3.000000e+000
    endloop
  endfacet
  facet normal -0.000000e+000 0.000000e+000 1.000000e+000
    outer loop
      vertex   8.447224e+001 2.668935e+001 3.000000e+000
      vertex   8.459748e+001 2.642079e+001 3.000000e+000
      vertex   8.585000e+001 2.748480e+001 3.000000e+000
    endloop
  endfacet
  facet normal -0.000000e+000 -0.000000e+000 1.000000e+000
    outer loop
      vertex   8.329520e+001 2.751353e+001 3.000000e+000
      vertex   8.358143e+001 2.743683e+001 3.000000e+000
      vertex   8.300000e+001 2.913025e+001 3.000000e+000
    endloop
  endfacet
  facet normal 0.000000e+000 0.000000e+000 1.000000e+000
    outer loop
      vertex   8.300000e+001 2.753935e+001 3.000000e+000
      vertex   8.300000e+001 2.913025e+001 3.000000e+000
      vertex   8.270480e+001 2.751353e+001 3.000000e+000
    endloop
  endfacet
  facet normal -0.000000e+000 -0.000000e+000 1.000000e+000
    outer loop
      vertex   8.300000e+001 2.753935e+001 3.000000e+000
      vertex   8.329520e+001 2.751353e+001 3.000000e+000
      vertex   8.300000e+001 2.913025e+001 3.000000e+000
    endloop
  endfacet
  facet normal 0.000000e+000 -0.000000e+000 1.000000e+000
    outer loop
      vertex   8.169772e+001 2.693209e+001 3.000000e+000
      vertex   8.190726e+001 2.714163e+001 3.000000e+000
      vertex   8.015000e+001 2.748480e+001 3.000000e+000
    endloop
  endfacet
  facet normal 0.000000e+000 0.000000e+000 1.000000e+000
    outer loop
      vertex   8.152776e+001 2.668935e+001 3.000000e+000
      vertex   8.015000e+001 2.748480e+001 3.000000e+000
      vertex   8.140252e+001 2.642079e+001 3.000000e+000
    endloop
  endfacet
  facet normal 0.000000e+000 -0.000000e+000 1.000000e+000
    outer loop
      vertex   8.152776e+001 2.668935e+001 3.000000e+000
      vertex   8.169772e+001 2.693209e+001 3.000000e+000
      vertex   8.015000e+001 2.748480e+001 3.000000e+000
    endloop
  endfacet
  facet normal 0.000000e+000 0.000000e+000 1.000000e+000
    outer loop
      vertex   8.132583e+001 2.613456e+001 3.000000e+000
      vertex   8.015000e+001 2.748480e+001 3.000000e+000
      vertex   8.130000e+001 2.583935e+001 3.000000e+000
    endloop
  endfacet
  facet normal 0.000000e+000 -0.000000e+000 1.000000e+000
    outer loop
      vertex   8.132583e+001 2.613456e+001 3.000000e+000
      vertex   8.140252e+001 2.642079e+001 3.000000e+000
      vertex   8.015000e+001 2.748480e+001 3.000000e+000
    endloop
  endfacet
  facet normal 0.000000e+000 -0.000000e+000 1.000000e+000
    outer loop
      vertex   8.190726e+001 2.714163e+001 3.000000e+000
      vertex   8.215000e+001 2.731160e+001 3.000000e+000
      vertex   8.015000e+001 2.748480e+001 3.000000e+000
    endloop
  endfacet
  facet normal -0.000000e+000 0.000000e+000 1.000000e+000
    outer loop
      vertex   8.015000e+001 2.748480e+001 3.000000e+000
      vertex   8.215000e+001 2.731160e+001 3.000000e+000
      vertex   8.300000e+001 2.913025e+001 3.000000e+000
    endloop
  endfacet
  facet normal -0.000000e+000 0.000000e+000 1.000000e+000
    outer loop
      vertex   8.300000e+001 2.913025e+001 3.000000e+000
      vertex   8.215000e+001 2.731160e+001 3.000000e+000
      vertex   8.241857e+001 2.743683e+001 3.000000e+000
    endloop
  endfacet
  facet normal 0.000000e+000 -0.000000e+000 1.000000e+000
    outer loop
      vertex   8.270480e+001 2.751353e+001 3.000000e+000
      vertex   8.300000e+001 2.913025e+001 3.000000e+000
      vertex   8.241857e+001 2.743683e+001 3.000000e+000
    endloop
  endfacet
  facet normal -0.000000e+000 -0.000000e+000 1.000000e+000
    outer loop
      vertex   8.358143e+001 2.743683e+001 3.000000e+000
      vertex   8.385000e+001 2.731160e+001 3.000000e+000
      vertex   8.300000e+001 2.913025e+001 3.000000e+000
    endloop
  endfacet
  facet normal -0.000000e+000 0.000000e+000 1.000000e+000
    outer loop
      vertex   8.300000e+001 2.913025e+001 3.000000e+000
      vertex   8.385000e+001 2.731160e+001 3.000000e+000
      vertex   8.585000e+001 2.748480e+001 3.000000e+000
    endloop
  endfacet
  facet normal 0.000000e+000 0.000000e+000 1.000000e+000
    outer loop
      vertex   8.585000e+001 2.748480e+001 3.000000e+000
      vertex   8.385000e+001 2.731160e+001 3.000000e+000
      vertex   8.409274e+001 2.714163e+001 3.000000e+000
    endloop
  endfacet
  facet normal 0.000000e+000 -0.000000e+000 1.000000e+000
    outer loop
      vertex   8.430228e+001 2.693209e+001 3.000000e+000
      vertex   8.585000e+001 2.748480e+001 3.000000e+000
      vertex   8.409274e+001 2.714163e+001 3.000000e+000
    endloop
  endfacet
  facet normal -0.000000e+000 0.000000e+000 1.000000e+000
    outer loop
      vertex   8.467417e+001 2.613456e+001 3.000000e+000
      vertex   8.470000e+001 2.583935e+001 3.000000e+000
      vertex   8.585000e+001 2.748480e+001 3.000000e+000
    endloop
  endfacet
  facet normal 0.000000e+000 0.000000e+000 1.000000e+000
    outer loop
      vertex   8.585000e+001 2.748480e+001 3.000000e+000
      vertex   8.470000e+001 2.583935e+001 3.000000e+000
      vertex   8.585000e+001 2.419391e+001 3.000000e+000
    endloop
  endfacet
  facet normal 0.000000e+000 0.000000e+000 1.000000e+000
    outer loop
      vertex   8.585000e+001 2.419391e+001 3.000000e+000
      vertex   8.470000e+001 2.583935e+001 3.000000e+000
      vertex   8.467417e+001 2.554415e+001 3.000000e+000
    endloop
  endfacet
  facet normal -0.000000e+000 -0.000000e+000 1.000000e+000
    outer loop
      vertex   8.459748e+001 2.525792e+001 3.000000e+000
      vertex   8.585000e+001 2.419391e+001 3.000000e+000
      vertex   8.467417e+001 2.554415e+001 3.000000e+000
    endloop
  endfacet
  facet normal 0.000000e+000 0.000000e+000 1.000000e+000
    outer loop
      vertex   8.409274e+001 2.453708e+001 3.000000e+000
      vertex   8.385000e+001 2.436711e+001 3.000000e+000
      vertex   8.585000e+001 2.419391e+001 3.000000e+000
    endloop
  endfacet
  facet normal 0.000000e+000 0.000000e+000 1.000000e+000
    outer loop
      vertex   8.585000e+001 2.419391e+001 3.000000e+000
      vertex   8.385000e+001 2.436711e+001 3.000000e+000
      vertex   8.300000e+001 2.254846e+001 3.000000e+000
    endloop
  endfacet
  facet normal 0.000000e+000 -0.000000e+000 1.000000e+000
    outer loop
      vertex   8.300000e+001 2.254846e+001 3.000000e+000
      vertex   8.385000e+001 2.436711e+001 3.000000e+000
      vertex   8.358143e+001 2.424188e+001 3.000000e+000
    endloop
  endfacet
  facet normal -0.000000e+000 0.000000e+000 1.000000e+000
    outer loop
      vertex   8.329520e+001 2.416518e+001 3.000000e+000
      vertex   8.300000e+001 2.254846e+001 3.000000e+000
      vertex   8.358143e+001 2.424188e+001 3.000000e+000
    endloop
  endfacet
  facet normal 0.000000e+000 0.000000e+000 1.000000e+000
    outer loop
      vertex   8.241857e+001 2.424188e+001 3.000000e+000
      vertex   8.215000e+001 2.436711e+001 3.000000e+000
      vertex   8.300000e+001 2.254846e+001 3.000000e+000
    endloop
  endfacet
  facet normal 0.000000e+000 0.000000e+000 1.000000e+000
    outer loop
      vertex   8.300000e+001 2.254846e+001 3.000000e+000
      vertex   8.215000e+001 2.436711e+001 3.000000e+000
      vertex   8.015000e+001 2.419391e+001 3.000000e+000
    endloop
  endfacet
  facet normal 0.000000e+000 -0.000000e+000 1.000000e+000
    outer loop
      vertex   8.015000e+001 2.419391e+001 3.000000e+000
      vertex   8.215000e+001 2.436711e+001 3.000000e+000
      vertex   8.190726e+001 2.453708e+001 3.000000e+000
    endloop
  endfacet
  facet normal -0.000000e+000 0.000000e+000 1.000000e+000
    outer loop
      vertex   8.169772e+001 2.474662e+001 3.000000e+000
      vertex   8.015000e+001 2.419391e+001 3.000000e+000
      vertex   8.190726e+001 2.453708e+001 3.000000e+000
    endloop
  endfacet
  facet normal 0.000000e+000 0.000000e+000 1.000000e+000
    outer loop
      vertex   8.132583e+001 2.554415e+001 3.000000e+000
      vertex   8.130000e+001 2.583935e+001 3.000000e+000
      vertex   8.015000e+001 2.419391e+001 3.000000e+000
    endloop
  endfacet
  facet normal 0.000000e+000 -0.000000e+000 1.000000e+000
    outer loop
      vertex   8.015000e+001 2.419391e+001 3.000000e+000
      vertex   8.130000e+001 2.583935e+001 3.000000e+000
      vertex   8.015000e+001 2.748480e+001 3.000000e+000
    endloop
  endfacet
  facet normal 1.000000e+000 -1.278197e-012 0.000000e+000
    outer loop
      vertex   8.015000e+001 2.419391e+001 6.000000e+000
      vertex   8.015000e+001 2.419391e+001 3.000000e+000
      vertex   8.015000e+001 2.748480e+001 6.000000e+000
    endloop
  endfacet
  facet normal 1.000000e+000 -1.278197e-012 0.000000e+000
    outer loop
      vertex   8.015000e+001 2.748480e+001 6.000000e+000
      vertex   8.015000e+001 2.419391e+001 3.000000e+000
      vertex   8.015000e+001 2.748480e+001 3.000000e+000
    endloop
  endfacet
  facet normal 5.000000e-001 -8.660254e-001 0.000000e+000
    outer loop
      vertex   8.015000e+001 2.748480e+001 6.000000e+000
      vertex   8.015000e+001 2.748480e+001 3.000000e+000
      vertex   8.300000e+001 2.913025e+001 6.000000e+000
    endloop
  endfacet
  facet normal 5.000000e-001 -8.660254e-001 0.000000e+000
    outer loop
      vertex   8.300000e+001 2.913025e+001 6.000000e+000
      vertex   8.015000e+001 2.748480e+001 3.000000e+000
      vertex   8.300000e+001 2.913025e+001 3.000000e+000
    endloop
  endfacet
  facet normal 9.961947e-001 8.715574e-002 0.000000e+000
    outer loop
      vertex   9.732583e+001 2.554415e+001 3.000000e+000
      vertex   9.732583e+001 2.554415e+001 0.000000e+000
      vertex   9.730000e+001 2.583935e+001 3.000000e+000
    endloop
  endfacet
  facet normal 9.659258e-001 2.588190e-001 0.000000e+000
    outer loop
      vertex   9.732583e+001 2.554415e+001 3.000000e+000
      vertex   9.740252e+001 2.525792e+001 0.000000e+000
      vertex   9.732583e+001 2.554415e+001 0.000000e+000
    endloop
  endfacet
  facet normal 9.659258e-001 2.588190e-001 0.000000e+000
    outer loop
      vertex   9.732583e+001 2.554415e+001 3.000000e+000
      vertex   9.740252e+001 2.525792e+001 3.000000e+000
      vertex   9.740252e+001 2.525792e+001 0.000000e+000
    endloop
  endfacet
  facet normal 9.063078e-001 4.226183e-001 -0.000000e+000
    outer loop
      vertex   9.740252e+001 2.525792e+001 0.000000e+000
      vertex   9.740252e+001 2.525792e+001 3.000000e+000
      vertex   9.752776e+001 2.498935e+001 0.000000e+000
    endloop
  endfacet
  facet normal 9.063078e-001 4.226183e-001 0.000000e+000
    outer loop
      vertex   9.752776e+001 2.498935e+001 0.000000e+000
      vertex   9.740252e+001 2.525792e+001 3.000000e+000
      vertex   9.752776e+001 2.498935e+001 3.000000e+000
    endloop
  endfacet
  facet normal 8.191520e-001 5.735764e-001 0.000000e+000
    outer loop
      vertex   9.769772e+001 2.474662e+001 0.000000e+000
      vertex   9.752776e+001 2.498935e+001 3.000000e+000
      vertex   9.769772e+001 2.474662e+001 3.000000e+000
    endloop
  endfacet
  facet normal 7.071068e-001 7.071068e-001 0.000000e+000
    outer loop
      vertex   9.790726e+001 2.453708e+001 0.000000e+000
      vertex   9.769772e+001 2.474662e+001 3.000000e+000
      vertex   9.790726e+001 2.453708e+001 3.000000e+000
    endloop
  endfacet
  facet normal 5.735764e-001 8.191520e-001 0.000000e+000
    outer loop
      vertex   9.815000e+001 2.436711e+001 0.000000e+000
      vertex   9.790726e+001 2.453708e+001 3.000000e+000
      vertex   9.815000e+001 2.436711e+001 3.000000e+000
    endloop
  endfacet
  facet normal 4.226183e-001 9.063078e-001 0.000000e+000
    outer loop
      vertex   9.841857e+001 2.424188e+001 0.000000e+000
      vertex   9.815000e+001 2.436711e+001 3.000000e+000
      vertex   9.841857e+001 2.424188e+001 3.000000e+000
    endloop
  endfacet
  facet normal 2.588190e-001 9.659258e-001 0.000000e+000
    outer loop
      vertex   9.870480e+001 2.416518e+001 0.000000e+000
      vertex   9.841857e+001 2.424188e+001 3.000000e+000
      vertex   9.870480e+001 2.416518e+001 3.000000e+000
    endloop
  endfacet
  facet normal 8.715574e-002 9.961947e-001 0.000000e+000
    outer loop
      vertex   9.900000e+001 2.413935e+001 0.000000e+000
      vertex   9.870480e+001 2.416518e+001 3.000000e+000
      vertex   9.900000e+001 2.413935e+001 3.000000e+000
    endloop
  endfacet
  facet normal -8.715574e-002 9.961947e-001 0.000000e+000
    outer loop
      vertex   9.929520e+001 2.416518e+001 0.000000e+000
      vertex   9.900000e+001 2.413935e+001 3.000000e+000
      vertex   9.929520e+001 2.416518e+001 3.000000e+000
    endloop
  endfacet
  facet normal -2.588190e-001 9.659258e-001 0.000000e+000
    outer loop
      vertex   9.958143e+001 2.424188e+001 0.000000e+000
      vertex   9.929520e+001 2.416518e+001 3.000000e+000
      vertex   9.958143e+001 2.424188e+001 3.000000e+000
    endloop
  endfacet
  facet normal -4.226183e-001 9.063078e-001 0.000000e+000
    outer loop
      vertex   9.985000e+001 2.436711e+001 0.000000e+000
      vertex   9.958143e+001 2.424188e+001 3.000000e+000
      vertex   9.985000e+001 2.436711e+001 3.000000e+000
    endloop
  endfacet
  facet normal -5.735764e-001 8.191520e-001 0.000000e+000
    outer loop
      vertex   1.000927e+002 2.453708e+001 0.000000e+000
      vertex   9.985000e+001 2.436711e+001 3.000000e+000
      vertex   1.000927e+002 2.453708e+001 3.000000e+000
    endloop
  endfacet
  facet normal -7.071068e-001 7.071068e-001 0.000000e+000
    outer loop
      vertex   1.003023e+002 2.474662e+001 0.000000e+000
      vertex   1.000927e+002 2.453708e+001 3.000000e+000
      vertex   1.003023e+002 2.474662e+001 3.000000e+000
    endloop
  endfacet
  facet normal -8.191520e-001 5.735764e-001 -6.790681e-016
    outer loop
      vertex   1.004722e+002 2.498935e+001 0.000000e+000
      vertex   1.003023e+002 2.474662e+001 3.000000e+000
      vertex   1.004722e+002 2.498935e+001 3.000000e+000
    endloop
  endfacet
  facet normal -9.063078e-001 4.226183e-001 0.000000e+000
    outer loop
      vertex   1.005975e+002 2.525792e+001 0.000000e+000
      vertex   1.004722e+002 2.498935e+001 3.000000e+000
      vertex   1.005975e+002 2.525792e+001 3.000000e+000
    endloop
  endfacet
  facet normal -9.659258e-001 2.588190e-001 0.000000e+000
    outer loop
      vertex   1.006742e+002 2.554415e+001 0.000000e+000
      vertex   1.005975e+002 2.525792e+001 3.000000e+000
      vertex   1.006742e+002 2.554415e+001 3.000000e+000
    endloop
  endfacet
  facet normal -9.961947e-001 8.715574e-002 0.000000e+000
    outer loop
      vertex   1.007000e+002 2.583935e+001 0.000000e+000
      vertex   1.006742e+002 2.554415e+001 3.000000e+000
      vertex   1.007000e+002 2.583935e+001 3.000000e+000
    endloop
  endfacet
  facet normal -9.961947e-001 -8.715574e-002 0.000000e+000
    outer loop
      vertex   1.006742e+002 2.613456e+001 0.000000e+000
      vertex   1.007000e+002 2.583935e+001 3.000000e+000
      vertex   1.006742e+002 2.613456e+001 3.000000e+000
    endloop
  endfacet
  facet normal -9.659258e-001 -2.588190e-001 -3.044098e-016
    outer loop
      vertex   1.005975e+002 2.642079e+001 0.000000e+000
      vertex   1.006742e+002 2.613456e+001 3.000000e+000
      vertex   1.005975e+002 2.642079e+001 3.000000e+000
    endloop
  endfacet
  facet normal -9.063078e-001 -4.226183e-001 0.000000e+000
    outer loop
      vertex   1.004722e+002 2.668935e+001 0.000000e+000
      vertex   1.005975e+002 2.642079e+001 3.000000e+000
      vertex   1.004722e+002 2.668935e+001 3.000000e+000
    endloop
  endfacet
  facet normal -8.191520e-001 -5.735764e-001 0.000000e+000
    outer loop
      vertex   1.003023e+002 2.693209e+001 0.000000e+000
      vertex   1.004722e+002 2.668935e+001 3.000000e+000
      vertex   1.003023e+002 2.693209e+001 3.000000e+000
    endloop
  endfacet
  facet normal -7.071068e-001 -7.071068e-001 0.000000e+000
    outer loop
      vertex   1.000927e+002 2.714163e+001 0.000000e+000
      vertex   1.003023e+002 2.693209e+001 3.000000e+000
      vertex   1.000927e+002 2.714163e+001 3.000000e+000
    endloop
  endfacet
  facet normal -5.735764e-001 -8.191520e-001 0.000000e+000
    outer loop
      vertex   9.985000e+001 2.731160e+001 0.000000e+000
      vertex   1.000927e+002 2.714163e+001 3.000000e+000
      vertex   9.985000e+001 2.731160e+001 3.000000e+000
    endloop
  endfacet
  facet normal -4.226183e-001 -9.063078e-001 0.000000e+000
    outer loop
      vertex   9.958143e+001 2.743683e+001 0.000000e+000
      vertex   9.985000e+001 2.731160e+001 3.000000e+000
      vertex   9.958143e+001 2.743683e+001 3.000000e+000
    endloop
  endfacet
  facet normal -2.588190e-001 -9.659258e-001 0.000000e+000
    outer loop
      vertex   9.929520e+001 2.751353e+001 0.000000e+000
      vertex   9.958143e+001 2.743683e+001 3.000000e+000
      vertex   9.929520e+001 2.751353e+001 3.000000e+000
    endloop
  endfacet
  facet normal -8.715574e-002 -9.961947e-001 0.000000e+000
    outer loop
      vertex   9.900000e+001 2.753935e+001 0.000000e+000
      vertex   9.929520e+001 2.751353e+001 3.000000e+000
      vertex   9.900000e+001 2.753935e+001 3.000000e+000
    endloop
  endfacet
  facet normal 8.715574e-002 -9.961947e-001 0.000000e+000
    outer loop
      vertex   9.870480e+001 2.751353e+001 0.000000e+000
      vertex   9.900000e+001 2.753935e+001 3.000000e+000
      vertex   9.870480e+001 2.751353e+001 3.000000e+000
    endloop
  endfacet
  facet normal 2.588190e-001 -9.659258e-001 0.000000e+000
    outer loop
      vertex   9.841857e+001 2.743683e+001 0.000000e+000
      vertex   9.870480e+001 2.751353e+001 3.000000e+000
      vertex   9.841857e+001 2.743683e+001 3.000000e+000
    endloop
  endfacet
  facet normal 4.226183e-001 -9.063078e-001 0.000000e+000
    outer loop
      vertex   9.815000e+001 2.731160e+001 0.000000e+000
      vertex   9.841857e+001 2.743683e+001 3.000000e+000
      vertex   9.815000e+001 2.731160e+001 3.000000e+000
    endloop
  endfacet
  facet normal 5.735764e-001 -8.191520e-001 0.000000e+000
    outer loop
      vertex   9.790726e+001 2.714163e+001 0.000000e+000
      vertex   9.815000e+001 2.731160e+001 3.000000e+000
      vertex   9.790726e+001 2.714163e+001 3.000000e+000
    endloop
  endfacet
  facet normal 7.071068e-001 -7.071068e-001 0.000000e+000
    outer loop
      vertex   9.769772e+001 2.693209e+001 0.000000e+000
      vertex   9.790726e+001 2.714163e+001 3.000000e+000
      vertex   9.769772e+001 2.693209e+001 3.000000e+000
    endloop
  endfacet
  facet normal 8.191520e-001 -5.735764e-001 6.790681e-016
    outer loop
      vertex   9.752776e+001 2.668935e+001 0.000000e+000
      vertex   9.769772e+001 2.693209e+001 3.000000e+000
      vertex   9.752776e+001 2.668935e+001 3.000000e+000
    endloop
  endfacet
  facet normal 9.063078e-001 -4.226183e-001 4.995443e-016
    outer loop
      vertex   9.740252e+001 2.642079e+001 0.000000e+000
      vertex   9.752776e+001 2.668935e+001 3.000000e+000
      vertex   9.740252e+001 2.642079e+001 3.000000e+000
    endloop
  endfacet
  facet normal 9.659258e-001 -2.588190e-001 0.000000e+000
    outer loop
      vertex   9.732583e+001 2.613456e+001 0.000000e+000
      vertex   9.740252e+001 2.642079e+001 3.000000e+000
      vertex   9.732583e+001 2.613456e+001 3.000000e+000
    endloop
  endfacet
  facet normal 9.961947e-001 -8.715574e-002 0.000000e+000
    outer loop
      vertex   9.730000e+001 2.583935e+001 0.000000e+000
      vertex   9.732583e+001 2.613456e+001 3.000000e+000
      vertex   9.730000e+001 2.583935e+001 3.000000e+000
    endloop
  endfacet
  facet normal 9.961947e-001 8.715574e-002 -0.000000e+000
    outer loop
      vertex   9.732583e+001 2.554415e+001 0.000000e+000
      vertex   9.730000e+001 2.583935e+001 0.000000e+000
      vertex   9.730000e+001 2.583935e+001 3.000000e+000
    endloop
  endfacet
  facet normal -9.961947e-001 8.715574e-002 0.000000e+000
    outer loop
      vertex   1.007000e+002 2.583935e+001 0.000000e+000
      vertex   1.006742e+002 2.554415e+001 0.000000e+000
      vertex   1.006742e+002 2.554415e+001 3.000000e+000
    endloop
  endfacet
  facet normal -9.659258e-001 2.588190e-001 0.000000e+000
    outer loop
      vertex   1.006742e+002 2.554415e+001 0.000000e+000
      vertex   1.005975e+002 2.525792e+001 0.000000e+000
      vertex   1.005975e+002 2.525792e+001 3.000000e+000
    endloop
  endfacet
  facet normal -9.063078e-001 4.226183e-001 -5.004806e-016
    outer loop
      vertex   1.005975e+002 2.525792e+001 0.000000e+000
      vertex   1.004722e+002 2.498935e+001 0.000000e+000
      vertex   1.004722e+002 2.498935e+001 3.000000e+000
    endloop
  endfacet
  facet normal -8.191520e-001 5.735764e-001 0.000000e+000
    outer loop
      vertex   1.004722e+002 2.498935e+001 0.000000e+000
      vertex   1.003023e+002 2.474662e+001 0.000000e+000
      vertex   1.003023e+002 2.474662e+001 3.000000e+000
    endloop
  endfacet
  facet normal -7.071068e-001 7.071068e-001 0.000000e+000
    outer loop
      vertex   1.003023e+002 2.474662e+001 0.000000e+000
      vertex   1.000927e+002 2.453708e+001 0.000000e+000
      vertex   1.000927e+002 2.453708e+001 3.000000e+000
    endloop
  endfacet
  facet normal -5.735764e-001 8.191520e-001 0.000000e+000
    outer loop
      vertex   1.000927e+002 2.453708e+001 0.000000e+000
      vertex   9.985000e+001 2.436711e+001 0.000000e+000
      vertex   9.985000e+001 2.436711e+001 3.000000e+000
    endloop
  endfacet
  facet normal -4.226183e-001 9.063078e-001 0.000000e+000
    outer loop
      vertex   9.985000e+001 2.436711e+001 0.000000e+000
      vertex   9.958143e+001 2.424188e+001 0.000000e+000
      vertex   9.958143e+001 2.424188e+001 3.000000e+000
    endloop
  endfacet
  facet normal -2.588190e-001 9.659258e-001 0.000000e+000
    outer loop
      vertex   9.958143e+001 2.424188e+001 0.000000e+000
      vertex   9.929520e+001 2.416518e+001 0.000000e+000
      vertex   9.929520e+001 2.416518e+001 3.000000e+000
    endloop
  endfacet
  facet normal -8.715574e-002 9.961947e-001 0.000000e+000
    outer loop
      vertex   9.929520e+001 2.416518e+001 0.000000e+000
      vertex   9.900000e+001 2.413935e+001 0.000000e+000
      vertex   9.900000e+001 2.413935e+001 3.000000e+000
    endloop
  endfacet
  facet normal 8.715574e-002 9.961947e-001 -0.000000e+000
    outer loop
      vertex   9.900000e+001 2.413935e+001 0.000000e+000
      vertex   9.870480e+001 2.416518e+001 0.000000e+000
      vertex   9.870480e+001 2.416518e+001 3.000000e+000
    endloop
  endfacet
  facet normal 2.588190e-001 9.659258e-001 -0.000000e+000
    outer loop
      vertex   9.870480e+001 2.416518e+001 0.000000e+000
      vertex   9.841857e+001 2.424188e+001 0.000000e+000
      vertex   9.841857e+001 2.424188e+001 3.000000e+000
    endloop
  endfacet
  facet normal 4.226183e-001 9.063078e-001 -0.000000e+000
    outer loop
      vertex   9.841857e+001 2.424188e+001 0.000000e+000
      vertex   9.815000e+001 2.436711e+001 0.000000e+000
      vertex   9.815000e+001 2.436711e+001 3.000000e+000
    endloop
  endfacet
  facet normal 5.735764e-001 8.191520e-001 -0.000000e+000
    outer loop
      vertex   9.815000e+001 2.436711e+001 0.000000e+000
      vertex   9.790726e+001 2.453708e+001 0.000000e+000
      vertex   9.790726e+001 2.453708e+001 3.000000e+000
    endloop
  endfacet
  facet normal 7.071068e-001 7.071068e-001 -0.000000e+000
    outer loop
      vertex   9.790726e+001 2.453708e+001 0.000000e+000
      vertex   9.769772e+001 2.474662e+001 0.000000e+000
      vertex   9.769772e+001 2.474662e+001 3.000000e+000
    endloop
  endfacet
  facet normal 8.191520e-001 5.735764e-001 -0.000000e+000
    outer loop
      vertex   9.769772e+001 2.474662e+001 0.000000e+000
      vertex   9.752776e+001 2.498935e+001 0.000000e+000
      vertex   9.752776e+001 2.498935e+001 3.000000e+000
    endloop
  endfacet
  facet normal 9.961947e-001 -8.715574e-002 0.000000e+000
    outer loop
      vertex   9.730000e+001 2.583935e+001 0.000000e+000
      vertex   9.732583e+001 2.613456e+001 0.000000e+000
      vertex   9.732583e+001 2.613456e+001 3.000000e+000
    endloop
  endfacet
  facet normal 9.659258e-001 -2.588190e-001 3.065033e-016
    outer loop
      vertex   9.732583e+001 2.613456e+001 0.000000e+000
      vertex   9.740252e+001 2.642079e+001 0.000000e+000
      vertex   9.740252e+001 2.642079e+001 3.000000e+000
    endloop
  endfacet
  facet normal 9.063078e-001 -4.226183e-001 5.004806e-016
    outer loop
      vertex   9.740252e+001 2.642079e+001 0.000000e+000
      vertex   9.752776e+001 2.668935e+001 0.000000e+000
      vertex   9.752776e+001 2.668935e+001 3.000000e+000
    endloop
  endfacet
  facet normal 8.191520e-001 -5.735764e-001 0.000000e+000
    outer loop
      vertex   9.752776e+001 2.668935e+001 0.000000e+000
      vertex   9.769772e+001 2.693209e+001 0.000000e+000
      vertex   9.769772e+001 2.693209e+001 3.000000e+000
    endloop
  endfacet
  facet normal 7.071068e-001 -7.071068e-001 0.000000e+000
    outer loop
      vertex   9.769772e+001 2.693209e+001 0.000000e+000
      vertex   9.790726e+001 2.714163e+001 0.000000e+000
      vertex   9.790726e+001 2.714163e+001 3.000000e+000
    endloop
  endfacet
  facet normal 5.735764e-001 -8.191520e-001 0.000000e+000
    outer loop
      vertex   9.790726e+001 2.714163e+001 0.000000e+000
      vertex   9.815000e+001 2.731160e+001 0.000000e+000
      vertex   9.815000e+001 2.731160e+001 3.000000e+000
    endloop
  endfacet
  facet normal 4.226183e-001 -9.063078e-001 0.000000e+000
    outer loop
      vertex   9.815000e+001 2.731160e+001 0.000000e+000
      vertex   9.841857e+001 2.743683e+001 0.000000e+000
      vertex   9.841857e+001 2.743683e+001 3.000000e+000
    endloop
  endfacet
  facet normal 2.588190e-001 -9.659258e-001 0.000000e+000
    outer loop
      vertex   9.841857e+001 2.743683e+001 0.000000e+000
      vertex   9.870480e+001 2.751353e+001 0.000000e+000
      vertex   9.870480e+001 2.751353e+001 3.000000e+000
    endloop
  endfacet
  facet normal 8.715574e-002 -9.961947e-001 0.000000e+000
    outer loop
      vertex   9.870480e+001 2.751353e+001 0.000000e+000
      vertex   9.900000e+001 2.753935e+001 0.000000e+000
      vertex   9.900000e+001 2.753935e+001 3.000000e+000
    endloop
  endfacet
  facet normal -8.715574e-002 -9.961947e-001 0.000000e+000
    outer loop
      vertex   9.900000e+001 2.753935e+001 0.000000e+000
      vertex   9.929520e+001 2.751353e+001 0.000000e+000
      vertex   9.929520e+001 2.751353e+001 3.000000e+000
    endloop
  endfacet
  facet normal -2.588190e-001 -9.659258e-001 0.000000e+000
    outer loop
      vertex   9.929520e+001 2.751353e+001 0.000000e+000
      vertex   9.958143e+001 2.743683e+001 0.000000e+000
      vertex   9.958143e+001 2.743683e+001 3.000000e+000
    endloop
  endfacet
  facet normal -4.226183e-001 -9.063078e-001 0.000000e+000
    outer loop
      vertex   9.958143e+001 2.743683e+001 0.000000e+000
      vertex   9.985000e+001 2.731160e+001 0.000000e+000
      vertex   9.985000e+001 2.731160e+001 3.000000e+000
    endloop
  endfacet
  facet normal -5.735764e-001 -8.191520e-001 0.000000e+000
    outer loop
      vertex   9.985000e+001 2.731160e+001 0.000000e+000
      vertex   1.000927e+002 2.714163e+001 0.000000e+000
      vertex   1.000927e+002 2.714163e+001 3.000000e+000
    endloop
  endfacet
  facet normal -7.071068e-001 -7.071068e-001 0.000000e+000
    outer loop
      vertex   1.000927e+002 2.714163e+001 0.000000e+000
      vertex   1.003023e+002 2.693209e+001 0.000000e+000
      vertex   1.003023e+002 2.693209e+001 3.000000e+000
    endloop
  endfacet
  facet normal -8.191520e-001 -5.735764e-001 0.000000e+000
    outer loop
      vertex   1.003023e+002 2.693209e+001 0.000000e+000
      vertex   1.004722e+002 2.668935e+001 0.000000e+000
      vertex   1.004722e+002 2.668935e+001 3.000000e+000
    endloop
  endfacet
  facet normal -9.063078e-001 -4.226183e-001 -5.004806e-016
    outer loop
      vertex   1.004722e+002 2.668935e+001 0.000000e+000
      vertex   1.005975e+002 2.642079e+001 0.000000e+000
      vertex   1.005975e+002 2.642079e+001 3.000000e+000
    endloop
  endfacet
  facet normal -9.659258e-001 -2.588190e-001 0.000000e+000
    outer loop
      vertex   1.005975e+002 2.642079e+001 0.000000e+000
      vertex   1.006742e+002 2.613456e+001 0.000000e+000
      vertex   1.006742e+002 2.613456e+001 3.000000e+000
    endloop
  endfacet
  facet normal -9.961947e-001 -8.715574e-002 0.000000e+000
    outer loop
      vertex   1.006742e+002 2.613456e+001 0.000000e+000
      vertex   1.007000e+002 2.583935e+001 0.000000e+000
      vertex   1.007000e+002 2.583935e+001 3.000000e+000
    endloop
  endfacet
  facet normal 0.000000e+000 0.000000e+000 1.000000e+000
    outer loop
      vertex   9.740252e+001 2.525792e+001 3.000000e+000
      vertex   9.732583e+001 2.554415e+001 3.000000e+000
      vertex   9.615000e+001 2.419391e+001 3.000000e+000
    endloop
  endfacet
  facet normal -0.000000e+000 0.000000e+000 1.000000e+000
    outer loop
      vertex   9.752776e+001 2.498935e+001 3.000000e+000
      vertex   9.615000e+001 2.419391e+001 3.000000e+000
      vertex   9.769772e+001 2.474662e+001 3.000000e+000
    endloop
  endfacet
  facet normal 0.000000e+000 0.000000e+000 1.000000e+000
    outer loop
      vertex   9.752776e+001 2.498935e+001 3.000000e+000
      vertex   9.740252e+001 2.525792e+001 3.000000e+000
      vertex   9.615000e+001 2.419391e+001 3.000000e+000
    endloop
  endfacet
  facet normal 0.000000e+000 0.000000e+000 1.000000e+000
    outer loop
      vertex   9.870480e+001 2.416518e+001 3.000000e+000
      vertex   9.841857e+001 2.424188e+001 3.000000e+000
      vertex   9.900000e+001 2.254846e+001 3.000000e+000
    endloop
  endfacet
  facet normal -0.000000e+000 0.000000e+000 1.000000e+000
    outer loop
      vertex   9.900000e+001 2.413935e+001 3.000000e+000
      vertex   9.900000e+001 2.254846e+001 3.000000e+000
      vertex   9.929520e+001 2.416518e+001 3.000000e+000
    endloop
  endfacet
  facet normal 0.000000e+000 0.000000e+000 1.000000e+000
    outer loop
      vertex   9.900000e+001 2.413935e+001 3.000000e+000
      vertex   9.870480e+001 2.416518e+001 3.000000e+000
      vertex   9.900000e+001 2.254846e+001 3.000000e+000
    endloop
  endfacet
  facet normal 0.000000e+000 0.000000e+000 1.000000e+000
    outer loop
      vertex   1.003023e+002 2.474662e+001 3.000000e+000
      vertex   1.000927e+002 2.453708e+001 3.000000e+000
      vertex   1.018500e+002 2.419391e+001 3.000000e+000
    endloop
  endfacet
  facet normal -0.000000e+000 -0.000000e+000 1.000000e+000
    outer loop
      vertex   1.004722e+002 2.498935e+001 3.000000e+000
      vertex   1.018500e+002 2.419391e+001 3.000000e+000
      vertex   1.005975e+002 2.525792e+001 3.000000e+000
    endloop
  endfacet
  facet normal 0.000000e+000 0.000000e+000 1.000000e+000
    outer loop
      vertex   1.004722e+002 2.498935e+001 3.000000e+000
      vertex   1.003023e+002 2.474662e+001 3.000000e+000
      vertex   1.018500e+002 2.419391e+001 3.000000e+000
    endloop
  endfacet
  facet normal -0.000000e+000 0.000000e+000 1.000000e+000
    outer loop
      vertex   1.005975e+002 2.642079e+001 3.000000e+000
      vertex   1.006742e+002 2.613456e+001 3.000000e+000
      vertex   1.018500e+002 2.748480e+001 3.000000e+000
    endloop
  endfacet
  facet normal 0.000000e+000 -0.000000e+000 1.000000e+000
    outer loop
      vertex   1.004722e+002 2.668935e+001 3.000000e+000
      vertex   1.018500e+002 2.748480e+001 3.000000e+000
      vertex   1.003023e+002 2.693209e+001 3.000000e+000
    endloop
  endfacet
  facet normal -0.000000e+000 0.000000e+000 1.000000e+000
    outer loop
      vertex   1.004722e+002 2.668935e+001 3.000000e+000
      vertex   1.005975e+002 2.642079e+001 3.000000e+000
      vertex   1.018500e+002 2.748480e+001 3.000000e+000
    endloop
  endfacet
  facet normal -0.000000e+000 -0.000000e+000 1.000000e+000
    outer loop
      vertex   9.929520e+001 2.751353e+001 3.000000e+000
      vertex   9.958143e+001 2.743683e+001 3.000000e+000
      vertex   9.900000e+001 2.913025e+001 3.000000e+000
    endloop
  endfacet
  facet normal 0.000000e+000 0.000000e+000 1.000000e+000
    outer loop
      vertex   9.900000e+001 2.753935e+001 3.000000e+000
      vertex   9.900000e+001 2.913025e+001 3.000000e+000
      vertex   9.870480e+001 2.751353e+001 3.000000e+000
    endloop
  endfacet
  facet normal -0.000000e+000 -0.000000e+000 1.000000e+000
    outer loop
      vertex   9.900000e+001 2.753935e+001 3.000000e+000
      vertex   9.929520e+001 2.751353e+001 3.000000e+000
      vertex   9.900000e+001 2.913025e+001 3.000000e+000
    endloop
  endfacet
  facet normal 0.000000e+000 -0.000000e+000 1.000000e+000
    outer loop
      vertex   9.769772e+001 2.693209e+001 3.000000e+000
      vertex   9.790726e+001 2.714163e+001 3.000000e+000
      vertex   9.615000e+001 2.748480e+001 3.000000e+000
    endloop
  endfacet
  facet normal 0.000000e+000 0.000000e+000 1.000000e+000
    outer loop
      vertex   9.752776e+001 2.668935e+001 3.000000e+000
      vertex   9.615000e+001 2.748480e+001 3.000000e+000
      vertex   9.740252e+001 2.642079e+001 3.000000e+000
    endloop
  endfacet
  facet normal 0.000000e+000 -0.000000e+000 1.000000e+000
    outer loop
      vertex   9.752776e+001 2.668935e+001 3.000000e+000
      vertex   9.769772e+001 2.693209e+001 3.000000e+000
      vertex   9.615000e+001 2.748480e+001 3.000000e+000
    endloop
  endfacet
  facet normal 0.000000e+000 0.000000e+000 1.000000e+000
    outer loop
      vertex   9.732583e+001 2.613456e+001 3.000000e+000
      vertex   9.615000e+001 2.748480e+001 3.000000e+000
      vertex   9.730000e+001 2.583935e+001 3.000000e+000
    endloop
  endfacet
  facet normal 0.000000e+000 -0.000000e+000 1.000000e+000
    outer loop
      vertex   9.732583e+001 2.613456e+001 3.000000e+000
      vertex   9.740252e+001 2.642079e+001 3.000000e+000
      vertex   9.615000e+001 2.748480e+001 3.000000e+000
    endloop
  endfacet
  facet normal 0.000000e+000 -0.000000e+000 1.000000e+000
    outer loop
      vertex   9.790726e+001 2.714163e+001 3.000000e+000
      vertex   9.815000e+001 2.731160e+001 3.000000e+000
      vertex   9.615000e+001 2.748480e+001 3.000000e+000
    endloop
  endfacet
  facet normal -0.000000e+000 0.000000e+000 1.000000e+000
    outer loop
      vertex   9.615000e+001 2.748480e+001 3.000000e+000
      vertex   9.815000e+001 2.731160e+001 3.000000e+000
      vertex   9.900000e+001 2.913025e+001 3.000000e+000
    endloop
  endfacet
  facet normal -0.000000e+000 0.000000e+000 1.000000e+000
    outer loop
      vertex   9.900000e+001 2.913025e+001 3.000000e+000
      vertex   9.815000e+001 2.731160e+001 3.000000e+000
      vertex   9.841857e+001 2.743683e+001 3.000000e+000
    endloop
  endfacet
  facet normal 0.000000e+000 -0.000000e+000 1.000000e+000
    outer loop
      vertex   9.870480e+001 2.751353e+001 3.000000e+000
      vertex   9.900000e+001 2.913025e+001 3.000000e+000
      vertex   9.841857e+001 2.743683e+001 3.000000e+000
    endloop
  endfacet
  facet normal -0.000000e+000 -0.000000e+000 1.000000e+000
    outer loop
      vertex   9.958143e+001 2.743683e+001 3.000000e+000
      vertex   9.985000e+001 2.731160e+001 3.000000e+000
      vertex   9.900000e+001 2.913025e+001 3.000000e+000
    endloop
  endfacet
  facet normal -0.000000e+000 0.000000e+000 1.000000e+000
    outer loop
      vertex   9.900000e+001 2.913025e+001 3.000000e+000
      vertex   9.985000e+001 2.731160e+001 3.000000e+000
      vertex   1.018500e+002 2.748480e+001 3.000000e+000
    endloop
  endfacet
  facet normal 0.000000e+000 0.000000e+000 1.000000e+000
    outer loop
      vertex   1.018500e+002 2.748480e+001 3.000000e+000
      vertex   9.985000e+001 2.731160e+001 3.000000e+000
      vertex   1.000927e+002 2.714163e+001 3.000000e+000
    endloop
  endfacet
  facet normal 0.000000e+000 -0.000000e+000 1.000000e+000
    outer loop
      vertex   1.003023e+002 2.693209e+001 3.000000e+000
      vertex   1.018500e+002 2.748480e+001 3.000000e+000
      vertex   1.000927e+002 2.714163e+001 3.000000e+000
    endloop
  endfacet
  facet normal -0.000000e+000 0.000000e+000 1.000000e+000
    outer loop
      vertex   1.006742e+002 2.613456e+001 3.000000e+000
      vertex   1.007000e+002 2.583935e+001 3.000000e+000
      vertex   1.018500e+002 2.748480e+001 3.000000e+000
    endloop
  endfacet
  facet normal 0.000000e+000 0.000000e+000 1.000000e+000
    outer loop
      vertex   1.018500e+002 2.748480e+001 3.000000e+000
      vertex   1.007000e+002 2.583935e+001 3.000000e+000
      vertex   1.018500e+002 2.419391e+001 3.000000e+000
    endloop
  endfacet
  facet normal 0.000000e+000 0.000000e+000 1.000000e+000
    outer loop
      vertex   1.018500e+002 2.419391e+001 3.000000e+000
      vertex   1.007000e+002 2.583935e+001 3.000000e+000
      vertex   1.006742e+002 2.554415e+001 3.000000e+000
    endloop
  endfacet
  facet normal -0.000000e+000 -0.000000e+000 1.000000e+000
    outer loop
      vertex   1.005975e+002 2.525792e+001 3.000000e+000
      vertex   1.018500e+002 2.419391e+001 3.000000e+000
      vertex   1.006742e+002 2.554415e+001 3.000000e+000
    endloop
  endfacet
  facet normal 0.000000e+000 0.000000e+000 1.000000e+000
    outer loop
      vertex   1.000927e+002 2.453708e+001 3.000000e+000
      vertex   9.985000e+001 2.436711e+001 3.000000e+000
      vertex   1.018500e+002 2.419391e+001 3.000000e+000
    endloop
  endfacet
  facet normal 0.000000e+000 0.000000e+000 1.000000e+000
    outer loop
      vertex   1.018500e+002 2.419391e+001 3.000000e+000
      vertex   9.985000e+001 2.436711e+001 3.000000e+000
      vertex   9.900000e+001 2.254846e+001 3.000000e+000
    endloop
  endfacet
  facet normal 0.000000e+000 -0.000000e+000 1.000000e+000
    outer loop
      vertex   9.900000e+001 2.254846e+001 3.000000e+000
      vertex   9.985000e+001 2.436711e+001 3.000000e+000
      vertex   9.958143e+001 2.424188e+001 3.000000e+000
    endloop
  endfacet
  facet normal -0.000000e+000 0.000000e+000 1.000000e+000
    outer loop
      vertex   9.929520e+001 2.416518e+001 3.000000e+000
      vertex   9.900000e+001 2.254846e+001 3.000000e+000
      vertex   9.958143e+001 2.424188e+001 3.000000e+000
    endloop
  endfacet
  facet normal 0.000000e+000 0.000000e+000 1.000000e+000
    outer loop
      vertex   9.841857e+001 2.424188e+001 3.000000e+000
      vertex   9.815000e+001 2.436711e+001 3.000000e+000
      vertex   9.900000e+001 2.254846e+001 3.000000e+000
    endloop
  endfacet
  facet normal 0.000000e+000 0.000000e+000 1.000000e+000
    outer loop
      vertex   9.900000e+001 2.254846e+001 3.000000e+000
      vertex   9.815000e+001 2.436711e+001 3.000000e+000
      vertex   9.615000e+001 2.419391e+001 3.000000e+000
    endloop
  endfacet
  facet normal 0.000000e+000 -0.000000e+000 1.000000e+000
    outer loop
      vertex   9.615000e+001 2.419391e+001 3.000000e+000
      vertex   9.815000e+001 2.436711e+001 3.000000e+000
      vertex   9.790726e+001 2.453708e+001 3.000000e+000
    endloop
  endfacet
  facet normal -0.000000e+000 0.000000e+000 1.000000e+000
    outer loop
      vertex   9.769772e+001 2.474662e+001 3.000000e+000
      vertex   9.615000e+001 2.419391e+001 3.000000e+000
      vertex   9.790726e+001 2.453708e+001 3.000000e+000
    endloop
  endfacet
  facet normal 0.000000e+000 0.000000e+000 1.000000e+000
    outer loop
      vertex   9.732583e+001 2.554415e+001 3.000000e+000
      vertex   9.730000e+001 2.583935e+001 3.000000e+000
      vertex   9.615000e+001 2.419391e+001 3.000000e+000
    endloop
  endfacet
  facet normal 0.000000e+000 -0.000000e+000 1.000000e+000
    outer loop
      vertex   9.615000e+001 2.419391e+001 3.000000e+000
      vertex   9.730000e+001 2.583935e+001 3.000000e+000
      vertex   9.615000e+001 2.748480e+001 3.000000e+000
    endloop
  endfacet
  facet normal 1.000000e+000 -1.247969e-012 0.000000e+000
    outer loop
      vertex   9.615000e+001 2.419391e+001 6.000000e+000
      vertex   9.615000e+001 2.419391e+001 3.000000e+000
      vertex   9.615000e+001 2.748480e+001 6.000000e+000
    endloop
  endfacet
  facet normal 1.000000e+000 -1.247969e-012 0.000000e+000
    outer loop
      vertex   9.615000e+001 2.748480e+001 6.000000e+000
      vertex   9.615000e+001 2.419391e+001 3.000000e+000
      vertex   9.615000e+001 2.748480e+001 3.000000e+000
    endloop
  endfacet
  facet normal 0.000000e+000 -0.000000e+000 -1.000000e+000
    outer loop
      vertex   1.006742e+002 2.613456e+001 0.000000e+000
      vertex   1.050000e+002 3.183935e+001 0.000000e+000
      vertex   1.007000e+002 2.583935e+001 0.000000e+000
    endloop
  endfacet
  facet normal 0.000000e+000 0.000000e+000 -1.000000e+000
    outer loop
      vertex   1.006742e+002 2.613456e+001 0.000000e+000
      vertex   1.005975e+002 2.642079e+001 0.000000e+000
      vertex   1.050000e+002 3.183935e+001 0.000000e+000
    endloop
  endfacet
  facet normal -0.000000e+000 0.000000e+000 -1.000000e+000
    outer loop
      vertex   1.050000e+002 3.183935e+001 0.000000e+000
      vertex   1.005975e+002 2.642079e+001 0.000000e+000
      vertex   1.004722e+002 2.668935e+001 0.000000e+000
    endloop
  endfacet
  facet normal 0.000000e+000 -0.000000e+000 -1.000000e+000
    outer loop
      vertex   1.003023e+002 2.693209e+001 0.000000e+000
      vertex   1.050000e+002 3.183935e+001 0.000000e+000
      vertex   1.004722e+002 2.668935e+001 0.000000e+000
    endloop
  endfacet
  facet normal 0.000000e+000 0.000000e+000 -1.000000e+000
    outer loop
      vertex   1.003023e+002 2.693209e+001 0.000000e+000
      vertex   1.000927e+002 2.714163e+001 0.000000e+000
      vertex   1.050000e+002 3.183935e+001 0.000000e+000
    endloop
  endfacet
  facet normal -0.000000e+000 0.000000e+000 -1.000000e+000
    outer loop
      vertex   1.050000e+002 3.183935e+001 0.000000e+000
      vertex   1.000927e+002 2.714163e+001 0.000000e+000
      vertex   9.985000e+001 2.731160e+001 0.000000e+000
    endloop
  endfacet
  facet normal 0.000000e+000 -0.000000e+000 -1.000000e+000
    outer loop
      vertex   9.958143e+001 2.743683e+001 0.000000e+000
      vertex   1.050000e+002 3.183935e+001 0.000000e+000
      vertex   9.985000e+001 2.731160e+001 0.000000e+000
    endloop
  endfacet
  facet normal 0.000000e+000 0.000000e+000 -1.000000e+000
    outer loop
      vertex   9.958143e+001 2.743683e+001 0.000000e+000
      vertex   9.929520e+001 2.751353e+001 0.000000e+000
      vertex   1.050000e+002 3.183935e+001 0.000000e+000
    endloop
  endfacet
  facet normal -0.000000e+000 0.000000e+000 -1.000000e+000
    outer loop
      vertex   1.050000e+002 3.183935e+001 0.000000e+000
      vertex   9.929520e+001 2.751353e+001 0.000000e+000
      vertex   9.900000e+001 2.753935e+001 0.000000e+000
    endloop
  endfacet
  facet normal 0.000000e+000 -0.000000e+000 -1.000000e+000
    outer loop
      vertex   9.870480e+001 2.751353e+001 0.000000e+000
      vertex   1.050000e+002 3.183935e+001 0.000000e+000
      vertex   9.900000e+001 2.753935e+001 0.000000e+000
    endloop
  endfacet
  facet normal 0.000000e+000 0.000000e+000 -1.000000e+000
    outer loop
      vertex   9.870480e+001 2.751353e+001 0.000000e+000
      vertex   8.329520e+001 2.751353e+001 0.000000e+000
      vertex   1.050000e+002 3.183935e+001 0.000000e+000
    endloop
  endfacet
  facet normal -0.000000e+000 0.000000e+000 -1.000000e+000
    outer loop
      vertex   9.870480e+001 2.751353e+001 0.000000e+000
      vertex   8.358143e+001 2.743683e+001 0.000000e+000
      vertex   8.329520e+001 2.751353e+001 0.000000e+000
    endloop
  endfacet
  facet normal -0.000000e+000 0.000000e+000 -1.000000e+000
    outer loop
      vertex   9.870480e+001 2.751353e+001 0.000000e+000
      vertex   9.841857e+001 2.743683e+001 0.000000e+000
      vertex   8.358143e+001 2.743683e+001 0.000000e+000
    endloop
  endfacet
  facet normal 0.000000e+000 -0.000000e+000 -1.000000e+000
    outer loop
      vertex   8.358143e+001 2.743683e+001 0.000000e+000
      vertex   9.841857e+001 2.743683e+001 0.000000e+000
      vertex   8.385000e+001 2.731160e+001 0.000000e+000
    endloop
  endfacet
  facet normal 0.000000e+000 -0.000000e+000 -1.000000e+000
    outer loop
      vertex   8.385000e+001 2.731160e+001 0.000000e+000
      vertex   9.841857e+001 2.743683e+001 0.000000e+000
      vertex   9.815000e+001 2.731160e+001 0.000000e+000
    endloop
  endfacet
  facet normal 0.000000e+000 -0.000000e+000 -1.000000e+000
    outer loop
      vertex   8.409274e+001 2.714163e+001 0.000000e+000
      vertex   9.815000e+001 2.731160e+001 0.000000e+000
      vertex   9.790726e+001 2.714163e+001 0.000000e+000
    endloop
  endfacet
  facet normal 0.000000e+000 -0.000000e+000 -1.000000e+000
    outer loop
      vertex   8.430228e+001 2.693209e+001 0.000000e+000
      vertex   9.790726e+001 2.714163e+001 0.000000e+000
      vertex   9.769772e+001 2.693209e+001 0.000000e+000
    endloop
  endfacet
  facet normal 0.000000e+000 -0.000000e+000 -1.000000e+000
    outer loop
      vertex   8.447224e+001 2.668935e+001 0.000000e+000
      vertex   9.769772e+001 2.693209e+001 0.000000e+000
      vertex   9.752776e+001 2.668935e+001 0.000000e+000
    endloop
  endfacet
  facet normal 0.000000e+000 -0.000000e+000 -1.000000e+000
    outer loop
      vertex   8.459748e+001 2.642079e+001 0.000000e+000
      vertex   9.752776e+001 2.668935e+001 0.000000e+000
      vertex   9.740252e+001 2.642079e+001 0.000000e+000
    endloop
  endfacet
  facet normal 0.000000e+000 -0.000000e+000 -1.000000e+000
    outer loop
      vertex   8.467417e+001 2.613456e+001 0.000000e+000
      vertex   9.740252e+001 2.642079e+001 0.000000e+000
      vertex   9.732583e+001 2.613456e+001 0.000000e+000
    endloop
  endfacet
  facet normal 0.000000e+000 -0.000000e+000 -1.000000e+000
    outer loop
      vertex   8.470000e+001 2.583935e+001 0.000000e+000
      vertex   9.732583e+001 2.613456e+001 0.000000e+000
      vertex   9.730000e+001 2.583935e+001 0.000000e+000
    endloop
  endfacet
  facet normal 0.000000e+000 0.000000e+000 -1.000000e+000
    outer loop
      vertex   8.467417e+001 2.554415e+001 0.000000e+000
      vertex   9.730000e+001 2.583935e+001 0.000000e+000
      vertex   9.732583e+001 2.554415e+001 0.000000e+000
    endloop
  endfacet
  facet normal 0.000000e+000 0.000000e+000 -1.000000e+000
    outer loop
      vertex   8.459748e+001 2.525792e+001 0.000000e+000
      vertex   9.732583e+001 2.554415e+001 0.000000e+000
      vertex   9.740252e+001 2.525792e+001 0.000000e+000
    endloop
  endfacet
  facet normal 0.000000e+000 0.000000e+000 -1.000000e+000
    outer loop
      vertex   8.447224e+001 2.498935e+001 0.000000e+000
      vertex   9.740252e+001 2.525792e+001 0.000000e+000
      vertex   9.752776e+001 2.498935e+001 0.000000e+000
    endloop
  endfacet
  facet normal 0.000000e+000 0.000000e+000 -1.000000e+000
    outer loop
      vertex   8.430228e+001 2.474662e+001 0.000000e+000
      vertex   9.752776e+001 2.498935e+001 0.000000e+000
      vertex   9.769772e+001 2.474662e+001 0.000000e+000
    endloop
  endfacet
  facet normal 0.000000e+000 0.000000e+000 -1.000000e+000
    outer loop
      vertex   8.409274e+001 2.453708e+001 0.000000e+000
      vertex   9.769772e+001 2.474662e+001 0.000000e+000
      vertex   9.790726e+001 2.453708e+001 0.000000e+000
    endloop
  endfacet
  facet normal 0.000000e+000 0.000000e+000 -1.000000e+000
    outer loop
      vertex   8.385000e+001 2.436711e+001 0.000000e+000
      vertex   9.790726e+001 2.453708e+001 0.000000e+000
      vertex   9.815000e+001 2.436711e+001 0.000000e+000
    endloop
  endfacet
  facet normal 0.000000e+000 0.000000e+000 -1.000000e+000
    outer loop
      vertex   8.358143e+001 2.424188e+001 0.000000e+000
      vertex   9.815000e+001 2.436711e+001 0.000000e+000
      vertex   9.841857e+001 2.424188e+001 0.000000e+000
    endloop
  endfacet
  facet normal 0.000000e+000 0.000000e+000 -1.000000e+000
    outer loop
      vertex   8.329520e+001 2.416518e+001 0.000000e+000
      vertex   9.841857e+001 2.424188e+001 0.000000e+000
      vertex   9.870480e+001 2.416518e+001 0.000000e+000
    endloop
  endfacet
  facet normal 0.000000e+000 0.000000e+000 -1.000000e+000
    outer loop
      vertex   7.700000e+001 1.983935e+001 0.000000e+000
      vertex   9.870480e+001 2.416518e+001 0.000000e+000
      vertex   1.050000e+002 1.983935e+001 0.000000e+000
    endloop
  endfacet
  facet normal 0.000000e+000 0.000000e+000 -1.000000e+000
    outer loop
      vertex   7.700000e+001 1.983935e+001 0.000000e+000
      vertex   8.329520e+001 2.416518e+001 0.000000e+000
      vertex   9.870480e+001 2.416518e+001 0.000000e+000
    endloop
  endfacet
  facet normal 0.000000e+000 0.000000e+000 -1.000000e+000
    outer loop
      vertex   7.700000e+001 1.983935e+001 0.000000e+000
      vertex   8.300000e+001 2.413935e+001 0.000000e+000
      vertex   8.329520e+001 2.416518e+001 0.000000e+000
    endloop
  endfacet
  facet normal 0.000000e+000 0.000000e+000 -1.000000e+000
    outer loop
      vertex   7.700000e+001 1.983935e+001 0.000000e+000
      vertex   8.270480e+001 2.416518e+001 0.000000e+000
      vertex   8.300000e+001 2.413935e+001 0.000000e+000
    endloop
  endfacet
  facet normal 0.000000e+000 0.000000e+000 -1.000000e+000
    outer loop
      vertex   7.700000e+001 1.983935e+001 0.000000e+000
      vertex   8.241857e+001 2.424188e+001 0.000000e+000
      vertex   8.270480e+001 2.416518e+001 0.000000e+000
    endloop
  endfacet
  facet normal 0.000000e+000 0.000000e+000 -1.000000e+000
    outer loop
      vertex   7.700000e+001 1.983935e+001 0.000000e+000
      vertex   8.215000e+001 2.436711e+001 0.000000e+000
      vertex   8.241857e+001 2.424188e+001 0.000000e+000
    endloop
  endfacet
  facet normal 0.000000e+000 0.000000e+000 -1.000000e+000
    outer loop
      vertex   7.700000e+001 1.983935e+001 0.000000e+000
      vertex   8.190726e+001 2.453708e+001 0.000000e+000
      vertex   8.215000e+001 2.436711e+001 0.000000e+000
    endloop
  endfacet
  facet normal 0.000000e+000 0.000000e+000 -1.000000e+000
    outer loop
      vertex   7.700000e+001 1.983935e+001 0.000000e+000
      vertex   8.169772e+001 2.474662e+001 0.000000e+000
      vertex   8.190726e+001 2.453708e+001 0.000000e+000
    endloop
  endfacet
  facet normal 0.000000e+000 0.000000e+000 -1.000000e+000
    outer loop
      vertex   7.700000e+001 1.983935e+001 0.000000e+000
      vertex   8.152776e+001 2.498935e+001 0.000000e+000
      vertex   8.169772e+001 2.474662e+001 0.000000e+000
    endloop
  endfacet
  facet normal 0.000000e+000 0.000000e+000 -1.000000e+000
    outer loop
      vertex   7.700000e+001 1.983935e+001 0.000000e+000
      vertex   8.140252e+001 2.525792e+001 0.000000e+000
      vertex   8.152776e+001 2.498935e+001 0.000000e+000
    endloop
  endfacet
  facet normal 0.000000e+000 0.000000e+000 -1.000000e+000
    outer loop
      vertex   7.700000e+001 1.983935e+001 0.000000e+000
      vertex   8.132583e+001 2.554415e+001 0.000000e+000
      vertex   8.140252e+001 2.525792e+001 0.000000e+000
    endloop
  endfacet
  facet normal 0.000000e+000 0.000000e+000 -1.000000e+000
    outer loop
      vertex   7.700000e+001 1.983935e+001 0.000000e+000
      vertex   8.130000e+001 2.583935e+001 0.000000e+000
      vertex   8.132583e+001 2.554415e+001 0.000000e+000
    endloop
  endfacet
  facet normal 0.000000e+000 0.000000e+000 -1.000000e+000
    outer loop
      vertex   7.700000e+001 1.983935e+001 0.000000e+000
      vertex   7.700000e+001 3.183935e+001 0.000000e+000
      vertex   8.130000e+001 2.583935e+001 0.000000e+000
    endloop
  endfacet
  facet normal 0.000000e+000 0.000000e+000 -1.000000e+000
    outer loop
      vertex   8.130000e+001 2.583935e+001 0.000000e+000
      vertex   7.700000e+001 3.183935e+001 0.000000e+000
      vertex   8.132583e+001 2.613456e+001 0.000000e+000
    endloop
  endfacet
  facet normal 0.000000e+000 0.000000e+000 -1.000000e+000
    outer loop
      vertex   8.132583e+001 2.613456e+001 0.000000e+000
      vertex   7.700000e+001 3.183935e+001 0.000000e+000
      vertex   8.140252e+001 2.642079e+001 0.000000e+000
    endloop
  endfacet
  facet normal 0.000000e+000 0.000000e+000 -1.000000e+000
    outer loop
      vertex   8.140252e+001 2.642079e+001 0.000000e+000
      vertex   7.700000e+001 3.183935e+001 0.000000e+000
      vertex   8.152776e+001 2.668935e+001 0.000000e+000
    endloop
  endfacet
  facet normal 0.000000e+000 0.000000e+000 -1.000000e+000
    outer loop
      vertex   8.152776e+001 2.668935e+001 0.000000e+000
      vertex   7.700000e+001 3.183935e+001 0.000000e+000
      vertex   8.169772e+001 2.693209e+001 0.000000e+000
    endloop
  endfacet
  facet normal 0.000000e+000 0.000000e+000 -1.000000e+000
    outer loop
      vertex   8.169772e+001 2.693209e+001 0.000000e+000
      vertex   7.700000e+001 3.183935e+001 0.000000e+000
      vertex   8.190726e+001 2.714163e+001 0.000000e+000
    endloop
  endfacet
  facet normal 0.000000e+000 0.000000e+000 -1.000000e+000
    outer loop
      vertex   8.190726e+001 2.714163e+001 0.000000e+000
      vertex   7.700000e+001 3.183935e+001 0.000000e+000
      vertex   8.215000e+001 2.731160e+001 0.000000e+000
    endloop
  endfacet
  facet normal 0.000000e+000 0.000000e+000 -1.000000e+000
    outer loop
      vertex   8.215000e+001 2.731160e+001 0.000000e+000
      vertex   7.700000e+001 3.183935e+001 0.000000e+000
      vertex   8.241857e+001 2.743683e+001 0.000000e+000
    endloop
  endfacet
  facet normal 0.000000e+000 0.000000e+000 -1.000000e+000
    outer loop
      vertex   8.241857e+001 2.743683e+001 0.000000e+000
      vertex   7.700000e+001 3.183935e+001 0.000000e+000
      vertex   8.270480e+001 2.751353e+001 0.000000e+000
    endloop
  endfacet
  facet normal 0.000000e+000 0.000000e+000 -1.000000e+000
    outer loop
      vertex   8.270480e+001 2.751353e+001 0.000000e+000
      vertex   7.700000e+001 3.183935e+001 0.000000e+000
      vertex   8.300000e+001 2.753935e+001 0.000000e+000
    endloop
  endfacet
  facet normal 0.000000e+000 0.000000e+000 -1.000000e+000
    outer loop
      vertex   8.300000e+001 2.753935e+001 0.000000e+000
      vertex   7.700000e+001 3.183935e+001 0.000000e+000
      vertex   8.329520e+001 2.751353e+001 0.000000e+000
    endloop
  endfacet
  facet normal 0.000000e+000 0.000000e+000 -1.000000e+000
    outer loop
      vertex   8.329520e+001 2.751353e+001 0.000000e+000
      vertex   7.700000e+001 3.183935e+001 0.000000e+000
      vertex   1.050000e+002 3.183935e+001 0.000000e+000
    endloop
  endfacet
  facet normal 0.000000e+000 0.000000e+000 -1.000000e+000
    outer loop
      vertex   9.870480e+001 2.416518e+001 0.000000e+000
      vertex   9.900000e+001 2.413935e+001 0.000000e+000
      vertex   1.050000e+002 1.983935e+001 0.000000e+000
    endloop
  endfacet
  facet normal 0.000000e+000 0.000000e+000 -1.000000e+000
    outer loop
      vertex   1.050000e+002 1.983935e+001 0.000000e+000
      vertex   9.900000e+001 2.413935e+001 0.000000e+000
      vertex   9.929520e+001 2.416518e+001 0.000000e+000
    endloop
  endfacet
  facet normal -0.000000e+000 -0.000000e+000 -1.000000e+000
    outer loop
      vertex   9.958143e+001 2.424188e+001 0.000000e+000
      vertex   1.050000e+002 1.983935e+001 0.000000e+000
      vertex   9.929520e+001 2.416518e+001 0.000000e+000
    endloop
  endfacet
  facet normal 0.000000e+000 0.000000e+000 -1.000000e+000
    outer loop
      vertex   9.958143e+001 2.424188e+001 0.000000e+000
      vertex   9.985000e+001 2.436711e+001 0.000000e+000
      vertex   1.050000e+002 1.983935e+001 0.000000e+000
    endloop
  endfacet
  facet normal 0.000000e+000 0.000000e+000 -1.000000e+000
    outer loop
      vertex   1.050000e+002 1.983935e+001 0.000000e+000
      vertex   9.985000e+001 2.436711e+001 0.000000e+000
      vertex   1.000927e+002 2.453708e+001 0.000000e+000
    endloop
  endfacet
  facet normal -0.000000e+000 -0.000000e+000 -1.000000e+000
    outer loop
      vertex   1.003023e+002 2.474662e+001 0.000000e+000
      vertex   1.050000e+002 1.983935e+001 0.000000e+000
      vertex   1.000927e+002 2.453708e+001 0.000000e+000
    endloop
  endfacet
  facet normal 0.000000e+000 0.000000e+000 -1.000000e+000
    outer loop
      vertex   1.003023e+002 2.474662e+001 0.000000e+000
      vertex   1.004722e+002 2.498935e+001 0.000000e+000
      vertex   1.050000e+002 1.983935e+001 0.000000e+000
    endloop
  endfacet
  facet normal 0.000000e+000 0.000000e+000 -1.000000e+000
    outer loop
      vertex   1.050000e+002 1.983935e+001 0.000000e+000
      vertex   1.004722e+002 2.498935e+001 0.000000e+000
      vertex   1.005975e+002 2.525792e+001 0.000000e+000
    endloop
  endfacet
  facet normal -0.000000e+000 -0.000000e+000 -1.000000e+000
    outer loop
      vertex   1.006742e+002 2.554415e+001 0.000000e+000
      vertex   1.050000e+002 1.983935e+001 0.000000e+000
      vertex   1.005975e+002 2.525792e+001 0.000000e+000
    endloop
  endfacet
  facet normal 0.000000e+000 0.000000e+000 -1.000000e+000
    outer loop
      vertex   1.006742e+002 2.554415e+001 0.000000e+000
      vertex   1.007000e+002 2.583935e+001 0.000000e+000
      vertex   1.050000e+002 1.983935e+001 0.000000e+000
    endloop
  endfacet
  facet normal 0.000000e+000 0.000000e+000 -1.000000e+000
    outer loop
      vertex   1.050000e+002 1.983935e+001 0.000000e+000
      vertex   1.007000e+002 2.583935e+001 0.000000e+000
      vertex   1.050000e+002 3.183935e+001 0.000000e+000
    endloop
  endfacet
  facet normal 0.000000e+000 0.000000e+000 -1.000000e+000
    outer loop
      vertex   8.470000e+001 2.583935e+001 0.000000e+000
      vertex   8.467417e+001 2.613456e+001 0.000000e+000
      vertex   9.732583e+001 2.613456e+001 0.000000e+000
    endloop
  endfacet
  facet normal 0.000000e+000 0.000000e+000 -1.000000e+000
    outer loop
      vertex   8.467417e+001 2.613456e+001 0.000000e+000
      vertex   8.459748e+001 2.642079e+001 0.000000e+000
      vertex   9.740252e+001 2.642079e+001 0.000000e+000
    endloop
  endfacet
  facet normal 0.000000e+000 0.000000e+000 -1.000000e+000
    outer loop
      vertex   8.459748e+001 2.642079e+001 0.000000e+000
      vertex   8.447224e+001 2.668935e+001 0.000000e+000
      vertex   9.752776e+001 2.668935e+001 0.000000e+000
    endloop
  endfacet
  facet normal 0.000000e+000 0.000000e+000 -1.000000e+000
    outer loop
      vertex   8.447224e+001 2.668935e+001 0.000000e+000
      vertex   8.430228e+001 2.693209e+001 0.000000e+000
      vertex   9.769772e+001 2.693209e+001 0.000000e+000
    endloop
  endfacet
  facet normal 0.000000e+000 0.000000e+000 -1.000000e+000
    outer loop
      vertex   8.430228e+001 2.693209e+001 0.000000e+000
      vertex   8.409274e+001 2.714163e+001 0.000000e+000
      vertex   9.790726e+001 2.714163e+001 0.000000e+000
    endloop
  endfacet
  facet normal 0.000000e+000 0.000000e+000 -1.000000e+000
    outer loop
      vertex   8.409274e+001 2.714163e+001 0.000000e+000
      vertex   8.385000e+001 2.731160e+001 0.000000e+000
      vertex   9.815000e+001 2.731160e+001 0.000000e+000
    endloop
  endfacet
  facet normal 0.000000e+000 0.000000e+000 -1.000000e+000
    outer loop
      vertex   8.329520e+001 2.416518e+001 0.000000e+000
      vertex   8.358143e+001 2.424188e+001 0.000000e+000
      vertex   9.841857e+001 2.424188e+001 0.000000e+000
    endloop
  endfacet
  facet normal 0.000000e+000 0.000000e+000 -1.000000e+000
    outer loop
      vertex   8.358143e+001 2.424188e+001 0.000000e+000
      vertex   8.385000e+001 2.436711e+001 0.000000e+000
      vertex   9.815000e+001 2.436711e+001 0.000000e+000
    endloop
  endfacet
  facet normal 0.000000e+000 0.000000e+000 -1.000000e+000
    outer loop
      vertex   8.385000e+001 2.436711e+001 0.000000e+000
      vertex   8.409274e+001 2.453708e+001 0.000000e+000
      vertex   9.790726e+001 2.453708e+001 0.000000e+000
    endloop
  endfacet
  facet normal 0.000000e+000 0.000000e+000 -1.000000e+000
    outer loop
      vertex   8.409274e+001 2.453708e+001 0.000000e+000
      vertex   8.430228e+001 2.474662e+001 0.000000e+000
      vertex   9.769772e+001 2.474662e+001 0.000000e+000
    endloop
  endfacet
  facet normal 0.000000e+000 0.000000e+000 -1.000000e+000
    outer loop
      vertex   8.430228e+001 2.474662e+001 0.000000e+000
      vertex   8.447224e+001 2.498935e+001 0.000000e+000
      vertex   9.752776e+001 2.498935e+001 0.000000e+000
    endloop
  endfacet
  facet normal 0.000000e+000 0.000000e+000 -1.000000e+000
    outer loop
      vertex   8.447224e+001 2.498935e+001 0.000000e+000
      vertex   8.459748e+001 2.525792e+001 0.000000e+000
      vertex   9.740252e+001 2.525792e+001 0.000000e+000
    endloop
  endfacet
  facet normal 0.000000e+000 0.000000e+000 -1.000000e+000
    outer loop
      vertex   8.459748e+001 2.525792e+001 0.000000e+000
      vertex   8.467417e+001 2.554415e+001 0.000000e+000
      vertex   9.732583e+001 2.554415e+001 0.000000e+000
    endloop
  endfacet
  facet normal 0.000000e+000 0.000000e+000 -1.000000e+000
    outer loop
      vertex   8.467417e+001 2.554415e+001 0.000000e+000
      vertex   8.470000e+001 2.583935e+001 0.000000e+000
      vertex   9.730000e+001 2.583935e+001 0.000000e+000
    endloop
  endfacet
  facet normal 5.000000e-001 -8.660254e-001 0.000000e+000
    outer loop
      vertex   9.615000e+001 2.748480e+001 6.000000e+000
      vertex   9.615000e+001 2.748480e+001 3.000000e+000
      vertex   9.900000e+001 2.913025e+001 6.000000e+000
    endloop
  endfacet
  facet normal 5.000000e-001 -8.660254e-001 0.000000e+000
    outer loop
      vertex   9.900000e+001 2.913025e+001 6.000000e+000
      vertex   9.615000e+001 2.748480e+001 3.000000e+000
      vertex   9.900000e+001 2.913025e+001 3.000000e+000
    endloop
  endfacet
  facet normal 9.961947e-001 8.715574e-002 0.000000e+000
    outer loop
      vertex   8.132583e+001 2.554415e+001 3.000000e+000
      vertex   8.132583e+001 2.554415e+001 0.000000e+000
      vertex   8.130000e+001 2.583935e+001 3.000000e+000
    endloop
  endfacet
  facet normal 9.659258e-001 2.588190e-001 0.000000e+000
    outer loop
      vertex   8.132583e+001 2.554415e+001 3.000000e+000
      vertex   8.140252e+001 2.525792e+001 0.000000e+000
      vertex   8.132583e+001 2.554415e+001 0.000000e+000
    endloop
  endfacet
  facet normal 9.659258e-001 2.588190e-001 0.000000e+000
    outer loop
      vertex   8.132583e+001 2.554415e+001 3.000000e+000
      vertex   8.140252e+001 2.525792e+001 3.000000e+000
      vertex   8.140252e+001 2.525792e+001 0.000000e+000
    endloop
  endfacet
  facet normal 9.063078e-001 4.226183e-001 -0.000000e+000
    outer loop
      vertex   8.140252e+001 2.525792e+001 0.000000e+000
      vertex   8.140252e+001 2.525792e+001 3.000000e+000
      vertex   8.152776e+001 2.498935e+001 0.000000e+000
    endloop
  endfacet
  facet normal 9.063078e-001 4.226183e-001 0.000000e+000
    outer loop
      vertex   8.152776e+001 2.498935e+001 0.000000e+000
      vertex   8.140252e+001 2.525792e+001 3.000000e+000
      vertex   8.152776e+001 2.498935e+001 3.000000e+000
    endloop
  endfacet
  facet normal 8.191520e-001 5.735764e-001 0.000000e+000
    outer loop
      vertex   8.169772e+001 2.474662e+001 0.000000e+000
      vertex   8.152776e+001 2.498935e+001 3.000000e+000
      vertex   8.169772e+001 2.474662e+001 3.000000e+000
    endloop
  endfacet
  facet normal 7.071068e-001 7.071068e-001 0.000000e+000
    outer loop
      vertex   8.190726e+001 2.453708e+001 0.000000e+000
      vertex   8.169772e+001 2.474662e+001 3.000000e+000
      vertex   8.190726e+001 2.453708e+001 3.000000e+000
    endloop
  endfacet
  facet normal 5.735764e-001 8.191520e-001 0.000000e+000
    outer loop
      vertex   8.215000e+001 2.436711e+001 0.000000e+000
      vertex   8.190726e+001 2.453708e+001 3.000000e+000
      vertex   8.215000e+001 2.436711e+001 3.000000e+000
    endloop
  endfacet
  facet normal 4.226183e-001 9.063078e-001 0.000000e+000
    outer loop
      vertex   8.241857e+001 2.424188e+001 0.000000e+000
      vertex   8.215000e+001 2.436711e+001 3.000000e+000
      vertex   8.241857e+001 2.424188e+001 3.000000e+000
    endloop
  endfacet
  facet normal 2.588190e-001 9.659258e-001 0.000000e+000
    outer loop
      vertex   8.270480e+001 2.416518e+001 0.000000e+000
      vertex   8.241857e+001 2.424188e+001 3.000000e+000
      vertex   8.270480e+001 2.416518e+001 3.000000e+000
    endloop
  endfacet
  facet normal 8.715574e-002 9.961947e-001 0.000000e+000
    outer loop
      vertex   8.300000e+001 2.413935e+001 0.000000e+000
      vertex   8.270480e+001 2.416518e+001 3.000000e+000
      vertex   8.300000e+001 2.413935e+001 3.000000e+000
    endloop
  endfacet
  facet normal -8.715574e-002 9.961947e-001 0.000000e+000
    outer loop
      vertex   8.329520e+001 2.416518e+001 0.000000e+000
      vertex   8.300000e+001 2.413935e+001 3.000000e+000
      vertex   8.329520e+001 2.416518e+001 3.000000e+000
    endloop
  endfacet
  facet normal -2.588190e-001 9.659258e-001 0.000000e+000
    outer loop
      vertex   8.358143e+001 2.424188e+001 0.000000e+000
      vertex   8.329520e+001 2.416518e+001 3.000000e+000
      vertex   8.358143e+001 2.424188e+001 3.000000e+000
    endloop
  endfacet
  facet normal -4.226183e-001 9.063078e-001 0.000000e+000
    outer loop
      vertex   8.385000e+001 2.436711e+001 0.000000e+000
      vertex   8.358143e+001 2.424188e+001 3.000000e+000
      vertex   8.385000e+001 2.436711e+001 3.000000e+000
    endloop
  endfacet
  facet normal -5.735764e-001 8.191520e-001 0.000000e+000
    outer loop
      vertex   8.409274e+001 2.453708e+001 0.000000e+000
      vertex   8.385000e+001 2.436711e+001 3.000000e+000
      vertex   8.409274e+001 2.453708e+001 3.000000e+000
    endloop
  endfacet
  facet normal -7.071068e-001 7.071068e-001 0.000000e+000
    outer loop
      vertex   8.430228e+001 2.474662e+001 0.000000e+000
      vertex   8.409274e+001 2.453708e+001 3.000000e+000
      vertex   8.430228e+001 2.474662e+001 3.000000e+000
    endloop
  endfacet
  facet normal -8.191520e-001 5.735764e-001 -6.790681e-016
    outer loop
      vertex   8.447224e+001 2.498935e+001 0.000000e+000
      vertex   8.430228e+001 2.474662e+001 3.000000e+000
      vertex   8.447224e+001 2.498935e+001 3.000000e+000
    endloop
  endfacet
  facet normal -9.063078e-001 4.226183e-001 0.000000e+000
    outer loop
      vertex   8.459748e+001 2.525792e+001 0.000000e+000
      vertex   8.447224e+001 2.498935e+001 3.000000e+000
      vertex   8.459748e+001 2.525792e+001 3.000000e+000
    endloop
  endfacet
  facet normal -9.659258e-001 2.588190e-001 0.000000e+000
    outer loop
      vertex   8.467417e+001 2.554415e+001 0.000000e+000
      vertex   8.459748e+001 2.525792e+001 3.000000e+000
      vertex   8.467417e+001 2.554415e+001 3.000000e+000
    endloop
  endfacet
  facet normal -9.961947e-001 8.715574e-002 0.000000e+000
    outer loop
      vertex   8.470000e+001 2.583935e+001 0.000000e+000
      vertex   8.467417e+001 2.554415e+001 3.000000e+000
      vertex   8.470000e+001 2.583935e+001 3.000000e+000
    endloop
  endfacet
  facet normal -9.961947e-001 -8.715574e-002 0.000000e+000
    outer loop
      vertex   8.467417e+001 2.613456e+001 0.000000e+000
      vertex   8.470000e+001 2.583935e+001 3.000000e+000
      vertex   8.467417e+001 2.613456e+001 3.000000e+000
    endloop
  endfacet
  facet normal -9.659258e-001 -2.588190e-001 -3.044098e-016
    outer loop
      vertex   8.459748e+001 2.642079e+001 0.000000e+000
      vertex   8.467417e+001 2.613456e+001 3.000000e+000
      vertex   8.459748e+001 2.642079e+001 3.000000e+000
    endloop
  endfacet
  facet normal -9.063078e-001 -4.226183e-001 0.000000e+000
    outer loop
      vertex   8.447224e+001 2.668935e+001 0.000000e+000
      vertex   8.459748e+001 2.642079e+001 3.000000e+000
      vertex   8.447224e+001 2.668935e+001 3.000000e+000
    endloop
  endfacet
  facet normal -8.191520e-001 -5.735764e-001 0.000000e+000
    outer loop
      vertex   8.430228e+001 2.693209e+001 0.000000e+000
      vertex   8.447224e+001 2.668935e+001 3.000000e+000
      vertex   8.430228e+001 2.693209e+001 3.000000e+000
    endloop
  endfacet
  facet normal -7.071068e-001 -7.071068e-001 0.000000e+000
    outer loop
      vertex   8.409274e+001 2.714163e+001 0.000000e+000
      vertex   8.430228e+001 2.693209e+001 3.000000e+000
      vertex   8.409274e+001 2.714163e+001 3.000000e+000
    endloop
  endfacet
  facet normal -5.735764e-001 -8.191520e-001 0.000000e+000
    outer loop
      vertex   8.385000e+001 2.731160e+001 0.000000e+000
      vertex   8.409274e+001 2.714163e+001 3.000000e+000
      vertex   8.385000e+001 2.731160e+001 3.000000e+000
    endloop
  endfacet
  facet normal -4.226183e-001 -9.063078e-001 0.000000e+000
    outer loop
      vertex   8.358143e+001 2.743683e+001 0.000000e+000
      vertex   8.385000e+001 2.731160e+001 3.000000e+000
      vertex   8.358143e+001 2.743683e+001 3.000000e+000
    endloop
  endfacet
  facet normal -2.588190e-001 -9.659258e-001 0.000000e+000
    outer loop
      vertex   8.329520e+001 2.751353e+001 0.000000e+000
      vertex   8.358143e+001 2.743683e+001 3.000000e+000
      vertex   8.329520e+001 2.751353e+001 3.000000e+000
    endloop
  endfacet
  facet normal -8.715574e-002 -9.961947e-001 0.000000e+000
    outer loop
      vertex   8.300000e+001 2.753935e+001 0.000000e+000
      vertex   8.329520e+001 2.751353e+001 3.000000e+000
      vertex   8.300000e+001 2.753935e+001 3.000000e+000
    endloop
  endfacet
  facet normal 8.715574e-002 -9.961947e-001 0.000000e+000
    outer loop
      vertex   8.270480e+001 2.751353e+001 0.000000e+000
      vertex   8.300000e+001 2.753935e+001 3.000000e+000
      vertex   8.270480e+001 2.751353e+001 3.000000e+000
    endloop
  endfacet
  facet normal 2.588190e-001 -9.659258e-001 0.000000e+000
    outer loop
      vertex   8.241857e+001 2.743683e+001 0.000000e+000
      vertex   8.270480e+001 2.751353e+001 3.000000e+000
      vertex   8.241857e+001 2.743683e+001 3.000000e+000
    endloop
  endfacet
  facet normal 4.226183e-001 -9.063078e-001 0.000000e+000
    outer loop
      vertex   8.215000e+001 2.731160e+001 0.000000e+000
      vertex   8.241857e+001 2.743683e+001 3.000000e+000
      vertex   8.215000e+001 2.731160e+001 3.000000e+000
    endloop
  endfacet
  facet normal 5.735764e-001 -8.191520e-001 0.000000e+000
    outer loop
      vertex   8.190726e+001 2.714163e+001 0.000000e+000
      vertex   8.215000e+001 2.731160e+001 3.000000e+000
      vertex   8.190726e+001 2.714163e+001 3.000000e+000
    endloop
  endfacet
  facet normal 7.071068e-001 -7.071068e-001 0.000000e+000
    outer loop
      vertex   8.169772e+001 2.693209e+001 0.000000e+000
      vertex   8.190726e+001 2.714163e+001 3.000000e+000
      vertex   8.169772e+001 2.693209e+001 3.000000e+000
    endloop
  endfacet
  facet normal 8.191520e-001 -5.735764e-001 6.790681e-016
    outer loop
      vertex   8.152776e+001 2.668935e+001 0.000000e+000
      vertex   8.169772e+001 2.693209e+001 3.000000e+000
      vertex   8.152776e+001 2.668935e+001 3.000000e+000
    endloop
  endfacet
  facet normal 9.063078e-001 -4.226183e-001 4.995443e-016
    outer loop
      vertex   8.140252e+001 2.642079e+001 0.000000e+000
      vertex   8.152776e+001 2.668935e+001 3.000000e+000
      vertex   8.140252e+001 2.642079e+001 3.000000e+000
    endloop
  endfacet
  facet normal 9.659258e-001 -2.588190e-001 0.000000e+000
    outer loop
      vertex   8.132583e+001 2.613456e+001 0.000000e+000
      vertex   8.140252e+001 2.642079e+001 3.000000e+000
      vertex   8.132583e+001 2.613456e+001 3.000000e+000
    endloop
  endfacet
  facet normal 9.961947e-001 -8.715574e-002 0.000000e+000
    outer loop
      vertex   8.130000e+001 2.583935e+001 0.000000e+000
      vertex   8.132583e+001 2.613456e+001 3.000000e+000
      vertex   8.130000e+001 2.583935e+001 3.000000e+000
    endloop
  endfacet
  facet normal 9.961947e-001 8.715574e-002 -0.000000e+000
    outer loop
      vertex   8.132583e+001 2.554415e+001 0.000000e+000
      vertex   8.130000e+001 2.583935e+001 0.000000e+000
      vertex   8.130000e+001 2.583935e+001 3.000000e+000
    endloop
  endfacet
  facet normal -9.961947e-001 8.715574e-002 0.000000e+000
    outer loop
      vertex   8.470000e+001 2.583935e+001 0.000000e+000
      vertex   8.467417e+001 2.554415e+001 0.000000e+000
      vertex   8.467417e+001 2.554415e+001 3.000000e+000
    endloop
  endfacet
  facet normal -9.659258e-001 2.588190e-001 0.000000e+000
    outer loop
      vertex   8.467417e+001 2.554415e+001 0.000000e+000
      vertex   8.459748e+001 2.525792e+001 0.000000e+000
      vertex   8.459748e+001 2.525792e+001 3.000000e+000
    endloop
  endfacet
  facet normal -9.063078e-001 4.226183e-001 -5.004806e-016
    outer loop
      vertex   8.459748e+001 2.525792e+001 0.000000e+000
      vertex   8.447224e+001 2.498935e+001 0.000000e+000
      vertex   8.447224e+001 2.498935e+001 3.000000e+000
    endloop
  endfacet
  facet normal -8.191520e-001 5.735764e-001 0.000000e+000
    outer loop
      vertex   8.447224e+001 2.498935e+001 0.000000e+000
      vertex   8.430228e+001 2.474662e+001 0.000000e+000
      vertex   8.430228e+001 2.474662e+001 3.000000e+000
    endloop
  endfacet
  facet normal -7.071068e-001 7.071068e-001 0.000000e+000
    outer loop
      vertex   8.430228e+001 2.474662e+001 0.000000e+000
      vertex   8.409274e+001 2.453708e+001 0.000000e+000
      vertex   8.409274e+001 2.453708e+001 3.000000e+000
    endloop
  endfacet
  facet normal -5.735764e-001 8.191520e-001 0.000000e+000
    outer loop
      vertex   8.409274e+001 2.453708e+001 0.000000e+000
      vertex   8.385000e+001 2.436711e+001 0.000000e+000
      vertex   8.385000e+001 2.436711e+001 3.000000e+000
    endloop
  endfacet
  facet normal -4.226183e-001 9.063078e-001 0.000000e+000
    outer loop
      vertex   8.385000e+001 2.436711e+001 0.000000e+000
      vertex   8.358143e+001 2.424188e+001 0.000000e+000
      vertex   8.358143e+001 2.424188e+001 3.000000e+000
    endloop
  endfacet
  facet normal -2.588190e-001 9.659258e-001 0.000000e+000
    outer loop
      vertex   8.358143e+001 2.424188e+001 0.000000e+000
      vertex   8.329520e+001 2.416518e+001 0.000000e+000
      vertex   8.329520e+001 2.416518e+001 3.000000e+000
    endloop
  endfacet
  facet normal -8.715574e-002 9.961947e-001 0.000000e+000
    outer loop
      vertex   8.329520e+001 2.416518e+001 0.000000e+000
      vertex   8.300000e+001 2.413935e+001 0.000000e+000
      vertex   8.300000e+001 2.413935e+001 3.000000e+000
    endloop
  endfacet
  facet normal 8.715574e-002 9.961947e-001 -0.000000e+000
    outer loop
      vertex   8.300000e+001 2.413935e+001 0.000000e+000
      vertex   8.270480e+001 2.416518e+001 0.000000e+000
      vertex   8.270480e+001 2.416518e+001 3.000000e+000
    endloop
  endfacet
  facet normal 2.588190e-001 9.659258e-001 -0.000000e+000
    outer loop
      vertex   8.270480e+001 2.416518e+001 0.000000e+000
      vertex   8.241857e+001 2.424188e+001 0.000000e+000
      vertex   8.241857e+001 2.424188e+001 3.000000e+000
    endloop
  endfacet
  facet normal 4.226183e-001 9.063078e-001 -0.000000e+000
    outer loop
      vertex   8.241857e+001 2.424188e+001 0.000000e+000
      vertex   8.215000e+001 2.436711e+001 0.000000e+000
      vertex   8.215000e+001 2.436711e+001 3.000000e+000
    endloop
  endfacet
  facet normal 5.735764e-001 8.191520e-001 -0.000000e+000
    outer loop
      vertex   8.215000e+001 2.436711e+001 0.000000e+000
      vertex   8.190726e+001 2.453708e+001 0.000000e+000
      vertex   8.190726e+001 2.453708e+001 3.000000e+000
    endloop
  endfacet
  facet normal 7.071068e-001 7.071068e-001 -0.000000e+000
    outer loop
      vertex   8.190726e+001 2.453708e+001 0.000000e+000
      vertex   8.169772e+001 2.474662e+001 0.000000e+000
      vertex   8.169772e+001 2.474662e+001 3.000000e+000
    endloop
  endfacet
  facet normal 8.191520e-001 5.735764e-001 -0.000000e+000
    outer loop
      vertex   8.169772e+001 2.474662e+001 0.000000e+000
      vertex   8.152776e+001 2.498935e+001 0.000000e+000
      vertex   8.152776e+001 2.498935e+001 3.000000e+000
    endloop
  endfacet
  facet normal 9.961947e-001 -8.715574e-002 0.000000e+000
    outer loop
      vertex   8.130000e+001 2.583935e+001 0.000000e+000
      vertex   8.132583e+001 2.613456e+001 0.000000e+000
      vertex   8.132583e+001 2.613456e+001 3.000000e+000
    endloop
  endfacet
  facet normal 9.659258e-001 -2.588190e-001 3.065033e-016
    outer loop
      vertex   8.132583e+001 2.613456e+001 0.000000e+000
      vertex   8.140252e+001 2.642079e+001 0.000000e+000
      vertex   8.140252e+001 2.642079e+001 3.000000e+000
    endloop
  endfacet
  facet normal 9.063078e-001 -4.226183e-001 5.004806e-016
    outer loop
      vertex   8.140252e+001 2.642079e+001 0.000000e+000
      vertex   8.152776e+001 2.668935e+001 0.000000e+000
      vertex   8.152776e+001 2.668935e+001 3.000000e+000
    endloop
  endfacet
  facet normal 8.191520e-001 -5.735764e-001 0.000000e+000
    outer loop
      vertex   8.152776e+001 2.668935e+001 0.000000e+000
      vertex   8.169772e+001 2.693209e+001 0.000000e+000
      vertex   8.169772e+001 2.693209e+001 3.000000e+000
    endloop
  endfacet
  facet normal 7.071068e-001 -7.071068e-001 0.000000e+000
    outer loop
      vertex   8.169772e+001 2.693209e+001 0.000000e+000
      vertex   8.190726e+001 2.714163e+001 0.000000e+000
      vertex   8.190726e+001 2.714163e+001 3.000000e+000
    endloop
  endfacet
  facet normal 5.735764e-001 -8.191520e-001 0.000000e+000
    outer loop
      vertex   8.190726e+001 2.714163e+001 0.000000e+000
      vertex   8.215000e+001 2.731160e+001 0.000000e+000
      vertex   8.215000e+001 2.731160e+001 3.000000e+000
    endloop
  endfacet
  facet normal 4.226183e-001 -9.063078e-001 0.000000e+000
    outer loop
      vertex   8.215000e+001 2.731160e+001 0.000000e+000
      vertex   8.241857e+001 2.743683e+001 0.000000e+000
      vertex   8.241857e+001 2.743683e+001 3.000000e+000
    endloop
  endfacet
  facet normal 2.588190e-001 -9.659258e-001 0.000000e+000
    outer loop
      vertex   8.241857e+001 2.743683e+001 0.000000e+000
      vertex   8.270480e+001 2.751353e+001 0.000000e+000
      vertex   8.270480e+001 2.751353e+001 3.000000e+000
    endloop
  endfacet
  facet normal 8.715574e-002 -9.961947e-001 0.000000e+000
    outer loop
      vertex   8.270480e+001 2.751353e+001 0.000000e+000
      vertex   8.300000e+001 2.753935e+001 0.000000e+000
      vertex   8.300000e+001 2.753935e+001 3.000000e+000
    endloop
  endfacet
  facet normal -8.715574e-002 -9.961947e-001 0.000000e+000
    outer loop
      vertex   8.300000e+001 2.753935e+001 0.000000e+000
      vertex   8.329520e+001 2.751353e+001 0.000000e+000
      vertex   8.329520e+001 2.751353e+001 3.000000e+000
    endloop
  endfacet
  facet normal -2.588190e-001 -9.659258e-001 0.000000e+000
    outer loop
      vertex   8.329520e+001 2.751353e+001 0.000000e+000
      vertex   8.358143e+001 2.743683e+001 0.000000e+000
      vertex   8.358143e+001 2.743683e+001 3.000000e+000
    endloop
  endfacet
  facet normal -4.226183e-001 -9.063078e-001 0.000000e+000
    outer loop
      vertex   8.358143e+001 2.743683e+001 0.000000e+000
      vertex   8.385000e+001 2.731160e+001 0.000000e+000
      vertex   8.385000e+001 2.731160e+001 3.000000e+000
    endloop
  endfacet
  facet normal -5.735764e-001 -8.191520e-001 0.000000e+000
    outer loop
      vertex   8.385000e+001 2.731160e+001 0.000000e+000
      vertex   8.409274e+001 2.714163e+001 0.000000e+000
      vertex   8.409274e+001 2.714163e+001 3.000000e+000
    endloop
  endfacet
  facet normal -7.071068e-001 -7.071068e-001 0.000000e+000
    outer loop
      vertex   8.409274e+001 2.714163e+001 0.000000e+000
      vertex   8.430228e+001 2.693209e+001 0.000000e+000
      vertex   8.430228e+001 2.693209e+001 3.000000e+000
    endloop
  endfacet
  facet normal -8.191520e-001 -5.735764e-001 0.000000e+000
    outer loop
      vertex   8.430228e+001 2.693209e+001 0.000000e+000
      vertex   8.447224e+001 2.668935e+001 0.000000e+000
      vertex   8.447224e+001 2.668935e+001 3.000000e+000
    endloop
  endfacet
  facet normal -9.063078e-001 -4.226183e-001 -5.004806e-016
    outer loop
      vertex   8.447224e+001 2.668935e+001 0.000000e+000
      vertex   8.459748e+001 2.642079e+001 0.000000e+000
      vertex   8.459748e+001 2.642079e+001 3.000000e+000
    endloop
  endfacet
  facet normal -9.659258e-001 -2.588190e-001 0.000000e+000
    outer loop
      vertex   8.459748e+001 2.642079e+001 0.000000e+000
      vertex   8.467417e+001 2.613456e+001 0.000000e+000
      vertex   8.467417e+001 2.613456e+001 3.000000e+000
    endloop
  endfacet
  facet normal -9.961947e-001 -8.715574e-002 0.000000e+000
    outer loop
      vertex   8.467417e+001 2.613456e+001 0.000000e+000
      vertex   8.470000e+001 2.583935e+001 0.000000e+000
      vertex   8.470000e+001 2.583935e+001 3.000000e+000
    endloop
  endfacet
  facet normal -0.000000e+000 -1.000000e+000 0.000000e+000
    outer loop
      vertex   1.050000e+002 1.983935e+001 0.000000e+000
      vertex   1.050000e+002 1.983935e+001 6.000000e+000
      vertex   7.700000e+001 1.983935e+001 0.000000e+000
    endloop
  endfacet
  facet normal 0.000000e+000 -1.000000e+000 0.000000e+000
    outer loop
      vertex   7.700000e+001 1.983935e+001 0.000000e+000
      vertex   1.050000e+002 1.983935e+001 6.000000e+000
      vertex   7.700000e+001 1.983935e+001 6.000000e+000
    endloop
  endfacet
  facet normal -0.000000e+000 1.000000e+000 0.000000e+000
    outer loop
      vertex   7.700000e+001 3.183935e+001 0.000000e+000
      vertex   7.700000e+001 3.183935e+001 6.000000e+000
      vertex   1.050000e+002 3.183935e+001 0.000000e+000
    endloop
  endfacet
  facet normal 0.000000e+000 1.000000e+000 -0.000000e+000
    outer loop
      vertex   1.050000e+002 3.183935e+001 0.000000e+000
      vertex   7.700000e+001 3.183935e+001 6.000000e+000
      vertex   1.050000e+002 3.183935e+001 6.000000e+000
    endloop
  endfacet
  facet normal 1.000000e+000 0.000000e+000 -0.000000e+000
    outer loop
      vertex   1.050000e+002 3.183935e+001 0.000000e+000
      vertex   1.050000e+002 3.183935e+001 6.000000e+000
      vertex   1.050000e+002 1.983935e+001 0.000000e+000
    endloop
  endfacet
  facet normal 1.000000e+000 0.000000e+000 -0.000000e+000
    outer loop
      vertex   1.050000e+002 1.983935e+001 0.000000e+000
      vertex   1.050000e+002 3.183935e+001 6.000000e+000
      vertex   1.050000e+002 1.983935e+001 6.000000e+000
    endloop
  endfacet
  facet normal -5.000000e-001 -8.660254e-001 -0.000000e+000
    outer loop
      vertex   8.300000e+001 2.913025e+001 6.000000e+000
      vertex   8.300000e+001 2.913025e+001 3.000000e+000
      vertex   8.585000e+001 2.748480e+001 6.000000e+000
    endloop
  endfacet
  facet normal -5.000000e-001 -8.660254e-001 0.000000e+000
    outer loop
      vertex   8.585000e+001 2.748480e+001 6.000000e+000
      vertex   8.300000e+001 2.913025e+001 3.000000e+000
      vertex   8.585000e+001 2.748480e+001 3.000000e+000
    endloop
  endfacet
  facet normal -1.000000e+000 3.342312e-012 0.000000e+000
    outer loop
      vertex   8.585000e+001 2.748480e+001 6.000000e+000
      vertex   8.585000e+001 2.748480e+001 3.000000e+000
      vertex   8.585000e+001 2.419391e+001 6.000000e+000
    endloop
  endfacet
  facet normal -1.000000e+000 3.342312e-012 0.000000e+000
    outer loop
      vertex   8.585000e+001 2.419391e+001 6.000000e+000
      vertex   8.585000e+001 2.748480e+001 3.000000e+000
      vertex   8.585000e+001 2.419391e+001 3.000000e+000
    endloop
  endfacet
  facet normal -5.000000e-001 8.660254e-001 0.000000e+000
    outer loop
      vertex   8.585000e+001 2.419391e+001 6.000000e+000
      vertex   8.585000e+001 2.419391e+001 3.000000e+000
      vertex   8.300000e+001 2.254846e+001 6.000000e+000
    endloop
  endfacet
  facet normal -5.000000e-001 8.660254e-001 0.000000e+000
    outer loop
      vertex   8.300000e+001 2.254846e+001 6.000000e+000
      vertex   8.585000e+001 2.419391e+001 3.000000e+000
      vertex   8.300000e+001 2.254846e+001 3.000000e+000
    endloop
  endfacet
  facet normal 5.000000e-001 8.660254e-001 0.000000e+000
    outer loop
      vertex   8.300000e+001 2.254846e+001 6.000000e+000
      vertex   8.300000e+001 2.254846e+001 3.000000e+000
      vertex   8.015000e+001 2.419391e+001 6.000000e+000
    endloop
  endfacet
  facet normal 5.000000e-001 8.660254e-001 0.000000e+000
    outer loop
      vertex   8.015000e+001 2.419391e+001 6.000000e+000
      vertex   8.300000e+001 2.254846e+001 3.000000e+000
      vertex   8.015000e+001 2.419391e+001 3.000000e+000
    endloop
  endfacet
  facet normal 5.000000e-001 8.660254e-001 0.000000e+000
    outer loop
      vertex   9.900000e+001 2.254846e+001 6.000000e+000
      vertex   9.900000e+001 2.254846e+001 3.000000e+000
      vertex   9.615000e+001 2.419391e+001 6.000000e+000
    endloop
  endfacet
  facet normal 5.000000e-001 8.660254e-001 0.000000e+000
    outer loop
      vertex   9.615000e+001 2.419391e+001 6.000000e+000
      vertex   9.900000e+001 2.254846e+001 3.000000e+000
      vertex   9.615000e+001 2.419391e+001 3.000000e+000
    endloop
  endfacet
  facet normal -5.000000e-001 8.660254e-001 0.000000e+000
    outer loop
      vertex   1.018500e+002 2.419391e+001 6.000000e+000
      vertex   1.018500e+002 2.419391e+001 3.000000e+000
      vertex   9.900000e+001 2.254846e+001 6.000000e+000
    endloop
  endfacet
  facet normal -5.000000e-001 8.660254e-001 0.000000e+000
    outer loop
      vertex   9.900000e+001 2.254846e+001 6.000000e+000
      vertex   1.018500e+002 2.419391e+001 3.000000e+000
      vertex   9.900000e+001 2.254846e+001 3.000000e+000
    endloop
  endfacet
  facet normal -1.000000e+000 3.342312e-012 0.000000e+000
    outer loop
      vertex   1.018500e+002 2.748480e+001 6.000000e+000
      vertex   1.018500e+002 2.748480e+001 3.000000e+000
      vertex   1.018500e+002 2.419391e+001 6.000000e+000
    endloop
  endfacet
  facet normal -1.000000e+000 3.342312e-012 0.000000e+000
    outer loop
      vertex   1.018500e+002 2.419391e+001 6.000000e+000
      vertex   1.018500e+002 2.748480e+001 3.000000e+000
      vertex   1.018500e+002 2.419391e+001 3.000000e+000
    endloop
  endfacet
  facet normal -5.000000e-001 -8.660254e-001 -0.000000e+000
    outer loop
      vertex   9.900000e+001 2.913025e+001 6.000000e+000
      vertex   9.900000e+001 2.913025e+001 3.000000e+000
      vertex   1.018500e+002 2.748480e+001 6.000000e+000
    endloop
  endfacet
  facet normal -5.000000e-001 -8.660254e-001 0.000000e+000
    outer loop
      vertex   1.018500e+002 2.748480e+001 6.000000e+000
      vertex   9.900000e+001 2.913025e+001 3.000000e+000
      vertex   1.018500e+002 2.748480e+001 3.000000e+000
    endloop
  endfacet
endsolid
