solid ascii
  facet normal -9.961947e-001 8.715574e-002 -2.064530e-015
    outer loop
      vertex   3.151385e+000 -5.556742e-001 -1.500000e+000
      vertex   3.151385e+000 -5.556742e-001 0.000000e+000
      vertex   3.200000e+000 0.000000e+000 -1.500000e+000
    endloop
  endfacet
  facet normal -9.659258e-001 2.588190e-001 -1.990372e-015
    outer loop
      vertex   3.151385e+000 -5.556742e-001 -1.500000e+000
      vertex   3.007016e+000 -1.094464e+000 0.000000e+000
      vertex   3.151385e+000 -5.556742e-001 0.000000e+000
    endloop
  endfacet
  facet normal -9.659258e-001 2.588190e-001 -2.001800e-015
    outer loop
      vertex   3.151385e+000 -5.556742e-001 -1.500000e+000
      vertex   3.007016e+000 -1.094464e+000 -1.500000e+000
      vertex   3.007016e+000 -1.094464e+000 0.000000e+000
    endloop
  endfacet
  facet normal -9.063078e-001 4.226183e-001 -1.878247e-015
    outer loop
      vertex   3.007016e+000 -1.094464e+000 0.000000e+000
      vertex   3.007016e+000 -1.094464e+000 -1.500000e+000
      vertex   2.771281e+000 -1.600000e+000 0.000000e+000
    endloop
  endfacet
  facet normal -9.063078e-001 4.226183e-001 -1.874267e-015
    outer loop
      vertex   2.771281e+000 -1.600000e+000 0.000000e+000
      vertex   3.007016e+000 -1.094464e+000 -1.500000e+000
      vertex   2.771281e+000 -1.600000e+000 -1.500000e+000
    endloop
  endfacet
  facet normal -8.191520e-001 5.735764e-001 -1.691816e-015
    outer loop
      vertex   2.451342e+000 -2.056920e+000 0.000000e+000
      vertex   2.771281e+000 -1.600000e+000 -1.500000e+000
      vertex   2.451342e+000 -2.056920e+000 -1.500000e+000
    endloop
  endfacet
  facet normal -7.071068e-001 7.071068e-001 -1.459606e-015
    outer loop
      vertex   2.056920e+000 -2.451342e+000 0.000000e+000
      vertex   2.451342e+000 -2.056920e+000 -1.500000e+000
      vertex   2.056920e+000 -2.451342e+000 -1.500000e+000
    endloop
  endfacet
  facet normal -5.735764e-001 8.191520e-001 -1.260569e-015
    outer loop
      vertex   1.600000e+000 -2.771281e+000 0.000000e+000
      vertex   2.056920e+000 -2.451342e+000 -1.500000e+000
      vertex   1.600000e+000 -2.771281e+000 -1.500000e+000
    endloop
  endfacet
  facet normal -4.226183e-001 9.063078e-001 -9.454267e-016
    outer loop
      vertex   1.094464e+000 -3.007016e+000 0.000000e+000
      vertex   1.600000e+000 -2.771281e+000 -1.500000e+000
      vertex   1.094464e+000 -3.007016e+000 -1.500000e+000
    endloop
  endfacet
  facet normal -2.588190e-001 9.659258e-001 -5.805252e-016
    outer loop
      vertex   5.556742e-001 -3.151385e+000 0.000000e+000
      vertex   1.094464e+000 -3.007016e+000 -1.500000e+000
      vertex   5.556742e-001 -3.151385e+000 -1.500000e+000
    endloop
  endfacet
  facet normal -8.715574e-002 9.961947e-001 -1.948906e-016
    outer loop
      vertex   1.959370e-016 -3.200000e+000 0.000000e+000
      vertex   5.556742e-001 -3.151385e+000 -1.500000e+000
      vertex   3.502374e-015 -3.200000e+000 -1.500000e+000
    endloop
  endfacet
  facet normal 8.715574e-002 9.961947e-001 1.948906e-016
    outer loop
      vertex   -5.556742e-001 -3.151385e+000 0.000000e+000
      vertex   3.502374e-015 -3.200000e+000 -1.500000e+000
      vertex   -5.556742e-001 -3.151385e+000 -1.500000e+000
    endloop
  endfacet
  facet normal 2.588190e-001 9.659258e-001 5.639387e-016
    outer loop
      vertex   -1.094464e+000 -3.007016e+000 0.000000e+000
      vertex   -5.556742e-001 -3.151385e+000 -1.500000e+000
      vertex   -1.094464e+000 -3.007016e+000 -1.500000e+000
    endloop
  endfacet
  facet normal 4.226183e-001 9.063078e-001 9.454267e-016
    outer loop
      vertex   -1.600000e+000 -2.771281e+000 0.000000e+000
      vertex   -1.094464e+000 -3.007016e+000 -1.500000e+000
      vertex   -1.600000e+000 -2.771281e+000 -1.500000e+000
    endloop
  endfacet
  facet normal 5.735764e-001 8.191520e-001 1.194223e-015
    outer loop
      vertex   -2.056920e+000 -2.451342e+000 0.000000e+000
      vertex   -1.600000e+000 -2.771281e+000 -1.500000e+000
      vertex   -2.056920e+000 -2.451342e+000 -1.500000e+000
    endloop
  endfacet
  facet normal 7.071068e-001 7.071068e-001 1.459606e-015
    outer loop
      vertex   -2.451342e+000 -2.056920e+000 0.000000e+000
      vertex   -2.056920e+000 -2.451342e+000 -1.500000e+000
      vertex   -2.451342e+000 -2.056920e+000 -1.500000e+000
    endloop
  endfacet
  facet normal 8.191520e-001 5.735764e-001 1.691816e-015
    outer loop
      vertex   -2.771281e+000 -1.600000e+000 0.000000e+000
      vertex   -2.451342e+000 -2.056920e+000 -1.500000e+000
      vertex   -2.771281e+000 -1.600000e+000 -1.500000e+000
    endloop
  endfacet
  facet normal 9.063078e-001 4.226183e-001 1.874267e-015
    outer loop
      vertex   -3.007016e+000 -1.094464e+000 0.000000e+000
      vertex   -2.771281e+000 -1.600000e+000 -1.500000e+000
      vertex   -3.007016e+000 -1.094464e+000 -1.500000e+000
    endloop
  endfacet
  facet normal 9.659258e-001 2.588190e-001 2.006958e-015
    outer loop
      vertex   -3.151385e+000 -5.556742e-001 0.000000e+000
      vertex   -3.007016e+000 -1.094464e+000 -1.500000e+000
      vertex   -3.151385e+000 -5.556742e-001 -1.500000e+000
    endloop
  endfacet
  facet normal 9.961947e-001 8.715574e-002 2.065011e-015
    outer loop
      vertex   -3.200000e+000 -3.918740e-016 0.000000e+000
      vertex   -3.151385e+000 -5.556742e-001 -1.500000e+000
      vertex   -3.200000e+000 -3.918740e-016 -1.500000e+000
    endloop
  endfacet
  facet normal 9.961947e-001 -8.715574e-002 2.065011e-015
    outer loop
      vertex   -3.151385e+000 5.556742e-001 0.000000e+000
      vertex   -3.200000e+000 -3.918740e-016 -1.500000e+000
      vertex   -3.151385e+000 5.556742e-001 -1.500000e+000
    endloop
  endfacet
  facet normal 9.659258e-001 -2.588190e-001 1.990372e-015
    outer loop
      vertex   -3.007016e+000 1.094464e+000 0.000000e+000
      vertex   -3.151385e+000 5.556742e-001 -1.500000e+000
      vertex   -3.007016e+000 1.094464e+000 -1.500000e+000
    endloop
  endfacet
  facet normal 9.063078e-001 -4.226183e-001 1.874267e-015
    outer loop
      vertex   -2.771281e+000 1.600000e+000 0.000000e+000
      vertex   -3.007016e+000 1.094464e+000 -1.500000e+000
      vertex   -2.771281e+000 1.600000e+000 -1.500000e+000
    endloop
  endfacet
  facet normal 8.191520e-001 -5.735764e-001 1.691816e-015
    outer loop
      vertex   -2.451342e+000 2.056920e+000 0.000000e+000
      vertex   -2.771281e+000 1.600000e+000 -1.500000e+000
      vertex   -2.451342e+000 2.056920e+000 -1.500000e+000
    endloop
  endfacet
  facet normal 7.071068e-001 -7.071068e-001 1.459606e-015
    outer loop
      vertex   -2.056920e+000 2.451342e+000 0.000000e+000
      vertex   -2.451342e+000 2.056920e+000 -1.500000e+000
      vertex   -2.056920e+000 2.451342e+000 -1.500000e+000
    endloop
  endfacet
  facet normal 5.735764e-001 -8.191520e-001 1.260569e-015
    outer loop
      vertex   -1.600000e+000 2.771281e+000 0.000000e+000
      vertex   -2.056920e+000 2.451342e+000 -1.500000e+000
      vertex   -1.600000e+000 2.771281e+000 -1.500000e+000
    endloop
  endfacet
  facet normal 4.226183e-001 -9.063078e-001 9.288403e-016
    outer loop
      vertex   -1.094464e+000 3.007016e+000 0.000000e+000
      vertex   -1.600000e+000 2.771281e+000 -1.500000e+000
      vertex   -1.094464e+000 3.007016e+000 -1.500000e+000
    endloop
  endfacet
  facet normal 2.588190e-001 -9.659258e-001 5.639387e-016
    outer loop
      vertex   -5.556742e-001 3.151385e+000 0.000000e+000
      vertex   -1.094464e+000 3.007016e+000 -1.500000e+000
      vertex   -5.556742e-001 3.151385e+000 -1.500000e+000
    endloop
  endfacet
  facet normal 8.715574e-002 -9.961947e-001 1.865974e-016
    outer loop
      vertex   -5.878110e-016 3.200000e+000 0.000000e+000
      vertex   -5.556742e-001 3.151385e+000 -1.500000e+000
      vertex   2.718626e-015 3.200000e+000 -1.500000e+000
    endloop
  endfacet
  facet normal -8.715574e-002 -9.961947e-001 -1.948906e-016
    outer loop
      vertex   5.556742e-001 3.151385e+000 0.000000e+000
      vertex   2.718626e-015 3.200000e+000 -1.500000e+000
      vertex   5.556742e-001 3.151385e+000 -1.500000e+000
    endloop
  endfacet
  facet normal -2.588190e-001 -9.659258e-001 -5.805252e-016
    outer loop
      vertex   1.094464e+000 3.007016e+000 0.000000e+000
      vertex   5.556742e-001 3.151385e+000 -1.500000e+000
      vertex   1.094464e+000 3.007016e+000 -1.500000e+000
    endloop
  endfacet
  facet normal -4.226183e-001 -9.063078e-001 -9.288403e-016
    outer loop
      vertex   1.600000e+000 2.771281e+000 0.000000e+000
      vertex   1.094464e+000 3.007016e+000 -1.500000e+000
      vertex   1.600000e+000 2.771281e+000 -1.500000e+000
    endloop
  endfacet
  facet normal -5.735764e-001 -8.191520e-001 -1.161050e-015
    outer loop
      vertex   2.056920e+000 2.451342e+000 0.000000e+000
      vertex   1.600000e+000 2.771281e+000 -1.500000e+000
      vertex   2.056920e+000 2.451342e+000 -1.500000e+000
    endloop
  endfacet
  facet normal -7.071068e-001 -7.071068e-001 -1.459606e-015
    outer loop
      vertex   2.451342e+000 2.056920e+000 0.000000e+000
      vertex   2.056920e+000 2.451342e+000 -1.500000e+000
      vertex   2.451342e+000 2.056920e+000 -1.500000e+000
    endloop
  endfacet
  facet normal -8.191520e-001 -5.735764e-001 -1.691816e-015
    outer loop
      vertex   2.771281e+000 1.600000e+000 0.000000e+000
      vertex   2.451342e+000 2.056920e+000 -1.500000e+000
      vertex   2.771281e+000 1.600000e+000 -1.500000e+000
    endloop
  endfacet
  facet normal -9.063078e-001 -4.226183e-001 -1.874267e-015
    outer loop
      vertex   3.007016e+000 1.094464e+000 0.000000e+000
      vertex   2.771281e+000 1.600000e+000 -1.500000e+000
      vertex   3.007016e+000 1.094464e+000 -1.500000e+000
    endloop
  endfacet
  facet normal -9.659258e-001 -2.588190e-001 -2.006958e-015
    outer loop
      vertex   3.151385e+000 5.556742e-001 0.000000e+000
      vertex   3.007016e+000 1.094464e+000 -1.500000e+000
      vertex   3.151385e+000 5.556742e-001 -1.500000e+000
    endloop
  endfacet
  facet normal -9.961947e-001 -8.715574e-002 0.000000e+000
    outer loop
      vertex   3.200000e+000 0.000000e+000 0.000000e+000
      vertex   3.151385e+000 5.556742e-001 -1.500000e+000
      vertex   3.200000e+000 0.000000e+000 -1.500000e+000
    endloop
  endfacet
  facet normal -9.961947e-001 8.715574e-002 0.000000e+000
    outer loop
      vertex   3.151385e+000 -5.556742e-001 0.000000e+000
      vertex   3.200000e+000 0.000000e+000 0.000000e+000
      vertex   3.200000e+000 0.000000e+000 -1.500000e+000
    endloop
  endfacet
  facet normal -9.961947e-001 -8.715574e-002 -2.064530e-015
    outer loop
      vertex   3.200000e+000 0.000000e+000 0.000000e+000
      vertex   3.151385e+000 5.556742e-001 0.000000e+000
      vertex   3.151385e+000 5.556742e-001 -1.500000e+000
    endloop
  endfacet
  facet normal -9.659258e-001 -2.588190e-001 -2.001800e-015
    outer loop
      vertex   3.151385e+000 5.556742e-001 0.000000e+000
      vertex   3.007016e+000 1.094464e+000 0.000000e+000
      vertex   3.007016e+000 1.094464e+000 -1.500000e+000
    endloop
  endfacet
  facet normal -9.063078e-001 -4.226183e-001 -1.878247e-015
    outer loop
      vertex   3.007016e+000 1.094464e+000 0.000000e+000
      vertex   2.771281e+000 1.600000e+000 0.000000e+000
      vertex   2.771281e+000 1.600000e+000 -1.500000e+000
    endloop
  endfacet
  facet normal -8.191520e-001 -5.735764e-001 -1.697624e-015
    outer loop
      vertex   2.771281e+000 1.600000e+000 0.000000e+000
      vertex   2.451342e+000 2.056920e+000 0.000000e+000
      vertex   2.451342e+000 2.056920e+000 -1.500000e+000
    endloop
  endfacet
  facet normal -7.071068e-001 -7.071068e-001 -1.465420e-015
    outer loop
      vertex   2.451342e+000 2.056920e+000 0.000000e+000
      vertex   2.056920e+000 2.451342e+000 0.000000e+000
      vertex   2.056920e+000 2.451342e+000 -1.500000e+000
    endloop
  endfacet
  facet normal -5.735764e-001 -8.191520e-001 -1.273596e-015
    outer loop
      vertex   2.056920e+000 2.451342e+000 0.000000e+000
      vertex   1.600000e+000 2.771281e+000 0.000000e+000
      vertex   1.600000e+000 2.771281e+000 -1.500000e+000
    endloop
  endfacet
  facet normal -4.226183e-001 -9.063078e-001 -9.384010e-016
    outer loop
      vertex   1.600000e+000 2.771281e+000 0.000000e+000
      vertex   1.094464e+000 3.007016e+000 0.000000e+000
      vertex   1.094464e+000 3.007016e+000 -1.500000e+000
    endloop
  endfacet
  facet normal -2.588190e-001 -9.659258e-001 -5.746937e-016
    outer loop
      vertex   1.094464e+000 3.007016e+000 0.000000e+000
      vertex   5.556742e-001 3.151385e+000 0.000000e+000
      vertex   5.556742e-001 3.151385e+000 -1.500000e+000
    endloop
  endfacet
  facet normal -8.715574e-002 -9.961947e-001 -1.921167e-016
    outer loop
      vertex   5.556742e-001 3.151385e+000 0.000000e+000
      vertex   -5.878110e-016 3.200000e+000 0.000000e+000
      vertex   2.718626e-015 3.200000e+000 -1.500000e+000
    endloop
  endfacet
  facet normal 8.715574e-002 -9.961947e-001 1.935246e-016
    outer loop
      vertex   -5.878110e-016 3.200000e+000 0.000000e+000
      vertex   -5.556742e-001 3.151385e+000 0.000000e+000
      vertex   -5.556742e-001 3.151385e+000 -1.500000e+000
    endloop
  endfacet
  facet normal 2.588190e-001 -9.659258e-001 5.746937e-016
    outer loop
      vertex   -5.556742e-001 3.151385e+000 0.000000e+000
      vertex   -1.094464e+000 3.007016e+000 0.000000e+000
      vertex   -1.094464e+000 3.007016e+000 -1.500000e+000
    endloop
  endfacet
  facet normal 4.226183e-001 -9.063078e-001 9.384010e-016
    outer loop
      vertex   -1.094464e+000 3.007016e+000 0.000000e+000
      vertex   -1.600000e+000 2.771281e+000 0.000000e+000
      vertex   -1.600000e+000 2.771281e+000 -1.500000e+000
    endloop
  endfacet
  facet normal 5.735764e-001 -8.191520e-001 1.188689e-015
    outer loop
      vertex   -1.600000e+000 2.771281e+000 0.000000e+000
      vertex   -2.056920e+000 2.451342e+000 0.000000e+000
      vertex   -2.056920e+000 2.451342e+000 -1.500000e+000
    endloop
  endfacet
  facet normal 7.071068e-001 -7.071068e-001 1.465420e-015
    outer loop
      vertex   -2.056920e+000 2.451342e+000 0.000000e+000
      vertex   -2.451342e+000 2.056920e+000 0.000000e+000
      vertex   -2.451342e+000 2.056920e+000 -1.500000e+000
    endloop
  endfacet
  facet normal 8.191520e-001 -5.735764e-001 1.697624e-015
    outer loop
      vertex   -2.451342e+000 2.056920e+000 0.000000e+000
      vertex   -2.771281e+000 1.600000e+000 0.000000e+000
      vertex   -2.771281e+000 1.600000e+000 -1.500000e+000
    endloop
  endfacet
  facet normal 9.063078e-001 -4.226183e-001 1.878247e-015
    outer loop
      vertex   -2.771281e+000 1.600000e+000 0.000000e+000
      vertex   -3.007016e+000 1.094464e+000 0.000000e+000
      vertex   -3.007016e+000 1.094464e+000 -1.500000e+000
    endloop
  endfacet
  facet normal 9.659258e-001 -2.588190e-001 2.001800e-015
    outer loop
      vertex   -3.007016e+000 1.094464e+000 0.000000e+000
      vertex   -3.151385e+000 5.556742e-001 0.000000e+000
      vertex   -3.151385e+000 5.556742e-001 -1.500000e+000
    endloop
  endfacet
  facet normal 9.961947e-001 -8.715574e-002 2.064530e-015
    outer loop
      vertex   -3.151385e+000 5.556742e-001 0.000000e+000
      vertex   -3.200000e+000 -3.918740e-016 0.000000e+000
      vertex   -3.200000e+000 -3.918740e-016 -1.500000e+000
    endloop
  endfacet
  facet normal 9.961947e-001 8.715574e-002 2.064530e-015
    outer loop
      vertex   -3.200000e+000 -3.918740e-016 0.000000e+000
      vertex   -3.151385e+000 -5.556742e-001 0.000000e+000
      vertex   -3.151385e+000 -5.556742e-001 -1.500000e+000
    endloop
  endfacet
  facet normal 9.659258e-001 2.588190e-001 2.001800e-015
    outer loop
      vertex   -3.151385e+000 -5.556742e-001 0.000000e+000
      vertex   -3.007016e+000 -1.094464e+000 0.000000e+000
      vertex   -3.007016e+000 -1.094464e+000 -1.500000e+000
    endloop
  endfacet
  facet normal 9.063078e-001 4.226183e-001 1.878247e-015
    outer loop
      vertex   -3.007016e+000 -1.094464e+000 0.000000e+000
      vertex   -2.771281e+000 -1.600000e+000 0.000000e+000
      vertex   -2.771281e+000 -1.600000e+000 -1.500000e+000
    endloop
  endfacet
  facet normal 8.191520e-001 5.735764e-001 1.697624e-015
    outer loop
      vertex   -2.771281e+000 -1.600000e+000 0.000000e+000
      vertex   -2.451342e+000 -2.056920e+000 0.000000e+000
      vertex   -2.451342e+000 -2.056920e+000 -1.500000e+000
    endloop
  endfacet
  facet normal 7.071068e-001 7.071068e-001 1.465420e-015
    outer loop
      vertex   -2.451342e+000 -2.056920e+000 0.000000e+000
      vertex   -2.056920e+000 -2.451342e+000 0.000000e+000
      vertex   -2.056920e+000 -2.451342e+000 -1.500000e+000
    endloop
  endfacet
  facet normal 5.735764e-001 8.191520e-001 1.273596e-015
    outer loop
      vertex   -2.056920e+000 -2.451342e+000 0.000000e+000
      vertex   -1.600000e+000 -2.771281e+000 0.000000e+000
      vertex   -1.600000e+000 -2.771281e+000 -1.500000e+000
    endloop
  endfacet
  facet normal 4.226183e-001 9.063078e-001 9.384010e-016
    outer loop
      vertex   -1.600000e+000 -2.771281e+000 0.000000e+000
      vertex   -1.094464e+000 -3.007016e+000 0.000000e+000
      vertex   -1.094464e+000 -3.007016e+000 -1.500000e+000
    endloop
  endfacet
  facet normal 2.588190e-001 9.659258e-001 5.746937e-016
    outer loop
      vertex   -1.094464e+000 -3.007016e+000 0.000000e+000
      vertex   -5.556742e-001 -3.151385e+000 0.000000e+000
      vertex   -5.556742e-001 -3.151385e+000 -1.500000e+000
    endloop
  endfacet
  facet normal 8.715574e-002 9.961947e-001 1.921167e-016
    outer loop
      vertex   -5.556742e-001 -3.151385e+000 0.000000e+000
      vertex   1.959370e-016 -3.200000e+000 0.000000e+000
      vertex   3.502374e-015 -3.200000e+000 -1.500000e+000
    endloop
  endfacet
  facet normal -8.715574e-002 9.961947e-001 -1.935246e-016
    outer loop
      vertex   1.959370e-016 -3.200000e+000 0.000000e+000
      vertex   5.556742e-001 -3.151385e+000 0.000000e+000
      vertex   5.556742e-001 -3.151385e+000 -1.500000e+000
    endloop
  endfacet
  facet normal -2.588190e-001 9.659258e-001 -5.746937e-016
    outer loop
      vertex   5.556742e-001 -3.151385e+000 0.000000e+000
      vertex   1.094464e+000 -3.007016e+000 0.000000e+000
      vertex   1.094464e+000 -3.007016e+000 -1.500000e+000
    endloop
  endfacet
  facet normal -4.226183e-001 9.063078e-001 -9.384010e-016
    outer loop
      vertex   1.094464e+000 -3.007016e+000 0.000000e+000
      vertex   1.600000e+000 -2.771281e+000 0.000000e+000
      vertex   1.600000e+000 -2.771281e+000 -1.500000e+000
    endloop
  endfacet
  facet normal -5.735764e-001 8.191520e-001 -1.188689e-015
    outer loop
      vertex   1.600000e+000 -2.771281e+000 0.000000e+000
      vertex   2.056920e+000 -2.451342e+000 0.000000e+000
      vertex   2.056920e+000 -2.451342e+000 -1.500000e+000
    endloop
  endfacet
  facet normal -7.071068e-001 7.071068e-001 -1.465420e-015
    outer loop
      vertex   2.056920e+000 -2.451342e+000 0.000000e+000
      vertex   2.451342e+000 -2.056920e+000 0.000000e+000
      vertex   2.451342e+000 -2.056920e+000 -1.500000e+000
    endloop
  endfacet
  facet normal -8.191520e-001 5.735764e-001 -1.697624e-015
    outer loop
      vertex   2.451342e+000 -2.056920e+000 0.000000e+000
      vertex   2.771281e+000 -1.600000e+000 0.000000e+000
      vertex   2.771281e+000 -1.600000e+000 -1.500000e+000
    endloop
  endfacet
  facet normal 9.961947e-001 8.715574e-002 -0.000000e+000
    outer loop
      vertex   1.378731e+001 2.431074e+000 -1.500000e+000
      vertex   1.378731e+001 2.431074e+000 0.000000e+000
      vertex   1.400000e+001 0.000000e+000 -1.500000e+000
    endloop
  endfacet
  facet normal 9.659258e-001 2.588190e-001 0.000000e+000
    outer loop
      vertex   1.378731e+001 2.431074e+000 -1.500000e+000
      vertex   1.315570e+001 4.788282e+000 0.000000e+000
      vertex   1.378731e+001 2.431074e+000 0.000000e+000
    endloop
  endfacet
  facet normal 9.659258e-001 2.588190e-001 -0.000000e+000
    outer loop
      vertex   1.378731e+001 2.431074e+000 -1.500000e+000
      vertex   1.315570e+001 4.788282e+000 -1.500000e+000
      vertex   1.315570e+001 4.788282e+000 0.000000e+000
    endloop
  endfacet
  facet normal 9.063078e-001 4.226183e-001 0.000000e+000
    outer loop
      vertex   1.315570e+001 4.788282e+000 0.000000e+000
      vertex   1.315570e+001 4.788282e+000 -1.500000e+000
      vertex   1.212436e+001 7.000000e+000 0.000000e+000
    endloop
  endfacet
  facet normal 9.063078e-001 4.226183e-001 0.000000e+000
    outer loop
      vertex   1.212436e+001 7.000000e+000 0.000000e+000
      vertex   1.315570e+001 4.788282e+000 -1.500000e+000
      vertex   1.212436e+001 7.000000e+000 -1.500000e+000
    endloop
  endfacet
  facet normal 8.191520e-001 5.735764e-001 0.000000e+000
    outer loop
      vertex   1.072462e+001 8.999027e+000 0.000000e+000
      vertex   1.212436e+001 7.000000e+000 -1.500000e+000
      vertex   1.072462e+001 8.999027e+000 -1.500000e+000
    endloop
  endfacet
  facet normal 7.071068e-001 7.071068e-001 0.000000e+000
    outer loop
      vertex   8.999027e+000 1.072462e+001 0.000000e+000
      vertex   1.072462e+001 8.999027e+000 -1.500000e+000
      vertex   8.999027e+000 1.072462e+001 -1.500000e+000
    endloop
  endfacet
  facet normal 5.735764e-001 8.191520e-001 0.000000e+000
    outer loop
      vertex   7.000000e+000 1.212436e+001 0.000000e+000
      vertex   8.999027e+000 1.072462e+001 -1.500000e+000
      vertex   7.000000e+000 1.212436e+001 -1.500000e+000
    endloop
  endfacet
  facet normal 4.226183e-001 9.063078e-001 0.000000e+000
    outer loop
      vertex   4.788282e+000 1.315570e+001 0.000000e+000
      vertex   7.000000e+000 1.212436e+001 -1.500000e+000
      vertex   4.788282e+000 1.315570e+001 -1.500000e+000
    endloop
  endfacet
  facet normal 2.588190e-001 9.659258e-001 0.000000e+000
    outer loop
      vertex   2.431074e+000 1.378731e+001 0.000000e+000
      vertex   4.788282e+000 1.315570e+001 -1.500000e+000
      vertex   2.431074e+000 1.378731e+001 -1.500000e+000
    endloop
  endfacet
  facet normal 8.715574e-002 9.961947e-001 0.000000e+000
    outer loop
      vertex   -2.571673e-015 1.400000e+001 0.000000e+000
      vertex   2.431074e+000 1.378731e+001 -1.500000e+000
      vertex   -2.571673e-015 1.400000e+001 -1.500000e+000
    endloop
  endfacet
  facet normal -8.715574e-002 9.961947e-001 0.000000e+000
    outer loop
      vertex   -2.431074e+000 1.378731e+001 0.000000e+000
      vertex   -2.571673e-015 1.400000e+001 -1.500000e+000
      vertex   -2.431074e+000 1.378731e+001 -1.500000e+000
    endloop
  endfacet
  facet normal -2.588190e-001 9.659258e-001 0.000000e+000
    outer loop
      vertex   -4.788282e+000 1.315570e+001 0.000000e+000
      vertex   -2.431074e+000 1.378731e+001 -1.500000e+000
      vertex   -4.788282e+000 1.315570e+001 -1.500000e+000
    endloop
  endfacet
  facet normal -4.226183e-001 9.063078e-001 0.000000e+000
    outer loop
      vertex   -7.000000e+000 1.212436e+001 0.000000e+000
      vertex   -4.788282e+000 1.315570e+001 -1.500000e+000
      vertex   -7.000000e+000 1.212436e+001 -1.500000e+000
    endloop
  endfacet
  facet normal -5.735764e-001 8.191520e-001 0.000000e+000
    outer loop
      vertex   -8.999027e+000 1.072462e+001 0.000000e+000
      vertex   -7.000000e+000 1.212436e+001 -1.500000e+000
      vertex   -8.999027e+000 1.072462e+001 -1.500000e+000
    endloop
  endfacet
  facet normal -7.071068e-001 7.071068e-001 0.000000e+000
    outer loop
      vertex   -1.072462e+001 8.999027e+000 0.000000e+000
      vertex   -8.999027e+000 1.072462e+001 -1.500000e+000
      vertex   -1.072462e+001 8.999027e+000 -1.500000e+000
    endloop
  endfacet
  facet normal -8.191520e-001 5.735764e-001 0.000000e+000
    outer loop
      vertex   -1.212436e+001 7.000000e+000 0.000000e+000
      vertex   -1.072462e+001 8.999027e+000 -1.500000e+000
      vertex   -1.212436e+001 7.000000e+000 -1.500000e+000
    endloop
  endfacet
  facet normal -9.063078e-001 4.226183e-001 0.000000e+000
    outer loop
      vertex   -1.315570e+001 4.788282e+000 0.000000e+000
      vertex   -1.212436e+001 7.000000e+000 -1.500000e+000
      vertex   -1.315570e+001 4.788282e+000 -1.500000e+000
    endloop
  endfacet
  facet normal -9.659258e-001 2.588190e-001 0.000000e+000
    outer loop
      vertex   -1.378731e+001 2.431074e+000 0.000000e+000
      vertex   -1.315570e+001 4.788282e+000 -1.500000e+000
      vertex   -1.378731e+001 2.431074e+000 -1.500000e+000
    endloop
  endfacet
  facet normal -9.961947e-001 8.715574e-002 0.000000e+000
    outer loop
      vertex   -1.400000e+001 -1.714449e-015 0.000000e+000
      vertex   -1.378731e+001 2.431074e+000 -1.500000e+000
      vertex   -1.400000e+001 -1.714449e-015 -1.500000e+000
    endloop
  endfacet
  facet normal -9.961947e-001 -8.715574e-002 0.000000e+000
    outer loop
      vertex   -1.378731e+001 -2.431074e+000 0.000000e+000
      vertex   -1.400000e+001 -1.714449e-015 -1.500000e+000
      vertex   -1.378731e+001 -2.431074e+000 -1.500000e+000
    endloop
  endfacet
  facet normal -9.659258e-001 -2.588190e-001 0.000000e+000
    outer loop
      vertex   -1.315570e+001 -4.788282e+000 0.000000e+000
      vertex   -1.378731e+001 -2.431074e+000 -1.500000e+000
      vertex   -1.315570e+001 -4.788282e+000 -1.500000e+000
    endloop
  endfacet
  facet normal -9.063078e-001 -4.226183e-001 0.000000e+000
    outer loop
      vertex   -1.212436e+001 -7.000000e+000 0.000000e+000
      vertex   -1.315570e+001 -4.788282e+000 -1.500000e+000
      vertex   -1.212436e+001 -7.000000e+000 -1.500000e+000
    endloop
  endfacet
  facet normal -8.191520e-001 -5.735764e-001 0.000000e+000
    outer loop
      vertex   -1.072462e+001 -8.999027e+000 0.000000e+000
      vertex   -1.212436e+001 -7.000000e+000 -1.500000e+000
      vertex   -1.072462e+001 -8.999027e+000 -1.500000e+000
    endloop
  endfacet
  facet normal -7.071068e-001 -7.071068e-001 0.000000e+000
    outer loop
      vertex   -8.999027e+000 -1.072462e+001 0.000000e+000
      vertex   -1.072462e+001 -8.999027e+000 -1.500000e+000
      vertex   -8.999027e+000 -1.072462e+001 -1.500000e+000
    endloop
  endfacet
  facet normal -5.735764e-001 -8.191520e-001 0.000000e+000
    outer loop
      vertex   -7.000000e+000 -1.212436e+001 0.000000e+000
      vertex   -8.999027e+000 -1.072462e+001 -1.500000e+000
      vertex   -7.000000e+000 -1.212436e+001 -1.500000e+000
    endloop
  endfacet
  facet normal -4.226183e-001 -9.063078e-001 0.000000e+000
    outer loop
      vertex   -4.788282e+000 -1.315570e+001 0.000000e+000
      vertex   -7.000000e+000 -1.212436e+001 -1.500000e+000
      vertex   -4.788282e+000 -1.315570e+001 -1.500000e+000
    endloop
  endfacet
  facet normal -2.588190e-001 -9.659258e-001 0.000000e+000
    outer loop
      vertex   -2.431074e+000 -1.378731e+001 0.000000e+000
      vertex   -4.788282e+000 -1.315570e+001 -1.500000e+000
      vertex   -2.431074e+000 -1.378731e+001 -1.500000e+000
    endloop
  endfacet
  facet normal -8.715574e-002 -9.961947e-001 0.000000e+000
    outer loop
      vertex   8.572244e-016 -1.400000e+001 0.000000e+000
      vertex   -2.431074e+000 -1.378731e+001 -1.500000e+000
      vertex   8.572244e-016 -1.400000e+001 -1.500000e+000
    endloop
  endfacet
  facet normal 8.715574e-002 -9.961947e-001 0.000000e+000
    outer loop
      vertex   2.431074e+000 -1.378731e+001 0.000000e+000
      vertex   8.572244e-016 -1.400000e+001 -1.500000e+000
      vertex   2.431074e+000 -1.378731e+001 -1.500000e+000
    endloop
  endfacet
  facet normal 2.588190e-001 -9.659258e-001 0.000000e+000
    outer loop
      vertex   4.788282e+000 -1.315570e+001 0.000000e+000
      vertex   2.431074e+000 -1.378731e+001 -1.500000e+000
      vertex   4.788282e+000 -1.315570e+001 -1.500000e+000
    endloop
  endfacet
  facet normal 4.226183e-001 -9.063078e-001 0.000000e+000
    outer loop
      vertex   7.000000e+000 -1.212436e+001 0.000000e+000
      vertex   4.788282e+000 -1.315570e+001 -1.500000e+000
      vertex   7.000000e+000 -1.212436e+001 -1.500000e+000
    endloop
  endfacet
  facet normal 5.735764e-001 -8.191520e-001 0.000000e+000
    outer loop
      vertex   8.999027e+000 -1.072462e+001 0.000000e+000
      vertex   7.000000e+000 -1.212436e+001 -1.500000e+000
      vertex   8.999027e+000 -1.072462e+001 -1.500000e+000
    endloop
  endfacet
  facet normal 7.071068e-001 -7.071068e-001 0.000000e+000
    outer loop
      vertex   1.072462e+001 -8.999027e+000 0.000000e+000
      vertex   8.999027e+000 -1.072462e+001 -1.500000e+000
      vertex   1.072462e+001 -8.999027e+000 -1.500000e+000
    endloop
  endfacet
  facet normal 8.191520e-001 -5.735764e-001 0.000000e+000
    outer loop
      vertex   1.212436e+001 -7.000000e+000 0.000000e+000
      vertex   1.072462e+001 -8.999027e+000 -1.500000e+000
      vertex   1.212436e+001 -7.000000e+000 -1.500000e+000
    endloop
  endfacet
  facet normal 9.063078e-001 -4.226183e-001 0.000000e+000
    outer loop
      vertex   1.315570e+001 -4.788282e+000 0.000000e+000
      vertex   1.212436e+001 -7.000000e+000 -1.500000e+000
      vertex   1.315570e+001 -4.788282e+000 -1.500000e+000
    endloop
  endfacet
  facet normal 9.659258e-001 -2.588190e-001 0.000000e+000
    outer loop
      vertex   1.378731e+001 -2.431074e+000 0.000000e+000
      vertex   1.315570e+001 -4.788282e+000 -1.500000e+000
      vertex   1.378731e+001 -2.431074e+000 -1.500000e+000
    endloop
  endfacet
  facet normal 9.961947e-001 -8.715574e-002 0.000000e+000
    outer loop
      vertex   1.400000e+001 0.000000e+000 0.000000e+000
      vertex   1.378731e+001 -2.431074e+000 -1.500000e+000
      vertex   1.400000e+001 0.000000e+000 -1.500000e+000
    endloop
  endfacet
  facet normal 9.961947e-001 8.715574e-002 0.000000e+000
    outer loop
      vertex   1.378731e+001 2.431074e+000 0.000000e+000
      vertex   1.400000e+001 0.000000e+000 0.000000e+000
      vertex   1.400000e+001 0.000000e+000 -1.500000e+000
    endloop
  endfacet
  facet normal 9.961947e-001 -8.715574e-002 0.000000e+000
    outer loop
      vertex   1.400000e+001 0.000000e+000 0.000000e+000
      vertex   1.378731e+001 -2.431074e+000 0.000000e+000
      vertex   1.378731e+001 -2.431074e+000 -1.500000e+000
    endloop
  endfacet
  facet normal 9.659258e-001 -2.588190e-001 0.000000e+000
    outer loop
      vertex   1.378731e+001 -2.431074e+000 0.000000e+000
      vertex   1.315570e+001 -4.788282e+000 0.000000e+000
      vertex   1.315570e+001 -4.788282e+000 -1.500000e+000
    endloop
  endfacet
  facet normal 9.063078e-001 -4.226183e-001 0.000000e+000
    outer loop
      vertex   1.315570e+001 -4.788282e+000 0.000000e+000
      vertex   1.212436e+001 -7.000000e+000 0.000000e+000
      vertex   1.212436e+001 -7.000000e+000 -1.500000e+000
    endloop
  endfacet
  facet normal 8.191520e-001 -5.735764e-001 0.000000e+000
    outer loop
      vertex   1.212436e+001 -7.000000e+000 0.000000e+000
      vertex   1.072462e+001 -8.999027e+000 0.000000e+000
      vertex   1.072462e+001 -8.999027e+000 -1.500000e+000
    endloop
  endfacet
  facet normal 7.071068e-001 -7.071068e-001 0.000000e+000
    outer loop
      vertex   1.072462e+001 -8.999027e+000 0.000000e+000
      vertex   8.999027e+000 -1.072462e+001 0.000000e+000
      vertex   8.999027e+000 -1.072462e+001 -1.500000e+000
    endloop
  endfacet
  facet normal 5.735764e-001 -8.191520e-001 0.000000e+000
    outer loop
      vertex   8.999027e+000 -1.072462e+001 0.000000e+000
      vertex   7.000000e+000 -1.212436e+001 0.000000e+000
      vertex   7.000000e+000 -1.212436e+001 -1.500000e+000
    endloop
  endfacet
  facet normal 4.226183e-001 -9.063078e-001 0.000000e+000
    outer loop
      vertex   7.000000e+000 -1.212436e+001 0.000000e+000
      vertex   4.788282e+000 -1.315570e+001 0.000000e+000
      vertex   4.788282e+000 -1.315570e+001 -1.500000e+000
    endloop
  endfacet
  facet normal 2.588190e-001 -9.659258e-001 0.000000e+000
    outer loop
      vertex   4.788282e+000 -1.315570e+001 0.000000e+000
      vertex   2.431074e+000 -1.378731e+001 0.000000e+000
      vertex   2.431074e+000 -1.378731e+001 -1.500000e+000
    endloop
  endfacet
  facet normal 8.715574e-002 -9.961947e-001 0.000000e+000
    outer loop
      vertex   2.431074e+000 -1.378731e+001 0.000000e+000
      vertex   8.572244e-016 -1.400000e+001 0.000000e+000
      vertex   8.572244e-016 -1.400000e+001 -1.500000e+000
    endloop
  endfacet
  facet normal -8.715574e-002 -9.961947e-001 -0.000000e+000
    outer loop
      vertex   8.572244e-016 -1.400000e+001 0.000000e+000
      vertex   -2.431074e+000 -1.378731e+001 0.000000e+000
      vertex   -2.431074e+000 -1.378731e+001 -1.500000e+000
    endloop
  endfacet
  facet normal -2.588190e-001 -9.659258e-001 -0.000000e+000
    outer loop
      vertex   -2.431074e+000 -1.378731e+001 0.000000e+000
      vertex   -4.788282e+000 -1.315570e+001 0.000000e+000
      vertex   -4.788282e+000 -1.315570e+001 -1.500000e+000
    endloop
  endfacet
  facet normal -4.226183e-001 -9.063078e-001 -0.000000e+000
    outer loop
      vertex   -4.788282e+000 -1.315570e+001 0.000000e+000
      vertex   -7.000000e+000 -1.212436e+001 0.000000e+000
      vertex   -7.000000e+000 -1.212436e+001 -1.500000e+000
    endloop
  endfacet
  facet normal -5.735764e-001 -8.191520e-001 -0.000000e+000
    outer loop
      vertex   -7.000000e+000 -1.212436e+001 0.000000e+000
      vertex   -8.999027e+000 -1.072462e+001 0.000000e+000
      vertex   -8.999027e+000 -1.072462e+001 -1.500000e+000
    endloop
  endfacet
  facet normal -7.071068e-001 -7.071068e-001 -0.000000e+000
    outer loop
      vertex   -8.999027e+000 -1.072462e+001 0.000000e+000
      vertex   -1.072462e+001 -8.999027e+000 0.000000e+000
      vertex   -1.072462e+001 -8.999027e+000 -1.500000e+000
    endloop
  endfacet
  facet normal -8.191520e-001 -5.735764e-001 -0.000000e+000
    outer loop
      vertex   -1.072462e+001 -8.999027e+000 0.000000e+000
      vertex   -1.212436e+001 -7.000000e+000 0.000000e+000
      vertex   -1.212436e+001 -7.000000e+000 -1.500000e+000
    endloop
  endfacet
  facet normal -9.063078e-001 -4.226183e-001 -0.000000e+000
    outer loop
      vertex   -1.212436e+001 -7.000000e+000 0.000000e+000
      vertex   -1.315570e+001 -4.788282e+000 0.000000e+000
      vertex   -1.315570e+001 -4.788282e+000 -1.500000e+000
    endloop
  endfacet
  facet normal -9.659258e-001 -2.588190e-001 -0.000000e+000
    outer loop
      vertex   -1.315570e+001 -4.788282e+000 0.000000e+000
      vertex   -1.378731e+001 -2.431074e+000 0.000000e+000
      vertex   -1.378731e+001 -2.431074e+000 -1.500000e+000
    endloop
  endfacet
  facet normal -9.961947e-001 -8.715574e-002 -0.000000e+000
    outer loop
      vertex   -1.378731e+001 -2.431074e+000 0.000000e+000
      vertex   -1.400000e+001 -1.714449e-015 0.000000e+000
      vertex   -1.400000e+001 -1.714449e-015 -1.500000e+000
    endloop
  endfacet
  facet normal -9.961947e-001 8.715574e-002 0.000000e+000
    outer loop
      vertex   -1.400000e+001 -1.714449e-015 0.000000e+000
      vertex   -1.378731e+001 2.431074e+000 0.000000e+000
      vertex   -1.378731e+001 2.431074e+000 -1.500000e+000
    endloop
  endfacet
  facet normal -9.659258e-001 2.588190e-001 0.000000e+000
    outer loop
      vertex   -1.378731e+001 2.431074e+000 0.000000e+000
      vertex   -1.315570e+001 4.788282e+000 0.000000e+000
      vertex   -1.315570e+001 4.788282e+000 -1.500000e+000
    endloop
  endfacet
  facet normal -9.063078e-001 4.226183e-001 0.000000e+000
    outer loop
      vertex   -1.315570e+001 4.788282e+000 0.000000e+000
      vertex   -1.212436e+001 7.000000e+000 0.000000e+000
      vertex   -1.212436e+001 7.000000e+000 -1.500000e+000
    endloop
  endfacet
  facet normal -8.191520e-001 5.735764e-001 0.000000e+000
    outer loop
      vertex   -1.212436e+001 7.000000e+000 0.000000e+000
      vertex   -1.072462e+001 8.999027e+000 0.000000e+000
      vertex   -1.072462e+001 8.999027e+000 -1.500000e+000
    endloop
  endfacet
  facet normal -7.071068e-001 7.071068e-001 0.000000e+000
    outer loop
      vertex   -1.072462e+001 8.999027e+000 0.000000e+000
      vertex   -8.999027e+000 1.072462e+001 0.000000e+000
      vertex   -8.999027e+000 1.072462e+001 -1.500000e+000
    endloop
  endfacet
  facet normal -5.735764e-001 8.191520e-001 0.000000e+000
    outer loop
      vertex   -8.999027e+000 1.072462e+001 0.000000e+000
      vertex   -7.000000e+000 1.212436e+001 0.000000e+000
      vertex   -7.000000e+000 1.212436e+001 -1.500000e+000
    endloop
  endfacet
  facet normal -4.226183e-001 9.063078e-001 0.000000e+000
    outer loop
      vertex   -7.000000e+000 1.212436e+001 0.000000e+000
      vertex   -4.788282e+000 1.315570e+001 0.000000e+000
      vertex   -4.788282e+000 1.315570e+001 -1.500000e+000
    endloop
  endfacet
  facet normal -2.588190e-001 9.659258e-001 0.000000e+000
    outer loop
      vertex   -4.788282e+000 1.315570e+001 0.000000e+000
      vertex   -2.431074e+000 1.378731e+001 0.000000e+000
      vertex   -2.431074e+000 1.378731e+001 -1.500000e+000
    endloop
  endfacet
  facet normal -8.715574e-002 9.961947e-001 0.000000e+000
    outer loop
      vertex   -2.431074e+000 1.378731e+001 0.000000e+000
      vertex   -2.571673e-015 1.400000e+001 0.000000e+000
      vertex   -2.571673e-015 1.400000e+001 -1.500000e+000
    endloop
  endfacet
  facet normal 8.715574e-002 9.961947e-001 0.000000e+000
    outer loop
      vertex   -2.571673e-015 1.400000e+001 0.000000e+000
      vertex   2.431074e+000 1.378731e+001 0.000000e+000
      vertex   2.431074e+000 1.378731e+001 -1.500000e+000
    endloop
  endfacet
  facet normal 2.588190e-001 9.659258e-001 0.000000e+000
    outer loop
      vertex   2.431074e+000 1.378731e+001 0.000000e+000
      vertex   4.788282e+000 1.315570e+001 0.000000e+000
      vertex   4.788282e+000 1.315570e+001 -1.500000e+000
    endloop
  endfacet
  facet normal 4.226183e-001 9.063078e-001 0.000000e+000
    outer loop
      vertex   4.788282e+000 1.315570e+001 0.000000e+000
      vertex   7.000000e+000 1.212436e+001 0.000000e+000
      vertex   7.000000e+000 1.212436e+001 -1.500000e+000
    endloop
  endfacet
  facet normal 5.735764e-001 8.191520e-001 0.000000e+000
    outer loop
      vertex   7.000000e+000 1.212436e+001 0.000000e+000
      vertex   8.999027e+000 1.072462e+001 0.000000e+000
      vertex   8.999027e+000 1.072462e+001 -1.500000e+000
    endloop
  endfacet
  facet normal 7.071068e-001 7.071068e-001 0.000000e+000
    outer loop
      vertex   8.999027e+000 1.072462e+001 0.000000e+000
      vertex   1.072462e+001 8.999027e+000 0.000000e+000
      vertex   1.072462e+001 8.999027e+000 -1.500000e+000
    endloop
  endfacet
  facet normal 8.191520e-001 5.735764e-001 0.000000e+000
    outer loop
      vertex   1.072462e+001 8.999027e+000 0.000000e+000
      vertex   1.212436e+001 7.000000e+000 0.000000e+000
      vertex   1.212436e+001 7.000000e+000 -1.500000e+000
    endloop
  endfacet
  facet normal -0.000000e+000 -0.000000e+000 1.000000e+000
    outer loop
      vertex   3.151385e+000 -5.556742e-001 0.000000e+000
      vertex   1.378731e+001 -2.431074e+000 0.000000e+000
      vertex   3.200000e+000 0.000000e+000 0.000000e+000
    endloop
  endfacet
  facet normal 0.000000e+000 0.000000e+000 1.000000e+000
    outer loop
      vertex   3.151385e+000 -5.556742e-001 0.000000e+000
      vertex   3.007016e+000 -1.094464e+000 0.000000e+000
      vertex   1.378731e+001 -2.431074e+000 0.000000e+000
    endloop
  endfacet
  facet normal 0.000000e+000 0.000000e+000 1.000000e+000
    outer loop
      vertex   1.378731e+001 -2.431074e+000 0.000000e+000
      vertex   3.007016e+000 -1.094464e+000 0.000000e+000
      vertex   1.315570e+001 -4.788282e+000 0.000000e+000
    endloop
  endfacet
  facet normal 0.000000e+000 0.000000e+000 1.000000e+000
    outer loop
      vertex   1.315570e+001 -4.788282e+000 0.000000e+000
      vertex   3.007016e+000 -1.094464e+000 0.000000e+000
      vertex   2.771281e+000 -1.600000e+000 0.000000e+000
    endloop
  endfacet
  facet normal 0.000000e+000 0.000000e+000 1.000000e+000
    outer loop
      vertex   1.212436e+001 -7.000000e+000 0.000000e+000
      vertex   2.771281e+000 -1.600000e+000 0.000000e+000
      vertex   2.451342e+000 -2.056920e+000 0.000000e+000
    endloop
  endfacet
  facet normal 0.000000e+000 0.000000e+000 1.000000e+000
    outer loop
      vertex   1.072462e+001 -8.999027e+000 0.000000e+000
      vertex   2.451342e+000 -2.056920e+000 0.000000e+000
      vertex   2.056920e+000 -2.451342e+000 0.000000e+000
    endloop
  endfacet
  facet normal 0.000000e+000 0.000000e+000 1.000000e+000
    outer loop
      vertex   8.999027e+000 -1.072462e+001 0.000000e+000
      vertex   2.056920e+000 -2.451342e+000 0.000000e+000
      vertex   1.600000e+000 -2.771281e+000 0.000000e+000
    endloop
  endfacet
  facet normal 0.000000e+000 0.000000e+000 1.000000e+000
    outer loop
      vertex   7.000000e+000 -1.212436e+001 0.000000e+000
      vertex   1.600000e+000 -2.771281e+000 0.000000e+000
      vertex   1.094464e+000 -3.007016e+000 0.000000e+000
    endloop
  endfacet
  facet normal 0.000000e+000 0.000000e+000 1.000000e+000
    outer loop
      vertex   4.788282e+000 -1.315570e+001 0.000000e+000
      vertex   1.094464e+000 -3.007016e+000 0.000000e+000
      vertex   5.556742e-001 -3.151385e+000 0.000000e+000
    endloop
  endfacet
  facet normal 0.000000e+000 0.000000e+000 1.000000e+000
    outer loop
      vertex   2.431074e+000 -1.378731e+001 0.000000e+000
      vertex   5.556742e-001 -3.151385e+000 0.000000e+000
      vertex   1.959370e-016 -3.200000e+000 0.000000e+000
    endloop
  endfacet
  facet normal 0.000000e+000 0.000000e+000 1.000000e+000
    outer loop
      vertex   8.572244e-016 -1.400000e+001 0.000000e+000
      vertex   1.959370e-016 -3.200000e+000 0.000000e+000
      vertex   -2.431074e+000 -1.378731e+001 0.000000e+000
    endloop
  endfacet
  facet normal 0.000000e+000 -0.000000e+000 1.000000e+000
    outer loop
      vertex   8.572244e-016 -1.400000e+001 0.000000e+000
      vertex   2.431074e+000 -1.378731e+001 0.000000e+000
      vertex   1.959370e-016 -3.200000e+000 0.000000e+000
    endloop
  endfacet
  facet normal 0.000000e+000 0.000000e+000 1.000000e+000
    outer loop
      vertex   1.959370e-016 -3.200000e+000 0.000000e+000
      vertex   -5.556742e-001 -3.151385e+000 0.000000e+000
      vertex   -2.431074e+000 -1.378731e+001 0.000000e+000
    endloop
  endfacet
  facet normal 0.000000e+000 -0.000000e+000 1.000000e+000
    outer loop
      vertex   -2.431074e+000 -1.378731e+001 0.000000e+000
      vertex   -5.556742e-001 -3.151385e+000 0.000000e+000
      vertex   -4.788282e+000 -1.315570e+001 0.000000e+000
    endloop
  endfacet
  facet normal 0.000000e+000 -0.000000e+000 1.000000e+000
    outer loop
      vertex   -4.788282e+000 -1.315570e+001 0.000000e+000
      vertex   -5.556742e-001 -3.151385e+000 0.000000e+000
      vertex   -1.094464e+000 -3.007016e+000 0.000000e+000
    endloop
  endfacet
  facet normal 0.000000e+000 -0.000000e+000 1.000000e+000
    outer loop
      vertex   -7.000000e+000 -1.212436e+001 0.000000e+000
      vertex   -1.094464e+000 -3.007016e+000 0.000000e+000
      vertex   -1.600000e+000 -2.771281e+000 0.000000e+000
    endloop
  endfacet
  facet normal 0.000000e+000 -0.000000e+000 1.000000e+000
    outer loop
      vertex   -8.999027e+000 -1.072462e+001 0.000000e+000
      vertex   -1.600000e+000 -2.771281e+000 0.000000e+000
      vertex   -2.056920e+000 -2.451342e+000 0.000000e+000
    endloop
  endfacet
  facet normal 0.000000e+000 -0.000000e+000 1.000000e+000
    outer loop
      vertex   -1.072462e+001 -8.999027e+000 0.000000e+000
      vertex   -2.056920e+000 -2.451342e+000 0.000000e+000
      vertex   -2.451342e+000 -2.056920e+000 0.000000e+000
    endloop
  endfacet
  facet normal 0.000000e+000 -0.000000e+000 1.000000e+000
    outer loop
      vertex   -1.212436e+001 -7.000000e+000 0.000000e+000
      vertex   -2.451342e+000 -2.056920e+000 0.000000e+000
      vertex   -2.771281e+000 -1.600000e+000 0.000000e+000
    endloop
  endfacet
  facet normal 0.000000e+000 -0.000000e+000 1.000000e+000
    outer loop
      vertex   -1.315570e+001 -4.788282e+000 0.000000e+000
      vertex   -2.771281e+000 -1.600000e+000 0.000000e+000
      vertex   -3.007016e+000 -1.094464e+000 0.000000e+000
    endloop
  endfacet
  facet normal 0.000000e+000 -0.000000e+000 1.000000e+000
    outer loop
      vertex   -1.378731e+001 -2.431074e+000 0.000000e+000
      vertex   -3.007016e+000 -1.094464e+000 0.000000e+000
      vertex   -3.151385e+000 -5.556742e-001 0.000000e+000
    endloop
  endfacet
  facet normal -0.000000e+000 -0.000000e+000 1.000000e+000
    outer loop
      vertex   -1.400000e+001 -1.714449e-015 0.000000e+000
      vertex   -3.151385e+000 -5.556742e-001 0.000000e+000
      vertex   -3.200000e+000 -3.918740e-016 0.000000e+000
    endloop
  endfacet
  facet normal -0.000000e+000 0.000000e+000 1.000000e+000
    outer loop
      vertex   -3.151385e+000 5.556742e-001 0.000000e+000
      vertex   -1.400000e+001 -1.714449e-015 0.000000e+000
      vertex   -3.200000e+000 -3.918740e-016 0.000000e+000
    endloop
  endfacet
  facet normal 0.000000e+000 0.000000e+000 1.000000e+000
    outer loop
      vertex   -3.151385e+000 5.556742e-001 0.000000e+000
      vertex   -1.378731e+001 2.431074e+000 0.000000e+000
      vertex   -1.400000e+001 -1.714449e-015 0.000000e+000
    endloop
  endfacet
  facet normal 0.000000e+000 -0.000000e+000 1.000000e+000
    outer loop
      vertex   -3.151385e+000 5.556742e-001 0.000000e+000
      vertex   -3.007016e+000 1.094464e+000 0.000000e+000
      vertex   -1.378731e+001 2.431074e+000 0.000000e+000
    endloop
  endfacet
  facet normal -0.000000e+000 -0.000000e+000 1.000000e+000
    outer loop
      vertex   -1.378731e+001 2.431074e+000 0.000000e+000
      vertex   -3.007016e+000 1.094464e+000 0.000000e+000
      vertex   -1.315570e+001 4.788282e+000 0.000000e+000
    endloop
  endfacet
  facet normal -0.000000e+000 0.000000e+000 1.000000e+000
    outer loop
      vertex   -1.315570e+001 4.788282e+000 0.000000e+000
      vertex   -3.007016e+000 1.094464e+000 0.000000e+000
      vertex   -2.771281e+000 1.600000e+000 0.000000e+000
    endloop
  endfacet
  facet normal -0.000000e+000 0.000000e+000 1.000000e+000
    outer loop
      vertex   -1.212436e+001 7.000000e+000 0.000000e+000
      vertex   -2.771281e+000 1.600000e+000 0.000000e+000
      vertex   -2.451342e+000 2.056920e+000 0.000000e+000
    endloop
  endfacet
  facet normal -0.000000e+000 0.000000e+000 1.000000e+000
    outer loop
      vertex   -1.072462e+001 8.999027e+000 0.000000e+000
      vertex   -2.451342e+000 2.056920e+000 0.000000e+000
      vertex   -2.056920e+000 2.451342e+000 0.000000e+000
    endloop
  endfacet
  facet normal -0.000000e+000 0.000000e+000 1.000000e+000
    outer loop
      vertex   -8.999027e+000 1.072462e+001 0.000000e+000
      vertex   -2.056920e+000 2.451342e+000 0.000000e+000
      vertex   -1.600000e+000 2.771281e+000 0.000000e+000
    endloop
  endfacet
  facet normal -0.000000e+000 0.000000e+000 1.000000e+000
    outer loop
      vertex   -7.000000e+000 1.212436e+001 0.000000e+000
      vertex   -1.600000e+000 2.771281e+000 0.000000e+000
      vertex   -1.094464e+000 3.007016e+000 0.000000e+000
    endloop
  endfacet
  facet normal -0.000000e+000 0.000000e+000 1.000000e+000
    outer loop
      vertex   -4.788282e+000 1.315570e+001 0.000000e+000
      vertex   -1.094464e+000 3.007016e+000 0.000000e+000
      vertex   -5.556742e-001 3.151385e+000 0.000000e+000
    endloop
  endfacet
  facet normal -0.000000e+000 0.000000e+000 1.000000e+000
    outer loop
      vertex   -2.431074e+000 1.378731e+001 0.000000e+000
      vertex   -5.556742e-001 3.151385e+000 0.000000e+000
      vertex   -5.878110e-016 3.200000e+000 0.000000e+000
    endloop
  endfacet
  facet normal -0.000000e+000 0.000000e+000 1.000000e+000
    outer loop
      vertex   -2.571673e-015 1.400000e+001 0.000000e+000
      vertex   -5.878110e-016 3.200000e+000 0.000000e+000
      vertex   2.431074e+000 1.378731e+001 0.000000e+000
    endloop
  endfacet
  facet normal 0.000000e+000 0.000000e+000 1.000000e+000
    outer loop
      vertex   -2.571673e-015 1.400000e+001 0.000000e+000
      vertex   -2.431074e+000 1.378731e+001 0.000000e+000
      vertex   -5.878110e-016 3.200000e+000 0.000000e+000
    endloop
  endfacet
  facet normal -0.000000e+000 0.000000e+000 1.000000e+000
    outer loop
      vertex   -5.878110e-016 3.200000e+000 0.000000e+000
      vertex   5.556742e-001 3.151385e+000 0.000000e+000
      vertex   2.431074e+000 1.378731e+001 0.000000e+000
    endloop
  endfacet
  facet normal -0.000000e+000 0.000000e+000 1.000000e+000
    outer loop
      vertex   2.431074e+000 1.378731e+001 0.000000e+000
      vertex   5.556742e-001 3.151385e+000 0.000000e+000
      vertex   4.788282e+000 1.315570e+001 0.000000e+000
    endloop
  endfacet
  facet normal 0.000000e+000 0.000000e+000 1.000000e+000
    outer loop
      vertex   4.788282e+000 1.315570e+001 0.000000e+000
      vertex   5.556742e-001 3.151385e+000 0.000000e+000
      vertex   1.094464e+000 3.007016e+000 0.000000e+000
    endloop
  endfacet
  facet normal 0.000000e+000 0.000000e+000 1.000000e+000
    outer loop
      vertex   7.000000e+000 1.212436e+001 0.000000e+000
      vertex   1.094464e+000 3.007016e+000 0.000000e+000
      vertex   1.600000e+000 2.771281e+000 0.000000e+000
    endloop
  endfacet
  facet normal 0.000000e+000 0.000000e+000 1.000000e+000
    outer loop
      vertex   8.999027e+000 1.072462e+001 0.000000e+000
      vertex   1.600000e+000 2.771281e+000 0.000000e+000
      vertex   2.056920e+000 2.451342e+000 0.000000e+000
    endloop
  endfacet
  facet normal 0.000000e+000 0.000000e+000 1.000000e+000
    outer loop
      vertex   1.072462e+001 8.999027e+000 0.000000e+000
      vertex   2.056920e+000 2.451342e+000 0.000000e+000
      vertex   2.451342e+000 2.056920e+000 0.000000e+000
    endloop
  endfacet
  facet normal 0.000000e+000 0.000000e+000 1.000000e+000
    outer loop
      vertex   1.212436e+001 7.000000e+000 0.000000e+000
      vertex   2.451342e+000 2.056920e+000 0.000000e+000
      vertex   2.771281e+000 1.600000e+000 0.000000e+000
    endloop
  endfacet
  facet normal 0.000000e+000 0.000000e+000 1.000000e+000
    outer loop
      vertex   1.315570e+001 4.788282e+000 0.000000e+000
      vertex   2.771281e+000 1.600000e+000 0.000000e+000
      vertex   3.007016e+000 1.094464e+000 0.000000e+000
    endloop
  endfacet
  facet normal 0.000000e+000 0.000000e+000 1.000000e+000
    outer loop
      vertex   1.378731e+001 2.431074e+000 0.000000e+000
      vertex   3.007016e+000 1.094464e+000 0.000000e+000
      vertex   3.151385e+000 5.556742e-001 0.000000e+000
    endloop
  endfacet
  facet normal 0.000000e+000 0.000000e+000 1.000000e+000
    outer loop
      vertex   1.400000e+001 0.000000e+000 0.000000e+000
      vertex   3.151385e+000 5.556742e-001 0.000000e+000
      vertex   3.200000e+000 0.000000e+000 0.000000e+000
    endloop
  endfacet
  facet normal 0.000000e+000 -0.000000e+000 1.000000e+000
    outer loop
      vertex   1.378731e+001 -2.431074e+000 0.000000e+000
      vertex   1.400000e+001 0.000000e+000 0.000000e+000
      vertex   3.200000e+000 0.000000e+000 0.000000e+000
    endloop
  endfacet
  facet normal 0.000000e+000 0.000000e+000 1.000000e+000
    outer loop
      vertex   1.400000e+001 0.000000e+000 0.000000e+000
      vertex   1.378731e+001 2.431074e+000 0.000000e+000
      vertex   3.151385e+000 5.556742e-001 0.000000e+000
    endloop
  endfacet
  facet normal 0.000000e+000 0.000000e+000 1.000000e+000
    outer loop
      vertex   1.378731e+001 2.431074e+000 0.000000e+000
      vertex   1.315570e+001 4.788282e+000 0.000000e+000
      vertex   3.007016e+000 1.094464e+000 0.000000e+000
    endloop
  endfacet
  facet normal 0.000000e+000 0.000000e+000 1.000000e+000
    outer loop
      vertex   1.315570e+001 4.788282e+000 0.000000e+000
      vertex   1.212436e+001 7.000000e+000 0.000000e+000
      vertex   2.771281e+000 1.600000e+000 0.000000e+000
    endloop
  endfacet
  facet normal 0.000000e+000 0.000000e+000 1.000000e+000
    outer loop
      vertex   1.212436e+001 7.000000e+000 0.000000e+000
      vertex   1.072462e+001 8.999027e+000 0.000000e+000
      vertex   2.451342e+000 2.056920e+000 0.000000e+000
    endloop
  endfacet
  facet normal 0.000000e+000 0.000000e+000 1.000000e+000
    outer loop
      vertex   1.072462e+001 8.999027e+000 0.000000e+000
      vertex   8.999027e+000 1.072462e+001 0.000000e+000
      vertex   2.056920e+000 2.451342e+000 0.000000e+000
    endloop
  endfacet
  facet normal 0.000000e+000 0.000000e+000 1.000000e+000
    outer loop
      vertex   8.999027e+000 1.072462e+001 0.000000e+000
      vertex   7.000000e+000 1.212436e+001 0.000000e+000
      vertex   1.600000e+000 2.771281e+000 0.000000e+000
    endloop
  endfacet
  facet normal 0.000000e+000 0.000000e+000 1.000000e+000
    outer loop
      vertex   7.000000e+000 1.212436e+001 0.000000e+000
      vertex   4.788282e+000 1.315570e+001 0.000000e+000
      vertex   1.094464e+000 3.007016e+000 0.000000e+000
    endloop
  endfacet
  facet normal 0.000000e+000 0.000000e+000 1.000000e+000
    outer loop
      vertex   -2.431074e+000 1.378731e+001 0.000000e+000
      vertex   -4.788282e+000 1.315570e+001 0.000000e+000
      vertex   -5.556742e-001 3.151385e+000 0.000000e+000
    endloop
  endfacet
  facet normal 0.000000e+000 0.000000e+000 1.000000e+000
    outer loop
      vertex   -4.788282e+000 1.315570e+001 0.000000e+000
      vertex   -7.000000e+000 1.212436e+001 0.000000e+000
      vertex   -1.094464e+000 3.007016e+000 0.000000e+000
    endloop
  endfacet
  facet normal 0.000000e+000 0.000000e+000 1.000000e+000
    outer loop
      vertex   -7.000000e+000 1.212436e+001 0.000000e+000
      vertex   -8.999027e+000 1.072462e+001 0.000000e+000
      vertex   -1.600000e+000 2.771281e+000 0.000000e+000
    endloop
  endfacet
  facet normal 0.000000e+000 0.000000e+000 1.000000e+000
    outer loop
      vertex   -8.999027e+000 1.072462e+001 0.000000e+000
      vertex   -1.072462e+001 8.999027e+000 0.000000e+000
      vertex   -2.056920e+000 2.451342e+000 0.000000e+000
    endloop
  endfacet
  facet normal 0.000000e+000 0.000000e+000 1.000000e+000
    outer loop
      vertex   -1.072462e+001 8.999027e+000 0.000000e+000
      vertex   -1.212436e+001 7.000000e+000 0.000000e+000
      vertex   -2.451342e+000 2.056920e+000 0.000000e+000
    endloop
  endfacet
  facet normal 0.000000e+000 0.000000e+000 1.000000e+000
    outer loop
      vertex   -1.212436e+001 7.000000e+000 0.000000e+000
      vertex   -1.315570e+001 4.788282e+000 0.000000e+000
      vertex   -2.771281e+000 1.600000e+000 0.000000e+000
    endloop
  endfacet
  facet normal -0.000000e+000 0.000000e+000 1.000000e+000
    outer loop
      vertex   -1.400000e+001 -1.714449e-015 0.000000e+000
      vertex   -1.378731e+001 -2.431074e+000 0.000000e+000
      vertex   -3.151385e+000 -5.556742e-001 0.000000e+000
    endloop
  endfacet
  facet normal -0.000000e+000 0.000000e+000 1.000000e+000
    outer loop
      vertex   -1.378731e+001 -2.431074e+000 0.000000e+000
      vertex   -1.315570e+001 -4.788282e+000 0.000000e+000
      vertex   -3.007016e+000 -1.094464e+000 0.000000e+000
    endloop
  endfacet
  facet normal -0.000000e+000 0.000000e+000 1.000000e+000
    outer loop
      vertex   -1.315570e+001 -4.788282e+000 0.000000e+000
      vertex   -1.212436e+001 -7.000000e+000 0.000000e+000
      vertex   -2.771281e+000 -1.600000e+000 0.000000e+000
    endloop
  endfacet
  facet normal -0.000000e+000 0.000000e+000 1.000000e+000
    outer loop
      vertex   -1.212436e+001 -7.000000e+000 0.000000e+000
      vertex   -1.072462e+001 -8.999027e+000 0.000000e+000
      vertex   -2.451342e+000 -2.056920e+000 0.000000e+000
    endloop
  endfacet
  facet normal -0.000000e+000 0.000000e+000 1.000000e+000
    outer loop
      vertex   -1.072462e+001 -8.999027e+000 0.000000e+000
      vertex   -8.999027e+000 -1.072462e+001 0.000000e+000
      vertex   -2.056920e+000 -2.451342e+000 0.000000e+000
    endloop
  endfacet
  facet normal -0.000000e+000 0.000000e+000 1.000000e+000
    outer loop
      vertex   -8.999027e+000 -1.072462e+001 0.000000e+000
      vertex   -7.000000e+000 -1.212436e+001 0.000000e+000
      vertex   -1.600000e+000 -2.771281e+000 0.000000e+000
    endloop
  endfacet
  facet normal -0.000000e+000 0.000000e+000 1.000000e+000
    outer loop
      vertex   -7.000000e+000 -1.212436e+001 0.000000e+000
      vertex   -4.788282e+000 -1.315570e+001 0.000000e+000
      vertex   -1.094464e+000 -3.007016e+000 0.000000e+000
    endloop
  endfacet
  facet normal 0.000000e+000 -0.000000e+000 1.000000e+000
    outer loop
      vertex   2.431074e+000 -1.378731e+001 0.000000e+000
      vertex   4.788282e+000 -1.315570e+001 0.000000e+000
      vertex   5.556742e-001 -3.151385e+000 0.000000e+000
    endloop
  endfacet
  facet normal 0.000000e+000 -0.000000e+000 1.000000e+000
    outer loop
      vertex   4.788282e+000 -1.315570e+001 0.000000e+000
      vertex   7.000000e+000 -1.212436e+001 0.000000e+000
      vertex   1.094464e+000 -3.007016e+000 0.000000e+000
    endloop
  endfacet
  facet normal 0.000000e+000 -0.000000e+000 1.000000e+000
    outer loop
      vertex   7.000000e+000 -1.212436e+001 0.000000e+000
      vertex   8.999027e+000 -1.072462e+001 0.000000e+000
      vertex   1.600000e+000 -2.771281e+000 0.000000e+000
    endloop
  endfacet
  facet normal 0.000000e+000 -0.000000e+000 1.000000e+000
    outer loop
      vertex   8.999027e+000 -1.072462e+001 0.000000e+000
      vertex   1.072462e+001 -8.999027e+000 0.000000e+000
      vertex   2.056920e+000 -2.451342e+000 0.000000e+000
    endloop
  endfacet
  facet normal 0.000000e+000 -0.000000e+000 1.000000e+000
    outer loop
      vertex   1.072462e+001 -8.999027e+000 0.000000e+000
      vertex   1.212436e+001 -7.000000e+000 0.000000e+000
      vertex   2.451342e+000 -2.056920e+000 0.000000e+000
    endloop
  endfacet
  facet normal 0.000000e+000 -0.000000e+000 1.000000e+000
    outer loop
      vertex   1.212436e+001 -7.000000e+000 0.000000e+000
      vertex   1.315570e+001 -4.788282e+000 0.000000e+000
      vertex   2.771281e+000 -1.600000e+000 0.000000e+000
    endloop
  endfacet
  facet normal 0.000000e+000 0.000000e+000 -1.000000e+000
    outer loop
      vertex   3.151385e+000 -5.556742e-001 -1.500000e+000
      vertex   3.200000e+000 0.000000e+000 -1.500000e+000
      vertex   1.400000e+001 0.000000e+000 -1.500000e+000
    endloop
  endfacet
  facet normal 0.000000e+000 0.000000e+000 -1.000000e+000
    outer loop
      vertex   1.378731e+001 -2.431074e+000 -1.500000e+000
      vertex   3.151385e+000 -5.556742e-001 -1.500000e+000
      vertex   1.400000e+001 0.000000e+000 -1.500000e+000
    endloop
  endfacet
  facet normal 0.000000e+000 0.000000e+000 -1.000000e+000
    outer loop
      vertex   1.378731e+001 -2.431074e+000 -1.500000e+000
      vertex   3.007016e+000 -1.094464e+000 -1.500000e+000
      vertex   3.151385e+000 -5.556742e-001 -1.500000e+000
    endloop
  endfacet
  facet normal -0.000000e+000 0.000000e+000 -1.000000e+000
    outer loop
      vertex   1.378731e+001 -2.431074e+000 -1.500000e+000
      vertex   1.315570e+001 -4.788282e+000 -1.500000e+000
      vertex   3.007016e+000 -1.094464e+000 -1.500000e+000
    endloop
  endfacet
  facet normal -0.000000e+000 -0.000000e+000 -1.000000e+000
    outer loop
      vertex   3.007016e+000 -1.094464e+000 -1.500000e+000
      vertex   1.315570e+001 -4.788282e+000 -1.500000e+000
      vertex   2.771281e+000 -1.600000e+000 -1.500000e+000
    endloop
  endfacet
  facet normal 0.000000e+000 -0.000000e+000 -1.000000e+000
    outer loop
      vertex   2.771281e+000 -1.600000e+000 -1.500000e+000
      vertex   1.315570e+001 -4.788282e+000 -1.500000e+000
      vertex   1.212436e+001 -7.000000e+000 -1.500000e+000
    endloop
  endfacet
  facet normal 0.000000e+000 -0.000000e+000 -1.000000e+000
    outer loop
      vertex   2.451342e+000 -2.056920e+000 -1.500000e+000
      vertex   1.212436e+001 -7.000000e+000 -1.500000e+000
      vertex   1.072462e+001 -8.999027e+000 -1.500000e+000
    endloop
  endfacet
  facet normal 0.000000e+000 -0.000000e+000 -1.000000e+000
    outer loop
      vertex   2.056920e+000 -2.451342e+000 -1.500000e+000
      vertex   1.072462e+001 -8.999027e+000 -1.500000e+000
      vertex   8.999027e+000 -1.072462e+001 -1.500000e+000
    endloop
  endfacet
  facet normal 0.000000e+000 -0.000000e+000 -1.000000e+000
    outer loop
      vertex   1.600000e+000 -2.771281e+000 -1.500000e+000
      vertex   8.999027e+000 -1.072462e+001 -1.500000e+000
      vertex   7.000000e+000 -1.212436e+001 -1.500000e+000
    endloop
  endfacet
  facet normal 0.000000e+000 -0.000000e+000 -1.000000e+000
    outer loop
      vertex   1.094464e+000 -3.007016e+000 -1.500000e+000
      vertex   7.000000e+000 -1.212436e+001 -1.500000e+000
      vertex   4.788282e+000 -1.315570e+001 -1.500000e+000
    endloop
  endfacet
  facet normal 0.000000e+000 -0.000000e+000 -1.000000e+000
    outer loop
      vertex   5.556742e-001 -3.151385e+000 -1.500000e+000
      vertex   4.788282e+000 -1.315570e+001 -1.500000e+000
      vertex   2.431074e+000 -1.378731e+001 -1.500000e+000
    endloop
  endfacet
  facet normal 0.000000e+000 -0.000000e+000 -1.000000e+000
    outer loop
      vertex   3.502374e-015 -3.200000e+000 -1.500000e+000
      vertex   2.431074e+000 -1.378731e+001 -1.500000e+000
      vertex   8.572244e-016 -1.400000e+001 -1.500000e+000
    endloop
  endfacet
  facet normal 0.000000e+000 -0.000000e+000 -1.000000e+000
    outer loop
      vertex   -2.431074e+000 -1.378731e+001 -1.500000e+000
      vertex   3.502374e-015 -3.200000e+000 -1.500000e+000
      vertex   8.572244e-016 -1.400000e+001 -1.500000e+000
    endloop
  endfacet
  facet normal 0.000000e+000 0.000000e+000 -1.000000e+000
    outer loop
      vertex   -2.431074e+000 -1.378731e+001 -1.500000e+000
      vertex   -5.556742e-001 -3.151385e+000 -1.500000e+000
      vertex   3.502374e-015 -3.200000e+000 -1.500000e+000
    endloop
  endfacet
  facet normal 0.000000e+000 0.000000e+000 -1.000000e+000
    outer loop
      vertex   -2.431074e+000 -1.378731e+001 -1.500000e+000
      vertex   -4.788282e+000 -1.315570e+001 -1.500000e+000
      vertex   -5.556742e-001 -3.151385e+000 -1.500000e+000
    endloop
  endfacet
  facet normal -0.000000e+000 0.000000e+000 -1.000000e+000
    outer loop
      vertex   -5.556742e-001 -3.151385e+000 -1.500000e+000
      vertex   -4.788282e+000 -1.315570e+001 -1.500000e+000
      vertex   -1.094464e+000 -3.007016e+000 -1.500000e+000
    endloop
  endfacet
  facet normal -0.000000e+000 0.000000e+000 -1.000000e+000
    outer loop
      vertex   -1.094464e+000 -3.007016e+000 -1.500000e+000
      vertex   -4.788282e+000 -1.315570e+001 -1.500000e+000
      vertex   -7.000000e+000 -1.212436e+001 -1.500000e+000
    endloop
  endfacet
  facet normal -0.000000e+000 0.000000e+000 -1.000000e+000
    outer loop
      vertex   -1.600000e+000 -2.771281e+000 -1.500000e+000
      vertex   -7.000000e+000 -1.212436e+001 -1.500000e+000
      vertex   -8.999027e+000 -1.072462e+001 -1.500000e+000
    endloop
  endfacet
  facet normal -0.000000e+000 0.000000e+000 -1.000000e+000
    outer loop
      vertex   -2.056920e+000 -2.451342e+000 -1.500000e+000
      vertex   -8.999027e+000 -1.072462e+001 -1.500000e+000
      vertex   -1.072462e+001 -8.999027e+000 -1.500000e+000
    endloop
  endfacet
  facet normal -0.000000e+000 0.000000e+000 -1.000000e+000
    outer loop
      vertex   -2.451342e+000 -2.056920e+000 -1.500000e+000
      vertex   -1.072462e+001 -8.999027e+000 -1.500000e+000
      vertex   -1.212436e+001 -7.000000e+000 -1.500000e+000
    endloop
  endfacet
  facet normal -0.000000e+000 0.000000e+000 -1.000000e+000
    outer loop
      vertex   -2.771281e+000 -1.600000e+000 -1.500000e+000
      vertex   -1.212436e+001 -7.000000e+000 -1.500000e+000
      vertex   -1.315570e+001 -4.788282e+000 -1.500000e+000
    endloop
  endfacet
  facet normal -0.000000e+000 0.000000e+000 -1.000000e+000
    outer loop
      vertex   -3.007016e+000 -1.094464e+000 -1.500000e+000
      vertex   -1.315570e+001 -4.788282e+000 -1.500000e+000
      vertex   -1.378731e+001 -2.431074e+000 -1.500000e+000
    endloop
  endfacet
  facet normal -0.000000e+000 0.000000e+000 -1.000000e+000
    outer loop
      vertex   -3.151385e+000 -5.556742e-001 -1.500000e+000
      vertex   -1.378731e+001 -2.431074e+000 -1.500000e+000
      vertex   -3.200000e+000 -3.918740e-016 -1.500000e+000
    endloop
  endfacet
  facet normal 0.000000e+000 -0.000000e+000 -1.000000e+000
    outer loop
      vertex   -3.151385e+000 -5.556742e-001 -1.500000e+000
      vertex   -3.007016e+000 -1.094464e+000 -1.500000e+000
      vertex   -1.378731e+001 -2.431074e+000 -1.500000e+000
    endloop
  endfacet
  facet normal 0.000000e+000 0.000000e+000 -1.000000e+000
    outer loop
      vertex   -2.431074e+000 1.378731e+001 -1.500000e+000
      vertex   -2.571673e-015 1.400000e+001 -1.500000e+000
      vertex   2.718626e-015 3.200000e+000 -1.500000e+000
    endloop
  endfacet
  facet normal 0.000000e+000 0.000000e+000 -1.000000e+000
    outer loop
      vertex   -5.556742e-001 3.151385e+000 -1.500000e+000
      vertex   -2.431074e+000 1.378731e+001 -1.500000e+000
      vertex   2.718626e-015 3.200000e+000 -1.500000e+000
    endloop
  endfacet
  facet normal 0.000000e+000 0.000000e+000 -1.000000e+000
    outer loop
      vertex   -5.556742e-001 3.151385e+000 -1.500000e+000
      vertex   -4.788282e+000 1.315570e+001 -1.500000e+000
      vertex   -2.431074e+000 1.378731e+001 -1.500000e+000
    endloop
  endfacet
  facet normal -0.000000e+000 0.000000e+000 -1.000000e+000
    outer loop
      vertex   -5.556742e-001 3.151385e+000 -1.500000e+000
      vertex   -1.094464e+000 3.007016e+000 -1.500000e+000
      vertex   -4.788282e+000 1.315570e+001 -1.500000e+000
    endloop
  endfacet
  facet normal -0.000000e+000 -0.000000e+000 -1.000000e+000
    outer loop
      vertex   -4.788282e+000 1.315570e+001 -1.500000e+000
      vertex   -1.094464e+000 3.007016e+000 -1.500000e+000
      vertex   -7.000000e+000 1.212436e+001 -1.500000e+000
    endloop
  endfacet
  facet normal 0.000000e+000 -0.000000e+000 -1.000000e+000
    outer loop
      vertex   -7.000000e+000 1.212436e+001 -1.500000e+000
      vertex   -1.094464e+000 3.007016e+000 -1.500000e+000
      vertex   -1.600000e+000 2.771281e+000 -1.500000e+000
    endloop
  endfacet
  facet normal 0.000000e+000 -0.000000e+000 -1.000000e+000
    outer loop
      vertex   -8.999027e+000 1.072462e+001 -1.500000e+000
      vertex   -1.600000e+000 2.771281e+000 -1.500000e+000
      vertex   -2.056920e+000 2.451342e+000 -1.500000e+000
    endloop
  endfacet
  facet normal 0.000000e+000 -0.000000e+000 -1.000000e+000
    outer loop
      vertex   -1.072462e+001 8.999027e+000 -1.500000e+000
      vertex   -2.056920e+000 2.451342e+000 -1.500000e+000
      vertex   -2.451342e+000 2.056920e+000 -1.500000e+000
    endloop
  endfacet
  facet normal 0.000000e+000 -0.000000e+000 -1.000000e+000
    outer loop
      vertex   -1.212436e+001 7.000000e+000 -1.500000e+000
      vertex   -2.451342e+000 2.056920e+000 -1.500000e+000
      vertex   -2.771281e+000 1.600000e+000 -1.500000e+000
    endloop
  endfacet
  facet normal 0.000000e+000 -0.000000e+000 -1.000000e+000
    outer loop
      vertex   -1.315570e+001 4.788282e+000 -1.500000e+000
      vertex   -2.771281e+000 1.600000e+000 -1.500000e+000
      vertex   -3.007016e+000 1.094464e+000 -1.500000e+000
    endloop
  endfacet
  facet normal 0.000000e+000 -0.000000e+000 -1.000000e+000
    outer loop
      vertex   -1.378731e+001 2.431074e+000 -1.500000e+000
      vertex   -3.007016e+000 1.094464e+000 -1.500000e+000
      vertex   -3.151385e+000 5.556742e-001 -1.500000e+000
    endloop
  endfacet
  facet normal 0.000000e+000 -0.000000e+000 -1.000000e+000
    outer loop
      vertex   -1.400000e+001 -1.714449e-015 -1.500000e+000
      vertex   -3.151385e+000 5.556742e-001 -1.500000e+000
      vertex   -3.200000e+000 -3.918740e-016 -1.500000e+000
    endloop
  endfacet
  facet normal 0.000000e+000 0.000000e+000 -1.000000e+000
    outer loop
      vertex   -1.378731e+001 -2.431074e+000 -1.500000e+000
      vertex   -1.400000e+001 -1.714449e-015 -1.500000e+000
      vertex   -3.200000e+000 -3.918740e-016 -1.500000e+000
    endloop
  endfacet
  facet normal 0.000000e+000 -0.000000e+000 -1.000000e+000
    outer loop
      vertex   2.718626e-015 3.200000e+000 -1.500000e+000
      vertex   2.431074e+000 1.378731e+001 -1.500000e+000
      vertex   5.556742e-001 3.151385e+000 -1.500000e+000
    endloop
  endfacet
  facet normal 0.000000e+000 0.000000e+000 -1.000000e+000
    outer loop
      vertex   2.718626e-015 3.200000e+000 -1.500000e+000
      vertex   -2.571673e-015 1.400000e+001 -1.500000e+000
      vertex   2.431074e+000 1.378731e+001 -1.500000e+000
    endloop
  endfacet
  facet normal 0.000000e+000 -0.000000e+000 -1.000000e+000
    outer loop
      vertex   5.556742e-001 3.151385e+000 -1.500000e+000
      vertex   4.788282e+000 1.315570e+001 -1.500000e+000
      vertex   1.094464e+000 3.007016e+000 -1.500000e+000
    endloop
  endfacet
  facet normal 0.000000e+000 0.000000e+000 -1.000000e+000
    outer loop
      vertex   5.556742e-001 3.151385e+000 -1.500000e+000
      vertex   2.431074e+000 1.378731e+001 -1.500000e+000
      vertex   4.788282e+000 1.315570e+001 -1.500000e+000
    endloop
  endfacet
  facet normal 0.000000e+000 -0.000000e+000 -1.000000e+000
    outer loop
      vertex   1.094464e+000 3.007016e+000 -1.500000e+000
      vertex   7.000000e+000 1.212436e+001 -1.500000e+000
      vertex   1.600000e+000 2.771281e+000 -1.500000e+000
    endloop
  endfacet
  facet normal 0.000000e+000 0.000000e+000 -1.000000e+000
    outer loop
      vertex   1.094464e+000 3.007016e+000 -1.500000e+000
      vertex   4.788282e+000 1.315570e+001 -1.500000e+000
      vertex   7.000000e+000 1.212436e+001 -1.500000e+000
    endloop
  endfacet
  facet normal 0.000000e+000 -0.000000e+000 -1.000000e+000
    outer loop
      vertex   1.600000e+000 2.771281e+000 -1.500000e+000
      vertex   8.999027e+000 1.072462e+001 -1.500000e+000
      vertex   2.056920e+000 2.451342e+000 -1.500000e+000
    endloop
  endfacet
  facet normal 0.000000e+000 0.000000e+000 -1.000000e+000
    outer loop
      vertex   1.600000e+000 2.771281e+000 -1.500000e+000
      vertex   7.000000e+000 1.212436e+001 -1.500000e+000
      vertex   8.999027e+000 1.072462e+001 -1.500000e+000
    endloop
  endfacet
  facet normal 0.000000e+000 -0.000000e+000 -1.000000e+000
    outer loop
      vertex   -3.007016e+000 -1.094464e+000 -1.500000e+000
      vertex   -2.771281e+000 -1.600000e+000 -1.500000e+000
      vertex   -1.315570e+001 -4.788282e+000 -1.500000e+000
    endloop
  endfacet
  facet normal 0.000000e+000 -0.000000e+000 -1.000000e+000
    outer loop
      vertex   -2.771281e+000 -1.600000e+000 -1.500000e+000
      vertex   -2.451342e+000 -2.056920e+000 -1.500000e+000
      vertex   -1.212436e+001 -7.000000e+000 -1.500000e+000
    endloop
  endfacet
  facet normal 0.000000e+000 -0.000000e+000 -1.000000e+000
    outer loop
      vertex   -2.451342e+000 -2.056920e+000 -1.500000e+000
      vertex   -2.056920e+000 -2.451342e+000 -1.500000e+000
      vertex   -1.072462e+001 -8.999027e+000 -1.500000e+000
    endloop
  endfacet
  facet normal 0.000000e+000 -0.000000e+000 -1.000000e+000
    outer loop
      vertex   -2.056920e+000 -2.451342e+000 -1.500000e+000
      vertex   -1.600000e+000 -2.771281e+000 -1.500000e+000
      vertex   -8.999027e+000 -1.072462e+001 -1.500000e+000
    endloop
  endfacet
  facet normal 0.000000e+000 -0.000000e+000 -1.000000e+000
    outer loop
      vertex   -1.600000e+000 -2.771281e+000 -1.500000e+000
      vertex   -1.094464e+000 -3.007016e+000 -1.500000e+000
      vertex   -7.000000e+000 -1.212436e+001 -1.500000e+000
    endloop
  endfacet
  facet normal 0.000000e+000 0.000000e+000 -1.000000e+000
    outer loop
      vertex   3.502374e-015 -3.200000e+000 -1.500000e+000
      vertex   5.556742e-001 -3.151385e+000 -1.500000e+000
      vertex   2.431074e+000 -1.378731e+001 -1.500000e+000
    endloop
  endfacet
  facet normal 0.000000e+000 0.000000e+000 -1.000000e+000
    outer loop
      vertex   5.556742e-001 -3.151385e+000 -1.500000e+000
      vertex   1.094464e+000 -3.007016e+000 -1.500000e+000
      vertex   4.788282e+000 -1.315570e+001 -1.500000e+000
    endloop
  endfacet
  facet normal 0.000000e+000 0.000000e+000 -1.000000e+000
    outer loop
      vertex   1.094464e+000 -3.007016e+000 -1.500000e+000
      vertex   1.600000e+000 -2.771281e+000 -1.500000e+000
      vertex   7.000000e+000 -1.212436e+001 -1.500000e+000
    endloop
  endfacet
  facet normal 0.000000e+000 0.000000e+000 -1.000000e+000
    outer loop
      vertex   1.600000e+000 -2.771281e+000 -1.500000e+000
      vertex   2.056920e+000 -2.451342e+000 -1.500000e+000
      vertex   8.999027e+000 -1.072462e+001 -1.500000e+000
    endloop
  endfacet
  facet normal 0.000000e+000 0.000000e+000 -1.000000e+000
    outer loop
      vertex   2.056920e+000 -2.451342e+000 -1.500000e+000
      vertex   2.451342e+000 -2.056920e+000 -1.500000e+000
      vertex   1.072462e+001 -8.999027e+000 -1.500000e+000
    endloop
  endfacet
  facet normal 0.000000e+000 0.000000e+000 -1.000000e+000
    outer loop
      vertex   2.451342e+000 -2.056920e+000 -1.500000e+000
      vertex   2.771281e+000 -1.600000e+000 -1.500000e+000
      vertex   1.212436e+001 -7.000000e+000 -1.500000e+000
    endloop
  endfacet
  facet normal 0.000000e+000 0.000000e+000 -1.000000e+000
    outer loop
      vertex   -1.400000e+001 -1.714449e-015 -1.500000e+000
      vertex   -1.378731e+001 2.431074e+000 -1.500000e+000
      vertex   -3.151385e+000 5.556742e-001 -1.500000e+000
    endloop
  endfacet
  facet normal 0.000000e+000 0.000000e+000 -1.000000e+000
    outer loop
      vertex   -1.378731e+001 2.431074e+000 -1.500000e+000
      vertex   -1.315570e+001 4.788282e+000 -1.500000e+000
      vertex   -3.007016e+000 1.094464e+000 -1.500000e+000
    endloop
  endfacet
  facet normal 0.000000e+000 0.000000e+000 -1.000000e+000
    outer loop
      vertex   -1.315570e+001 4.788282e+000 -1.500000e+000
      vertex   -1.212436e+001 7.000000e+000 -1.500000e+000
      vertex   -2.771281e+000 1.600000e+000 -1.500000e+000
    endloop
  endfacet
  facet normal 0.000000e+000 0.000000e+000 -1.000000e+000
    outer loop
      vertex   -1.212436e+001 7.000000e+000 -1.500000e+000
      vertex   -1.072462e+001 8.999027e+000 -1.500000e+000
      vertex   -2.451342e+000 2.056920e+000 -1.500000e+000
    endloop
  endfacet
  facet normal 0.000000e+000 0.000000e+000 -1.000000e+000
    outer loop
      vertex   -1.072462e+001 8.999027e+000 -1.500000e+000
      vertex   -8.999027e+000 1.072462e+001 -1.500000e+000
      vertex   -2.056920e+000 2.451342e+000 -1.500000e+000
    endloop
  endfacet
  facet normal 0.000000e+000 0.000000e+000 -1.000000e+000
    outer loop
      vertex   -8.999027e+000 1.072462e+001 -1.500000e+000
      vertex   -7.000000e+000 1.212436e+001 -1.500000e+000
      vertex   -1.600000e+000 2.771281e+000 -1.500000e+000
    endloop
  endfacet
  facet normal 0.000000e+000 -0.000000e+000 -1.000000e+000
    outer loop
      vertex   8.999027e+000 1.072462e+001 -1.500000e+000
      vertex   1.072462e+001 8.999027e+000 -1.500000e+000
      vertex   2.056920e+000 2.451342e+000 -1.500000e+000
    endloop
  endfacet
  facet normal 0.000000e+000 -0.000000e+000 -1.000000e+000
    outer loop
      vertex   2.056920e+000 2.451342e+000 -1.500000e+000
      vertex   1.072462e+001 8.999027e+000 -1.500000e+000
      vertex   2.451342e+000 2.056920e+000 -1.500000e+000
    endloop
  endfacet
  facet normal 0.000000e+000 0.000000e+000 -1.000000e+000
    outer loop
      vertex   2.451342e+000 2.056920e+000 -1.500000e+000
      vertex   1.072462e+001 8.999027e+000 -1.500000e+000
      vertex   1.212436e+001 7.000000e+000 -1.500000e+000
    endloop
  endfacet
  facet normal 0.000000e+000 0.000000e+000 -1.000000e+000
    outer loop
      vertex   2.771281e+000 1.600000e+000 -1.500000e+000
      vertex   1.212436e+001 7.000000e+000 -1.500000e+000
      vertex   1.315570e+001 4.788282e+000 -1.500000e+000
    endloop
  endfacet
  facet normal 0.000000e+000 0.000000e+000 -1.000000e+000
    outer loop
      vertex   3.007016e+000 1.094464e+000 -1.500000e+000
      vertex   1.315570e+001 4.788282e+000 -1.500000e+000
      vertex   1.378731e+001 2.431074e+000 -1.500000e+000
    endloop
  endfacet
  facet normal 0.000000e+000 0.000000e+000 -1.000000e+000
    outer loop
      vertex   3.151385e+000 5.556742e-001 -1.500000e+000
      vertex   1.378731e+001 2.431074e+000 -1.500000e+000
      vertex   1.400000e+001 0.000000e+000 -1.500000e+000
    endloop
  endfacet
  facet normal 0.000000e+000 0.000000e+000 -1.000000e+000
    outer loop
      vertex   3.200000e+000 0.000000e+000 -1.500000e+000
      vertex   3.151385e+000 5.556742e-001 -1.500000e+000
      vertex   1.400000e+001 0.000000e+000 -1.500000e+000
    endloop
  endfacet
  facet normal -0.000000e+000 0.000000e+000 -1.000000e+000
    outer loop
      vertex   1.378731e+001 2.431074e+000 -1.500000e+000
      vertex   3.151385e+000 5.556742e-001 -1.500000e+000
      vertex   3.007016e+000 1.094464e+000 -1.500000e+000
    endloop
  endfacet
  facet normal -0.000000e+000 0.000000e+000 -1.000000e+000
    outer loop
      vertex   1.315570e+001 4.788282e+000 -1.500000e+000
      vertex   3.007016e+000 1.094464e+000 -1.500000e+000
      vertex   2.771281e+000 1.600000e+000 -1.500000e+000
    endloop
  endfacet
  facet normal -0.000000e+000 0.000000e+000 -1.000000e+000
    outer loop
      vertex   1.212436e+001 7.000000e+000 -1.500000e+000
      vertex   2.771281e+000 1.600000e+000 -1.500000e+000
      vertex   2.451342e+000 2.056920e+000 -1.500000e+000
    endloop
  endfacet
endsolid
