  0
SECTION
  2
HEADER
  9
$ACADVER
  1
AC1015
  9
$ACADMAINTVER
 70
     6
  9
$DWGCODEPAGE
  3
ANSI_1252
  9
$INSBASE
 10
0.0
 20
0.0
 30
0.0
  9
$EXTMIN
 10
0.0
 20
0.0
 30
0.0
  9
$EXTMAX
 10
600.0
 20
400.0
 30
0.0
  9
$LIMMIN
 10
0.0
 20
0.0
  9
$LIMMAX
 10
600.0
 20
400.0
  9
$ORTHOMODE
 70
     0
  9
$REGENMODE
 70
     1
  9
$FILLMODE
 70
     1
  9
$QTEXTMODE
 70
     0
  9
$MIRRTEXT
 70
     1
  9
$LTSCALE
 40
1.0
  9
$ATTMODE
 70
     1
  9
$TEXTSIZE
 40
2.5
  9
$TRACEWID
 40
1.0
  9
$TEXTSTYLE
  7
Standard
  9
$CLAYER
  8
0
  9
$CELTYPE
  6
ByLayer
  9
$CECOLOR
 62
   256
  9
$CELTSCALE
 40
1.0
  9
$DISPSILH
 70
     0
  9
$DIMSCALE
 40
1.0
  9
$DIMASZ
 40
2.5
  9
$DIMEXO
 40
0.625
  9
$DIMDLI
 40
3.75
  9
$DIMRND
 40
0.0
  9
$DIMDLE
 40
0.0
  9
$DIMEXE
 40
1.25
  9
$DIMTP
 40
0.0
  9
$DIMTM
 40
0.0
  9
$DIMTXT
 40
2.5
  9
$DIMCEN
 40
2.5
  9
$DIMTSZ
 40
0.0
  9
$DIMTOL
 70
     0
  9
$DIMLIM
 70
     0
  9
$DIMTIH
 70
     0
  9
$DIMTOH
 70
     0
  9
$DIMSE1
 70
     0
  9
$DIMSE2
 70
     0
  9
$DIMTAD
 70
     1
  9
$DIMZIN
 70
     8
  9
$DIMBLK
  1

  9
$DIMASO
 70
     1
  9
$DIMSHO
 70
     1
  9
$DIMPOST
  1

  9
$DIMAPOST
  1

  9
$DIMALT
 70
     0
  9
$DIMALTD
 70
     3
  9
$DIMALTF
 40
0.0393700787
  9
$DIMLFAC
 40
1.0
  9
$DIMTOFL
 70
     1
  9
$DIMTVP
 40
0.0
  9
$DIMTIX
 70
     0
  9
$DIMSOXD
 70
     0
  9
$DIMSAH
 70
     0
  9
$DIMBLK1
  1

  9
$DIMBLK2
  1

  9
$DIMSTYLE
  2
ISO-25
  9
$DIMCLRD
 70
     0
  9
$DIMCLRE
 70
     0
  9
$DIMCLRT
 70
     0
  9
$DIMTFAC
 40
1.0
  9
$DIMGAP
 40
0.625
  9
$DIMJUST
 70
     0
  9
$DIMSD1
 70
     0
  9
$DIMSD2
 70
     0
  9
$DIMTOLJ
 70
     0
  9
$DIMTZIN
 70
     8
  9
$DIMALTZ
 70
     0
  9
$DIMALTTZ
 70
     0
  9
$DIMUPT
 70
     0
  9
$DIMDEC
 70
     2
  9
$DIMTDEC
 70
     2
  9
$DIMALTU
 70
     2
  9
$DIMALTTD
 70
     3
  9
$DIMTXSTY
  7
Standard
  9
$DIMAUNIT
 70
     0
  9
$DIMADEC
 70
     0
  9
$DIMALTRND
 40
0.0
  9
$DIMAZIN
 70
     0
  9
$DIMDSEP
 70
    44
  9
$DIMATFIT
 70
     3
  9
$DIMFRAC
 70
     0
  9
$DIMLDRBLK
  1

  9
$DIMLUNIT
 70
     2
  9
$DIMLWD
 70
    -2
  9
$DIMLWE
 70
    -2
  9
$DIMTMOVE
 70
     0
  9
$LUNITS
 70
     2
  9
$LUPREC
 70
     4
  9
$SKETCHINC
 40
1.0
  9
$FILLETRAD
 40
10.0
  9
$AUNITS
 70
     0
  9
$AUPREC
 70
     0
  9
$MENU
  1
.
  9
$ELEVATION
 40
0.0
  9
$PELEVATION
 40
0.0
  9
$THICKNESS
 40
0.0
  9
$LIMCHECK
 70
     0
  9
$CHAMFERA
 40
10.0
  9
$CHAMFERB
 40
10.0
  9
$CHAMFERC
 40
20.0
  9
$CHAMFERD
 40
0.0
  9
$SKPOLY
 70
     0
  9
$TDCREATE
 40
2455116.81429059
  9
$TDUCREATE
 40
2455116.772623924
  9
$TDUPDATE
 40
2455116.814290602
  9
$TDUUPDATE
 40
2455116.772623935
  9
$TDINDWG
 40
0.0000000116
  9
$TDUSRTIMER
 40
0.0000000116
  9
$USRTIMER
 70
     1
  9
$ANGBASE
 50
0.0
  9
$ANGDIR
 70
     0
  9
$PDMODE
 70
     0
  9
$PDSIZE
 40
0.0
  9
$PLINEWID
 40
0.0
  9
$SPLFRAME
 70
     0
  9
$SPLINETYPE
 70
     6
  9
$SPLINESEGS
 70
     8
  9
$HANDSEED
  5
16C
  9
$SURFTAB1
 70
     6
  9
$SURFTAB2
 70
     6
  9
$SURFTYPE
 70
     6
  9
$SURFU
 70
     6
  9
$SURFV
 70
     6
  9
$UCSBASE
  2

  9
$UCSNAME
  2

  9
$UCSORG
 10
0.0
 20
0.0
 30
0.0
  9
$UCSXDIR
 10
1.0
 20
0.0
 30
0.0
  9
$UCSYDIR
 10
0.0
 20
1.0
 30
0.0
  9
$UCSORTHOREF
  2

  9
$UCSORTHOVIEW
 70
     0
  9
$UCSORGTOP
 10
0.0
 20
0.0
 30
0.0
  9
$UCSORGBOTTOM
 10
0.0
 20
0.0
 30
0.0
  9
$UCSORGLEFT
 10
0.0
 20
0.0
 30
0.0
  9
$UCSORGRIGHT
 10
0.0
 20
0.0
 30
0.0
  9
$UCSORGFRONT
 10
0.0
 20
0.0
 30
0.0
  9
$UCSORGBACK
 10
0.0
 20
0.0
 30
0.0
  9
$PUCSBASE
  2

  9
$PUCSNAME
  2

  9
$PUCSORG
 10
0.0
 20
0.0
 30
0.0
  9
$PUCSXDIR
 10
1.0
 20
0.0
 30
0.0
  9
$PUCSYDIR
 10
0.0
 20
1.0
 30
0.0
  9
$PUCSORTHOREF
  2

  9
$PUCSORTHOVIEW
 70
     0
  9
$PUCSORGTOP
 10
0.0
 20
0.0
 30
0.0
  9
$PUCSORGBOTTOM
 10
0.0
 20
0.0
 30
0.0
  9
$PUCSORGLEFT
 10
0.0
 20
0.0
 30
0.0
  9
$PUCSORGRIGHT
 10
0.0
 20
0.0
 30
0.0
  9
$PUCSORGFRONT
 10
0.0
 20
0.0
 30
0.0
  9
$PUCSORGBACK
 10
0.0
 20
0.0
 30
0.0
  9
$USERI1
 70
     0
  9
$USERI2
 70
     0
  9
$USERI3
 70
     0
  9
$USERI4
 70
     0
  9
$USERI5
 70
     0
  9
$USERR1
 40
0.0
  9
$USERR2
 40
0.0
  9
$USERR3
 40
0.0
  9
$USERR4
 40
0.0
  9
$USERR5
 40
0.0
  9
$WORLDVIEW
 70
     1
  9
$SHADEDGE
 70
     3
  9
$SHADEDIF
 70
    70
  9
$TILEMODE
 70
     1
  9
$MAXACTVP
 70
    64
  9
$PINSBASE
 10
0.0
 20
0.0
 30
0.0
  9
$PLIMCHECK
 70
     0
  9
$PEXTMIN
 10
0.0
 20
0.0
 30
0.0
  9
$PEXTMAX
 10
600.0
 20
400.0
 30
0.0
  9
$PLIMMIN
 10
0.0
 20
0.0
  9
$PLIMMAX
 10
600.0
 20
400.0
  9
$UNITMODE
 70
     0
  9
$VISRETAIN
 70
     1
  9
$PLINEGEN
 70
     0
  9
$PSLTSCALE
 70
     1
  9
$TREEDEPTH
 70
  3020
  9
$CMLSTYLE
  2
Standard
  9
$CMLJUST
 70
     0
  9
$CMLSCALE
 40
20.0
  9
$PROXYGRAPHICS
 70
     1
  9
$MEASUREMENT
 70
     1
  9
$CELWEIGHT
370
    -1
  9
$ENDCAPS
280
     0
  9
$JOINSTYLE
280
     0
  9
$LWDISPLAY
290
     0
  9
$INSUNITS
 70
     4
  9
$HYPERLINKBASE
  1

  9
$STYLESHEET
  1

  9
$XEDIT
290
     1
  9
$CEPSNTYPE
380
     0
  9
$PSTYLEMODE
290
     1
  9
$FINGERPRINTGUID
  2
{D4D027E6-1E6A-475A-ABAE-78C81E9173DF}
  9
$VERSIONGUID
  2
{FAEB1C32-E019-11D5-929B-00C0DF256EC4}
  9
$EXTNAMES
290
     1
  9
$PSVPSCALE
 40
0.0
  9
$OLESTARTUP
290
     0
  0
ENDSEC
  0
SECTION
  2
CLASSES
  0
CLASS
  1
ACDBDICTIONARYWDFLT
  2
AcDbDictionaryWithDefault
  3
ObjectDBX Classes
 90
        0
280
     0
281
     0
  0
CLASS
  1
ACDBPLACEHOLDER
  2
AcDbPlaceHolder
  3
ObjectDBX Classes
 90
        0
280
     0
281
     0
  0
CLASS
  1
LAYOUT
  2
AcDbLayout
  3
ObjectDBX Classes
 90
        0
280
     0
281
     0
  0
ENDSEC
  0
SECTION
  2
TABLES
  0
TABLE
  2
VPORT
  5
8
330
0
100
AcDbSymbolTable
 70
     1
  0
VPORT
  5
29
330
8
100
AcDbSymbolTableRecord
100
AcDbViewportTableRecord
  2
*Active
 70
     0
 10
0.0
 20
0.0
 11
1.0
 21
1.0
 12
344.1869158879
 22
148.5
 13
0.0
 23
0.0
 14
10.0
 24
10.0
 15
10.0
 25
10.0
 16
0.0
 26
0.0
 36
1.0
 17
0.0
 27
0.0
 37
0.0
 40
297.0
 41
1.9729729729
 42
50.0
 43
0.0
 44
0.0
 50
0.0
 51
0.0
 71
     0
 72
   100
 73
     1
 74
     3
 75
     0
 76
     0
 77
     0
 78
     0
281
     0
 65
     1
110
0.0
120
0.0
130
0.0
111
1.0
121
0.0
131
0.0
112
0.0
122
1.0
132
0.0
 79
     0
146
0.0
  0
ENDTAB
  0
TABLE
  2
LTYPE
  5
5
330
0
100
AcDbSymbolTable
 70
     1
  0
LTYPE
  5
14
330
5
100
AcDbSymbolTableRecord
100
AcDbLinetypeTableRecord
  2
ByBlock
 70
     0
  3

 72
    65
 73
     0
 40
0.0
  0
LTYPE
  5
15
330
5
100
AcDbSymbolTableRecord
100
AcDbLinetypeTableRecord
  2
ByLayer
 70
     0
  3

 72
    65
 73
     0
 40
0.0
  0
LTYPE
  5
16
330
5
100
AcDbSymbolTableRecord
100
AcDbLinetypeTableRecord
  2
Continuous
 70
     0
  3
Solid line
 72
    65
 73
     0
 40
0.0
  0
ENDTAB
  0
TABLE
  2
LAYER
  5
2
330
0
100
AcDbSymbolTable
 70
     7
  0
LAYER
  5
10
330
2
100
AcDbSymbolTableRecord
100
AcDbLayerTableRecord
  2
0
 70
     0
 62
     7
  6
Continuous
370
    -3
390
F
  0
LAYER
  5
2A
330
2
100
AcDbSymbolTableRecord
100
AcDbLayerTableRecord
  2
Default
 70
     0
 62
     7
  6
Continuous
370
    -3
390
F
  0
LAYER
  5
2D
330
2
100
AcDbSymbolTableRecord
100
AcDbLayerTableRecord
  2
BED
 70
     0
 62
     7
  6
Continuous
370
    -3
390
F
  0
LAYER
  5
3E
330
2
100
AcDbSymbolTableRecord
100
AcDbLayerTableRecord
  2
PURGE-PLATE
 70
     0
 62
     7
  6
Continuous
370
    -3
390
F
  0
LAYER
  5
4B
330
2
100
AcDbSymbolTableRecord
100
AcDbLayerTableRecord
  2
STEPPER-PLATE
 70
     0
 62
     7
  6
Continuous
370
    -3
390
F
  0
LAYER
  5
AC
330
2
100
AcDbSymbolTableRecord
100
AcDbLayerTableRecord
  2
Y-CHASSIS
 70
     0
 62
     7
  6
Continuous
370
    -3
390
F
  0
LAYER
  5
12F
330
2
100
AcDbSymbolTableRecord
100
AcDbLayerTableRecord
  2
MOTHERBOARD-PLAT
 70
     0
 62
     7
  6
Continuous
370
    -3
390
F
  0
ENDTAB
  0
TABLE
  2
STYLE
  5
3
330
0
100
AcDbSymbolTable
 70
     1
  0
STYLE
  5
11
330
3
100
AcDbSymbolTableRecord
100
AcDbTextStyleTableRecord
  2
Standard
 70
     0
 40
0.0
 41
1.0
 50
0.0
 71
     0
 42
2.5
  3
txt
  4

  0
ENDTAB
  0
TABLE
  2
VIEW
  5
6
330
0
100
AcDbSymbolTable
 70
     0
  0
ENDTAB
  0
TABLE
  2
UCS
  5
7
330
0
100
AcDbSymbolTable
 70
     0
  0
ENDTAB
  0
TABLE
  2
APPID
  5
9
330
0
100
AcDbSymbolTable
 70
     1
  0
APPID
  5
12
330
9
100
AcDbSymbolTableRecord
100
AcDbRegAppTableRecord
  2
ACAD
 70
     0
  0
ENDTAB
  0
TABLE
  2
DIMSTYLE
  5
A
330
0
100
AcDbSymbolTable
 70
     1
100
AcDbDimStyleTable
  0
DIMSTYLE
105
27
330
A
100
AcDbSymbolTableRecord
100
AcDbDimStyleTableRecord
  2
ISO-25
 70
     0
 41
2.5
 42
0.625
 43
3.75
 44
1.25
 73
     0
 74
     0
 77
     1
 78
     8
140
2.5
141
2.5
143
0.0393700787
147
0.625
171
     3
172
     1
271
     2
272
     2
274
     3
278
    44
283
     0
284
     8
340
11
  0
ENDTAB
  0
TABLE
  2
BLOCK_RECORD
  5
1
330
0
100
AcDbSymbolTable
 70
     6
  0
BLOCK_RECORD
  5
1F
330
1
100
AcDbSymbolTableRecord
100
AcDbBlockTableRecord
  2
*Model_Space
340
22
  0
BLOCK_RECORD
  5
1B
330
1
100
AcDbSymbolTableRecord
100
AcDbBlockTableRecord
  2
*Paper_Space
340
1E
  0
BLOCK_RECORD
  5
2B
330
1
100
AcDbSymbolTableRecord
100
AcDbBlockTableRecord
  2
SE
340
0
102
{BLKREFS
331
2C
102
}
1001
ACAD
1000
DesignCenter Data
1002
{
1070
     1
1070
     0
1002
}
  0
BLOCK_RECORD
  5
3C
330
1
100
AcDbSymbolTableRecord
100
AcDbBlockTableRecord
  2
SE1
340
0
102
{BLKREFS
331
3D
102
}
1001
ACAD
1000
DesignCenter Data
1002
{
1070
     1
1070
     0
1002
}
  0
BLOCK_RECORD
  5
49
330
1
100
AcDbSymbolTableRecord
100
AcDbBlockTableRecord
  2
SE2
340
0
102
{BLKREFS
331
4A
102
}
1001
ACAD
1000
DesignCenter Data
1002
{
1070
     1
1070
     0
1002
}
  0
BLOCK_RECORD
  5
AA
330
1
100
AcDbSymbolTableRecord
100
AcDbBlockTableRecord
  2
SE3
340
0
102
{BLKREFS
331
AB
102
}
1001
ACAD
1000
DesignCenter Data
1002
{
1070
     1
1070
     0
1002
}
  0
BLOCK_RECORD
  5
12D
330
1
100
AcDbSymbolTableRecord
100
AcDbBlockTableRecord
  2
SE4
340
0
102
{BLKREFS
331
12E
102
}
1001
ACAD
1000
DesignCenter Data
1002
{
1070
     1
1070
     0
1002
}
  0
ENDTAB
  0
ENDSEC
  0
SECTION
  2
BLOCKS
  0
BLOCK
  5
20
330
1F
100
AcDbEntity
  8
0
100
AcDbBlockBegin
  2
*Model_Space
 70
     0
 71
     0
 10
0.0
 20
0.0
 30
0.0
  3
*Model_Space
  1

  0
ENDBLK
  5
21
330
1F
100
AcDbEntity
  8
0
100
AcDbBlockEnd
  0
BLOCK
  5
1C
330
1B
100
AcDbEntity
 67
     1
  8
0
100
AcDbBlockBegin
  2
*Paper_Space
 70
     0
 71
     0
 10
0.0
 20
0.0
 30
0.0
  3
*Paper_Space
  1

  0
ENDBLK
  5
1D
330
1B
100
AcDbEntity
 67
     1
  8
0
100
AcDbBlockEnd
  0
BLOCK
  5
3A
330
2B
100
AcDbEntity
  8
0
100
AcDbBlockBegin
  2
SE
 70
     0
 71
     0
 10
0.0
 20
0.0
 30
0.0
  3
SE
  1

  0
LINE
  5
2E
330
2B
100
AcDbEntity
  8
BED
  6
Continuous
 62
     7
100
AcDbLine
 10
320.4472448709
 20
394.5269197974
 30
0.0
 11
88.4472448709
 21
394.5269197974
 31
0.0
  0
LINE
  5
2F
330
2B
100
AcDbEntity
  8
BED
  6
Continuous
 62
     7
100
AcDbLine
 10
88.4472448709
 20
164.5269197974
 30
0.0
 11
218.4472448709
 21
164.5269197974
 31
0.0
  0
LINE
  5
30
330
2B
100
AcDbEntity
  8
BED
  6
Continuous
 62
     7
100
AcDbLine
 10
320.4472448709
 20
394.5269197974
 30
0.0
 11
320.4472448709
 21
164.5269197974
 31
0.0
  0
LINE
  5
31
330
2B
100
AcDbEntity
  8
BED
  6
Continuous
 62
     7
100
AcDbLine
 10
88.4472448709
 20
164.5269197974
 30
0.0
 11
88.4472448709
 21
394.5269197974
 31
0.0
  0
LINE
  5
32
330
2B
100
AcDbEntity
  8
BED
  6
Continuous
 62
     7
100
AcDbLine
 10
258.4472448709
 20
164.5269197974
 30
0.0
 11
320.4472448709
 21
164.5269197974
 31
0.0
  0
LINE
  5
33
330
2B
100
AcDbEntity
  8
BED
  6
Continuous
 62
     7
100
AcDbLine
 10
258.4472448709
 20
164.5269197974
 30
0.0
 11
258.4472448709
 21
194.5269197974
 31
0.0
  0
LINE
  5
34
330
2B
100
AcDbEntity
  8
BED
  6
Continuous
 62
     7
100
AcDbLine
 10
258.4472448709
 20
194.5269197974
 30
0.0
 11
218.4472448709
 21
194.5269197974
 31
0.0
  0
LINE
  5
35
330
2B
100
AcDbEntity
  8
BED
  6
Continuous
 62
     7
100
AcDbLine
 10
218.4472448709
 20
194.5269197974
 30
0.0
 11
218.4472448709
 21
164.5269197974
 31
0.0
  0
CIRCLE
  5
36
330
2B
100
AcDbEntity
  8
BED
  6
Continuous
 62
     7
100
AcDbCircle
 10
95.8472448709
 20
341.5269197974
 30
0.0
 40
2.2
  0
CIRCLE
  5
37
330
2B
100
AcDbEntity
  8
BED
  6
Continuous
 62
     7
100
AcDbCircle
 10
95.8472448709
 20
217.5269197974
 30
0.0
 40
2.2
  0
CIRCLE
  5
38
330
2B
100
AcDbEntity
  8
BED
  6
Continuous
 62
     7
100
AcDbCircle
 10
314.0472448709
 20
217.5269197974
 30
0.0
 40
2.2
  0
CIRCLE
  5
39
330
2B
100
AcDbEntity
  8
BED
  6
Continuous
 62
     7
100
AcDbCircle
 10
314.0472448709
 20
341.5269197974
 30
0.0
 40
2.2
  0
ENDBLK
  5
3B
330
2B
100
AcDbEntity
  8
0
100
AcDbBlockEnd
  0
BLOCK
  5
47
330
3C
100
AcDbEntity
  8
0
100
AcDbBlockBegin
  2
SE1
 70
     0
 71
     0
 10
0.0
 20
0.0
 30
0.0
  3
SE1
  1

  0
CIRCLE
  5
3F
330
3C
100
AcDbEntity
  8
PURGE-PLATE
  6
Continuous
 62
     7
100
AcDbCircle
 10
341.008790301
 20
96.2072075674
 30
0.0
 40
2.2
  0
CIRCLE
  5
40
330
3C
100
AcDbEntity
  8
PURGE-PLATE
  6
Continuous
 62
     7
100
AcDbCircle
 10
341.008790301
 20
66.2072075674
 30
0.0
 40
2.2
  0
CIRCLE
  5
41
330
3C
100
AcDbEntity
  8
PURGE-PLATE
  6
Continuous
 62
     7
100
AcDbCircle
 10
301.008790301
 20
66.2072075674
 30
0.0
 40
2.2
  0
CIRCLE
  5
42
330
3C
100
AcDbEntity
  8
PURGE-PLATE
  6
Continuous
 62
     7
100
AcDbCircle
 10
301.008790301
 20
96.2072075674
 30
0.0
 40
2.2
  0
LINE
  5
43
330
3C
100
AcDbEntity
  8
PURGE-PLATE
  6
Continuous
 62
     7
100
AcDbLine
 10
396.008790301
 20
61.2072075674
 30
0.0
 11
296.008790301
 21
61.2072075674
 31
0.0
  0
LINE
  5
44
330
3C
100
AcDbEntity
  8
PURGE-PLATE
  6
Continuous
 62
     7
100
AcDbLine
 10
396.008790301
 20
101.2072075674
 30
0.0
 11
396.008790301
 21
61.2072075674
 31
0.0
  0
LINE
  5
45
330
3C
100
AcDbEntity
  8
PURGE-PLATE
  6
Continuous
 62
     7
100
AcDbLine
 10
296.008790301
 20
101.2072075674
 30
0.0
 11
396.008790301
 21
101.2072075674
 31
0.0
  0
LINE
  5
46
330
3C
100
AcDbEntity
  8
PURGE-PLATE
  6
Continuous
 62
     7
100
AcDbLine
 10
296.008790301
 20
61.2072075674
 30
0.0
 11
296.008790301
 21
101.2072075674
 31
0.0
  0
ENDBLK
  5
48
330
3C
100
AcDbEntity
  8
0
100
AcDbBlockEnd
  0
BLOCK
  5
A8
330
49
100
AcDbEntity
  8
0
100
AcDbBlockBegin
  2
SE2
 70
     0
 71
     0
 10
0.0
 20
0.0
 30
0.0
  3
SE2
  1

  0
LINE
  5
4C
330
49
100
AcDbEntity
  8
STEPPER-PLATE
  6
Continuous
 62
     7
100
AcDbLine
 10
5.5243778314
 20
14.0719451106
 30
0.0
 11
5.5243778314
 21
394.0719451106
 31
0.0
  0
LINE
  5
4D
330
49
100
AcDbEntity
  8
STEPPER-PLATE
  6
Continuous
 62
     7
100
AcDbLine
 10
85.5243778314
 20
394.0719451106
 30
0.0
 11
85.5243778314
 21
14.0719451106
 31
0.0
  0
CIRCLE
  5
4E
330
49
100
AcDbEntity
  8
STEPPER-PLATE
  6
Continuous
 62
     7
100
AcDbCircle
 10
39.5243778314
 20
337.0719451106
 30
0.0
 40
2.2
  0
CIRCLE
  5
4F
330
49
100
AcDbEntity
  8
STEPPER-PLATE
  6
Continuous
 62
     7
100
AcDbCircle
 10
39.5243778314
 20
325.0719451106
 30
0.0
 40
2.2
  0
CIRCLE
  5
50
330
49
100
AcDbEntity
  8
STEPPER-PLATE
  6
Continuous
 62
     7
100
AcDbCircle
 10
51.5243778314
 20
325.0719451106
 30
0.0
 40
2.2
  0
CIRCLE
  5
51
330
49
100
AcDbEntity
  8
STEPPER-PLATE
  6
Continuous
 62
     7
100
AcDbCircle
 10
75.5243778314
 20
337.0719451106
 30
0.0
 40
2.2
  0
CIRCLE
  5
52
330
49
100
AcDbEntity
  8
STEPPER-PLATE
  6
Continuous
 62
     7
100
AcDbCircle
 10
63.5243778314
 20
337.0719451106
 30
0.0
 40
2.2
  0
CIRCLE
  5
53
330
49
100
AcDbEntity
  8
STEPPER-PLATE
  6
Continuous
 62
     7
100
AcDbCircle
 10
63.5243778314
 20
325.0719451106
 30
0.0
 40
2.2
  0
CIRCLE
  5
54
330
49
100
AcDbEntity
  8
STEPPER-PLATE
  6
Continuous
 62
     7
100
AcDbCircle
 10
75.5243778314
 20
325.0719451106
 30
0.0
 40
2.2
  0
CIRCLE
  5
55
330
49
100
AcDbEntity
  8
STEPPER-PLATE
  6
Continuous
 62
     7
100
AcDbCircle
 10
27.5243778314
 20
337.0719451106
 30
0.0
 40
2.2
  0
CIRCLE
  5
56
330
49
100
AcDbEntity
  8
STEPPER-PLATE
  6
Continuous
 62
     7
100
AcDbCircle
 10
15.5243778314
 20
337.0719451106
 30
0.0
 40
2.2
  0
CIRCLE
  5
57
330
49
100
AcDbEntity
  8
STEPPER-PLATE
  6
Continuous
 62
     7
100
AcDbCircle
 10
15.5243778314
 20
325.0719451106
 30
0.0
 40
2.2
  0
CIRCLE
  5
58
330
49
100
AcDbEntity
  8
STEPPER-PLATE
  6
Continuous
 62
     7
100
AcDbCircle
 10
27.5243778314
 20
325.0719451106
 30
0.0
 40
2.2
  0
CIRCLE
  5
59
330
49
100
AcDbEntity
  8
STEPPER-PLATE
  6
Continuous
 62
     7
100
AcDbCircle
 10
51.5243778314
 20
337.0719451106
 30
0.0
 40
2.2
  0
ARC
  5
5A
330
49
100
AcDbEntity
  8
STEPPER-PLATE
  6
Continuous
 62
     7
100
AcDbCircle
 10
27.5243778314
 20
65.0719451106
 30
0.0
 40
2.19999999999998
100
AcDbArc
 50
180.0
 51
360.0
  0
ARC
  5
5B
330
49
100
AcDbEntity
  8
STEPPER-PLATE
  6
Continuous
 62
     7
100
AcDbCircle
 10
27.5243778314
 20
87.0719451106
 30
0.0
 40
2.19999999999998
100
AcDbArc
 50
0.0
 51
180.0
  0
LINE
  5
5C
330
49
100
AcDbEntity
  8
STEPPER-PLATE
  6
Continuous
 62
     7
100
AcDbLine
 10
29.7243778314
 20
65.0719451106
 30
0.0
 11
29.7243778314
 21
87.0719451106
 31
0.0
  0
LINE
  5
5D
330
49
100
AcDbEntity
  8
STEPPER-PLATE
  6
Continuous
 62
     7
100
AcDbLine
 10
25.3243778314
 20
87.0719451106
 30
0.0
 11
25.3243778314
 21
65.0719451106
 31
0.0
  0
ARC
  5
5E
330
49
100
AcDbEntity
  8
STEPPER-PLATE
  6
Continuous
 62
     7
100
AcDbCircle
 10
15.5243778314
 20
65.0719451106
 30
0.0
 40
2.19999999999998
100
AcDbArc
 50
180.0
 51
360.0
  0
ARC
  5
5F
330
49
100
AcDbEntity
  8
STEPPER-PLATE
  6
Continuous
 62
     7
100
AcDbCircle
 10
15.5243778314
 20
87.0719451106
 30
0.0
 40
2.19999999999998
100
AcDbArc
 50
0.0
 51
180.0
  0
LINE
  5
60
330
49
100
AcDbEntity
  8
STEPPER-PLATE
  6
Continuous
 62
     7
100
AcDbLine
 10
17.7243778314
 20
65.0719451106
 30
0.0
 11
17.7243778314
 21
87.0719451106
 31
0.0
  0
LINE
  5
61
330
49
100
AcDbEntity
  8
STEPPER-PLATE
  6
Continuous
 62
     7
100
AcDbLine
 10
13.3243778314
 20
87.0719451106
 30
0.0
 11
13.3243778314
 21
65.0719451106
 31
0.0
  0
ARC
  5
62
330
49
100
AcDbEntity
  8
STEPPER-PLATE
  6
Continuous
 62
     7
100
AcDbCircle
 10
51.5243778314
 20
65.0719451106
 30
0.0
 40
2.199999999999981
100
AcDbArc
 50
180.0
 51
360.0
  0
ARC
  5
63
330
49
100
AcDbEntity
  8
STEPPER-PLATE
  6
Continuous
 62
     7
100
AcDbCircle
 10
51.5243778314
 20
87.0719451106
 30
0.0
 40
2.199999999999981
100
AcDbArc
 50
0.0
 51
180.0
  0
LINE
  5
64
330
49
100
AcDbEntity
  8
STEPPER-PLATE
  6
Continuous
 62
     7
100
AcDbLine
 10
53.7243778314
 20
65.0719451106
 30
0.0
 11
53.7243778314
 21
87.0719451106
 31
0.0
  0
LINE
  5
65
330
49
100
AcDbEntity
  8
STEPPER-PLATE
  6
Continuous
 62
     7
100
AcDbLine
 10
49.3243778314
 20
87.0719451106
 30
0.0
 11
49.3243778314
 21
65.0719451106
 31
0.0
  0
ARC
  5
66
330
49
100
AcDbEntity
  8
STEPPER-PLATE
  6
Continuous
 62
     7
100
AcDbCircle
 10
39.5243778314
 20
65.0719451106
 30
0.0
 40
2.199999999999982
100
AcDbArc
 50
180.0
 51
360.0
  0
ARC
  5
67
330
49
100
AcDbEntity
  8
STEPPER-PLATE
  6
Continuous
 62
     7
100
AcDbCircle
 10
39.5243778314
 20
87.0719451106
 30
0.0
 40
2.19999999999998
100
AcDbArc
 50
0.0
 51
180.0
  0
LINE
  5
68
330
49
100
AcDbEntity
  8
STEPPER-PLATE
  6
Continuous
 62
     7
100
AcDbLine
 10
41.7243778314
 20
65.0719451106
 30
0.0
 11
41.7243778314
 21
87.0719451106
 31
0.0
  0
LINE
  5
69
330
49
100
AcDbEntity
  8
STEPPER-PLATE
  6
Continuous
 62
     7
100
AcDbLine
 10
37.3243778314
 20
87.0719451106
 30
0.0
 11
37.3243778314
 21
65.0719451106
 31
0.0
  0
ARC
  5
6A
330
49
100
AcDbEntity
  8
STEPPER-PLATE
  6
Continuous
 62
     7
100
AcDbCircle
 10
75.5243778314
 20
65.0719451106
 30
0.0
 40
2.19999999999998
100
AcDbArc
 50
180.0
 51
360.0
  0
ARC
  5
6B
330
49
100
AcDbEntity
  8
STEPPER-PLATE
  6
Continuous
 62
     7
100
AcDbCircle
 10
75.5243778314
 20
87.0719451106
 30
0.0
 40
2.199999999999987
100
AcDbArc
 50
0.0
 51
180.0
  0
LINE
  5
6C
330
49
100
AcDbEntity
  8
STEPPER-PLATE
  6
Continuous
 62
     7
100
AcDbLine
 10
77.7243778314
 20
65.0719451106
 30
0.0
 11
77.7243778314
 21
87.0719451106
 31
0.0
  0
LINE
  5
6D
330
49
100
AcDbEntity
  8
STEPPER-PLATE
  6
Continuous
 62
     7
100
AcDbLine
 10
73.3243778314
 20
87.0719451106
 30
0.0
 11
73.3243778314
 21
65.0719451106
 31
0.0
  0
ARC
  5
6E
330
49
100
AcDbEntity
  8
STEPPER-PLATE
  6
Continuous
 62
     7
100
AcDbCircle
 10
63.5243778314
 20
65.0719451106
 30
0.0
 40
2.19999999999998
100
AcDbArc
 50
180.0
 51
360.0
  0
ARC
  5
6F
330
49
100
AcDbEntity
  8
STEPPER-PLATE
  6
Continuous
 62
     7
100
AcDbCircle
 10
63.5243778314
 20
87.0719451106
 30
0.0
 40
2.19999999999998
100
AcDbArc
 50
0.0
 51
180.0
  0
LINE
  5
70
330
49
100
AcDbEntity
  8
STEPPER-PLATE
  6
Continuous
 62
     7
100
AcDbLine
 10
65.7243778314
 20
65.0719451106
 30
0.0
 11
65.7243778314
 21
87.0719451106
 31
0.0
  0
LINE
  5
71
330
49
100
AcDbEntity
  8
STEPPER-PLATE
  6
Continuous
 62
     7
100
AcDbLine
 10
61.3243778314
 20
87.0719451106
 30
0.0
 11
61.3243778314
 21
65.0719451106
 31
0.0
  0
CIRCLE
  5
72
330
49
100
AcDbEntity
  8
STEPPER-PLATE
  6
Continuous
 62
     7
100
AcDbCircle
 10
15.5243778314
 20
100.5719451106
 30
0.0
 40
2.2
  0
CIRCLE
  5
73
330
49
100
AcDbEntity
  8
STEPPER-PLATE
  6
Continuous
 62
     7
100
AcDbCircle
 10
75.5243778314
 20
120.5719451106
 30
0.0
 40
2.2
  0
CIRCLE
  5
74
330
49
100
AcDbEntity
  8
STEPPER-PLATE
  6
Continuous
 62
     7
100
AcDbCircle
 10
75.5243778314
 20
135.5719451106
 30
0.0
 40
2.2
  0
CIRCLE
  5
75
330
49
100
AcDbEntity
  8
STEPPER-PLATE
  6
Continuous
 62
     7
100
AcDbCircle
 10
75.5243778314
 20
150.5719451106
 30
0.0
 40
2.2
  0
CIRCLE
  5
76
330
49
100
AcDbEntity
  8
STEPPER-PLATE
  6
Continuous
 62
     7
100
AcDbCircle
 10
75.5243778314
 20
165.5719451106
 30
0.0
 40
2.2
  0
CIRCLE
  5
77
330
49
100
AcDbEntity
  8
STEPPER-PLATE
  6
Continuous
 62
     7
100
AcDbCircle
 10
64.0243778314
 20
165.5719451106
 30
0.0
 40
2.2
  0
CIRCLE
  5
78
330
49
100
AcDbEntity
  8
STEPPER-PLATE
  6
Continuous
 62
     7
100
AcDbCircle
 10
49.0243778314
 20
165.5719451106
 30
0.0
 40
2.2
  0
CIRCLE
  5
79
330
49
100
AcDbEntity
  8
STEPPER-PLATE
  6
Continuous
 62
     7
100
AcDbCircle
 10
34.0243778314
 20
165.5719451106
 30
0.0
 40
2.2
  0
CIRCLE
  5
7A
330
49
100
AcDbEntity
  8
STEPPER-PLATE
  6
Continuous
 62
     7
100
AcDbCircle
 10
75.5243778314
 20
184.5719451106
 30
0.0
 40
2.2
  0
CIRCLE
  5
7B
330
49
100
AcDbEntity
  8
STEPPER-PLATE
  6
Continuous
 62
     7
100
AcDbCircle
 10
64.0243778314
 20
184.5719451106
 30
0.0
 40
2.2
  0
CIRCLE
  5
7C
330
49
100
AcDbEntity
  8
STEPPER-PLATE
  6
Continuous
 62
     7
100
AcDbCircle
 10
49.0243778314
 20
184.5719451106
 30
0.0
 40
2.2
  0
CIRCLE
  5
7D
330
49
100
AcDbEntity
  8
STEPPER-PLATE
  6
Continuous
 62
     7
100
AcDbCircle
 10
34.0243778314
 20
184.5719451106
 30
0.0
 40
2.2
  0
CIRCLE
  5
7E
330
49
100
AcDbEntity
  8
STEPPER-PLATE
  6
Continuous
 62
     7
100
AcDbCircle
 10
75.5243778314
 20
214.5719451106
 30
0.0
 40
2.2
  0
CIRCLE
  5
7F
330
49
100
AcDbEntity
  8
STEPPER-PLATE
  6
Continuous
 62
     7
100
AcDbCircle
 10
75.5243778314
 20
229.5719451106
 30
0.0
 40
2.2
  0
CIRCLE
  5
80
330
49
100
AcDbEntity
  8
STEPPER-PLATE
  6
Continuous
 62
     7
100
AcDbCircle
 10
75.5243778314
 20
199.5719451106
 30
0.0
 40
2.2
  0
CIRCLE
  5
81
330
49
100
AcDbEntity
  8
STEPPER-PLATE
  6
Continuous
 62
     7
100
AcDbCircle
 10
15.5243778314
 20
245.5719451106
 30
0.0
 40
2.2
  0
CIRCLE
  5
82
330
49
100
AcDbEntity
  8
STEPPER-PLATE
  6
Continuous
 62
     7
100
AcDbCircle
 10
75.5243778314
 20
264.5719451106
 30
0.0
 40
2.2
  0
CIRCLE
  5
83
330
49
100
AcDbEntity
  8
STEPPER-PLATE
  6
Continuous
 62
     7
100
AcDbCircle
 10
75.5243778314
 20
279.5719451106
 30
0.0
 40
2.2
  0
CIRCLE
  5
84
330
49
100
AcDbEntity
  8
STEPPER-PLATE
  6
Continuous
 62
     7
100
AcDbCircle
 10
75.5243778314
 20
294.5719451106
 30
0.0
 40
2.2
  0
CIRCLE
  5
85
330
49
100
AcDbEntity
  8
STEPPER-PLATE
  6
Continuous
 62
     7
100
AcDbCircle
 10
15.5243778314
 20
311.5719451106
 30
0.0
 40
2.2
  0
ARC
  5
86
330
49
100
AcDbEntity
  8
STEPPER-PLATE
  6
Continuous
 62
     7
100
AcDbCircle
 10
75.5243778314
 20
311.5719451106
 30
0.0
 40
2.199999999999994
100
AcDbArc
 50
270.0
 51
90.0
  0
LINE
  5
87
330
49
100
AcDbEntity
  8
STEPPER-PLATE
  6
Continuous
 62
     7
100
AcDbLine
 10
75.5243778314
 20
309.3719451106
 30
0.0
 11
29.0243778314
 21
309.3719451106
 31
0.0
  0
ARC
  5
88
330
49
100
AcDbEntity
  8
STEPPER-PLATE
  6
Continuous
 62
     7
100
AcDbCircle
 10
29.0243778314
 20
311.5719451106
 30
0.0
 40
2.199999999999994
100
AcDbArc
 50
90.0
 51
270.0
  0
LINE
  5
89
330
49
100
AcDbEntity
  8
STEPPER-PLATE
  6
Continuous
 62
     7
100
AcDbLine
 10
29.0243778314
 20
313.7719451106
 30
0.0
 11
75.5243778314
 21
313.7719451106
 31
0.0
  0
ARC
  5
8A
330
49
100
AcDbEntity
  8
STEPPER-PLATE
  6
Continuous
 62
     7
100
AcDbCircle
 10
15.5243778314
 20
262.5719451106
 30
0.0
 40
2.200000000000001
100
AcDbArc
 50
180.0
 51
360.0
  0
LINE
  5
8B
330
49
100
AcDbEntity
  8
STEPPER-PLATE
  6
Continuous
 62
     7
100
AcDbLine
 10
13.3243778314
 20
262.5719451106
 30
0.0
 11
13.3243778314
 21
296.5719451106
 31
0.0
  0
ARC
  5
8C
330
49
100
AcDbEntity
  8
STEPPER-PLATE
  6
Continuous
 62
     7
100
AcDbCircle
 10
15.5243778314
 20
296.5719451106
 30
0.0
 40
2.200000000000001
100
AcDbArc
 50
0.0
 51
180.0
  0
LINE
  5
8D
330
49
100
AcDbEntity
  8
STEPPER-PLATE
  6
Continuous
 62
     7
100
AcDbLine
 10
17.7243778314
 20
296.5719451106
 30
0.0
 11
17.7243778314
 21
262.5719451106
 31
0.0
  0
ARC
  5
8E
330
49
100
AcDbEntity
  8
STEPPER-PLATE
  6
Continuous
 62
     7
100
AcDbCircle
 10
75.5243778314
 20
245.5719451106
 30
0.0
 40
2.199999999999994
100
AcDbArc
 50
270.0
 51
90.0
  0
LINE
  5
8F
330
49
100
AcDbEntity
  8
STEPPER-PLATE
  6
Continuous
 62
     7
100
AcDbLine
 10
75.5243778314
 20
243.3719451106
 30
0.0
 11
29.0243778314
 21
243.3719451106
 31
0.0
  0
ARC
  5
90
330
49
100
AcDbEntity
  8
STEPPER-PLATE
  6
Continuous
 62
     7
100
AcDbCircle
 10
29.0243778314
 20
245.5719451106
 30
0.0
 40
2.200000000000007
100
AcDbArc
 50
90.0
 51
270.0
  0
LINE
  5
91
330
49
100
AcDbEntity
  8
STEPPER-PLATE
  6
Continuous
 62
     7
100
AcDbLine
 10
29.0243778314
 20
247.7719451106
 30
0.0
 11
75.5243778314
 21
247.7719451106
 31
0.0
  0
ARC
  5
92
330
49
100
AcDbEntity
  8
STEPPER-PLATE
  6
Continuous
 62
     7
100
AcDbCircle
 10
75.5243778314
 20
100.5719451106
 30
0.0
 40
2.19999999999998
100
AcDbArc
 50
270.0
 51
90.0
  0
LINE
  5
93
330
49
100
AcDbEntity
  8
STEPPER-PLATE
  6
Continuous
 62
     7
100
AcDbLine
 10
75.5243778314
 20
98.3719451106
 30
0.0
 11
29.0243778314
 21
98.3719451106
 31
0.0
  0
ARC
  5
94
330
49
100
AcDbEntity
  8
STEPPER-PLATE
  6
Continuous
 62
     7
100
AcDbCircle
 10
29.0243778314
 20
100.5719451106
 30
0.0
 40
2.19999999999998
100
AcDbArc
 50
90.0
 51
270.0
  0
LINE
  5
95
330
49
100
AcDbEntity
  8
STEPPER-PLATE
  6
Continuous
 62
     7
100
AcDbLine
 10
29.0243778314
 20
102.7719451106
 30
0.0
 11
75.5243778314
 21
102.7719451106
 31
0.0
  0
ARC
  5
96
330
49
100
AcDbEntity
  8
STEPPER-PLATE
  6
Continuous
 62
     7
100
AcDbCircle
 10
15.5243778314
 20
115.5719451106
 30
0.0
 40
2.200000000000001
100
AcDbArc
 50
180.0
 51
360.0
  0
LINE
  5
97
330
49
100
AcDbEntity
  8
STEPPER-PLATE
  6
Continuous
 62
     7
100
AcDbLine
 10
17.7243778314
 20
115.5719451106
 30
0.0
 11
17.7243778314
 21
230.5719451106
 31
0.0
  0
ARC
  5
98
330
49
100
AcDbEntity
  8
STEPPER-PLATE
  6
Continuous
 62
     7
100
AcDbCircle
 10
15.5243778314
 20
230.5719451106
 30
0.0
 40
2.200000000000001
100
AcDbArc
 50
0.0
 51
180.0
  0
LINE
  5
99
330
49
100
AcDbEntity
  8
STEPPER-PLATE
  6
Continuous
 62
     7
100
AcDbLine
 10
13.3243778314
 20
230.5719451106
 30
0.0
 11
13.3243778314
 21
115.5719451106
 31
0.0
  0
LINE
  5
9A
330
49
100
AcDbEntity
  8
STEPPER-PLATE
  6
Continuous
 62
     7
100
AcDbLine
 10
5.5243778314
 20
394.0719451106
 30
0.0
 11
85.5243778314
 21
394.0719451106
 31
0.0
  0
LINE
  5
9B
330
49
100
AcDbEntity
  8
STEPPER-PLATE
  6
Continuous
 62
     7
100
AcDbLine
 10
85.5243778314
 20
14.0719451106
 30
0.0
 11
5.5243778314
 21
14.0719451106
 31
0.0
  0
CIRCLE
  5
9C
330
49
100
AcDbEntity
  8
STEPPER-PLATE
  6
Continuous
 62
     7
100
AcDbCircle
 10
45.5243778314
 20
24.0719451106
 30
0.0
 40
2.2
  0
CIRCLE
  5
9D
330
49
100
AcDbEntity
  8
STEPPER-PLATE
  6
Continuous
 62
     7
100
AcDbCircle
 10
75.5243778314
 20
24.0719451106
 30
0.0
 40
2.2
  0
CIRCLE
  5
9E
330
49
100
AcDbEntity
  8
STEPPER-PLATE
  6
Continuous
 62
     7
100
AcDbCircle
 10
15.5243778314
 20
24.0719451106
 30
0.0
 40
2.2
  0
CIRCLE
  5
9F
330
49
100
AcDbEntity
  8
STEPPER-PLATE
  6
Continuous
 62
     7
100
AcDbCircle
 10
45.5243778314
 20
54.0719451106
 30
0.0
 40
2.2
  0
CIRCLE
  5
A0
330
49
100
AcDbEntity
  8
STEPPER-PLATE
  6
Continuous
 62
     7
100
AcDbCircle
 10
75.5243778314
 20
54.0719451106
 30
0.0
 40
2.2
  0
CIRCLE
  5
A1
330
49
100
AcDbEntity
  8
STEPPER-PLATE
  6
Continuous
 62
     7
100
AcDbCircle
 10
15.5243778314
 20
54.0719451106
 30
0.0
 40
2.2
  0
CIRCLE
  5
A2
330
49
100
AcDbEntity
  8
STEPPER-PLATE
  6
Continuous
 62
     7
100
AcDbCircle
 10
45.5243778314
 20
384.0719451106
 30
0.0
 40
2.2
  0
CIRCLE
  5
A3
330
49
100
AcDbEntity
  8
STEPPER-PLATE
  6
Continuous
 62
     7
100
AcDbCircle
 10
75.5243778314
 20
384.0719451106
 30
0.0
 40
2.2
  0
CIRCLE
  5
A4
330
49
100
AcDbEntity
  8
STEPPER-PLATE
  6
Continuous
 62
     7
100
AcDbCircle
 10
15.5243778314
 20
384.0719451106
 30
0.0
 40
2.2
  0
CIRCLE
  5
A5
330
49
100
AcDbEntity
  8
STEPPER-PLATE
  6
Continuous
 62
     7
100
AcDbCircle
 10
45.5243778314
 20
354.0719451106
 30
0.0
 40
2.2
  0
CIRCLE
  5
A6
330
49
100
AcDbEntity
  8
STEPPER-PLATE
  6
Continuous
 62
     7
100
AcDbCircle
 10
75.5243778314
 20
354.0719451106
 30
0.0
 40
2.2
  0
CIRCLE
  5
A7
330
49
100
AcDbEntity
  8
STEPPER-PLATE
  6
Continuous
 62
     7
100
AcDbCircle
 10
15.5243778314
 20
354.0719451106
 30
0.0
 40
2.2
  0
ENDBLK
  5
A9
330
49
100
AcDbEntity
  8
0
100
AcDbBlockEnd
  0
BLOCK
  5
12B
330
AA
100
AcDbEntity
  8
0
100
AcDbBlockBegin
  2
SE3
 70
     0
 71
     0
 10
0.0
 20
0.0
 30
0.0
  3
SE3
  1

  0
LINE
  5
AD
330
AA
100
AcDbEntity
  8
Y-CHASSIS
  6
Continuous
 62
     7
100
AcDbLine
 10
288.4214095392
 20
156.5523820945
 30
0.0
 11
288.4214095392
 21
145.0523820945
 31
0.0
  0
LINE
  5
AE
330
AA
100
AcDbEntity
  8
Y-CHASSIS
  6
Continuous
 62
     7
100
AcDbLine
 10
88.4214095392
 20
156.5523820945
 30
0.0
 11
119.4214095392
 21
156.5523820945
 31
0.0
  0
LINE
  5
AF
330
AA
100
AcDbEntity
  8
Y-CHASSIS
  6
Continuous
 62
     7
100
AcDbLine
 10
88.4214095392
 20
20.5523820945
 30
0.0
 11
88.4214095392
 21
32.0523820945
 31
0.0
  0
LINE
  5
B0
330
AA
100
AcDbEntity
  8
Y-CHASSIS
  6
Continuous
 62
     7
100
AcDbLine
 10
88.4214095392
 20
20.5523820945
 30
0.0
 11
119.4214095392
 21
20.5523820945
 31
0.0
  0
LINE
  5
B1
330
AA
100
AcDbEntity
  8
Y-CHASSIS
  6
Continuous
 62
     7
100
AcDbLine
 10
288.4214095392
 20
109.0523820945
 30
0.0
 11
288.4214095392
 21
68.0523820945
 31
0.0
  0
LINE
  5
B2
330
AA
100
AcDbEntity
  8
Y-CHASSIS
  6
Continuous
 62
     7
100
AcDbLine
 10
288.4214095392
 20
109.0523820945
 30
0.0
 11
250.2214095392
 21
109.0523820945
 31
0.0
  0
LINE
  5
B3
330
AA
100
AcDbEntity
  8
Y-CHASSIS
  6
Continuous
 62
     7
100
AcDbLine
 10
250.2214095392
 20
145.0523820945
 30
0.0
 11
288.4214095392
 21
145.0523820945
 31
0.0
  0
ARC
  5
B4
330
AA
100
AcDbEntity
  8
Y-CHASSIS
  6
Continuous
 62
     7
100
AcDbCircle
 10
250.2214095392
 20
140.0523820945
 30
0.0
 40
4.999999999999997
100
AcDbArc
 50
90.0
 51
180.0
  0
LINE
  5
B5
330
AA
100
AcDbEntity
  8
Y-CHASSIS
  6
Continuous
 62
     7
100
AcDbLine
 10
245.2214095392
 20
114.0523820945
 30
0.0
 11
245.2214095392
 21
140.0523820945
 31
0.0
  0
ARC
  5
B6
330
AA
100
AcDbEntity
  8
Y-CHASSIS
  6
Continuous
 62
     7
100
AcDbCircle
 10
250.2214095392
 20
114.0523820945
 30
0.0
 40
5.000000000000001
100
AcDbArc
 50
180.0
 51
270.0
  0
CIRCLE
  5
B7
330
AA
100
AcDbEntity
  8
Y-CHASSIS
  6
Continuous
 62
     7
100
AcDbCircle
 10
260.6214095392
 20
150.5523820945
 30
0.0
 40
2.2
  0
CIRCLE
  5
B8
330
AA
100
AcDbEntity
  8
Y-CHASSIS
  6
Continuous
 62
     7
100
AcDbCircle
 10
260.6214095392
 20
103.5523820945
 30
0.0
 40
2.2
  0
ARC
  5
B9
330
AA
100
AcDbEntity
  8
Y-CHASSIS
  6
Continuous
 62
     7
100
AcDbCircle
 10
282.4214095392
 20
103.5523820945
 30
0.0
 40
2.199999999999997
100
AcDbArc
 50
270.0
 51
90.0
  0
LINE
  5
BA
330
AA
100
AcDbEntity
  8
Y-CHASSIS
  6
Continuous
 62
     7
100
AcDbLine
 10
282.4214095392
 20
101.3523820945
 30
0.0
 11
280.4214095392
 21
101.3523820945
 31
0.0
  0
ARC
  5
BB
330
AA
100
AcDbEntity
  8
Y-CHASSIS
  6
Continuous
 62
     7
100
AcDbCircle
 10
280.4214095392
 20
103.5523820945
 30
0.0
 40
2.200000000000002
100
AcDbArc
 50
90.0
 51
270.0
  0
LINE
  5
BC
330
AA
100
AcDbEntity
  8
Y-CHASSIS
  6
Continuous
 62
     7
100
AcDbLine
 10
280.4214095392
 20
105.7523820945
 30
0.0
 11
282.4214095392
 21
105.7523820945
 31
0.0
  0
ARC
  5
BD
330
AA
100
AcDbEntity
  8
Y-CHASSIS
  6
Continuous
 62
     7
100
AcDbCircle
 10
282.4214095392
 20
150.5523820945
 30
0.0
 40
2.199999999999994
100
AcDbArc
 50
270.0
 51
90.0
  0
LINE
  5
BE
330
AA
100
AcDbEntity
  8
Y-CHASSIS
  6
Continuous
 62
     7
100
AcDbLine
 10
282.4214095392
 20
148.3523820945
 30
0.0
 11
280.4214095392
 21
148.3523820945
 31
0.0
  0
ARC
  5
BF
330
AA
100
AcDbEntity
  8
Y-CHASSIS
  6
Continuous
 62
     7
100
AcDbCircle
 10
280.4214095392
 20
150.5523820945
 30
0.0
 40
2.200000000000001
100
AcDbArc
 50
90.0
 51
270.0
  0
LINE
  5
C0
330
AA
100
AcDbEntity
  8
Y-CHASSIS
  6
Continuous
 62
     7
100
AcDbLine
 10
280.4214095392
 20
152.7523820945
 30
0.0
 11
282.4214095392
 21
152.7523820945
 31
0.0
  0
LINE
  5
C1
330
AA
100
AcDbEntity
  8
Y-CHASSIS
  6
Continuous
 62
     7
100
AcDbLine
 10
257.4214095392
 20
156.5523820945
 30
0.0
 11
288.4214095392
 21
156.5523820945
 31
0.0
  0
LINE
  5
C2
330
AA
100
AcDbEntity
  8
Y-CHASSIS
  6
Continuous
 62
     7
100
AcDbLine
 10
256.4214095392
 20
157.5523820945
 30
0.0
 11
256.4214095392
 21
158.5523820945
 31
0.0
  0
ARC
  5
C3
330
AA
100
AcDbEntity
  8
Y-CHASSIS
  6
Continuous
 62
     7
100
AcDbCircle
 10
257.4214095392
 20
157.5523820945
 30
0.0
 40
1.000000000000001
100
AcDbArc
 50
180.0
 51
270.0
  0
LINE
  5
C4
330
AA
100
AcDbEntity
  8
Y-CHASSIS
  6
Continuous
 62
     7
100
AcDbLine
 10
252.4214095392
 20
162.5523820945
 30
0.0
 11
230.4214095392
 21
162.5523820945
 31
0.0
  0
ARC
  5
C5
330
AA
100
AcDbEntity
  8
Y-CHASSIS
  6
Continuous
 62
     7
100
AcDbCircle
 10
252.4214095392
 20
158.5523820945
 30
0.0
 40
4.000000000000004
100
AcDbArc
 50
0.0
 51
90.0
  0
LINE
  5
C6
330
AA
100
AcDbEntity
  8
Y-CHASSIS
  6
Continuous
 62
     7
100
AcDbLine
 10
288.4214095392
 20
32.0523820945
 30
0.0
 11
288.4214095392
 21
20.5523820945
 31
0.0
  0
LINE
  5
C7
330
AA
100
AcDbEntity
  8
Y-CHASSIS
  6
Continuous
 62
     7
100
AcDbLine
 10
288.4214095392
 20
32.0523820945
 30
0.0
 11
250.2214095392
 21
32.0523820945
 31
0.0
  0
LINE
  5
C8
330
AA
100
AcDbEntity
  8
Y-CHASSIS
  6
Continuous
 62
     7
100
AcDbLine
 10
245.2214095392
 20
37.0523820945
 30
0.0
 11
245.2214095392
 21
63.0523820945
 31
0.0
  0
ARC
  5
C9
330
AA
100
AcDbEntity
  8
Y-CHASSIS
  6
Continuous
 62
     7
100
AcDbCircle
 10
250.2214095392
 20
37.0523820945
 30
0.0
 40
4.999999999999997
100
AcDbArc
 50
180.0
 51
270.0
  0
LINE
  5
CA
330
AA
100
AcDbEntity
  8
Y-CHASSIS
  6
Continuous
 62
     7
100
AcDbLine
 10
250.2214095392
 20
68.0523820945
 30
0.0
 11
288.4214095392
 21
68.0523820945
 31
0.0
  0
ARC
  5
CB
330
AA
100
AcDbEntity
  8
Y-CHASSIS
  6
Continuous
 62
     7
100
AcDbCircle
 10
250.2214095392
 20
63.0523820945
 30
0.0
 40
4.999999999999997
100
AcDbArc
 50
90.0
 51
180.0
  0
CIRCLE
  5
CC
330
AA
100
AcDbEntity
  8
Y-CHASSIS
  6
Continuous
 62
     7
100
AcDbCircle
 10
260.6214095392
 20
26.5523820945
 30
0.0
 40
2.2
  0
CIRCLE
  5
CD
330
AA
100
AcDbEntity
  8
Y-CHASSIS
  6
Continuous
 62
     7
100
AcDbCircle
 10
260.6214095392
 20
73.5523820945
 30
0.0
 40
2.2
  0
LINE
  5
CE
330
AA
100
AcDbEntity
  8
Y-CHASSIS
  6
Continuous
 62
     7
100
AcDbLine
 10
280.4214095392
 20
75.7523820945
 30
0.0
 11
282.4214095392
 21
75.7523820945
 31
0.0
  0
ARC
  5
CF
330
AA
100
AcDbEntity
  8
Y-CHASSIS
  6
Continuous
 62
     7
100
AcDbCircle
 10
282.4214095392
 20
73.5523820945
 30
0.0
 40
2.200000000000001
100
AcDbArc
 50
270.0
 51
90.0
  0
LINE
  5
D0
330
AA
100
AcDbEntity
  8
Y-CHASSIS
  6
Continuous
 62
     7
100
AcDbLine
 10
282.4214095392
 20
71.3523820945
 30
0.0
 11
280.4214095392
 21
71.3523820945
 31
0.0
  0
ARC
  5
D1
330
AA
100
AcDbEntity
  8
Y-CHASSIS
  6
Continuous
 62
     7
100
AcDbCircle
 10
280.4214095392
 20
73.5523820945
 30
0.0
 40
2.199999999999997
100
AcDbArc
 50
90.0
 51
270.0
  0
LINE
  5
D2
330
AA
100
AcDbEntity
  8
Y-CHASSIS
  6
Continuous
 62
     7
100
AcDbLine
 10
280.4214095392
 20
28.7523820945
 30
0.0
 11
282.4214095392
 21
28.7523820945
 31
0.0
  0
ARC
  5
D3
330
AA
100
AcDbEntity
  8
Y-CHASSIS
  6
Continuous
 62
     7
100
AcDbCircle
 10
282.4214095392
 20
26.5523820945
 30
0.0
 40
2.200000000000001
100
AcDbArc
 50
270.0
 51
90.0
  0
LINE
  5
D4
330
AA
100
AcDbEntity
  8
Y-CHASSIS
  6
Continuous
 62
     7
100
AcDbLine
 10
282.4214095392
 20
24.3523820945
 30
0.0
 11
280.4214095392
 21
24.3523820945
 31
0.0
  0
ARC
  5
D5
330
AA
100
AcDbEntity
  8
Y-CHASSIS
  6
Continuous
 62
     7
100
AcDbCircle
 10
280.4214095392
 20
26.5523820945
 30
0.0
 40
2.199999999999994
100
AcDbArc
 50
90.0
 51
270.0
  0
LINE
  5
D6
330
AA
100
AcDbEntity
  8
Y-CHASSIS
  6
Continuous
 62
     7
100
AcDbLine
 10
257.4214095392
 20
20.5523820945
 30
0.0
 11
288.4214095392
 21
20.5523820945
 31
0.0
  0
ARC
  5
D7
330
AA
100
AcDbEntity
  8
Y-CHASSIS
  6
Continuous
 62
     7
100
AcDbCircle
 10
257.4214095392
 20
19.5523820945
 30
0.0
 40
1.000000000000001
100
AcDbArc
 50
90.0
 51
180.0
  0
LINE
  5
D8
330
AA
100
AcDbEntity
  8
Y-CHASSIS
  6
Continuous
 62
     7
100
AcDbLine
 10
256.4214095392
 20
18.5523820945
 30
0.0
 11
256.4214095392
 21
19.5523820945
 31
0.0
  0
ARC
  5
D9
330
AA
100
AcDbEntity
  8
Y-CHASSIS
  6
Continuous
 62
     7
100
AcDbCircle
 10
252.4214095392
 20
18.5523820945
 30
0.0
 40
4.000000000000004
100
AcDbArc
 50
270.0
 51
360.0
  0
ARC
  5
DA
330
AA
100
AcDbEntity
  8
Y-CHASSIS
  6
Continuous
 62
     7
100
AcDbCircle
 10
93.3214095392
 20
150.5523820945
 30
0.0
 40
2.200000000000001
100
AcDbArc
 50
90.0
 51
270.0
  0
LINE
  5
DB
330
AA
100
AcDbEntity
  8
Y-CHASSIS
  6
Continuous
 62
     7
100
AcDbLine
 10
93.3214095392
 20
152.7523820945
 30
0.0
 11
95.3214095392
 21
152.7523820945
 31
0.0
  0
ARC
  5
DC
330
AA
100
AcDbEntity
  8
Y-CHASSIS
  6
Continuous
 62
     7
100
AcDbCircle
 10
95.3214095392
 20
150.5523820945
 30
0.0
 40
2.199999999999994
100
AcDbArc
 50
270.0
 51
90.0
  0
LINE
  5
DD
330
AA
100
AcDbEntity
  8
Y-CHASSIS
  6
Continuous
 62
     7
100
AcDbLine
 10
95.3214095392
 20
148.3523820945
 30
0.0
 11
93.3214095392
 21
148.3523820945
 31
0.0
  0
ARC
  5
DE
330
AA
100
AcDbEntity
  8
Y-CHASSIS
  6
Continuous
 62
     7
100
AcDbCircle
 10
116.3214095392
 20
150.5523820945
 30
0.0
 40
2.200000000000001
100
AcDbArc
 50
90.0
 51
270.0
  0
LINE
  5
DF
330
AA
100
AcDbEntity
  8
Y-CHASSIS
  6
Continuous
 62
     7
100
AcDbLine
 10
116.3214095392
 20
152.7523820945
 30
0.0
 11
118.3214095392
 21
152.7523820945
 31
0.0
  0
ARC
  5
E0
330
AA
100
AcDbEntity
  8
Y-CHASSIS
  6
Continuous
 62
     7
100
AcDbCircle
 10
118.3214095392
 20
150.5523820945
 30
0.0
 40
2.199999999999994
100
AcDbArc
 50
270.0
 51
90.0
  0
LINE
  5
E1
330
AA
100
AcDbEntity
  8
Y-CHASSIS
  6
Continuous
 62
     7
100
AcDbLine
 10
118.3214095392
 20
148.3523820945
 30
0.0
 11
116.3214095392
 21
148.3523820945
 31
0.0
  0
ARC
  5
E2
330
AA
100
AcDbEntity
  8
Y-CHASSIS
  6
Continuous
 62
     7
100
AcDbCircle
 10
116.3214095392
 20
124.5523820945
 30
0.0
 40
2.200000000000001
100
AcDbArc
 50
90.0
 51
270.0
  0
LINE
  5
E3
330
AA
100
AcDbEntity
  8
Y-CHASSIS
  6
Continuous
 62
     7
100
AcDbLine
 10
116.3214095392
 20
126.7523820945
 30
0.0
 11
118.3214095392
 21
126.7523820945
 31
0.0
  0
ARC
  5
E4
330
AA
100
AcDbEntity
  8
Y-CHASSIS
  6
Continuous
 62
     7
100
AcDbCircle
 10
118.3214095392
 20
124.5523820945
 30
0.0
 40
2.199999999999994
100
AcDbArc
 50
270.0
 51
90.0
  0
LINE
  5
E5
330
AA
100
AcDbEntity
  8
Y-CHASSIS
  6
Continuous
 62
     7
100
AcDbLine
 10
118.3214095392
 20
122.3523820945
 30
0.0
 11
116.3214095392
 21
122.3523820945
 31
0.0
  0
ARC
  5
E6
330
AA
100
AcDbEntity
  8
Y-CHASSIS
  6
Continuous
 62
     7
100
AcDbCircle
 10
93.3214095392
 20
124.5523820945
 30
0.0
 40
2.200000000000001
100
AcDbArc
 50
90.0
 51
270.0
  0
LINE
  5
E7
330
AA
100
AcDbEntity
  8
Y-CHASSIS
  6
Continuous
 62
     7
100
AcDbLine
 10
93.3214095392
 20
126.7523820945
 30
0.0
 11
95.3214095392
 21
126.7523820945
 31
0.0
  0
ARC
  5
E8
330
AA
100
AcDbEntity
  8
Y-CHASSIS
  6
Continuous
 62
     7
100
AcDbCircle
 10
95.3214095392
 20
124.5523820945
 30
0.0
 40
2.199999999999994
100
AcDbArc
 50
270.0
 51
90.0
  0
LINE
  5
E9
330
AA
100
AcDbEntity
  8
Y-CHASSIS
  6
Continuous
 62
     7
100
AcDbLine
 10
95.3214095392
 20
122.3523820945
 30
0.0
 11
93.3214095392
 21
122.3523820945
 31
0.0
  0
LINE
  5
EA
330
AA
100
AcDbEntity
  8
Y-CHASSIS
  6
Continuous
 62
     7
100
AcDbLine
 10
88.4214095392
 20
145.0523820945
 30
0.0
 11
88.4214095392
 21
156.5523820945
 31
0.0
  0
LINE
  5
EB
330
AA
100
AcDbEntity
  8
Y-CHASSIS
  6
Continuous
 62
     7
100
AcDbLine
 10
126.0214095392
 20
130.0523820945
 30
0.0
 11
88.4214095392
 21
130.0523820945
 31
0.0
  0
LINE
  5
EC
330
AA
100
AcDbEntity
  8
Y-CHASSIS
  6
Continuous
 62
     7
100
AcDbLine
 10
126.0214095392
 20
145.0523820945
 30
0.0
 11
88.4214095392
 21
145.0523820945
 31
0.0
  0
ARC
  5
ED
330
AA
100
AcDbEntity
  8
Y-CHASSIS
  6
Continuous
 62
     7
100
AcDbCircle
 10
126.0214095392
 20
135.0523820945
 30
0.0
 40
4.999999999999997
100
AcDbArc
 50
270.0
 51
360.0
  0
LINE
  5
EE
330
AA
100
AcDbEntity
  8
Y-CHASSIS
  6
Continuous
 62
     7
100
AcDbLine
 10
131.0214095392
 20
135.0523820945
 30
0.0
 11
131.0214095392
 21
140.0523820945
 31
0.0
  0
ARC
  5
EF
330
AA
100
AcDbEntity
  8
Y-CHASSIS
  6
Continuous
 62
     7
100
AcDbCircle
 10
126.0214095392
 20
140.0523820945
 30
0.0
 40
4.999999999999997
100
AcDbArc
 50
0.0
 51
90.0
  0
ARC
  5
F0
330
AA
100
AcDbEntity
  8
Y-CHASSIS
  6
Continuous
 62
     7
100
AcDbCircle
 10
119.4214095392
 20
157.5523820945
 30
0.0
 40
1.000000000000001
100
AcDbArc
 50
270.0
 51
360.0
  0
LINE
  5
F1
330
AA
100
AcDbEntity
  8
Y-CHASSIS
  6
Continuous
 62
     7
100
AcDbLine
 10
120.4214095392
 20
158.5523820945
 30
0.0
 11
120.4214095392
 21
157.5523820945
 31
0.0
  0
ARC
  5
F2
330
AA
100
AcDbEntity
  8
Y-CHASSIS
  6
Continuous
 62
     7
100
AcDbCircle
 10
124.4214095392
 20
158.5523820945
 30
0.0
 40
4.000000000000004
100
AcDbArc
 50
90.0
 51
180.0
  0
LINE
  5
F3
330
AA
100
AcDbEntity
  8
Y-CHASSIS
  6
Continuous
 62
     7
100
AcDbLine
 10
95.3214095392
 20
24.3523820945
 30
0.0
 11
93.3214095392
 21
24.3523820945
 31
0.0
  0
ARC
  5
F4
330
AA
100
AcDbEntity
  8
Y-CHASSIS
  6
Continuous
 62
     7
100
AcDbCircle
 10
93.3214095392
 20
26.5523820945
 30
0.0
 40
2.199999999999994
100
AcDbArc
 50
90.0
 51
270.0
  0
LINE
  5
F5
330
AA
100
AcDbEntity
  8
Y-CHASSIS
  6
Continuous
 62
     7
100
AcDbLine
 10
93.3214095392
 20
28.7523820945
 30
0.0
 11
95.3214095392
 21
28.7523820945
 31
0.0
  0
ARC
  5
F6
330
AA
100
AcDbEntity
  8
Y-CHASSIS
  6
Continuous
 62
     7
100
AcDbCircle
 10
95.3214095392
 20
26.5523820945
 30
0.0
 40
2.200000000000001
100
AcDbArc
 50
270.0
 51
90.0
  0
LINE
  5
F7
330
AA
100
AcDbEntity
  8
Y-CHASSIS
  6
Continuous
 62
     7
100
AcDbLine
 10
118.3214095392
 20
24.3523820945
 30
0.0
 11
116.3214095392
 21
24.3523820945
 31
0.0
  0
ARC
  5
F8
330
AA
100
AcDbEntity
  8
Y-CHASSIS
  6
Continuous
 62
     7
100
AcDbCircle
 10
116.3214095392
 20
26.5523820945
 30
0.0
 40
2.199999999999994
100
AcDbArc
 50
90.0
 51
270.0
  0
LINE
  5
F9
330
AA
100
AcDbEntity
  8
Y-CHASSIS
  6
Continuous
 62
     7
100
AcDbLine
 10
116.3214095392
 20
28.7523820945
 30
0.0
 11
118.3214095392
 21
28.7523820945
 31
0.0
  0
ARC
  5
FA
330
AA
100
AcDbEntity
  8
Y-CHASSIS
  6
Continuous
 62
     7
100
AcDbCircle
 10
118.3214095392
 20
26.5523820945
 30
0.0
 40
2.200000000000001
100
AcDbArc
 50
270.0
 51
90.0
  0
LINE
  5
FB
330
AA
100
AcDbEntity
  8
Y-CHASSIS
  6
Continuous
 62
     7
100
AcDbLine
 10
118.3214095392
 20
50.3523820945
 30
0.0
 11
116.3214095392
 21
50.3523820945
 31
0.0
  0
ARC
  5
FC
330
AA
100
AcDbEntity
  8
Y-CHASSIS
  6
Continuous
 62
     7
100
AcDbCircle
 10
116.3214095392
 20
52.5523820945
 30
0.0
 40
2.199999999999994
100
AcDbArc
 50
90.0
 51
270.0
  0
LINE
  5
FD
330
AA
100
AcDbEntity
  8
Y-CHASSIS
  6
Continuous
 62
     7
100
AcDbLine
 10
116.3214095392
 20
54.7523820945
 30
0.0
 11
118.3214095392
 21
54.7523820945
 31
0.0
  0
ARC
  5
FE
330
AA
100
AcDbEntity
  8
Y-CHASSIS
  6
Continuous
 62
     7
100
AcDbCircle
 10
118.3214095392
 20
52.5523820945
 30
0.0
 40
2.200000000000001
100
AcDbArc
 50
270.0
 51
90.0
  0
LINE
  5
FF
330
AA
100
AcDbEntity
  8
Y-CHASSIS
  6
Continuous
 62
     7
100
AcDbLine
 10
95.3214095392
 20
50.3523820945
 30
0.0
 11
93.3214095392
 21
50.3523820945
 31
0.0
  0
ARC
  5
100
330
AA
100
AcDbEntity
  8
Y-CHASSIS
  6
Continuous
 62
     7
100
AcDbCircle
 10
93.3214095392
 20
52.5523820945
 30
0.0
 40
2.199999999999994
100
AcDbArc
 50
90.0
 51
270.0
  0
LINE
  5
101
330
AA
100
AcDbEntity
  8
Y-CHASSIS
  6
Continuous
 62
     7
100
AcDbLine
 10
93.3214095392
 20
54.7523820945
 30
0.0
 11
95.3214095392
 21
54.7523820945
 31
0.0
  0
ARC
  5
102
330
AA
100
AcDbEntity
  8
Y-CHASSIS
  6
Continuous
 62
     7
100
AcDbCircle
 10
95.3214095392
 20
52.5523820945
 30
0.0
 40
2.200000000000001
100
AcDbArc
 50
270.0
 51
90.0
  0
LINE
  5
103
330
AA
100
AcDbEntity
  8
Y-CHASSIS
  6
Continuous
 62
     7
100
AcDbLine
 10
88.4214095392
 20
47.0523820945
 30
0.0
 11
88.4214095392
 21
130.0523820945
 31
0.0
  0
LINE
  5
104
330
AA
100
AcDbEntity
  8
Y-CHASSIS
  6
Continuous
 62
     7
100
AcDbLine
 10
126.0214095392
 20
32.0523820945
 30
0.0
 11
88.4214095392
 21
32.0523820945
 31
0.0
  0
LINE
  5
105
330
AA
100
AcDbEntity
  8
Y-CHASSIS
  6
Continuous
 62
     7
100
AcDbLine
 10
126.0214095392
 20
47.0523820945
 30
0.0
 11
88.4214095392
 21
47.0523820945
 31
0.0
  0
ARC
  5
106
330
AA
100
AcDbEntity
  8
Y-CHASSIS
  6
Continuous
 62
     7
100
AcDbCircle
 10
126.0214095392
 20
37.0523820945
 30
0.0
 40
4.999999999999997
100
AcDbArc
 50
270.0
 51
360.0
  0
LINE
  5
107
330
AA
100
AcDbEntity
  8
Y-CHASSIS
  6
Continuous
 62
     7
100
AcDbLine
 10
131.0214095392
 20
37.0523820945
 30
0.0
 11
131.0214095392
 21
42.0523820945
 31
0.0
  0
ARC
  5
108
330
AA
100
AcDbEntity
  8
Y-CHASSIS
  6
Continuous
 62
     7
100
AcDbCircle
 10
126.0214095392
 20
42.0523820945
 30
0.0
 40
4.999999999999997
100
AcDbArc
 50
0.0
 51
90.0
  0
LINE
  5
109
330
AA
100
AcDbEntity
  8
Y-CHASSIS
  6
Continuous
 62
     7
100
AcDbLine
 10
120.4214095392
 20
19.5523820945
 30
0.0
 11
120.4214095392
 21
18.5523820945
 31
0.0
  0
ARC
  5
10A
330
AA
100
AcDbEntity
  8
Y-CHASSIS
  6
Continuous
 62
     7
100
AcDbCircle
 10
119.4214095392
 20
19.5523820945
 30
0.0
 40
1.000000000000001
100
AcDbArc
 50
0.0
 51
90.0
  0
LINE
  5
10B
330
AA
100
AcDbEntity
  8
Y-CHASSIS
  6
Continuous
 62
     7
100
AcDbLine
 10
124.4214095392
 20
14.5523820945
 30
0.0
 11
146.4214095392
 21
14.5523820945
 31
0.0
  0
ARC
  5
10C
330
AA
100
AcDbEntity
  8
Y-CHASSIS
  6
Continuous
 62
     7
100
AcDbCircle
 10
124.4214095392
 20
18.5523820945
 30
0.0
 40
4.000000000000004
100
AcDbArc
 50
180.0
 51
270.0
  0
LINE
  5
10D
330
AA
100
AcDbEntity
  8
Y-CHASSIS
  6
Continuous
 62
     7
100
AcDbLine
 10
217.4214095392
 20
129.1075182576
 30
0.0
 11
171.4214095392
 21
129.1075182576
 31
0.0
  0
LINE
  5
10E
330
AA
100
AcDbEntity
  8
Y-CHASSIS
  6
Continuous
 62
     7
100
AcDbLine
 10
166.4214095392
 20
134.1075182576
 30
0.0
 11
166.4214095392
 21
142.5523820945
 31
0.0
  0
ARC
  5
10F
330
AA
100
AcDbEntity
  8
Y-CHASSIS
  6
Continuous
 62
     7
100
AcDbCircle
 10
171.4214095392
 20
134.1075182576
 30
0.0
 40
4.999999999999997
100
AcDbArc
 50
180.0
 51
270.0
  0
LINE
  5
110
330
AA
100
AcDbEntity
  8
Y-CHASSIS
  6
Continuous
 62
     7
100
AcDbLine
 10
146.4214095392
 20
162.5523820945
 30
0.0
 11
124.4214095392
 21
162.5523820945
 31
0.0
  0
LINE
  5
111
330
AA
100
AcDbEntity
  8
Y-CHASSIS
  6
Continuous
 62
     7
100
AcDbLine
 10
230.4214095392
 20
162.5523820945
 30
0.0
 11
222.4214095392
 21
154.5523820945
 31
0.0
  0
LINE
  5
112
330
AA
100
AcDbEntity
  8
Y-CHASSIS
  6
Continuous
 62
     7
100
AcDbLine
 10
166.4214095392
 20
142.5523820945
 30
0.0
 11
146.4214095392
 21
162.5523820945
 31
0.0
  0
LINE
  5
113
330
AA
100
AcDbEntity
  8
Y-CHASSIS
  6
Continuous
 62
     7
100
AcDbLine
 10
171.4214095392
 20
47.9972459314
 30
0.0
 11
217.4214095392
 21
47.9972459314
 31
0.0
  0
ARC
  5
114
330
AA
100
AcDbEntity
  8
Y-CHASSIS
  6
Continuous
 62
     7
100
AcDbCircle
 10
171.4214095392
 20
42.9972459314
 30
0.0
 40
4.999999999999994
100
AcDbArc
 50
90.0
 51
180.0
  0
LINE
  5
115
330
AA
100
AcDbEntity
  8
Y-CHASSIS
  6
Continuous
 62
     7
100
AcDbLine
 10
166.4214095392
 20
34.5523820945
 30
0.0
 11
166.4214095392
 21
42.9972459314
 31
0.0
  0
LINE
  5
116
330
AA
100
AcDbEntity
  8
Y-CHASSIS
  6
Continuous
 62
     7
100
AcDbLine
 10
230.4214095392
 20
14.5523820945
 30
0.0
 11
252.4214095392
 21
14.5523820945
 31
0.0
  0
LINE
  5
117
330
AA
100
AcDbEntity
  8
Y-CHASSIS
  6
Continuous
 62
     7
100
AcDbLine
 10
146.4214095392
 20
14.5523820945
 30
0.0
 11
166.4214095392
 21
34.5523820945
 31
0.0
  0
CIRCLE
  5
118
330
AA
100
AcDbEntity
  8
Y-CHASSIS
  6
Continuous
 62
     7
100
AcDbCircle
 10
222.5214095392
 20
118.5523820945
 30
0.0
 40
1.7
  0
CIRCLE
  5
119
330
AA
100
AcDbEntity
  8
Y-CHASSIS
  6
Continuous
 62
     7
100
AcDbCircle
 10
205.5214095392
 20
118.5523820945
 30
0.0
 40
1.7
  0
ARC
  5
11A
330
AA
100
AcDbEntity
  8
Y-CHASSIS
  6
Continuous
 62
     7
100
AcDbCircle
 10
217.4214095392
 20
134.1075182576
 30
0.0
 40
5.000000000000004
100
AcDbArc
 50
270.0
 51
360.0
  0
LINE
  5
11B
330
AA
100
AcDbEntity
  8
Y-CHASSIS
  6
Continuous
 62
     7
100
AcDbLine
 10
222.4214095392
 20
134.1075182576
 30
0.0
 11
222.4214095392
 21
154.5523820945
 31
0.0
  0
CIRCLE
  5
11C
330
AA
100
AcDbEntity
  8
Y-CHASSIS
  6
Continuous
 62
     7
100
AcDbCircle
 10
184.1214095392
 20
122.1075182576
 30
0.0
 40
2.2
  0
CIRCLE
  5
11D
330
AA
100
AcDbEntity
  8
Y-CHASSIS
  6
Continuous
 62
     7
100
AcDbCircle
 10
176.1214095392
 20
122.1075182576
 30
0.0
 40
2.2
  0
CIRCLE
  5
11E
330
AA
100
AcDbEntity
  8
Y-CHASSIS
  6
Continuous
 62
     7
100
AcDbCircle
 10
222.5214095392
 20
58.5523820945
 30
0.0
 40
1.7
  0
CIRCLE
  5
11F
330
AA
100
AcDbEntity
  8
Y-CHASSIS
  6
Continuous
 62
     7
100
AcDbCircle
 10
205.5214095392
 20
58.5523820945
 30
0.0
 40
1.7
  0
LINE
  5
120
330
AA
100
AcDbEntity
  8
Y-CHASSIS
  6
Continuous
 62
     7
100
AcDbLine
 10
222.4214095392
 20
22.5523820945
 30
0.0
 11
230.4214095392
 21
14.5523820945
 31
0.0
  0
ARC
  5
121
330
AA
100
AcDbEntity
  8
Y-CHASSIS
  6
Continuous
 62
     7
100
AcDbCircle
 10
217.4214095392
 20
42.9972459314
 30
0.0
 40
5.000000000000001
100
AcDbArc
 50
0.0
 51
90.0
  0
LINE
  5
122
330
AA
100
AcDbEntity
  8
Y-CHASSIS
  6
Continuous
 62
     7
100
AcDbLine
 10
222.4214095392
 20
22.5523820945
 30
0.0
 11
222.4214095392
 21
42.9972459314
 31
0.0
  0
CIRCLE
  5
123
330
AA
100
AcDbEntity
  8
Y-CHASSIS
  6
Continuous
 62
     7
100
AcDbCircle
 10
184.1214095392
 20
54.9972459314
 30
0.0
 40
2.2
  0
CIRCLE
  5
124
330
AA
100
AcDbEntity
  8
Y-CHASSIS
  6
Continuous
 62
     7
100
AcDbCircle
 10
176.1214095392
 20
54.9972459314
 30
0.0
 40
2.2
  0
CIRCLE
  5
125
330
AA
100
AcDbEntity
  8
Y-CHASSIS
  6
Continuous
 62
     7
100
AcDbCircle
 10
139.4214095392
 20
68.5523820945
 30
0.0
 40
2.200000000000001
  0
CIRCLE
  5
126
330
AA
100
AcDbEntity
  8
Y-CHASSIS
  6
Continuous
 62
     7
100
AcDbCircle
 10
169.4214095392
 20
68.5523820945
 30
0.0
 40
2.200000000000001
  0
CIRCLE
  5
127
330
AA
100
AcDbEntity
  8
Y-CHASSIS
  6
Continuous
 62
     7
100
AcDbCircle
 10
139.4214095392
 20
28.5523820945
 30
0.0
 40
2.200000000000001
  0
CIRCLE
  5
128
330
AA
100
AcDbEntity
  8
Y-CHASSIS
  6
Continuous
 62
     7
100
AcDbCircle
 10
139.4214095392
 20
108.5523820945
 30
0.0
 40
2.200000000000001
  0
CIRCLE
  5
129
330
AA
100
AcDbEntity
  8
Y-CHASSIS
  6
Continuous
 62
     7
100
AcDbCircle
 10
169.4214095392
 20
108.5523820945
 30
0.0
 40
2.200000000000001
  0
CIRCLE
  5
12A
330
AA
100
AcDbEntity
  8
Y-CHASSIS
  6
Continuous
 62
     7
100
AcDbCircle
 10
139.4214095392
 20
148.5523820945
 30
0.0
 40
2.200000000000001
  0
ENDBLK
  5
12C
330
AA
100
AcDbEntity
  8
0
100
AcDbBlockEnd
  0
BLOCK
  5
16A
330
12D
100
AcDbEntity
  8
0
100
AcDbBlockBegin
  2
SE4
 70
     0
 71
     0
 10
0.0
 20
0.0
 30
0.0
  3
SE4
  1

  0
LINE
  5
130
330
12D
100
AcDbEntity
  8
MOTHERBOARD-PLAT
  6
Continuous
 62
     7
100
AcDbLine
 10
323.0507727151
 20
105.1462216893
 30
0.0
 11
323.0507727151
 21
395.1462216893
 31
0.0
  0
LINE
  5
131
330
12D
100
AcDbEntity
  8
MOTHERBOARD-PLAT
  6
Continuous
 62
     7
100
AcDbLine
 10
323.0507727151
 20
395.1462216893
 30
0.0
 11
421.0507727151
 21
395.1462216893
 31
0.0
  0
LINE
  5
132
330
12D
100
AcDbEntity
  8
MOTHERBOARD-PLAT
  6
Continuous
 62
     7
100
AcDbLine
 10
421.0507727151
 20
395.1462216893
 30
0.0
 11
421.0507727151
 21
105.1462216893
 31
0.0
  0
LINE
  5
133
330
12D
100
AcDbEntity
  8
MOTHERBOARD-PLAT
  6
Continuous
 62
     7
100
AcDbLine
 10
421.0507727151
 20
105.1462216893
 30
0.0
 11
323.0507727151
 21
105.1462216893
 31
0.0
  0
ARC
  5
134
330
12D
100
AcDbEntity
  8
MOTHERBOARD-PLAT
  6
Continuous
 62
     7
100
AcDbCircle
 10
352.0507727151
 20
141.1462216893
 30
0.0
 40
1.700000000000035
100
AcDbArc
 50
90.0
 51
270.0
  0
LINE
  5
135
330
12D
100
AcDbEntity
  8
MOTHERBOARD-PLAT
  6
Continuous
 62
     7
100
AcDbLine
 10
352.0507727151
 20
139.4462216893
 30
0.0
 11
412.0507727151
 21
139.4462216893
 31
0.0
  0
ARC
  5
136
330
12D
100
AcDbEntity
  8
MOTHERBOARD-PLAT
  6
Continuous
 62
     7
100
AcDbCircle
 10
412.0507727151
 20
141.1462216893
 30
0.0
 40
1.699999999999979
100
AcDbArc
 50
270.0
 51
90.0
  0
LINE
  5
137
330
12D
100
AcDbEntity
  8
MOTHERBOARD-PLAT
  6
Continuous
 62
     7
100
AcDbLine
 10
412.0507727151
 20
142.8462216893
 30
0.0
 11
352.0507727151
 21
142.8462216893
 31
0.0
  0
ARC
  5
138
330
12D
100
AcDbEntity
  8
MOTHERBOARD-PLAT
  6
Continuous
 62
     7
100
AcDbCircle
 10
332.0507727151
 20
241.1462216893
 30
0.0
 40
1.699999999999993
100
AcDbArc
 50
0.0
 51
180.0
  0
LINE
  5
139
330
12D
100
AcDbEntity
  8
MOTHERBOARD-PLAT
  6
Continuous
 62
     7
100
AcDbLine
 10
330.3507727151
 20
241.1462216893
 30
0.0
 11
330.3507727151
 21
161.1462216893
 31
0.0
  0
ARC
  5
13A
330
12D
100
AcDbEntity
  8
MOTHERBOARD-PLAT
  6
Continuous
 62
     7
100
AcDbCircle
 10
332.0507727151
 20
161.1462216893
 30
0.0
 40
1.700000000000049
100
AcDbArc
 50
180.0
 51
360.0
  0
LINE
  5
13B
330
12D
100
AcDbEntity
  8
MOTHERBOARD-PLAT
  6
Continuous
 62
     7
100
AcDbLine
 10
333.7507727151
 20
161.1462216893
 30
0.0
 11
333.7507727151
 21
241.1462216893
 31
0.0
  0
CIRCLE
  5
13C
330
12D
100
AcDbEntity
  8
MOTHERBOARD-PLAT
  6
Continuous
 62
     7
100
AcDbCircle
 10
332.0507727151
 20
353.1462216893
 30
0.0
 40
1.7
  0
ARC
  5
13D
330
12D
100
AcDbEntity
  8
MOTHERBOARD-PLAT
  6
Continuous
 62
     7
100
AcDbCircle
 10
352.0507727151
 20
353.1462216893
 30
0.0
 40
1.700000000000035
100
AcDbArc
 50
90.0
 51
270.0
  0
LINE
  5
13E
330
12D
100
AcDbEntity
  8
MOTHERBOARD-PLAT
  6
Continuous
 62
     7
100
AcDbLine
 10
352.0507727151
 20
351.4462216893
 30
0.0
 11
412.0507727151
 21
351.4462216893
 31
0.0
  0
ARC
  5
13F
330
12D
100
AcDbEntity
  8
MOTHERBOARD-PLAT
  6
Continuous
 62
     7
100
AcDbCircle
 10
412.0507727151
 20
353.1462216893
 30
0.0
 40
1.700000000000007
100
AcDbArc
 50
270.0
 51
90.0
  0
LINE
  5
140
330
12D
100
AcDbEntity
  8
MOTHERBOARD-PLAT
  6
Continuous
 62
     7
100
AcDbLine
 10
412.0507727151
 20
354.8462216893
 30
0.0
 11
352.0507727151
 21
354.8462216893
 31
0.0
  0
ARC
  5
141
330
12D
100
AcDbEntity
  8
MOTHERBOARD-PLAT
  6
Continuous
 62
     7
100
AcDbCircle
 10
332.0507727151
 20
253.1462216893
 30
0.0
 40
1.699999999999993
100
AcDbArc
 50
180.0
 51
360.0
  0
LINE
  5
142
330
12D
100
AcDbEntity
  8
MOTHERBOARD-PLAT
  6
Continuous
 62
     7
100
AcDbLine
 10
330.3507727151
 20
253.1462216893
 30
0.0
 11
330.3507727151
 21
333.1462216893
 31
0.0
  0
ARC
  5
143
330
12D
100
AcDbEntity
  8
MOTHERBOARD-PLAT
  6
Continuous
 62
     7
100
AcDbCircle
 10
332.0507727151
 20
333.1462216893
 30
0.0
 40
1.699999999999986
100
AcDbArc
 50
0.0
 51
180.0
  0
LINE
  5
144
330
12D
100
AcDbEntity
  8
MOTHERBOARD-PLAT
  6
Continuous
 62
     7
100
AcDbLine
 10
333.7507727151
 20
333.1462216893
 30
0.0
 11
333.7507727151
 21
253.1462216893
 31
0.0
  0
CIRCLE
  5
145
330
12D
100
AcDbEntity
  8
MOTHERBOARD-PLAT
  6
Continuous
 62
     7
100
AcDbCircle
 10
332.0507727151
 20
141.1462216893
 30
0.0
 40
1.7
  0
CIRCLE
  5
146
330
12D
100
AcDbEntity
  8
MOTHERBOARD-PLAT
  6
Continuous
 62
     7
100
AcDbCircle
 10
402.0507727151
 20
113.1462216893
 30
0.0
 40
1.65
  0
CIRCLE
  5
147
330
12D
100
AcDbEntity
  8
MOTHERBOARD-PLAT
  6
Continuous
 62
     7
100
AcDbCircle
 10
402.0507727151
 20
129.1462216893
 30
0.0
 40
1.65
  0
CIRCLE
  5
148
330
12D
100
AcDbEntity
  8
MOTHERBOARD-PLAT
  6
Continuous
 62
     7
100
AcDbCircle
 10
412.0507727151
 20
129.1462216893
 30
0.0
 40
1.65
  0
CIRCLE
  5
149
330
12D
100
AcDbEntity
  8
MOTHERBOARD-PLAT
  6
Continuous
 62
     7
100
AcDbCircle
 10
412.0507727151
 20
113.1462216893
 30
0.0
 40
1.65
  0
CIRCLE
  5
14A
330
12D
100
AcDbEntity
  8
MOTHERBOARD-PLAT
  6
Continuous
 62
     7
100
AcDbCircle
 10
367.0540611428
 20
113.1462216893
 30
0.0
 40
1.65
  0
CIRCLE
  5
14B
330
12D
100
AcDbEntity
  8
MOTHERBOARD-PLAT
  6
Continuous
 62
     7
100
AcDbCircle
 10
367.0540611428
 20
129.1462216893
 30
0.0
 40
1.65
  0
CIRCLE
  5
14C
330
12D
100
AcDbEntity
  8
MOTHERBOARD-PLAT
  6
Continuous
 62
     7
100
AcDbCircle
 10
377.0540611428
 20
129.1462216893
 30
0.0
 40
1.65
  0
CIRCLE
  5
14D
330
12D
100
AcDbEntity
  8
MOTHERBOARD-PLAT
  6
Continuous
 62
     7
100
AcDbCircle
 10
377.0540611428
 20
113.1462216893
 30
0.0
 40
1.65
  0
CIRCLE
  5
14E
330
12D
100
AcDbEntity
  8
MOTHERBOARD-PLAT
  6
Continuous
 62
     7
100
AcDbCircle
 10
342.0507727151
 20
113.1462216893
 30
0.0
 40
1.65
  0
CIRCLE
  5
14F
330
12D
100
AcDbEntity
  8
MOTHERBOARD-PLAT
  6
Continuous
 62
     7
100
AcDbCircle
 10
342.0507727151
 20
129.1462216893
 30
0.0
 40
1.65
  0
CIRCLE
  5
150
330
12D
100
AcDbEntity
  8
MOTHERBOARD-PLAT
  6
Continuous
 62
     7
100
AcDbCircle
 10
332.0507727151
 20
129.1462216893
 30
0.0
 40
1.65
  0
CIRCLE
  5
151
330
12D
100
AcDbEntity
  8
MOTHERBOARD-PLAT
  6
Continuous
 62
     7
100
AcDbCircle
 10
332.0507727151
 20
113.1462216893
 30
0.0
 40
1.65
  0
ARC
  5
152
330
12D
100
AcDbEntity
  8
MOTHERBOARD-PLAT
  6
Continuous
 62
     7
100
AcDbCircle
 10
342.0507727151
 20
362.1462216893
 30
0.0
 40
1.649999999999999
100
AcDbArc
 50
180.0
 51
360.0
  0
LINE
  5
153
330
12D
100
AcDbEntity
  8
MOTHERBOARD-PLAT
  6
Continuous
 62
     7
100
AcDbLine
 10
340.4007727151
 20
362.1462216893
 30
0.0
 11
340.4007727151
 21
388.1462216893
 31
0.0
  0
ARC
  5
154
330
12D
100
AcDbEntity
  8
MOTHERBOARD-PLAT
  6
Continuous
 62
     7
100
AcDbCircle
 10
342.0507727151
 20
388.1462216893
 30
0.0
 40
1.649999999999999
100
AcDbArc
 50
0.0
 51
180.0
  0
LINE
  5
155
330
12D
100
AcDbEntity
  8
MOTHERBOARD-PLAT
  6
Continuous
 62
     7
100
AcDbLine
 10
343.7007727151
 20
388.1462216893
 30
0.0
 11
343.7007727151
 21
362.1462216893
 31
0.0
  0
ARC
  5
156
330
12D
100
AcDbEntity
  8
MOTHERBOARD-PLAT
  6
Continuous
 62
     7
100
AcDbCircle
 10
367.0474842874
 20
362.1462216893
 30
0.0
 40
1.649999999999999
100
AcDbArc
 50
180.0
 51
360.0
  0
LINE
  5
157
330
12D
100
AcDbEntity
  8
MOTHERBOARD-PLAT
  6
Continuous
 62
     7
100
AcDbLine
 10
365.3974842874
 20
362.1462216893
 30
0.0
 11
365.3974842874
 21
388.1462216893
 31
0.0
  0
ARC
  5
158
330
12D
100
AcDbEntity
  8
MOTHERBOARD-PLAT
  6
Continuous
 62
     7
100
AcDbCircle
 10
367.0474842874
 20
388.1462216893
 30
0.0
 40
1.649999999999999
100
AcDbArc
 50
0.0
 51
180.0
  0
LINE
  5
159
330
12D
100
AcDbEntity
  8
MOTHERBOARD-PLAT
  6
Continuous
 62
     7
100
AcDbLine
 10
368.6974842874
 20
388.1462216893
 30
0.0
 11
368.6974842874
 21
362.1462216893
 31
0.0
  0
ARC
  5
15A
330
12D
100
AcDbEntity
  8
MOTHERBOARD-PLAT
  6
Continuous
 62
     7
100
AcDbCircle
 10
332.0507727151
 20
362.1462216893
 30
0.0
 40
1.649999999999999
100
AcDbArc
 50
180.0
 51
360.0
  0
LINE
  5
15B
330
12D
100
AcDbEntity
  8
MOTHERBOARD-PLAT
  6
Continuous
 62
     7
100
AcDbLine
 10
330.4007727151
 20
362.1462216893
 30
0.0
 11
330.4007727151
 21
388.1462216893
 31
0.0
  0
ARC
  5
15C
330
12D
100
AcDbEntity
  8
MOTHERBOARD-PLAT
  6
Continuous
 62
     7
100
AcDbCircle
 10
332.0507727151
 20
388.1462216893
 30
0.0
 40
1.649999999999999
100
AcDbArc
 50
0.0
 51
180.0
  0
LINE
  5
15D
330
12D
100
AcDbEntity
  8
MOTHERBOARD-PLAT
  6
Continuous
 62
     7
100
AcDbLine
 10
333.7007727151
 20
388.1462216893
 30
0.0
 11
333.7007727151
 21
362.1462216893
 31
0.0
  0
ARC
  5
15E
330
12D
100
AcDbEntity
  8
MOTHERBOARD-PLAT
  6
Continuous
 62
     7
100
AcDbCircle
 10
377.0474842874
 20
362.1462216893
 30
0.0
 40
1.649999999999999
100
AcDbArc
 50
180.0
 51
360.0
  0
LINE
  5
15F
330
12D
100
AcDbEntity
  8
MOTHERBOARD-PLAT
  6
Continuous
 62
     7
100
AcDbLine
 10
375.3974842874
 20
362.1462216893
 30
0.0
 11
375.3974842874
 21
388.1462216893
 31
0.0
  0
ARC
  5
160
330
12D
100
AcDbEntity
  8
MOTHERBOARD-PLAT
  6
Continuous
 62
     7
100
AcDbCircle
 10
377.0474842874
 20
388.1462216893
 30
0.0
 40
1.649999999999999
100
AcDbArc
 50
0.0
 51
180.0
  0
LINE
  5
161
330
12D
100
AcDbEntity
  8
MOTHERBOARD-PLAT
  6
Continuous
 62
     7
100
AcDbLine
 10
378.6974842874
 20
388.1462216893
 30
0.0
 11
378.6974842874
 21
362.1462216893
 31
0.0
  0
ARC
  5
162
330
12D
100
AcDbEntity
  8
MOTHERBOARD-PLAT
  6
Continuous
 62
     7
100
AcDbCircle
 10
412.0507727151
 20
362.1462216893
 30
0.0
 40
1.649999999999985
100
AcDbArc
 50
180.0
 51
360.0
  0
LINE
  5
163
330
12D
100
AcDbEntity
  8
MOTHERBOARD-PLAT
  6
Continuous
 62
     7
100
AcDbLine
 10
413.7007727151
 20
362.1462216893
 30
0.0
 11
413.7007727151
 21
388.1462216893
 31
0.0
  0
ARC
  5
164
330
12D
100
AcDbEntity
  8
MOTHERBOARD-PLAT
  6
Continuous
 62
     7
100
AcDbCircle
 10
412.0507727151
 20
388.1462216893
 30
0.0
 40
1.650000000000013
100
AcDbArc
 50
0.0
 51
180.0
  0
LINE
  5
165
330
12D
100
AcDbEntity
  8
MOTHERBOARD-PLAT
  6
Continuous
 62
     7
100
AcDbLine
 10
410.4007727151
 20
388.1462216893
 30
0.0
 11
410.4007727151
 21
362.1462216893
 31
0.0
  0
ARC
  5
166
330
12D
100
AcDbEntity
  8
MOTHERBOARD-PLAT
  6
Continuous
 62
     7
100
AcDbCircle
 10
402.0507727151
 20
362.1462216893
 30
0.0
 40
1.649999999999985
100
AcDbArc
 50
180.0
 51
360.0
  0
LINE
  5
167
330
12D
100
AcDbEntity
  8
MOTHERBOARD-PLAT
  6
Continuous
 62
     7
100
AcDbLine
 10
403.7007727151
 20
362.1462216893
 30
0.0
 11
403.7007727151
 21
388.1462216893
 31
0.0
  0
ARC
  5
168
330
12D
100
AcDbEntity
  8
MOTHERBOARD-PLAT
  6
Continuous
 62
     7
100
AcDbCircle
 10
402.0507727151
 20
388.1462216893
 30
0.0
 40
1.650000000000013
100
AcDbArc
 50
0.0
 51
180.0
  0
LINE
  5
169
330
12D
100
AcDbEntity
  8
MOTHERBOARD-PLAT
  6
Continuous
 62
     7
100
AcDbLine
 10
400.4007727151
 20
388.1462216893
 30
0.0
 11
400.4007727151
 21
362.1462216893
 31
0.0
  0
ENDBLK
  5
16B
330
12D
100
AcDbEntity
  8
0
100
AcDbBlockEnd
  0
ENDSEC
  0
SECTION
  2
ENTITIES
  0
INSERT
  5
2C
330
1F
100
AcDbEntity
  8
Default
100
AcDbBlockReference
  2
SE
 10
0.0
 20
0.0
 30
0.0
  0
INSERT
  5
3D
330
1F
100
AcDbEntity
  8
Default
100
AcDbBlockReference
  2
SE1
 10
0.0
 20
0.0
 30
0.0
  0
INSERT
  5
4A
330
1F
100
AcDbEntity
  8
Default
100
AcDbBlockReference
  2
SE2
 10
0.0
 20
0.0
 30
0.0
  0
INSERT
  5
AB
330
1F
100
AcDbEntity
  8
Default
100
AcDbBlockReference
  2
SE3
 10
0.0
 20
0.0
 30
0.0
  0
INSERT
  5
12E
330
1F
100
AcDbEntity
  8
Default
100
AcDbBlockReference
  2
SE4
 10
0.0
 20
0.0
 30
0.0
  0
ENDSEC
  0
SECTION
  2
OBJECTS
  0
DICTIONARY
  5
C
330
0
100
AcDbDictionary
281
     1
  3
ACAD_GROUP
350
D
  3
ACAD_LAYOUT
350
1A
  3
ACAD_MLINESTYLE
350
17
  3
ACAD_PLOTSETTINGS
350
19
  3
ACAD_PLOTSTYLENAME
350
E
  0
DICTIONARY
  5
D
102
{ACAD_REACTORS
330
C
102
}
330
C
100
AcDbDictionary
281
     1
  0
DICTIONARY
  5
1A
102
{ACAD_REACTORS
330
C
102
}
330
C
100
AcDbDictionary
281
     1
  3
Layout1
350
1E
  3
Model
350
22
  0
DICTIONARY
  5
17
102
{ACAD_REACTORS
330
C
102
}
330
C
100
AcDbDictionary
281
     1
  3
Standard
350
18
  0
DICTIONARY
  5
19
102
{ACAD_REACTORS
330
C
102
}
330
C
100
AcDbDictionary
281
     1
  0
ACDBDICTIONARYWDFLT
  5
E
102
{ACAD_REACTORS
330
C
102
}
330
C
100
AcDbDictionary
281
     1
  3
Normal
350
F
100
AcDbDictionaryWithDefault
340
F
  0
LAYOUT
  5
1E
102
{ACAD_REACTORS
330
1A
102
}
330
1A
100
AcDbPlotSettings
  1

  2
none_device
  4

  6

 40
0.0
 41
0.0
 42
0.0
 43
0.0
 44
0.0
 45
0.0
 46
0.0
 47
0.0
 48
0.0
 49
0.0
140
0.0
141
0.0
142
1.0
143
1.0
 70
   688
 72
     0
 73
     0
 74
     5
  7

 75
    16
147
1.0
148
0.0
149
0.0
100
AcDbLayout
  1
Layout1
 70
     1
 71
     1
 10
0.0
 20
0.0
 11
600.0
 21
400.0
 12
0.0
 22
0.0
 32
0.0
 14
0.0
 24
0.0
 34
0.0
 15
600.0
 25
400.0
 35
0.0
146
0.0
 13
0.0
 23
0.0
 33
0.0
 16
1.0
 26
0.0
 36
0.0
 17
0.0
 27
1.0
 37
0.0
 76
     0
330
1B
  0
LAYOUT
  5
22
102
{ACAD_REACTORS
330
1A
102
}
330
1A
100
AcDbPlotSettings
  1

  2
none_device
  4

  6

 40
0.0
 41
0.0
 42
0.0
 43
0.0
 44
0.0
 45
0.0
 46
0.0
 47
0.0
 48
0.0
 49
0.0
140
0.0
141
0.0
142
1.0
143
1.0
 70
  1712
 72
     0
 73
     0
 74
     0
  7

 75
     0
147
1.0
148
0.0
149
0.0
100
AcDbLayout
  1
Model
 70
     1
 71
     0
 10
0.0
 20
0.0
 11
600.0
 21
400.0
 12
0.0
 22
0.0
 32
0.0
 14
0.0
 24
0.0
 34
0.0
 15
600.0
 25
400.0
 35
0.0
146
0.0
 13
0.0
 23
0.0
 33
0.0
 16
1.0
 26
0.0
 36
0.0
 17
0.0
 27
1.0
 37
0.0
 76
     0
330
1F
  0
MLINESTYLE
  5
18
102
{ACAD_REACTORS
330
17
102
}
330
17
100
AcDbMlineStyle
  2
Standard
 70
     0
  3

 62
   256
 51
90.0
 52
90.0
 71
     2
 49
0.5
 62
   256
  6
BYLAYER
 49
-0.5
 62
   256
  6
BYLAYER
  0
ACDBPLACEHOLDER
  5
F
102
{ACAD_REACTORS
330
E
102
}
330
E
  0
ENDSEC
  0
EOF
